G04 #@! TF.GenerationSoftware,KiCad,Pcbnew,(6.0.4)*
G04 #@! TF.CreationDate,2023-05-30T12:53:04+02:00*
G04 #@! TF.ProjectId,MicroPicoDrive,4d696372-6f50-4696-936f-44726976652e,rev?*
G04 #@! TF.SameCoordinates,Original*
G04 #@! TF.FileFunction,Soldermask,Top*
G04 #@! TF.FilePolarity,Negative*
%FSLAX46Y46*%
G04 Gerber Fmt 4.6, Leading zero omitted, Abs format (unit mm)*
G04 Created by KiCad (PCBNEW (6.0.4)) date 2023-05-30 12:53:04*
%MOMM*%
%LPD*%
G01*
G04 APERTURE LIST*
G04 Aperture macros list*
%AMRoundRect*
0 Rectangle with rounded corners*
0 $1 Rounding radius*
0 $2 $3 $4 $5 $6 $7 $8 $9 X,Y pos of 4 corners*
0 Add a 4 corners polygon primitive as box body*
4,1,4,$2,$3,$4,$5,$6,$7,$8,$9,$2,$3,0*
0 Add four circle primitives for the rounded corners*
1,1,$1+$1,$2,$3*
1,1,$1+$1,$4,$5*
1,1,$1+$1,$6,$7*
1,1,$1+$1,$8,$9*
0 Add four rect primitives between the rounded corners*
20,1,$1+$1,$2,$3,$4,$5,0*
20,1,$1+$1,$4,$5,$6,$7,0*
20,1,$1+$1,$6,$7,$8,$9,0*
20,1,$1+$1,$8,$9,$2,$3,0*%
G04 Aperture macros list end*
%ADD10RoundRect,0.225000X0.225000X0.250000X-0.225000X0.250000X-0.225000X-0.250000X0.225000X-0.250000X0*%
%ADD11C,3.500000*%
%ADD12RoundRect,0.225000X-0.225000X-0.250000X0.225000X-0.250000X0.225000X0.250000X-0.225000X0.250000X0*%
%ADD13R,1.200000X0.600000*%
%ADD14R,0.900000X1.200000*%
%ADD15O,1.500000X1.500000*%
%ADD16O,1.800000X1.800000*%
%ADD17O,1.700000X1.700000*%
%ADD18R,1.700000X3.500000*%
%ADD19R,1.700000X1.700000*%
%ADD20R,3.500000X1.700000*%
%ADD21R,2.000000X1.905000*%
%ADD22O,2.000000X1.905000*%
%ADD23R,1.475000X0.450000*%
%ADD24RoundRect,0.200000X0.200000X0.275000X-0.200000X0.275000X-0.200000X-0.275000X0.200000X-0.275000X0*%
G04 APERTURE END LIST*
D10*
X133025000Y-78950000D03*
X131475000Y-78950000D03*
D11*
X126315000Y-125700000D03*
D12*
X139175000Y-74400000D03*
X140725000Y-74400000D03*
D13*
X134825000Y-74425000D03*
X134825000Y-75375000D03*
X134825000Y-76325000D03*
X137325000Y-76325000D03*
X137325000Y-75375000D03*
X137325000Y-74425000D03*
D10*
X133000000Y-74475000D03*
X131450000Y-74475000D03*
D14*
X134165000Y-109125000D03*
X137465000Y-109125000D03*
D12*
X139175000Y-78950000D03*
X140725000Y-78950000D03*
D15*
X119795000Y-96600000D03*
X119795000Y-91750000D03*
D16*
X116765000Y-96900000D03*
X116765000Y-91450000D03*
D17*
X116635000Y-103065000D03*
D18*
X116635000Y-103965000D03*
D17*
X119175000Y-103065000D03*
D18*
X119175000Y-103965000D03*
D19*
X121715000Y-103065000D03*
D18*
X121715000Y-103965000D03*
D17*
X124255000Y-103065000D03*
D18*
X124255000Y-103965000D03*
D17*
X126795000Y-103065000D03*
D18*
X126795000Y-103965000D03*
D17*
X129335000Y-103065000D03*
D18*
X129335000Y-103965000D03*
D17*
X131875000Y-103065000D03*
D18*
X131875000Y-103965000D03*
D19*
X134415000Y-103065000D03*
D18*
X134415000Y-103965000D03*
D17*
X136955000Y-103065000D03*
D18*
X136955000Y-103965000D03*
D17*
X139495000Y-103065000D03*
D18*
X139495000Y-103965000D03*
D17*
X142035000Y-103065000D03*
D18*
X142035000Y-103965000D03*
X144575000Y-103965000D03*
D17*
X144575000Y-103065000D03*
D19*
X147115000Y-103065000D03*
D18*
X147115000Y-103965000D03*
D17*
X149655000Y-103065000D03*
D18*
X149655000Y-103965000D03*
X152195000Y-103965000D03*
D17*
X152195000Y-103065000D03*
D18*
X154735000Y-103965000D03*
D17*
X154735000Y-103065000D03*
X157275000Y-103065000D03*
D18*
X157275000Y-103965000D03*
D19*
X159815000Y-103065000D03*
D18*
X159815000Y-103965000D03*
X162355000Y-103965000D03*
D17*
X162355000Y-103065000D03*
D18*
X164895000Y-103965000D03*
D17*
X164895000Y-103065000D03*
X164895000Y-85285000D03*
D18*
X164895000Y-84385000D03*
X162355000Y-84385000D03*
D17*
X162355000Y-85285000D03*
D19*
X159815000Y-85285000D03*
D18*
X159815000Y-84385000D03*
D17*
X157275000Y-85285000D03*
D18*
X157275000Y-84385000D03*
D17*
X154735000Y-85285000D03*
D18*
X154735000Y-84385000D03*
D17*
X152195000Y-85285000D03*
D18*
X152195000Y-84385000D03*
D17*
X149655000Y-85285000D03*
D18*
X149655000Y-84385000D03*
D19*
X147115000Y-85285000D03*
D18*
X147115000Y-84385000D03*
D17*
X144575000Y-85285000D03*
D18*
X144575000Y-84385000D03*
D17*
X142035000Y-85285000D03*
D18*
X142035000Y-84385000D03*
X139495000Y-84385000D03*
D17*
X139495000Y-85285000D03*
X136955000Y-85285000D03*
D18*
X136955000Y-84385000D03*
D19*
X134415000Y-85285000D03*
D18*
X134415000Y-84385000D03*
X131875000Y-84385000D03*
D17*
X131875000Y-85285000D03*
D18*
X129335000Y-84385000D03*
D17*
X129335000Y-85285000D03*
D18*
X126795000Y-84385000D03*
D17*
X126795000Y-85285000D03*
X124255000Y-85285000D03*
D18*
X124255000Y-84385000D03*
X121715000Y-84385000D03*
D19*
X121715000Y-85285000D03*
D18*
X119175000Y-84385000D03*
D17*
X119175000Y-85285000D03*
X116635000Y-85285000D03*
D18*
X116635000Y-84385000D03*
D17*
X164665000Y-96715000D03*
D20*
X165565000Y-96715000D03*
D19*
X164665000Y-94175000D03*
D20*
X165565000Y-94175000D03*
D17*
X164665000Y-91635000D03*
D20*
X165565000Y-91635000D03*
D13*
X134825000Y-78950000D03*
X134825000Y-79900000D03*
X134825000Y-80850000D03*
X137325000Y-80850000D03*
X137325000Y-79900000D03*
X137325000Y-78950000D03*
D19*
X146850000Y-78625000D03*
D17*
X146850000Y-76085000D03*
X149390000Y-78625000D03*
X149390000Y-76085000D03*
X151930000Y-78625000D03*
X151930000Y-76085000D03*
X154470000Y-78625000D03*
X154470000Y-76085000D03*
X157010000Y-78625000D03*
X157010000Y-76085000D03*
X159550000Y-78625000D03*
X159550000Y-76085000D03*
X162090000Y-78625000D03*
X162090000Y-76085000D03*
D12*
X128200000Y-78975000D03*
X129750000Y-78975000D03*
D21*
X173495000Y-77660000D03*
D22*
X173495000Y-80200000D03*
X173495000Y-82740000D03*
D10*
X118460000Y-78950000D03*
X116910000Y-78950000D03*
D19*
X145875000Y-110375000D03*
D17*
X145875000Y-115455000D03*
X148415000Y-110375000D03*
X148415000Y-115455000D03*
X150955000Y-110375000D03*
X150955000Y-115455000D03*
X153495000Y-110375000D03*
X153495000Y-115455000D03*
X156035000Y-110375000D03*
X156035000Y-115455000D03*
X158575000Y-110375000D03*
X158575000Y-115455000D03*
X161115000Y-110375000D03*
X161115000Y-115455000D03*
X163655000Y-110375000D03*
X163655000Y-115455000D03*
D23*
X126263000Y-78950000D03*
X126263000Y-78300000D03*
X126263000Y-77650000D03*
X126263000Y-77000000D03*
X126263000Y-76350000D03*
X126263000Y-75700000D03*
X126263000Y-75050000D03*
X120387000Y-75050000D03*
X120387000Y-75700000D03*
X120387000Y-76350000D03*
X120387000Y-77000000D03*
X120387000Y-77650000D03*
X120387000Y-78300000D03*
X120387000Y-78950000D03*
D11*
X172815000Y-92450000D03*
D24*
X118485000Y-75025000D03*
X116835000Y-75025000D03*
M02*
