M48
; DRILL file {KiCad (6.0.4)} date Tue May 30 12:53:19 2023
; FORMAT={-:-/ absolute / metric / decimal}
; #@! TF.CreationDate,2023-05-30T12:53:19+02:00
; #@! TF.GenerationSoftware,Kicad,Pcbnew,(6.0.4)
; #@! TF.FileFunction,Plated,1,2,PTH
FMAT,2
METRIC
; #@! TA.AperFunction,Plated,PTH,ViaDrill
T1C0.200
; #@! TA.AperFunction,Plated,PTH,ComponentDrill
T2C1.000
; #@! TA.AperFunction,Plated,PTH,ComponentDrill
T3C1.020
; #@! TA.AperFunction,Plated,PTH,ComponentDrill
T4C1.100
%
G90
G05
T1
X123.1Y-73.45
X125.1Y-78.9
X128.328Y-77.834
X129.804Y-76.303
X131.779Y-77.0
X134.865Y-77.132
X137.762Y-78.059
X138.43Y-80.85
X138.85Y-77.975
X139.675Y-91.65
X142.142Y-81.035
X146.477Y-92.518
X152.05Y-94.575
X155.1Y-95.2
T2
X145.875Y-110.375
X145.875Y-115.455
X146.85Y-76.085
X146.85Y-78.625
X148.415Y-110.375
X148.415Y-115.455
X149.39Y-76.085
X149.39Y-78.625
X150.955Y-110.375
X150.955Y-115.455
X151.93Y-76.085
X151.93Y-78.625
X153.495Y-110.375
X153.495Y-115.455
X154.47Y-76.085
X154.47Y-78.625
X156.035Y-110.375
X156.035Y-115.455
X157.01Y-76.085
X157.01Y-78.625
X158.575Y-110.375
X158.575Y-115.455
X159.55Y-76.085
X159.55Y-78.625
X161.115Y-110.375
X161.115Y-115.455
X162.09Y-76.085
X162.09Y-78.625
X163.655Y-110.375
X163.655Y-115.455
T3
X116.635Y-85.285
X116.635Y-103.065
X119.175Y-85.285
X119.175Y-103.065
X121.715Y-85.285
X121.715Y-103.065
X124.255Y-85.285
X124.255Y-103.065
X126.795Y-85.285
X126.795Y-103.065
X129.335Y-85.285
X129.335Y-103.065
X131.875Y-85.285
X131.875Y-103.065
X134.415Y-85.285
X134.415Y-103.065
X136.955Y-85.285
X136.955Y-103.065
X139.495Y-85.285
X139.495Y-103.065
X142.035Y-85.285
X142.035Y-103.065
X144.575Y-85.285
X144.575Y-103.065
X147.115Y-85.285
X147.115Y-103.065
X149.655Y-85.285
X149.655Y-103.065
X152.195Y-85.285
X152.195Y-103.065
X154.735Y-85.285
X154.735Y-103.065
X157.275Y-85.285
X157.275Y-103.065
X159.815Y-85.285
X159.815Y-103.065
X162.355Y-85.285
X162.355Y-103.065
X164.665Y-91.635
X164.665Y-94.175
X164.665Y-96.715
X164.895Y-85.285
X164.895Y-103.065
T4
X173.495Y-77.66
X173.495Y-80.2
X173.495Y-82.74
T0
M30
