G04 #@! TF.GenerationSoftware,KiCad,Pcbnew,(6.0.4)*
G04 #@! TF.CreationDate,2023-05-30T12:53:04+02:00*
G04 #@! TF.ProjectId,MicroPicoDrive,4d696372-6f50-4696-936f-44726976652e,rev?*
G04 #@! TF.SameCoordinates,Original*
G04 #@! TF.FileFunction,Copper,L1,Top*
G04 #@! TF.FilePolarity,Positive*
%FSLAX46Y46*%
G04 Gerber Fmt 4.6, Leading zero omitted, Abs format (unit mm)*
G04 Created by KiCad (PCBNEW (6.0.4)) date 2023-05-30 12:53:04*
%MOMM*%
%LPD*%
G01*
G04 APERTURE LIST*
G04 Aperture macros list*
%AMRoundRect*
0 Rectangle with rounded corners*
0 $1 Rounding radius*
0 $2 $3 $4 $5 $6 $7 $8 $9 X,Y pos of 4 corners*
0 Add a 4 corners polygon primitive as box body*
4,1,4,$2,$3,$4,$5,$6,$7,$8,$9,$2,$3,0*
0 Add four circle primitives for the rounded corners*
1,1,$1+$1,$2,$3*
1,1,$1+$1,$4,$5*
1,1,$1+$1,$6,$7*
1,1,$1+$1,$8,$9*
0 Add four rect primitives between the rounded corners*
20,1,$1+$1,$2,$3,$4,$5,0*
20,1,$1+$1,$4,$5,$6,$7,0*
20,1,$1+$1,$6,$7,$8,$9,0*
20,1,$1+$1,$8,$9,$2,$3,0*%
G04 Aperture macros list end*
G04 #@! TA.AperFunction,SMDPad,CuDef*
%ADD10RoundRect,0.225000X0.225000X0.250000X-0.225000X0.250000X-0.225000X-0.250000X0.225000X-0.250000X0*%
G04 #@! TD*
G04 #@! TA.AperFunction,SMDPad,CuDef*
%ADD11RoundRect,0.225000X-0.225000X-0.250000X0.225000X-0.250000X0.225000X0.250000X-0.225000X0.250000X0*%
G04 #@! TD*
G04 #@! TA.AperFunction,SMDPad,CuDef*
%ADD12R,1.200000X0.600000*%
G04 #@! TD*
G04 #@! TA.AperFunction,SMDPad,CuDef*
%ADD13R,0.900000X1.200000*%
G04 #@! TD*
G04 #@! TA.AperFunction,ComponentPad*
%ADD14O,1.700000X1.700000*%
G04 #@! TD*
G04 #@! TA.AperFunction,SMDPad,CuDef*
%ADD15R,1.700000X3.500000*%
G04 #@! TD*
G04 #@! TA.AperFunction,ComponentPad*
%ADD16R,1.700000X1.700000*%
G04 #@! TD*
G04 #@! TA.AperFunction,SMDPad,CuDef*
%ADD17R,3.500000X1.700000*%
G04 #@! TD*
G04 #@! TA.AperFunction,ComponentPad*
%ADD18R,2.000000X1.905000*%
G04 #@! TD*
G04 #@! TA.AperFunction,ComponentPad*
%ADD19O,2.000000X1.905000*%
G04 #@! TD*
G04 #@! TA.AperFunction,SMDPad,CuDef*
%ADD20R,1.475000X0.450000*%
G04 #@! TD*
G04 #@! TA.AperFunction,SMDPad,CuDef*
%ADD21RoundRect,0.200000X0.200000X0.275000X-0.200000X0.275000X-0.200000X-0.275000X0.200000X-0.275000X0*%
G04 #@! TD*
G04 #@! TA.AperFunction,ViaPad*
%ADD22C,0.500000*%
G04 #@! TD*
G04 #@! TA.AperFunction,Conductor*
%ADD23C,0.300000*%
G04 #@! TD*
G04 #@! TA.AperFunction,Conductor*
%ADD24C,0.400000*%
G04 #@! TD*
G04 #@! TA.AperFunction,Conductor*
%ADD25C,0.500000*%
G04 #@! TD*
G04 APERTURE END LIST*
D10*
X133025000Y-78950000D03*
X131475000Y-78950000D03*
D11*
X139175000Y-74400000D03*
X140725000Y-74400000D03*
D12*
X134825000Y-74425000D03*
X134825000Y-75375000D03*
X134825000Y-76325000D03*
X137325000Y-76325000D03*
X137325000Y-75375000D03*
X137325000Y-74425000D03*
D10*
X133000000Y-74475000D03*
X131450000Y-74475000D03*
D13*
X134165000Y-109125000D03*
X137465000Y-109125000D03*
D11*
X139175000Y-78950000D03*
X140725000Y-78950000D03*
D14*
X116635000Y-103065000D03*
D15*
X116635000Y-103965000D03*
D14*
X119175000Y-103065000D03*
D15*
X119175000Y-103965000D03*
D16*
X121715000Y-103065000D03*
D15*
X121715000Y-103965000D03*
D14*
X124255000Y-103065000D03*
D15*
X124255000Y-103965000D03*
D14*
X126795000Y-103065000D03*
D15*
X126795000Y-103965000D03*
D14*
X129335000Y-103065000D03*
D15*
X129335000Y-103965000D03*
D14*
X131875000Y-103065000D03*
D15*
X131875000Y-103965000D03*
D16*
X134415000Y-103065000D03*
D15*
X134415000Y-103965000D03*
D14*
X136955000Y-103065000D03*
D15*
X136955000Y-103965000D03*
D14*
X139495000Y-103065000D03*
D15*
X139495000Y-103965000D03*
D14*
X142035000Y-103065000D03*
D15*
X142035000Y-103965000D03*
X144575000Y-103965000D03*
D14*
X144575000Y-103065000D03*
D16*
X147115000Y-103065000D03*
D15*
X147115000Y-103965000D03*
D14*
X149655000Y-103065000D03*
D15*
X149655000Y-103965000D03*
X152195000Y-103965000D03*
D14*
X152195000Y-103065000D03*
D15*
X154735000Y-103965000D03*
D14*
X154735000Y-103065000D03*
X157275000Y-103065000D03*
D15*
X157275000Y-103965000D03*
D16*
X159815000Y-103065000D03*
D15*
X159815000Y-103965000D03*
X162355000Y-103965000D03*
D14*
X162355000Y-103065000D03*
D15*
X164895000Y-103965000D03*
D14*
X164895000Y-103065000D03*
X164895000Y-85285000D03*
D15*
X164895000Y-84385000D03*
X162355000Y-84385000D03*
D14*
X162355000Y-85285000D03*
D16*
X159815000Y-85285000D03*
D15*
X159815000Y-84385000D03*
D14*
X157275000Y-85285000D03*
D15*
X157275000Y-84385000D03*
D14*
X154735000Y-85285000D03*
D15*
X154735000Y-84385000D03*
D14*
X152195000Y-85285000D03*
D15*
X152195000Y-84385000D03*
D14*
X149655000Y-85285000D03*
D15*
X149655000Y-84385000D03*
D16*
X147115000Y-85285000D03*
D15*
X147115000Y-84385000D03*
D14*
X144575000Y-85285000D03*
D15*
X144575000Y-84385000D03*
D14*
X142035000Y-85285000D03*
D15*
X142035000Y-84385000D03*
X139495000Y-84385000D03*
D14*
X139495000Y-85285000D03*
X136955000Y-85285000D03*
D15*
X136955000Y-84385000D03*
D16*
X134415000Y-85285000D03*
D15*
X134415000Y-84385000D03*
X131875000Y-84385000D03*
D14*
X131875000Y-85285000D03*
D15*
X129335000Y-84385000D03*
D14*
X129335000Y-85285000D03*
D15*
X126795000Y-84385000D03*
D14*
X126795000Y-85285000D03*
X124255000Y-85285000D03*
D15*
X124255000Y-84385000D03*
X121715000Y-84385000D03*
D16*
X121715000Y-85285000D03*
D15*
X119175000Y-84385000D03*
D14*
X119175000Y-85285000D03*
X116635000Y-85285000D03*
D15*
X116635000Y-84385000D03*
D14*
X164665000Y-96715000D03*
D17*
X165565000Y-96715000D03*
D16*
X164665000Y-94175000D03*
D17*
X165565000Y-94175000D03*
D14*
X164665000Y-91635000D03*
D17*
X165565000Y-91635000D03*
D12*
X134825000Y-78950000D03*
X134825000Y-79900000D03*
X134825000Y-80850000D03*
X137325000Y-80850000D03*
X137325000Y-79900000D03*
X137325000Y-78950000D03*
D16*
X146850000Y-78625000D03*
D14*
X146850000Y-76085000D03*
X149390000Y-78625000D03*
X149390000Y-76085000D03*
X151930000Y-78625000D03*
X151930000Y-76085000D03*
X154470000Y-78625000D03*
X154470000Y-76085000D03*
X157010000Y-78625000D03*
X157010000Y-76085000D03*
X159550000Y-78625000D03*
X159550000Y-76085000D03*
X162090000Y-78625000D03*
X162090000Y-76085000D03*
D11*
X128200000Y-78975000D03*
X129750000Y-78975000D03*
D18*
X173495000Y-77660000D03*
D19*
X173495000Y-80200000D03*
X173495000Y-82740000D03*
D10*
X118460000Y-78950000D03*
X116910000Y-78950000D03*
D16*
X145875000Y-110375000D03*
D14*
X145875000Y-115455000D03*
X148415000Y-110375000D03*
X148415000Y-115455000D03*
X150955000Y-110375000D03*
X150955000Y-115455000D03*
X153495000Y-110375000D03*
X153495000Y-115455000D03*
X156035000Y-110375000D03*
X156035000Y-115455000D03*
X158575000Y-110375000D03*
X158575000Y-115455000D03*
X161115000Y-110375000D03*
X161115000Y-115455000D03*
X163655000Y-110375000D03*
X163655000Y-115455000D03*
D20*
X126263000Y-78950000D03*
X126263000Y-78300000D03*
X126263000Y-77650000D03*
X126263000Y-77000000D03*
X126263000Y-76350000D03*
X126263000Y-75700000D03*
X126263000Y-75050000D03*
X120387000Y-75050000D03*
X120387000Y-75700000D03*
X120387000Y-76350000D03*
X120387000Y-77000000D03*
X120387000Y-77650000D03*
X120387000Y-78300000D03*
X120387000Y-78950000D03*
D21*
X118485000Y-75025000D03*
X116835000Y-75025000D03*
D22*
X125100000Y-78900000D03*
X123100000Y-73450000D03*
X139675000Y-91650000D03*
X155100000Y-95200000D03*
X152050000Y-94575000D03*
X138850000Y-77975000D03*
X146477400Y-92518000D03*
X142142400Y-81035500D03*
X138430300Y-80850000D03*
X134864600Y-77132400D03*
X137761900Y-78059500D03*
X128328000Y-77833600D03*
X131779300Y-77000000D03*
X129804000Y-76303500D03*
D23*
X126263000Y-78950000D02*
X125150000Y-78950000D01*
X126263000Y-78950000D02*
X128175000Y-78950000D01*
X128187500Y-78962500D02*
X128200000Y-78975000D01*
X117728700Y-74131300D02*
X116835000Y-75025000D01*
X132122200Y-78047200D02*
X133025000Y-78950000D01*
X133000000Y-74475000D02*
X133549000Y-74475000D01*
X133549000Y-74475000D02*
X133025000Y-74475000D01*
X124336500Y-78165100D02*
X124336500Y-77459300D01*
X129102800Y-78047200D02*
X132122200Y-78047200D01*
X125121400Y-78950000D02*
X124336500Y-78165100D01*
X128187500Y-78962500D02*
X129102800Y-78047200D01*
X126263000Y-78950000D02*
X125121400Y-78950000D01*
X133025000Y-74475000D02*
X133025000Y-78950000D01*
X134775000Y-74475000D02*
X134825000Y-74425000D01*
X124336500Y-77459300D02*
X121008500Y-74131300D01*
X133549000Y-74475000D02*
X134775000Y-74475000D01*
X133025000Y-78950000D02*
X134825000Y-78950000D01*
X125150000Y-78950000D02*
X125100000Y-78900000D01*
X128175000Y-78950000D02*
X128187500Y-78962500D01*
X121008500Y-74131300D02*
X117728700Y-74131300D01*
X136125000Y-74750000D02*
X135500000Y-75375000D01*
X159815000Y-85285000D02*
X159815000Y-82230900D01*
X162090000Y-76664100D02*
X160820000Y-77934100D01*
X138240800Y-86346700D02*
X138240800Y-82497500D01*
X143717300Y-78950000D02*
X147115000Y-82347700D01*
X147131500Y-101794400D02*
X147131500Y-86555600D01*
X129750000Y-78975000D02*
X131450000Y-78975000D01*
X136125000Y-73500000D02*
X136125000Y-74750000D01*
X147115000Y-82394800D02*
X147115000Y-82347700D01*
X139825000Y-73500000D02*
X140725000Y-74400000D01*
X133811000Y-79900000D02*
X134825000Y-79900000D01*
X134660900Y-82221000D02*
X133811000Y-81371100D01*
X147115000Y-85912000D02*
X147115000Y-86539100D01*
X140725000Y-74400000D02*
X140725000Y-78950000D01*
X121715000Y-83689200D02*
X116975800Y-78950000D01*
X121715000Y-85285000D02*
X121715000Y-83689200D01*
X147115000Y-86539100D02*
X138433200Y-86539100D01*
X147115000Y-103065000D02*
X147115000Y-101810900D01*
X132425000Y-73500000D02*
X139825000Y-73500000D01*
X131475000Y-78950000D02*
X132425000Y-79900000D01*
X127404600Y-75050000D02*
X127979600Y-74475000D01*
X137964300Y-82221000D02*
X134660900Y-82221000D01*
X127979600Y-74475000D02*
X131450000Y-74475000D01*
X147115000Y-85285000D02*
X147115000Y-82394800D01*
X160820000Y-77934100D02*
X160820000Y-80200000D01*
X147115000Y-101810900D02*
X147131500Y-101794400D01*
X138240800Y-82497500D02*
X137964300Y-82221000D01*
X162090000Y-76085000D02*
X162090000Y-76664100D01*
X131450000Y-78975000D02*
X131475000Y-78950000D01*
X138433200Y-86539100D02*
X138240800Y-86346700D01*
X160820000Y-81225900D02*
X159815000Y-82230900D01*
D24*
X160820000Y-80200000D02*
X173495000Y-80200000D01*
D23*
X133811000Y-81371100D02*
X133811000Y-79900000D01*
X147231800Y-82230900D02*
X159815000Y-82230900D01*
X126263000Y-75050000D02*
X127404600Y-75050000D01*
X147115000Y-85912000D02*
X147115000Y-85285000D01*
X147131500Y-86555600D02*
X147115000Y-86539100D01*
X116975800Y-78950000D02*
X116910000Y-78950000D01*
X132425000Y-79900000D02*
X133811000Y-79900000D01*
X159815000Y-85285000D02*
X159815000Y-103065000D01*
X147115000Y-82347700D02*
X147231800Y-82230900D01*
X140725000Y-78950000D02*
X143717300Y-78950000D01*
X160820000Y-80200000D02*
X160820000Y-81225900D01*
X131450000Y-74475000D02*
X132425000Y-73500000D01*
X135500000Y-75375000D02*
X134825000Y-75375000D01*
X139175000Y-78950000D02*
X138701900Y-78950000D01*
X121998800Y-78950000D02*
X126795000Y-83746200D01*
X139175000Y-74400000D02*
X139175000Y-77650000D01*
X137350000Y-74400000D02*
X137325000Y-74425000D01*
X138701900Y-78950000D02*
X137325000Y-78950000D01*
X139175000Y-78476900D02*
X139175000Y-78300000D01*
X139175000Y-78300000D02*
X138850000Y-77975000D01*
X139175000Y-74400000D02*
X137350000Y-74400000D01*
X121528600Y-78950000D02*
X121998800Y-78950000D01*
X120387000Y-78950000D02*
X121528600Y-78950000D01*
X126795000Y-83746200D02*
X126795000Y-85285000D01*
X120387000Y-78950000D02*
X118460000Y-78950000D01*
X139175000Y-77650000D02*
X138850000Y-77975000D01*
X146477400Y-92518000D02*
X140780800Y-98214600D01*
X135019100Y-109125000D02*
X134165000Y-109125000D01*
X136369100Y-107775000D02*
X135019100Y-109125000D01*
X140780800Y-98214600D02*
X140780800Y-105879600D01*
X138885400Y-107775000D02*
X136369100Y-107775000D01*
X140780800Y-105879600D02*
X138885400Y-107775000D01*
X142035000Y-103065000D02*
X142035000Y-105409100D01*
X138319100Y-109125000D02*
X137465000Y-109125000D01*
X142035000Y-105409100D02*
X138319100Y-109125000D01*
X136533200Y-81554100D02*
X135829100Y-80850000D01*
X142142400Y-81035500D02*
X141623800Y-81554100D01*
X134825000Y-80850000D02*
X135829100Y-80850000D01*
X141623800Y-81554100D02*
X136533200Y-81554100D01*
X138329100Y-80850000D02*
X138430300Y-80850000D01*
X129320000Y-103050000D02*
X126810000Y-103050000D01*
X126810000Y-103050000D02*
X126795000Y-103065000D01*
X137325000Y-80850000D02*
X138329100Y-80850000D01*
X129335000Y-103065000D02*
X129320000Y-103050000D01*
X136450000Y-79900000D02*
X135925000Y-79375000D01*
X144575000Y-82230900D02*
X142244100Y-79900000D01*
X142244100Y-79900000D02*
X137325000Y-79900000D01*
X144575000Y-85285000D02*
X144575000Y-82230900D01*
X135925000Y-76253100D02*
X136803100Y-75375000D01*
X137325000Y-79900000D02*
X136450000Y-79900000D01*
X136803100Y-75375000D02*
X137325000Y-75375000D01*
X135925000Y-79375000D02*
X135925000Y-76253100D01*
X134825000Y-77092800D02*
X134864600Y-77132400D01*
X134825000Y-76325000D02*
X134825000Y-77092800D01*
X137325000Y-76325000D02*
X137325000Y-77622600D01*
X136955000Y-103065000D02*
X135615000Y-101725000D01*
X133215000Y-101725000D02*
X131875000Y-103065000D01*
X137325000Y-77622600D02*
X137761900Y-78059500D01*
X135615000Y-101725000D02*
X133215000Y-101725000D01*
X126263000Y-78300000D02*
X127404600Y-78300000D01*
X127404600Y-78300000D02*
X127871000Y-77833600D01*
X127871000Y-77833600D02*
X128328000Y-77833600D01*
X124975000Y-74784700D02*
X126823400Y-72936300D01*
X124975000Y-77481522D02*
X124975000Y-74784700D01*
X148781300Y-72936300D02*
X151930000Y-76085000D01*
X126263000Y-77650000D02*
X125143478Y-77650000D01*
X126823400Y-72936300D02*
X148781300Y-72936300D01*
X125143478Y-77650000D02*
X124975000Y-77481522D01*
X126263000Y-77000000D02*
X131779300Y-77000000D01*
X126263000Y-76350000D02*
X129757500Y-76350000D01*
X129757500Y-76350000D02*
X129804000Y-76303500D01*
X120387000Y-75050000D02*
X118510000Y-75050000D01*
X118510000Y-75050000D02*
X118485000Y-75025000D01*
X120387000Y-76350000D02*
X117356600Y-76350000D01*
X117356600Y-76350000D02*
X114825200Y-78881400D01*
X114825200Y-78881400D02*
X114825200Y-105335300D01*
X114825200Y-105335300D02*
X115739900Y-106250000D01*
X123250000Y-106250000D02*
X124255000Y-105245000D01*
X124255000Y-105245000D02*
X124255000Y-103065000D01*
X115739900Y-106250000D02*
X123250000Y-106250000D01*
X122018800Y-77000000D02*
X125976400Y-80957600D01*
X139495000Y-103065000D02*
X139495000Y-101810900D01*
X130589200Y-82432200D02*
X130589200Y-92905100D01*
X120387000Y-77000000D02*
X122018800Y-77000000D01*
X130589200Y-92905100D02*
X139495000Y-101810900D01*
X129114600Y-80957600D02*
X130589200Y-82432200D01*
X125976400Y-80957600D02*
X129114600Y-80957600D01*
X120387000Y-77650000D02*
X121528600Y-77650000D01*
X128049200Y-92936700D02*
X119175000Y-101810900D01*
X128049200Y-82398100D02*
X128049200Y-92936700D01*
X125553900Y-81675300D02*
X127326400Y-81675300D01*
X119175000Y-103065000D02*
X119175000Y-101810900D01*
X127326400Y-81675300D02*
X128049200Y-82398100D01*
X121528600Y-77650000D02*
X125553900Y-81675300D01*
X115380900Y-100556800D02*
X116635000Y-101810900D01*
X119245400Y-78300000D02*
X118984200Y-78038800D01*
X115380900Y-79109400D02*
X115380900Y-100556800D01*
X116451500Y-78038800D02*
X115380900Y-79109400D01*
X120387000Y-78300000D02*
X119245400Y-78300000D01*
X116635000Y-103065000D02*
X116635000Y-101810900D01*
X118984200Y-78038800D02*
X116451500Y-78038800D01*
D25*
X173495000Y-76303400D02*
X173495000Y-77660000D01*
X159550000Y-76085000D02*
X160935000Y-74700000D01*
X160935000Y-74700000D02*
X171891600Y-74700000D01*
X171891600Y-74700000D02*
X173495000Y-76303400D01*
D23*
X150955000Y-115455000D02*
X153885000Y-112525000D01*
X166925000Y-111625000D02*
X166925000Y-102587978D01*
X166925000Y-102587978D02*
X162355000Y-98017978D01*
X166025000Y-112525000D02*
X166925000Y-111625000D01*
X153885000Y-112525000D02*
X166025000Y-112525000D01*
X162355000Y-98017978D02*
X162355000Y-85285000D01*
X149655000Y-86539100D02*
X149655000Y-85285000D01*
X153450000Y-90334100D02*
X149655000Y-86539100D01*
X153450000Y-110330000D02*
X153450000Y-90334100D01*
X153495000Y-110375000D02*
X153450000Y-110330000D01*
X144275000Y-111282022D02*
X144275000Y-103365000D01*
X144275000Y-103365000D02*
X144575000Y-103065000D01*
X144917978Y-111925000D02*
X144275000Y-111282022D01*
X163655000Y-110375000D02*
X162105000Y-111925000D01*
X162105000Y-111925000D02*
X144917978Y-111925000D01*
G04 #@! TA.AperFunction,Conductor*
G36*
X179648621Y-72678502D02*
G01*
X179695114Y-72732158D01*
X179706500Y-72784500D01*
X179706500Y-130515500D01*
X179686498Y-130583621D01*
X179632842Y-130630114D01*
X179580500Y-130641500D01*
X114849500Y-130641500D01*
X114781379Y-130621498D01*
X114734886Y-130567842D01*
X114723500Y-130515500D01*
X114723500Y-125747404D01*
X124051941Y-125747404D01*
X124078091Y-126046292D01*
X124079001Y-126050364D01*
X124079002Y-126050369D01*
X124142628Y-126335016D01*
X124143540Y-126339095D01*
X124247140Y-126620671D01*
X124249084Y-126624359D01*
X124249088Y-126624367D01*
X124345805Y-126807807D01*
X124387069Y-126886071D01*
X124560871Y-127130633D01*
X124765490Y-127350061D01*
X124997333Y-127540498D01*
X125252325Y-127698600D01*
X125525988Y-127821589D01*
X125700368Y-127873574D01*
X125809514Y-127906112D01*
X125809516Y-127906112D01*
X125813513Y-127907304D01*
X125817633Y-127907957D01*
X125817635Y-127907957D01*
X125936509Y-127926785D01*
X126109848Y-127954239D01*
X126152577Y-127956179D01*
X126202262Y-127958436D01*
X126202281Y-127958436D01*
X126203681Y-127958500D01*
X126391107Y-127958500D01*
X126614370Y-127943671D01*
X126618464Y-127942846D01*
X126618468Y-127942845D01*
X126759513Y-127914405D01*
X126908480Y-127884368D01*
X127192163Y-127786688D01*
X127195896Y-127784819D01*
X127195900Y-127784817D01*
X127456691Y-127654222D01*
X127456693Y-127654221D01*
X127460435Y-127652347D01*
X127708584Y-127483706D01*
X127932248Y-127283726D01*
X127934966Y-127280555D01*
X128124779Y-127059097D01*
X128124782Y-127059093D01*
X128127499Y-127055923D01*
X128129773Y-127052421D01*
X128129777Y-127052416D01*
X128288628Y-126807807D01*
X128288631Y-126807802D01*
X128290907Y-126804297D01*
X128419600Y-126533270D01*
X128511318Y-126247604D01*
X128564448Y-125952316D01*
X128578059Y-125652596D01*
X128551909Y-125353708D01*
X128507832Y-125156515D01*
X128487372Y-125064984D01*
X128487371Y-125064981D01*
X128486460Y-125060905D01*
X128382860Y-124779329D01*
X128380916Y-124775641D01*
X128380912Y-124775633D01*
X128244884Y-124517633D01*
X128244883Y-124517632D01*
X128242931Y-124513929D01*
X128069129Y-124269367D01*
X127864510Y-124049939D01*
X127632667Y-123859502D01*
X127377675Y-123701400D01*
X127104012Y-123578411D01*
X126890650Y-123514805D01*
X126820486Y-123493888D01*
X126820484Y-123493888D01*
X126816487Y-123492696D01*
X126812367Y-123492043D01*
X126812365Y-123492043D01*
X126693491Y-123473215D01*
X126520152Y-123445761D01*
X126477423Y-123443821D01*
X126427738Y-123441564D01*
X126427719Y-123441564D01*
X126426319Y-123441500D01*
X126238893Y-123441500D01*
X126015630Y-123456329D01*
X126011536Y-123457154D01*
X126011532Y-123457155D01*
X125870487Y-123485595D01*
X125721520Y-123515632D01*
X125437837Y-123613312D01*
X125434104Y-123615181D01*
X125434100Y-123615183D01*
X125173309Y-123745778D01*
X125169565Y-123747653D01*
X124921416Y-123916294D01*
X124697752Y-124116274D01*
X124695035Y-124119444D01*
X124695034Y-124119445D01*
X124569155Y-124266311D01*
X124502501Y-124344077D01*
X124500227Y-124347579D01*
X124500223Y-124347584D01*
X124389792Y-124517633D01*
X124339093Y-124595703D01*
X124210400Y-124866730D01*
X124118682Y-125152396D01*
X124065552Y-125447684D01*
X124051941Y-125747404D01*
X114723500Y-125747404D01*
X114723500Y-106469050D01*
X114743502Y-106400929D01*
X114797158Y-106354436D01*
X114867432Y-106344332D01*
X114932012Y-106373826D01*
X114938595Y-106379955D01*
X115216245Y-106657605D01*
X115224235Y-106666385D01*
X115228484Y-106673080D01*
X115234262Y-106678506D01*
X115234263Y-106678507D01*
X115280157Y-106721604D01*
X115282999Y-106724359D01*
X115303567Y-106744927D01*
X115307070Y-106747644D01*
X115316095Y-106755352D01*
X115349767Y-106786972D01*
X115356718Y-106790793D01*
X115356719Y-106790794D01*
X115368558Y-106797303D01*
X115385082Y-106808157D01*
X115395765Y-106816443D01*
X115402032Y-106821304D01*
X115425906Y-106831635D01*
X115444436Y-106839654D01*
X115455081Y-106844869D01*
X115495563Y-106867124D01*
X115503237Y-106869094D01*
X115503244Y-106869097D01*
X115516326Y-106872455D01*
X115535034Y-106878860D01*
X115554723Y-106887380D01*
X115562549Y-106888619D01*
X115562551Y-106888620D01*
X115587059Y-106892501D01*
X115600359Y-106894608D01*
X115611970Y-106897012D01*
X115643007Y-106904981D01*
X115649035Y-106906529D01*
X115649036Y-106906529D01*
X115656712Y-106908500D01*
X115678158Y-106908500D01*
X115697868Y-106910051D01*
X115711222Y-106912166D01*
X115711223Y-106912166D01*
X115719052Y-106913406D01*
X115765041Y-106909059D01*
X115776896Y-106908500D01*
X123167944Y-106908500D01*
X123179800Y-106909059D01*
X123179803Y-106909059D01*
X123187537Y-106910788D01*
X123258369Y-106908562D01*
X123262327Y-106908500D01*
X123291432Y-106908500D01*
X123295832Y-106907944D01*
X123307664Y-106907012D01*
X123353831Y-106905562D01*
X123374421Y-106899580D01*
X123393782Y-106895570D01*
X123401408Y-106894607D01*
X123407204Y-106893875D01*
X123407205Y-106893875D01*
X123415064Y-106892882D01*
X123422429Y-106889966D01*
X123422433Y-106889965D01*
X123458021Y-106875874D01*
X123469231Y-106872035D01*
X123513600Y-106859145D01*
X123532065Y-106848225D01*
X123549805Y-106839534D01*
X123569756Y-106831635D01*
X123607129Y-106804482D01*
X123617048Y-106797967D01*
X123649977Y-106778493D01*
X123649981Y-106778490D01*
X123656807Y-106774453D01*
X123671971Y-106759289D01*
X123687005Y-106746448D01*
X123704357Y-106733841D01*
X123733803Y-106698247D01*
X123741792Y-106689468D01*
X124170855Y-106260405D01*
X124233167Y-106226379D01*
X124259950Y-106223500D01*
X125153134Y-106223500D01*
X125215316Y-106216745D01*
X125351705Y-106165615D01*
X125449436Y-106092370D01*
X125515941Y-106067522D01*
X125585324Y-106082575D01*
X125600562Y-106092368D01*
X125698295Y-106165615D01*
X125834684Y-106216745D01*
X125896866Y-106223500D01*
X127693134Y-106223500D01*
X127755316Y-106216745D01*
X127891705Y-106165615D01*
X127989436Y-106092370D01*
X128055941Y-106067522D01*
X128125324Y-106082575D01*
X128140562Y-106092368D01*
X128238295Y-106165615D01*
X128374684Y-106216745D01*
X128436866Y-106223500D01*
X130233134Y-106223500D01*
X130295316Y-106216745D01*
X130431705Y-106165615D01*
X130529436Y-106092370D01*
X130595941Y-106067522D01*
X130665324Y-106082575D01*
X130680562Y-106092368D01*
X130778295Y-106165615D01*
X130914684Y-106216745D01*
X130976866Y-106223500D01*
X132773134Y-106223500D01*
X132835316Y-106216745D01*
X132971705Y-106165615D01*
X133058005Y-106100937D01*
X133069852Y-106092058D01*
X133136358Y-106067210D01*
X133205741Y-106082263D01*
X133220982Y-106092058D01*
X133311351Y-106159786D01*
X133326946Y-106168324D01*
X133447394Y-106213478D01*
X133462649Y-106217105D01*
X133513514Y-106222631D01*
X133520328Y-106223000D01*
X134142885Y-106223000D01*
X134158124Y-106218525D01*
X134159329Y-106217135D01*
X134161000Y-106209452D01*
X134161000Y-102509500D01*
X134181002Y-102441379D01*
X134234658Y-102394886D01*
X134287000Y-102383500D01*
X134543000Y-102383500D01*
X134611121Y-102403502D01*
X134657614Y-102457158D01*
X134669000Y-102509500D01*
X134669000Y-106204884D01*
X134673475Y-106220123D01*
X134674865Y-106221328D01*
X134682548Y-106222999D01*
X135309669Y-106222999D01*
X135316490Y-106222629D01*
X135367352Y-106217105D01*
X135382604Y-106213479D01*
X135503054Y-106168324D01*
X135518649Y-106159786D01*
X135609018Y-106092058D01*
X135675525Y-106067210D01*
X135744907Y-106082263D01*
X135760148Y-106092058D01*
X135771995Y-106100937D01*
X135858295Y-106165615D01*
X135994684Y-106216745D01*
X136056866Y-106223500D01*
X137853134Y-106223500D01*
X137915316Y-106216745D01*
X138051705Y-106165615D01*
X138149436Y-106092370D01*
X138215941Y-106067522D01*
X138285324Y-106082575D01*
X138300562Y-106092368D01*
X138398295Y-106165615D01*
X138534684Y-106216745D01*
X138596866Y-106223500D01*
X139201450Y-106223500D01*
X139269571Y-106243502D01*
X139316064Y-106297158D01*
X139326168Y-106367432D01*
X139296674Y-106432012D01*
X139290548Y-106438593D01*
X138969851Y-106759289D01*
X138649544Y-107079596D01*
X138587232Y-107113621D01*
X138560449Y-107116500D01*
X136451156Y-107116500D01*
X136439300Y-107115941D01*
X136439297Y-107115941D01*
X136431563Y-107114212D01*
X136376546Y-107115941D01*
X136360731Y-107116438D01*
X136356773Y-107116500D01*
X136327668Y-107116500D01*
X136323268Y-107117056D01*
X136311436Y-107117988D01*
X136265269Y-107119438D01*
X136244679Y-107125420D01*
X136225318Y-107129430D01*
X136218330Y-107130312D01*
X136211896Y-107131125D01*
X136211895Y-107131125D01*
X136204036Y-107132118D01*
X136196671Y-107135034D01*
X136196667Y-107135035D01*
X136161079Y-107149126D01*
X136149869Y-107152965D01*
X136105500Y-107165855D01*
X136087043Y-107176771D01*
X136069293Y-107185466D01*
X136049344Y-107193365D01*
X136042933Y-107198023D01*
X136042931Y-107198024D01*
X136011964Y-107220523D01*
X136002046Y-107227038D01*
X135962293Y-107250548D01*
X135947132Y-107265709D01*
X135932100Y-107278548D01*
X135914743Y-107291159D01*
X135887017Y-107324675D01*
X135885298Y-107326752D01*
X135877308Y-107335533D01*
X135097141Y-108115699D01*
X135034829Y-108149724D01*
X134964013Y-108144659D01*
X134932481Y-108127429D01*
X134916830Y-108115699D01*
X134861705Y-108074385D01*
X134725316Y-108023255D01*
X134663134Y-108016500D01*
X133666866Y-108016500D01*
X133604684Y-108023255D01*
X133468295Y-108074385D01*
X133351739Y-108161739D01*
X133264385Y-108278295D01*
X133213255Y-108414684D01*
X133206500Y-108476866D01*
X133206500Y-109773134D01*
X133213255Y-109835316D01*
X133264385Y-109971705D01*
X133351739Y-110088261D01*
X133468295Y-110175615D01*
X133604684Y-110226745D01*
X133666866Y-110233500D01*
X134663134Y-110233500D01*
X134725316Y-110226745D01*
X134861705Y-110175615D01*
X134978261Y-110088261D01*
X135065615Y-109971705D01*
X135115057Y-109839819D01*
X135157698Y-109783054D01*
X135186653Y-109766897D01*
X135210315Y-109757528D01*
X135227126Y-109750872D01*
X135238331Y-109747035D01*
X135282700Y-109734145D01*
X135301165Y-109723225D01*
X135318905Y-109714534D01*
X135338856Y-109706635D01*
X135376229Y-109679482D01*
X135386148Y-109672967D01*
X135419077Y-109653493D01*
X135419081Y-109653490D01*
X135425907Y-109649453D01*
X135441071Y-109634289D01*
X135456105Y-109621448D01*
X135467043Y-109613501D01*
X135473457Y-109608841D01*
X135502903Y-109573247D01*
X135510881Y-109564479D01*
X136291407Y-108783953D01*
X136353717Y-108749929D01*
X136424532Y-108754993D01*
X136481368Y-108797540D01*
X136506179Y-108864060D01*
X136506500Y-108873049D01*
X136506500Y-109773134D01*
X136513255Y-109835316D01*
X136564385Y-109971705D01*
X136651739Y-110088261D01*
X136768295Y-110175615D01*
X136904684Y-110226745D01*
X136966866Y-110233500D01*
X137963134Y-110233500D01*
X138025316Y-110226745D01*
X138161705Y-110175615D01*
X138278261Y-110088261D01*
X138365615Y-109971705D01*
X138415057Y-109839819D01*
X138457698Y-109783054D01*
X138486653Y-109766897D01*
X138510315Y-109757528D01*
X138527126Y-109750872D01*
X138538331Y-109747035D01*
X138582700Y-109734145D01*
X138601165Y-109723225D01*
X138618905Y-109714534D01*
X138638856Y-109706635D01*
X138676229Y-109679482D01*
X138686148Y-109672967D01*
X138719077Y-109653493D01*
X138719081Y-109653490D01*
X138725907Y-109649453D01*
X138741071Y-109634289D01*
X138756105Y-109621448D01*
X138767043Y-109613501D01*
X138773457Y-109608841D01*
X138802903Y-109573247D01*
X138810892Y-109564468D01*
X142114955Y-106260405D01*
X142177267Y-106226379D01*
X142204050Y-106223500D01*
X142933134Y-106223500D01*
X142995316Y-106216745D01*
X143131705Y-106165615D01*
X143229436Y-106092370D01*
X143295941Y-106067522D01*
X143365324Y-106082575D01*
X143380562Y-106092368D01*
X143478295Y-106165615D01*
X143486703Y-106168767D01*
X143534730Y-106186772D01*
X143591495Y-106229414D01*
X143616194Y-106295976D01*
X143616500Y-106304754D01*
X143616500Y-111199966D01*
X143615941Y-111211822D01*
X143614212Y-111219559D01*
X143614461Y-111227481D01*
X143616438Y-111290391D01*
X143616500Y-111294349D01*
X143616500Y-111323454D01*
X143617056Y-111327854D01*
X143617988Y-111339686D01*
X143619438Y-111385853D01*
X143621650Y-111393466D01*
X143621650Y-111393467D01*
X143625419Y-111406438D01*
X143629430Y-111425804D01*
X143632118Y-111447086D01*
X143635034Y-111454451D01*
X143635035Y-111454455D01*
X143649126Y-111490043D01*
X143652965Y-111501253D01*
X143665855Y-111545622D01*
X143676775Y-111564087D01*
X143685466Y-111581827D01*
X143693365Y-111601778D01*
X143720516Y-111639148D01*
X143727033Y-111649070D01*
X143746507Y-111681999D01*
X143746510Y-111682003D01*
X143750547Y-111688829D01*
X143765711Y-111703993D01*
X143778551Y-111719026D01*
X143791159Y-111736379D01*
X143811149Y-111752916D01*
X143826752Y-111765824D01*
X143835532Y-111773814D01*
X144394323Y-112332605D01*
X144402313Y-112341385D01*
X144406562Y-112348080D01*
X144412340Y-112353506D01*
X144412341Y-112353507D01*
X144458235Y-112396604D01*
X144461077Y-112399359D01*
X144481645Y-112419927D01*
X144485148Y-112422644D01*
X144494173Y-112430352D01*
X144527845Y-112461972D01*
X144534796Y-112465793D01*
X144534797Y-112465794D01*
X144546636Y-112472303D01*
X144563160Y-112483157D01*
X144573843Y-112491443D01*
X144580110Y-112496304D01*
X144587385Y-112499452D01*
X144622514Y-112514654D01*
X144633159Y-112519869D01*
X144673641Y-112542124D01*
X144681315Y-112544094D01*
X144681322Y-112544097D01*
X144694404Y-112547455D01*
X144713112Y-112553860D01*
X144732801Y-112562380D01*
X144740627Y-112563619D01*
X144740629Y-112563620D01*
X144765137Y-112567501D01*
X144778437Y-112569608D01*
X144790048Y-112572012D01*
X144821085Y-112579981D01*
X144827113Y-112581529D01*
X144827114Y-112581529D01*
X144834790Y-112583500D01*
X144856236Y-112583500D01*
X144875946Y-112585051D01*
X144889300Y-112587166D01*
X144889301Y-112587166D01*
X144897130Y-112588406D01*
X144943119Y-112584059D01*
X144954974Y-112583500D01*
X152591050Y-112583500D01*
X152659171Y-112603502D01*
X152705664Y-112657158D01*
X152715768Y-112727432D01*
X152686274Y-112792012D01*
X152680145Y-112798595D01*
X151382335Y-114096405D01*
X151320023Y-114130431D01*
X151271145Y-114131357D01*
X151223971Y-114122954D01*
X151088373Y-114098800D01*
X151088367Y-114098799D01*
X151083284Y-114097894D01*
X151009452Y-114096992D01*
X150865081Y-114095228D01*
X150865079Y-114095228D01*
X150859911Y-114095165D01*
X150639091Y-114128955D01*
X150426756Y-114198357D01*
X150228607Y-114301507D01*
X150224474Y-114304610D01*
X150224471Y-114304612D01*
X150200247Y-114322800D01*
X150049965Y-114435635D01*
X149895629Y-114597138D01*
X149788201Y-114754621D01*
X149733293Y-114799621D01*
X149662768Y-114807792D01*
X149599021Y-114776538D01*
X149578324Y-114752054D01*
X149497822Y-114627617D01*
X149497820Y-114627614D01*
X149495014Y-114623277D01*
X149344670Y-114458051D01*
X149340619Y-114454852D01*
X149340615Y-114454848D01*
X149173414Y-114322800D01*
X149173410Y-114322798D01*
X149169359Y-114319598D01*
X148973789Y-114211638D01*
X148968920Y-114209914D01*
X148968916Y-114209912D01*
X148768087Y-114138795D01*
X148768083Y-114138794D01*
X148763212Y-114137069D01*
X148758119Y-114136162D01*
X148758116Y-114136161D01*
X148548373Y-114098800D01*
X148548367Y-114098799D01*
X148543284Y-114097894D01*
X148469452Y-114096992D01*
X148325081Y-114095228D01*
X148325079Y-114095228D01*
X148319911Y-114095165D01*
X148099091Y-114128955D01*
X147886756Y-114198357D01*
X147688607Y-114301507D01*
X147684474Y-114304610D01*
X147684471Y-114304612D01*
X147660247Y-114322800D01*
X147509965Y-114435635D01*
X147355629Y-114597138D01*
X147248201Y-114754621D01*
X147193293Y-114799621D01*
X147122768Y-114807792D01*
X147059021Y-114776538D01*
X147038324Y-114752054D01*
X146957822Y-114627617D01*
X146957820Y-114627614D01*
X146955014Y-114623277D01*
X146804670Y-114458051D01*
X146800619Y-114454852D01*
X146800615Y-114454848D01*
X146633414Y-114322800D01*
X146633410Y-114322798D01*
X146629359Y-114319598D01*
X146433789Y-114211638D01*
X146428920Y-114209914D01*
X146428916Y-114209912D01*
X146228087Y-114138795D01*
X146228083Y-114138794D01*
X146223212Y-114137069D01*
X146218119Y-114136162D01*
X146218116Y-114136161D01*
X146008373Y-114098800D01*
X146008367Y-114098799D01*
X146003284Y-114097894D01*
X145929452Y-114096992D01*
X145785081Y-114095228D01*
X145785079Y-114095228D01*
X145779911Y-114095165D01*
X145559091Y-114128955D01*
X145346756Y-114198357D01*
X145148607Y-114301507D01*
X145144474Y-114304610D01*
X145144471Y-114304612D01*
X145120247Y-114322800D01*
X144969965Y-114435635D01*
X144815629Y-114597138D01*
X144689743Y-114781680D01*
X144595688Y-114984305D01*
X144535989Y-115199570D01*
X144512251Y-115421695D01*
X144512548Y-115426848D01*
X144512548Y-115426851D01*
X144518011Y-115521590D01*
X144525110Y-115644715D01*
X144526247Y-115649761D01*
X144526248Y-115649767D01*
X144546119Y-115737939D01*
X144574222Y-115862639D01*
X144658266Y-116069616D01*
X144709019Y-116152438D01*
X144772291Y-116255688D01*
X144774987Y-116260088D01*
X144921250Y-116428938D01*
X145093126Y-116571632D01*
X145286000Y-116684338D01*
X145494692Y-116764030D01*
X145499760Y-116765061D01*
X145499763Y-116765062D01*
X145607017Y-116786883D01*
X145713597Y-116808567D01*
X145718772Y-116808757D01*
X145718774Y-116808757D01*
X145931673Y-116816564D01*
X145931677Y-116816564D01*
X145936837Y-116816753D01*
X145941957Y-116816097D01*
X145941959Y-116816097D01*
X146153288Y-116789025D01*
X146153289Y-116789025D01*
X146158416Y-116788368D01*
X146163366Y-116786883D01*
X146367429Y-116725661D01*
X146367434Y-116725659D01*
X146372384Y-116724174D01*
X146572994Y-116625896D01*
X146754860Y-116496173D01*
X146913096Y-116338489D01*
X146972594Y-116255689D01*
X147043453Y-116157077D01*
X147044776Y-116158028D01*
X147091645Y-116114857D01*
X147161580Y-116102625D01*
X147227026Y-116130144D01*
X147254875Y-116161994D01*
X147314987Y-116260088D01*
X147461250Y-116428938D01*
X147633126Y-116571632D01*
X147826000Y-116684338D01*
X148034692Y-116764030D01*
X148039760Y-116765061D01*
X148039763Y-116765062D01*
X148147017Y-116786883D01*
X148253597Y-116808567D01*
X148258772Y-116808757D01*
X148258774Y-116808757D01*
X148471673Y-116816564D01*
X148471677Y-116816564D01*
X148476837Y-116816753D01*
X148481957Y-116816097D01*
X148481959Y-116816097D01*
X148693288Y-116789025D01*
X148693289Y-116789025D01*
X148698416Y-116788368D01*
X148703366Y-116786883D01*
X148907429Y-116725661D01*
X148907434Y-116725659D01*
X148912384Y-116724174D01*
X149112994Y-116625896D01*
X149294860Y-116496173D01*
X149453096Y-116338489D01*
X149512594Y-116255689D01*
X149583453Y-116157077D01*
X149584776Y-116158028D01*
X149631645Y-116114857D01*
X149701580Y-116102625D01*
X149767026Y-116130144D01*
X149794875Y-116161994D01*
X149854987Y-116260088D01*
X150001250Y-116428938D01*
X150173126Y-116571632D01*
X150366000Y-116684338D01*
X150574692Y-116764030D01*
X150579760Y-116765061D01*
X150579763Y-116765062D01*
X150687017Y-116786883D01*
X150793597Y-116808567D01*
X150798772Y-116808757D01*
X150798774Y-116808757D01*
X151011673Y-116816564D01*
X151011677Y-116816564D01*
X151016837Y-116816753D01*
X151021957Y-116816097D01*
X151021959Y-116816097D01*
X151233288Y-116789025D01*
X151233289Y-116789025D01*
X151238416Y-116788368D01*
X151243366Y-116786883D01*
X151447429Y-116725661D01*
X151447434Y-116725659D01*
X151452384Y-116724174D01*
X151652994Y-116625896D01*
X151834860Y-116496173D01*
X151993096Y-116338489D01*
X152052594Y-116255689D01*
X152123453Y-116157077D01*
X152124776Y-116158028D01*
X152171645Y-116114857D01*
X152241580Y-116102625D01*
X152307026Y-116130144D01*
X152334875Y-116161994D01*
X152394987Y-116260088D01*
X152541250Y-116428938D01*
X152713126Y-116571632D01*
X152906000Y-116684338D01*
X153114692Y-116764030D01*
X153119760Y-116765061D01*
X153119763Y-116765062D01*
X153227017Y-116786883D01*
X153333597Y-116808567D01*
X153338772Y-116808757D01*
X153338774Y-116808757D01*
X153551673Y-116816564D01*
X153551677Y-116816564D01*
X153556837Y-116816753D01*
X153561957Y-116816097D01*
X153561959Y-116816097D01*
X153773288Y-116789025D01*
X153773289Y-116789025D01*
X153778416Y-116788368D01*
X153783366Y-116786883D01*
X153987429Y-116725661D01*
X153987434Y-116725659D01*
X153992384Y-116724174D01*
X154192994Y-116625896D01*
X154374860Y-116496173D01*
X154533096Y-116338489D01*
X154592594Y-116255689D01*
X154663453Y-116157077D01*
X154664776Y-116158028D01*
X154711645Y-116114857D01*
X154781580Y-116102625D01*
X154847026Y-116130144D01*
X154874875Y-116161994D01*
X154934987Y-116260088D01*
X155081250Y-116428938D01*
X155253126Y-116571632D01*
X155446000Y-116684338D01*
X155654692Y-116764030D01*
X155659760Y-116765061D01*
X155659763Y-116765062D01*
X155767017Y-116786883D01*
X155873597Y-116808567D01*
X155878772Y-116808757D01*
X155878774Y-116808757D01*
X156091673Y-116816564D01*
X156091677Y-116816564D01*
X156096837Y-116816753D01*
X156101957Y-116816097D01*
X156101959Y-116816097D01*
X156313288Y-116789025D01*
X156313289Y-116789025D01*
X156318416Y-116788368D01*
X156323366Y-116786883D01*
X156527429Y-116725661D01*
X156527434Y-116725659D01*
X156532384Y-116724174D01*
X156732994Y-116625896D01*
X156914860Y-116496173D01*
X157073096Y-116338489D01*
X157132594Y-116255689D01*
X157203453Y-116157077D01*
X157204776Y-116158028D01*
X157251645Y-116114857D01*
X157321580Y-116102625D01*
X157387026Y-116130144D01*
X157414875Y-116161994D01*
X157474987Y-116260088D01*
X157621250Y-116428938D01*
X157793126Y-116571632D01*
X157986000Y-116684338D01*
X158194692Y-116764030D01*
X158199760Y-116765061D01*
X158199763Y-116765062D01*
X158307017Y-116786883D01*
X158413597Y-116808567D01*
X158418772Y-116808757D01*
X158418774Y-116808757D01*
X158631673Y-116816564D01*
X158631677Y-116816564D01*
X158636837Y-116816753D01*
X158641957Y-116816097D01*
X158641959Y-116816097D01*
X158853288Y-116789025D01*
X158853289Y-116789025D01*
X158858416Y-116788368D01*
X158863366Y-116786883D01*
X159067429Y-116725661D01*
X159067434Y-116725659D01*
X159072384Y-116724174D01*
X159272994Y-116625896D01*
X159454860Y-116496173D01*
X159613096Y-116338489D01*
X159672594Y-116255689D01*
X159743453Y-116157077D01*
X159744776Y-116158028D01*
X159791645Y-116114857D01*
X159861580Y-116102625D01*
X159927026Y-116130144D01*
X159954875Y-116161994D01*
X160014987Y-116260088D01*
X160161250Y-116428938D01*
X160333126Y-116571632D01*
X160526000Y-116684338D01*
X160734692Y-116764030D01*
X160739760Y-116765061D01*
X160739763Y-116765062D01*
X160847017Y-116786883D01*
X160953597Y-116808567D01*
X160958772Y-116808757D01*
X160958774Y-116808757D01*
X161171673Y-116816564D01*
X161171677Y-116816564D01*
X161176837Y-116816753D01*
X161181957Y-116816097D01*
X161181959Y-116816097D01*
X161393288Y-116789025D01*
X161393289Y-116789025D01*
X161398416Y-116788368D01*
X161403366Y-116786883D01*
X161607429Y-116725661D01*
X161607434Y-116725659D01*
X161612384Y-116724174D01*
X161812994Y-116625896D01*
X161994860Y-116496173D01*
X162153096Y-116338489D01*
X162212594Y-116255689D01*
X162283453Y-116157077D01*
X162284776Y-116158028D01*
X162331645Y-116114857D01*
X162401580Y-116102625D01*
X162467026Y-116130144D01*
X162494875Y-116161994D01*
X162554987Y-116260088D01*
X162701250Y-116428938D01*
X162873126Y-116571632D01*
X163066000Y-116684338D01*
X163274692Y-116764030D01*
X163279760Y-116765061D01*
X163279763Y-116765062D01*
X163387017Y-116786883D01*
X163493597Y-116808567D01*
X163498772Y-116808757D01*
X163498774Y-116808757D01*
X163711673Y-116816564D01*
X163711677Y-116816564D01*
X163716837Y-116816753D01*
X163721957Y-116816097D01*
X163721959Y-116816097D01*
X163933288Y-116789025D01*
X163933289Y-116789025D01*
X163938416Y-116788368D01*
X163943366Y-116786883D01*
X164147429Y-116725661D01*
X164147434Y-116725659D01*
X164152384Y-116724174D01*
X164352994Y-116625896D01*
X164534860Y-116496173D01*
X164693096Y-116338489D01*
X164752594Y-116255689D01*
X164820435Y-116161277D01*
X164823453Y-116157077D01*
X164844320Y-116114857D01*
X164920136Y-115961453D01*
X164920137Y-115961451D01*
X164922430Y-115956811D01*
X164987370Y-115743069D01*
X165016529Y-115521590D01*
X165018156Y-115455000D01*
X164999852Y-115232361D01*
X164945431Y-115015702D01*
X164856354Y-114810840D01*
X164735014Y-114623277D01*
X164584670Y-114458051D01*
X164580619Y-114454852D01*
X164580615Y-114454848D01*
X164413414Y-114322800D01*
X164413410Y-114322798D01*
X164409359Y-114319598D01*
X164213789Y-114211638D01*
X164208920Y-114209914D01*
X164208916Y-114209912D01*
X164008087Y-114138795D01*
X164008083Y-114138794D01*
X164003212Y-114137069D01*
X163998119Y-114136162D01*
X163998116Y-114136161D01*
X163788373Y-114098800D01*
X163788367Y-114098799D01*
X163783284Y-114097894D01*
X163709452Y-114096992D01*
X163565081Y-114095228D01*
X163565079Y-114095228D01*
X163559911Y-114095165D01*
X163339091Y-114128955D01*
X163126756Y-114198357D01*
X162928607Y-114301507D01*
X162924474Y-114304610D01*
X162924471Y-114304612D01*
X162900247Y-114322800D01*
X162749965Y-114435635D01*
X162595629Y-114597138D01*
X162488201Y-114754621D01*
X162433293Y-114799621D01*
X162362768Y-114807792D01*
X162299021Y-114776538D01*
X162278324Y-114752054D01*
X162197822Y-114627617D01*
X162197820Y-114627614D01*
X162195014Y-114623277D01*
X162044670Y-114458051D01*
X162040619Y-114454852D01*
X162040615Y-114454848D01*
X161873414Y-114322800D01*
X161873410Y-114322798D01*
X161869359Y-114319598D01*
X161673789Y-114211638D01*
X161668920Y-114209914D01*
X161668916Y-114209912D01*
X161468087Y-114138795D01*
X161468083Y-114138794D01*
X161463212Y-114137069D01*
X161458119Y-114136162D01*
X161458116Y-114136161D01*
X161248373Y-114098800D01*
X161248367Y-114098799D01*
X161243284Y-114097894D01*
X161169452Y-114096992D01*
X161025081Y-114095228D01*
X161025079Y-114095228D01*
X161019911Y-114095165D01*
X160799091Y-114128955D01*
X160586756Y-114198357D01*
X160388607Y-114301507D01*
X160384474Y-114304610D01*
X160384471Y-114304612D01*
X160360247Y-114322800D01*
X160209965Y-114435635D01*
X160055629Y-114597138D01*
X159948201Y-114754621D01*
X159893293Y-114799621D01*
X159822768Y-114807792D01*
X159759021Y-114776538D01*
X159738324Y-114752054D01*
X159657822Y-114627617D01*
X159657820Y-114627614D01*
X159655014Y-114623277D01*
X159504670Y-114458051D01*
X159500619Y-114454852D01*
X159500615Y-114454848D01*
X159333414Y-114322800D01*
X159333410Y-114322798D01*
X159329359Y-114319598D01*
X159133789Y-114211638D01*
X159128920Y-114209914D01*
X159128916Y-114209912D01*
X158928087Y-114138795D01*
X158928083Y-114138794D01*
X158923212Y-114137069D01*
X158918119Y-114136162D01*
X158918116Y-114136161D01*
X158708373Y-114098800D01*
X158708367Y-114098799D01*
X158703284Y-114097894D01*
X158629452Y-114096992D01*
X158485081Y-114095228D01*
X158485079Y-114095228D01*
X158479911Y-114095165D01*
X158259091Y-114128955D01*
X158046756Y-114198357D01*
X157848607Y-114301507D01*
X157844474Y-114304610D01*
X157844471Y-114304612D01*
X157820247Y-114322800D01*
X157669965Y-114435635D01*
X157515629Y-114597138D01*
X157408201Y-114754621D01*
X157353293Y-114799621D01*
X157282768Y-114807792D01*
X157219021Y-114776538D01*
X157198324Y-114752054D01*
X157117822Y-114627617D01*
X157117820Y-114627614D01*
X157115014Y-114623277D01*
X156964670Y-114458051D01*
X156960619Y-114454852D01*
X156960615Y-114454848D01*
X156793414Y-114322800D01*
X156793410Y-114322798D01*
X156789359Y-114319598D01*
X156593789Y-114211638D01*
X156588920Y-114209914D01*
X156588916Y-114209912D01*
X156388087Y-114138795D01*
X156388083Y-114138794D01*
X156383212Y-114137069D01*
X156378119Y-114136162D01*
X156378116Y-114136161D01*
X156168373Y-114098800D01*
X156168367Y-114098799D01*
X156163284Y-114097894D01*
X156089452Y-114096992D01*
X155945081Y-114095228D01*
X155945079Y-114095228D01*
X155939911Y-114095165D01*
X155719091Y-114128955D01*
X155506756Y-114198357D01*
X155308607Y-114301507D01*
X155304474Y-114304610D01*
X155304471Y-114304612D01*
X155280247Y-114322800D01*
X155129965Y-114435635D01*
X154975629Y-114597138D01*
X154868201Y-114754621D01*
X154813293Y-114799621D01*
X154742768Y-114807792D01*
X154679021Y-114776538D01*
X154658324Y-114752054D01*
X154577822Y-114627617D01*
X154577820Y-114627614D01*
X154575014Y-114623277D01*
X154424670Y-114458051D01*
X154420619Y-114454852D01*
X154420615Y-114454848D01*
X154253414Y-114322800D01*
X154253410Y-114322798D01*
X154249359Y-114319598D01*
X154053789Y-114211638D01*
X154048920Y-114209914D01*
X154048916Y-114209912D01*
X153848087Y-114138795D01*
X153848083Y-114138794D01*
X153843212Y-114137069D01*
X153838119Y-114136162D01*
X153838116Y-114136161D01*
X153628373Y-114098800D01*
X153628367Y-114098799D01*
X153623284Y-114097894D01*
X153601183Y-114097624D01*
X153546940Y-114096961D01*
X153479069Y-114076128D01*
X153433235Y-114021908D01*
X153423991Y-113951516D01*
X153454271Y-113887300D01*
X153459385Y-113881875D01*
X154120855Y-113220405D01*
X154183167Y-113186379D01*
X154209950Y-113183500D01*
X165942944Y-113183500D01*
X165954800Y-113184059D01*
X165954803Y-113184059D01*
X165962537Y-113185788D01*
X166033369Y-113183562D01*
X166037327Y-113183500D01*
X166066432Y-113183500D01*
X166070832Y-113182944D01*
X166082664Y-113182012D01*
X166128831Y-113180562D01*
X166149421Y-113174580D01*
X166168782Y-113170570D01*
X166175770Y-113169688D01*
X166182204Y-113168875D01*
X166182205Y-113168875D01*
X166190064Y-113167882D01*
X166197429Y-113164966D01*
X166197433Y-113164965D01*
X166233021Y-113150874D01*
X166244231Y-113147035D01*
X166288600Y-113134145D01*
X166307065Y-113123225D01*
X166324805Y-113114534D01*
X166344756Y-113106635D01*
X166382129Y-113079482D01*
X166392048Y-113072967D01*
X166424977Y-113053493D01*
X166424981Y-113053490D01*
X166431807Y-113049453D01*
X166446971Y-113034289D01*
X166462005Y-113021448D01*
X166472943Y-113013501D01*
X166479357Y-113008841D01*
X166508803Y-112973247D01*
X166516792Y-112964468D01*
X167332605Y-112148655D01*
X167341385Y-112140665D01*
X167341387Y-112140663D01*
X167348080Y-112136416D01*
X167396605Y-112084742D01*
X167399359Y-112081901D01*
X167419927Y-112061333D01*
X167422647Y-112057826D01*
X167430353Y-112048804D01*
X167456544Y-112020913D01*
X167461972Y-112015133D01*
X167465794Y-112008181D01*
X167472303Y-111996342D01*
X167483157Y-111979818D01*
X167491443Y-111969135D01*
X167491444Y-111969134D01*
X167496304Y-111962868D01*
X167514654Y-111920464D01*
X167519869Y-111909819D01*
X167542124Y-111869337D01*
X167544094Y-111861663D01*
X167544097Y-111861656D01*
X167547455Y-111848574D01*
X167553861Y-111829862D01*
X167559233Y-111817448D01*
X167562380Y-111810177D01*
X167565126Y-111792842D01*
X167569607Y-111764544D01*
X167572012Y-111752930D01*
X167583500Y-111708188D01*
X167583500Y-111686742D01*
X167585051Y-111667032D01*
X167587166Y-111653678D01*
X167587166Y-111653677D01*
X167588406Y-111645848D01*
X167584059Y-111599859D01*
X167583500Y-111588004D01*
X167583500Y-102670034D01*
X167584059Y-102658178D01*
X167584059Y-102658175D01*
X167585788Y-102650441D01*
X167583562Y-102579609D01*
X167583500Y-102575651D01*
X167583500Y-102546546D01*
X167582944Y-102542146D01*
X167582012Y-102530308D01*
X167581359Y-102509500D01*
X167580562Y-102484147D01*
X167574580Y-102463557D01*
X167570570Y-102444194D01*
X167570215Y-102441379D01*
X167567882Y-102422914D01*
X167564966Y-102415549D01*
X167564965Y-102415545D01*
X167550874Y-102379957D01*
X167547035Y-102368747D01*
X167534145Y-102324378D01*
X167523225Y-102305913D01*
X167514534Y-102288173D01*
X167506635Y-102268222D01*
X167479482Y-102230849D01*
X167472967Y-102220930D01*
X167453493Y-102188001D01*
X167453490Y-102187997D01*
X167449453Y-102181171D01*
X167434289Y-102166007D01*
X167421448Y-102150973D01*
X167413501Y-102140035D01*
X167408841Y-102133621D01*
X167373247Y-102104175D01*
X167364468Y-102096186D01*
X163524560Y-98256278D01*
X163490534Y-98193966D01*
X163495599Y-98123151D01*
X163538146Y-98066315D01*
X163604666Y-98041504D01*
X163657884Y-98049201D01*
X163697282Y-98063971D01*
X163697288Y-98063973D01*
X163704684Y-98066745D01*
X163766866Y-98073500D01*
X164635826Y-98073500D01*
X164640443Y-98073585D01*
X164721673Y-98076564D01*
X164721677Y-98076564D01*
X164726837Y-98076753D01*
X164731957Y-98076097D01*
X164731959Y-98076097D01*
X164744261Y-98074521D01*
X164760271Y-98073500D01*
X167363134Y-98073500D01*
X167425316Y-98066745D01*
X167561705Y-98015615D01*
X167678261Y-97928261D01*
X167765615Y-97811705D01*
X167816745Y-97675316D01*
X167823500Y-97613134D01*
X167823500Y-95816866D01*
X167816745Y-95754684D01*
X167765615Y-95618295D01*
X167692370Y-95520564D01*
X167667522Y-95454059D01*
X167682575Y-95384676D01*
X167692370Y-95369435D01*
X167701459Y-95357308D01*
X167765615Y-95271705D01*
X167816745Y-95135316D01*
X167823500Y-95073134D01*
X167823500Y-93276866D01*
X167816745Y-93214684D01*
X167765615Y-93078295D01*
X167692370Y-92980564D01*
X167667522Y-92914059D01*
X167682575Y-92844676D01*
X167692370Y-92829435D01*
X167708255Y-92808240D01*
X167765615Y-92731705D01*
X167816745Y-92595316D01*
X167823500Y-92533134D01*
X167823500Y-92497404D01*
X170551941Y-92497404D01*
X170552304Y-92501552D01*
X170552304Y-92501556D01*
X170559820Y-92587460D01*
X170578091Y-92796292D01*
X170579001Y-92800364D01*
X170579002Y-92800369D01*
X170641126Y-93078295D01*
X170643540Y-93089095D01*
X170747140Y-93370671D01*
X170749084Y-93374359D01*
X170749088Y-93374367D01*
X170845805Y-93557807D01*
X170887069Y-93636071D01*
X171060871Y-93880633D01*
X171265490Y-94100061D01*
X171497333Y-94290498D01*
X171752325Y-94448600D01*
X172025988Y-94571589D01*
X172200368Y-94623574D01*
X172309514Y-94656112D01*
X172309516Y-94656112D01*
X172313513Y-94657304D01*
X172317633Y-94657957D01*
X172317635Y-94657957D01*
X172436509Y-94676785D01*
X172609848Y-94704239D01*
X172652577Y-94706179D01*
X172702262Y-94708436D01*
X172702281Y-94708436D01*
X172703681Y-94708500D01*
X172891107Y-94708500D01*
X173114370Y-94693671D01*
X173118464Y-94692846D01*
X173118468Y-94692845D01*
X173259513Y-94664405D01*
X173408480Y-94634368D01*
X173692163Y-94536688D01*
X173695896Y-94534819D01*
X173695900Y-94534817D01*
X173956691Y-94404222D01*
X173956693Y-94404221D01*
X173960435Y-94402347D01*
X174208584Y-94233706D01*
X174432248Y-94033726D01*
X174434966Y-94030555D01*
X174624779Y-93809097D01*
X174624782Y-93809093D01*
X174627499Y-93805923D01*
X174629773Y-93802421D01*
X174629777Y-93802416D01*
X174788628Y-93557807D01*
X174788631Y-93557802D01*
X174790907Y-93554297D01*
X174919600Y-93283270D01*
X174924730Y-93267294D01*
X175010038Y-93001591D01*
X175010038Y-93001590D01*
X175011318Y-92997604D01*
X175059160Y-92731705D01*
X175063709Y-92706425D01*
X175063710Y-92706420D01*
X175064448Y-92702316D01*
X175065468Y-92679871D01*
X175077870Y-92406766D01*
X175077870Y-92406760D01*
X175078059Y-92402596D01*
X175075791Y-92376666D01*
X175052273Y-92107870D01*
X175051909Y-92103708D01*
X175039872Y-92049854D01*
X174987372Y-91814984D01*
X174987371Y-91814981D01*
X174986460Y-91810905D01*
X174882860Y-91529329D01*
X174880916Y-91525641D01*
X174880912Y-91525633D01*
X174744884Y-91267633D01*
X174744883Y-91267632D01*
X174742931Y-91263929D01*
X174569129Y-91019367D01*
X174364510Y-90799939D01*
X174186375Y-90653618D01*
X174135892Y-90612151D01*
X174132667Y-90609502D01*
X173877675Y-90451400D01*
X173827653Y-90428919D01*
X173755657Y-90396563D01*
X173604012Y-90328411D01*
X173390650Y-90264805D01*
X173320486Y-90243888D01*
X173320484Y-90243888D01*
X173316487Y-90242696D01*
X173312367Y-90242043D01*
X173312365Y-90242043D01*
X173193491Y-90223215D01*
X173020152Y-90195761D01*
X172977423Y-90193821D01*
X172927738Y-90191564D01*
X172927719Y-90191564D01*
X172926319Y-90191500D01*
X172738893Y-90191500D01*
X172515630Y-90206329D01*
X172511536Y-90207154D01*
X172511532Y-90207155D01*
X172396901Y-90230269D01*
X172221520Y-90265632D01*
X171937837Y-90363312D01*
X171934104Y-90365181D01*
X171934100Y-90365183D01*
X171690495Y-90487172D01*
X171669565Y-90497653D01*
X171666100Y-90500008D01*
X171432077Y-90659049D01*
X171421416Y-90666294D01*
X171197752Y-90866274D01*
X171195035Y-90869444D01*
X171195034Y-90869445D01*
X171069155Y-91016311D01*
X171002501Y-91094077D01*
X171000227Y-91097579D01*
X171000223Y-91097584D01*
X170841372Y-91342193D01*
X170839093Y-91345703D01*
X170710400Y-91616730D01*
X170709121Y-91620713D01*
X170709120Y-91620716D01*
X170640086Y-91835730D01*
X170618682Y-91902396D01*
X170617941Y-91906515D01*
X170568336Y-92182213D01*
X170565552Y-92197684D01*
X170565363Y-92201851D01*
X170565362Y-92201858D01*
X170556435Y-92398444D01*
X170551941Y-92497404D01*
X167823500Y-92497404D01*
X167823500Y-90736866D01*
X167816745Y-90674684D01*
X167765615Y-90538295D01*
X167678261Y-90421739D01*
X167561705Y-90334385D01*
X167425316Y-90283255D01*
X167363134Y-90276500D01*
X164679985Y-90276500D01*
X164678446Y-90276491D01*
X164575081Y-90275228D01*
X164575079Y-90275228D01*
X164569911Y-90275165D01*
X164564797Y-90275948D01*
X164561289Y-90276193D01*
X164552496Y-90276500D01*
X163766866Y-90276500D01*
X163704684Y-90283255D01*
X163568295Y-90334385D01*
X163451739Y-90421739D01*
X163364385Y-90538295D01*
X163313255Y-90674684D01*
X163306500Y-90736866D01*
X163306500Y-91555219D01*
X163305787Y-91568607D01*
X163302251Y-91601695D01*
X163302548Y-91606848D01*
X163302548Y-91606851D01*
X163306291Y-91671763D01*
X163306500Y-91679016D01*
X163306500Y-92533134D01*
X163313255Y-92595316D01*
X163364385Y-92731705D01*
X163421745Y-92808240D01*
X163437630Y-92829435D01*
X163462478Y-92895941D01*
X163447425Y-92965324D01*
X163437632Y-92980562D01*
X163364385Y-93078295D01*
X163313255Y-93214684D01*
X163306500Y-93276866D01*
X163306500Y-95073134D01*
X163313255Y-95135316D01*
X163364385Y-95271705D01*
X163428541Y-95357308D01*
X163437630Y-95369435D01*
X163462478Y-95435941D01*
X163447425Y-95505324D01*
X163437632Y-95520562D01*
X163364385Y-95618295D01*
X163313255Y-95754684D01*
X163306500Y-95816866D01*
X163306500Y-96635219D01*
X163305787Y-96648607D01*
X163302251Y-96681695D01*
X163302548Y-96686848D01*
X163302548Y-96686851D01*
X163306291Y-96751763D01*
X163306500Y-96759016D01*
X163306500Y-97613134D01*
X163313255Y-97675316D01*
X163316027Y-97682712D01*
X163316029Y-97682718D01*
X163330799Y-97722116D01*
X163335982Y-97792923D01*
X163302061Y-97855292D01*
X163239805Y-97889421D01*
X163168981Y-97884474D01*
X163123722Y-97855440D01*
X163050405Y-97782123D01*
X163016379Y-97719811D01*
X163013500Y-97693028D01*
X163013500Y-86769500D01*
X163033502Y-86701379D01*
X163087158Y-86654886D01*
X163139500Y-86643500D01*
X163253134Y-86643500D01*
X163315316Y-86636745D01*
X163451705Y-86585615D01*
X163549436Y-86512370D01*
X163615941Y-86487522D01*
X163685324Y-86502575D01*
X163700562Y-86512368D01*
X163798295Y-86585615D01*
X163934684Y-86636745D01*
X163996866Y-86643500D01*
X164865826Y-86643500D01*
X164870443Y-86643585D01*
X164951673Y-86646564D01*
X164951677Y-86646564D01*
X164956837Y-86646753D01*
X164961957Y-86646097D01*
X164961959Y-86646097D01*
X164974261Y-86644521D01*
X164990271Y-86643500D01*
X165793134Y-86643500D01*
X165855316Y-86636745D01*
X165991705Y-86585615D01*
X166108261Y-86498261D01*
X166195615Y-86381705D01*
X166246745Y-86245316D01*
X166253500Y-86183134D01*
X166253500Y-85382856D01*
X166254578Y-85366409D01*
X166256092Y-85354908D01*
X166256529Y-85351590D01*
X166258156Y-85285000D01*
X166253924Y-85233524D01*
X166253500Y-85223200D01*
X166253500Y-82842263D01*
X171985064Y-82842263D01*
X172021404Y-83079744D01*
X172058094Y-83191997D01*
X172094434Y-83303183D01*
X172094437Y-83303189D01*
X172096042Y-83308101D01*
X172206975Y-83521200D01*
X172351223Y-83713320D01*
X172524912Y-83879301D01*
X172723378Y-84014686D01*
X172728061Y-84016860D01*
X172728065Y-84016862D01*
X172936595Y-84113658D01*
X172936599Y-84113659D01*
X172941290Y-84115837D01*
X173172798Y-84180040D01*
X173177935Y-84180589D01*
X173365593Y-84200644D01*
X173365601Y-84200644D01*
X173368928Y-84201000D01*
X173603402Y-84201000D01*
X173605975Y-84200788D01*
X173605986Y-84200788D01*
X173706946Y-84192487D01*
X173781937Y-84186322D01*
X174014944Y-84127794D01*
X174143771Y-84071779D01*
X174230526Y-84034057D01*
X174230529Y-84034055D01*
X174235263Y-84031997D01*
X174436977Y-83901502D01*
X174614670Y-83739814D01*
X174675347Y-83662983D01*
X174760367Y-83555330D01*
X174760370Y-83555325D01*
X174763568Y-83551276D01*
X174777885Y-83525342D01*
X174877177Y-83345474D01*
X174877179Y-83345470D01*
X174879674Y-83340950D01*
X174959870Y-83114485D01*
X174965183Y-83084659D01*
X175001095Y-82883052D01*
X175001096Y-82883046D01*
X175002001Y-82877963D01*
X175004936Y-82637737D01*
X174968596Y-82400256D01*
X174931906Y-82288003D01*
X174895566Y-82176817D01*
X174895563Y-82176811D01*
X174893958Y-82171899D01*
X174889742Y-82163799D01*
X174785416Y-81963393D01*
X174783025Y-81958800D01*
X174711729Y-81863843D01*
X174641882Y-81770815D01*
X174641880Y-81770812D01*
X174638777Y-81766680D01*
X174481204Y-81616100D01*
X174468825Y-81604270D01*
X174468824Y-81604269D01*
X174465088Y-81600699D01*
X174427649Y-81575160D01*
X174382648Y-81520249D01*
X174374477Y-81449725D01*
X174405731Y-81385978D01*
X174430210Y-81365284D01*
X174432326Y-81363915D01*
X174440498Y-81357622D01*
X174610480Y-81202950D01*
X174617506Y-81195417D01*
X174759945Y-81015056D01*
X174765650Y-81006469D01*
X174876714Y-80805278D01*
X174880944Y-80795866D01*
X174957659Y-80579232D01*
X174960293Y-80569261D01*
X174977647Y-80471837D01*
X174976187Y-80458540D01*
X174961630Y-80454000D01*
X172026904Y-80454000D01*
X172013560Y-80457918D01*
X172011573Y-80472194D01*
X172021110Y-80534515D01*
X172023499Y-80544543D01*
X172094898Y-80762988D01*
X172098895Y-80772497D01*
X172205011Y-80976344D01*
X172210505Y-80985069D01*
X172348493Y-81168852D01*
X172355336Y-81176559D01*
X172521491Y-81335339D01*
X172529498Y-81341823D01*
X172562356Y-81364237D01*
X172607359Y-81419148D01*
X172615532Y-81489672D01*
X172584278Y-81553420D01*
X172559796Y-81574116D01*
X172558181Y-81575161D01*
X172553023Y-81578498D01*
X172375330Y-81740186D01*
X172352782Y-81768737D01*
X172229633Y-81924670D01*
X172229630Y-81924675D01*
X172226432Y-81928724D01*
X172223939Y-81933240D01*
X172223937Y-81933243D01*
X172112823Y-82134526D01*
X172110326Y-82139050D01*
X172108602Y-82143919D01*
X172108600Y-82143923D01*
X172031856Y-82360640D01*
X172030130Y-82365515D01*
X172029223Y-82370608D01*
X172029222Y-82370611D01*
X171990093Y-82590283D01*
X171987999Y-82602037D01*
X171985064Y-82842263D01*
X166253500Y-82842263D01*
X166253500Y-82586866D01*
X166246745Y-82524684D01*
X166195615Y-82388295D01*
X166108261Y-82271739D01*
X165991705Y-82184385D01*
X165855316Y-82133255D01*
X165793134Y-82126500D01*
X163996866Y-82126500D01*
X163934684Y-82133255D01*
X163798295Y-82184385D01*
X163700566Y-82257629D01*
X163700565Y-82257630D01*
X163634059Y-82282478D01*
X163564676Y-82267425D01*
X163549435Y-82257630D01*
X163549434Y-82257629D01*
X163451705Y-82184385D01*
X163315316Y-82133255D01*
X163253134Y-82126500D01*
X161456866Y-82126500D01*
X161394684Y-82133255D01*
X161258295Y-82184385D01*
X161220648Y-82212600D01*
X161160148Y-82257942D01*
X161093642Y-82282790D01*
X161024259Y-82267737D01*
X161009018Y-82257942D01*
X160918649Y-82190214D01*
X160903054Y-82181676D01*
X160782606Y-82136522D01*
X160767351Y-82132895D01*
X160716486Y-82127369D01*
X160709672Y-82127000D01*
X160087115Y-82127000D01*
X160071876Y-82131475D01*
X160070671Y-82132865D01*
X160069000Y-82140548D01*
X160069000Y-86624884D01*
X160073475Y-86640123D01*
X160074865Y-86641328D01*
X160082548Y-86642999D01*
X160709669Y-86642999D01*
X160716490Y-86642629D01*
X160767352Y-86637105D01*
X160782604Y-86633479D01*
X160903054Y-86588324D01*
X160918649Y-86579786D01*
X161009018Y-86512058D01*
X161075525Y-86487210D01*
X161144907Y-86502263D01*
X161160148Y-86512058D01*
X161160566Y-86512371D01*
X161258295Y-86585615D01*
X161394684Y-86636745D01*
X161456866Y-86643500D01*
X161570500Y-86643500D01*
X161638621Y-86663502D01*
X161685114Y-86717158D01*
X161696500Y-86769500D01*
X161696500Y-97935922D01*
X161695941Y-97947778D01*
X161694212Y-97955515D01*
X161694851Y-97975850D01*
X161696438Y-98026347D01*
X161696500Y-98030305D01*
X161696500Y-98059410D01*
X161697056Y-98063810D01*
X161697988Y-98075642D01*
X161699438Y-98121809D01*
X161701650Y-98129422D01*
X161701650Y-98129423D01*
X161705419Y-98142394D01*
X161709430Y-98161762D01*
X161711050Y-98174584D01*
X161712118Y-98183042D01*
X161715034Y-98190407D01*
X161715035Y-98190411D01*
X161729126Y-98225999D01*
X161732965Y-98237209D01*
X161745855Y-98281578D01*
X161756775Y-98300043D01*
X161765466Y-98317783D01*
X161773365Y-98337734D01*
X161800516Y-98375104D01*
X161807033Y-98385026D01*
X161826507Y-98417955D01*
X161826510Y-98417959D01*
X161830547Y-98424785D01*
X161845711Y-98439949D01*
X161858551Y-98454982D01*
X161871159Y-98472335D01*
X161906752Y-98501780D01*
X161915532Y-98509770D01*
X164895907Y-101490145D01*
X164929933Y-101552457D01*
X164924868Y-101623272D01*
X164882321Y-101680108D01*
X164815801Y-101704919D01*
X164805261Y-101705230D01*
X164805085Y-101705228D01*
X164805082Y-101705228D01*
X164799911Y-101705165D01*
X164794796Y-101705948D01*
X164791289Y-101706193D01*
X164782496Y-101706500D01*
X163996866Y-101706500D01*
X163934684Y-101713255D01*
X163798295Y-101764385D01*
X163749983Y-101800593D01*
X163700565Y-101837630D01*
X163634059Y-101862478D01*
X163564676Y-101847425D01*
X163549435Y-101837630D01*
X163500017Y-101800593D01*
X163451705Y-101764385D01*
X163315316Y-101713255D01*
X163253134Y-101706500D01*
X162369985Y-101706500D01*
X162368446Y-101706491D01*
X162265081Y-101705228D01*
X162265079Y-101705228D01*
X162259911Y-101705165D01*
X162254797Y-101705948D01*
X162251289Y-101706193D01*
X162242496Y-101706500D01*
X161456866Y-101706500D01*
X161394684Y-101713255D01*
X161258295Y-101764385D01*
X161209984Y-101800592D01*
X161160148Y-101837942D01*
X161093642Y-101862790D01*
X161024259Y-101847737D01*
X161009018Y-101837942D01*
X160918649Y-101770214D01*
X160903054Y-101761676D01*
X160782606Y-101716522D01*
X160767351Y-101712895D01*
X160716486Y-101707369D01*
X160709672Y-101707000D01*
X160087115Y-101707000D01*
X160071876Y-101711475D01*
X160070671Y-101712865D01*
X160069000Y-101720548D01*
X160069000Y-106204884D01*
X160073475Y-106220123D01*
X160074865Y-106221328D01*
X160082548Y-106222999D01*
X160709669Y-106222999D01*
X160716490Y-106222629D01*
X160767352Y-106217105D01*
X160782604Y-106213479D01*
X160903054Y-106168324D01*
X160918649Y-106159786D01*
X161009018Y-106092058D01*
X161075525Y-106067210D01*
X161144907Y-106082263D01*
X161160148Y-106092058D01*
X161171995Y-106100937D01*
X161258295Y-106165615D01*
X161394684Y-106216745D01*
X161456866Y-106223500D01*
X163253134Y-106223500D01*
X163315316Y-106216745D01*
X163451705Y-106165615D01*
X163549436Y-106092370D01*
X163615941Y-106067522D01*
X163685324Y-106082575D01*
X163700562Y-106092368D01*
X163798295Y-106165615D01*
X163934684Y-106216745D01*
X163996866Y-106223500D01*
X165793134Y-106223500D01*
X165855316Y-106216745D01*
X165991705Y-106165615D01*
X166064935Y-106110732D01*
X166131441Y-106085884D01*
X166200824Y-106100937D01*
X166251054Y-106151111D01*
X166266500Y-106211558D01*
X166266500Y-111300050D01*
X166246498Y-111368171D01*
X166229595Y-111389146D01*
X165789144Y-111829596D01*
X165726832Y-111863621D01*
X165700049Y-111866500D01*
X164242160Y-111866500D01*
X164174039Y-111846498D01*
X164127546Y-111792842D01*
X164117442Y-111722568D01*
X164146936Y-111657988D01*
X164186728Y-111627349D01*
X164348346Y-111548173D01*
X164352994Y-111545896D01*
X164534860Y-111416173D01*
X164557646Y-111393467D01*
X164631873Y-111319498D01*
X164693096Y-111258489D01*
X164715378Y-111227481D01*
X164820435Y-111081277D01*
X164823453Y-111077077D01*
X164922430Y-110876811D01*
X164987370Y-110663069D01*
X165016529Y-110441590D01*
X165018156Y-110375000D01*
X164999852Y-110152361D01*
X164945431Y-109935702D01*
X164856354Y-109730840D01*
X164803702Y-109649453D01*
X164737822Y-109547617D01*
X164737820Y-109547614D01*
X164735014Y-109543277D01*
X164584670Y-109378051D01*
X164580619Y-109374852D01*
X164580615Y-109374848D01*
X164413414Y-109242800D01*
X164413410Y-109242798D01*
X164409359Y-109239598D01*
X164373028Y-109219542D01*
X164333607Y-109197781D01*
X164213789Y-109131638D01*
X164208920Y-109129914D01*
X164208916Y-109129912D01*
X164008087Y-109058795D01*
X164008083Y-109058794D01*
X164003212Y-109057069D01*
X163998119Y-109056162D01*
X163998116Y-109056161D01*
X163788373Y-109018800D01*
X163788367Y-109018799D01*
X163783284Y-109017894D01*
X163709452Y-109016992D01*
X163565081Y-109015228D01*
X163565079Y-109015228D01*
X163559911Y-109015165D01*
X163339091Y-109048955D01*
X163126756Y-109118357D01*
X162928607Y-109221507D01*
X162924474Y-109224610D01*
X162924471Y-109224612D01*
X162754100Y-109352530D01*
X162749965Y-109355635D01*
X162595629Y-109517138D01*
X162488201Y-109674621D01*
X162433293Y-109719621D01*
X162362768Y-109727792D01*
X162299021Y-109696538D01*
X162278324Y-109672054D01*
X162197822Y-109547617D01*
X162197820Y-109547614D01*
X162195014Y-109543277D01*
X162044670Y-109378051D01*
X162040619Y-109374852D01*
X162040615Y-109374848D01*
X161873414Y-109242800D01*
X161873410Y-109242798D01*
X161869359Y-109239598D01*
X161833028Y-109219542D01*
X161793607Y-109197781D01*
X161673789Y-109131638D01*
X161668920Y-109129914D01*
X161668916Y-109129912D01*
X161468087Y-109058795D01*
X161468083Y-109058794D01*
X161463212Y-109057069D01*
X161458119Y-109056162D01*
X161458116Y-109056161D01*
X161248373Y-109018800D01*
X161248367Y-109018799D01*
X161243284Y-109017894D01*
X161169452Y-109016992D01*
X161025081Y-109015228D01*
X161025079Y-109015228D01*
X161019911Y-109015165D01*
X160799091Y-109048955D01*
X160586756Y-109118357D01*
X160388607Y-109221507D01*
X160384474Y-109224610D01*
X160384471Y-109224612D01*
X160214100Y-109352530D01*
X160209965Y-109355635D01*
X160055629Y-109517138D01*
X159948201Y-109674621D01*
X159893293Y-109719621D01*
X159822768Y-109727792D01*
X159759021Y-109696538D01*
X159738324Y-109672054D01*
X159657822Y-109547617D01*
X159657820Y-109547614D01*
X159655014Y-109543277D01*
X159504670Y-109378051D01*
X159500619Y-109374852D01*
X159500615Y-109374848D01*
X159333414Y-109242800D01*
X159333410Y-109242798D01*
X159329359Y-109239598D01*
X159293028Y-109219542D01*
X159253607Y-109197781D01*
X159133789Y-109131638D01*
X159128920Y-109129914D01*
X159128916Y-109129912D01*
X158928087Y-109058795D01*
X158928083Y-109058794D01*
X158923212Y-109057069D01*
X158918119Y-109056162D01*
X158918116Y-109056161D01*
X158708373Y-109018800D01*
X158708367Y-109018799D01*
X158703284Y-109017894D01*
X158629452Y-109016992D01*
X158485081Y-109015228D01*
X158485079Y-109015228D01*
X158479911Y-109015165D01*
X158259091Y-109048955D01*
X158046756Y-109118357D01*
X157848607Y-109221507D01*
X157844474Y-109224610D01*
X157844471Y-109224612D01*
X157674100Y-109352530D01*
X157669965Y-109355635D01*
X157515629Y-109517138D01*
X157408201Y-109674621D01*
X157353293Y-109719621D01*
X157282768Y-109727792D01*
X157219021Y-109696538D01*
X157198324Y-109672054D01*
X157117822Y-109547617D01*
X157117820Y-109547614D01*
X157115014Y-109543277D01*
X156964670Y-109378051D01*
X156960619Y-109374852D01*
X156960615Y-109374848D01*
X156793414Y-109242800D01*
X156793410Y-109242798D01*
X156789359Y-109239598D01*
X156753028Y-109219542D01*
X156713607Y-109197781D01*
X156593789Y-109131638D01*
X156588920Y-109129914D01*
X156588916Y-109129912D01*
X156388087Y-109058795D01*
X156388083Y-109058794D01*
X156383212Y-109057069D01*
X156378119Y-109056162D01*
X156378116Y-109056161D01*
X156168373Y-109018800D01*
X156168367Y-109018799D01*
X156163284Y-109017894D01*
X156089452Y-109016992D01*
X155945081Y-109015228D01*
X155945079Y-109015228D01*
X155939911Y-109015165D01*
X155719091Y-109048955D01*
X155506756Y-109118357D01*
X155308607Y-109221507D01*
X155304474Y-109224610D01*
X155304471Y-109224612D01*
X155134100Y-109352530D01*
X155129965Y-109355635D01*
X154975629Y-109517138D01*
X154868201Y-109674621D01*
X154813293Y-109719621D01*
X154742768Y-109727792D01*
X154679021Y-109696538D01*
X154658324Y-109672054D01*
X154577822Y-109547617D01*
X154577820Y-109547614D01*
X154575014Y-109543277D01*
X154424670Y-109378051D01*
X154420619Y-109374852D01*
X154420615Y-109374848D01*
X154253414Y-109242800D01*
X154253410Y-109242798D01*
X154249359Y-109239598D01*
X154213028Y-109219542D01*
X154173607Y-109197781D01*
X154123636Y-109147348D01*
X154108500Y-109087472D01*
X154108500Y-106349500D01*
X154128502Y-106281379D01*
X154182158Y-106234886D01*
X154234500Y-106223500D01*
X155633134Y-106223500D01*
X155695316Y-106216745D01*
X155831705Y-106165615D01*
X155929436Y-106092370D01*
X155995941Y-106067522D01*
X156065324Y-106082575D01*
X156080562Y-106092368D01*
X156178295Y-106165615D01*
X156314684Y-106216745D01*
X156376866Y-106223500D01*
X158173134Y-106223500D01*
X158235316Y-106216745D01*
X158371705Y-106165615D01*
X158458005Y-106100937D01*
X158469852Y-106092058D01*
X158536358Y-106067210D01*
X158605741Y-106082263D01*
X158620982Y-106092058D01*
X158711351Y-106159786D01*
X158726946Y-106168324D01*
X158847394Y-106213478D01*
X158862649Y-106217105D01*
X158913514Y-106222631D01*
X158920328Y-106223000D01*
X159542885Y-106223000D01*
X159558124Y-106218525D01*
X159559329Y-106217135D01*
X159561000Y-106209452D01*
X159561000Y-101725116D01*
X159556525Y-101709877D01*
X159555135Y-101708672D01*
X159547452Y-101707001D01*
X158920331Y-101707001D01*
X158913510Y-101707371D01*
X158862648Y-101712895D01*
X158847396Y-101716521D01*
X158726946Y-101761676D01*
X158711351Y-101770214D01*
X158620982Y-101837942D01*
X158554475Y-101862790D01*
X158485093Y-101847737D01*
X158469852Y-101837942D01*
X158420016Y-101800592D01*
X158371705Y-101764385D01*
X158235316Y-101713255D01*
X158173134Y-101706500D01*
X157289985Y-101706500D01*
X157288446Y-101706491D01*
X157185081Y-101705228D01*
X157185079Y-101705228D01*
X157179911Y-101705165D01*
X157174797Y-101705948D01*
X157171289Y-101706193D01*
X157162496Y-101706500D01*
X156376866Y-101706500D01*
X156314684Y-101713255D01*
X156178295Y-101764385D01*
X156129983Y-101800593D01*
X156080565Y-101837630D01*
X156014059Y-101862478D01*
X155944676Y-101847425D01*
X155929435Y-101837630D01*
X155880017Y-101800593D01*
X155831705Y-101764385D01*
X155695316Y-101713255D01*
X155633134Y-101706500D01*
X154749985Y-101706500D01*
X154748446Y-101706491D01*
X154645081Y-101705228D01*
X154645079Y-101705228D01*
X154639911Y-101705165D01*
X154634797Y-101705948D01*
X154631289Y-101706193D01*
X154622496Y-101706500D01*
X154234500Y-101706500D01*
X154166379Y-101686498D01*
X154119886Y-101632842D01*
X154108500Y-101580500D01*
X154108500Y-90416156D01*
X154109059Y-90404300D01*
X154109059Y-90404297D01*
X154110788Y-90396563D01*
X154108562Y-90325731D01*
X154108500Y-90321773D01*
X154108500Y-90292668D01*
X154107944Y-90288268D01*
X154107012Y-90276430D01*
X154106975Y-90275228D01*
X154105562Y-90230269D01*
X154099580Y-90209679D01*
X154095570Y-90190316D01*
X154093875Y-90176896D01*
X154093875Y-90176895D01*
X154092882Y-90169036D01*
X154089966Y-90161671D01*
X154089965Y-90161667D01*
X154075876Y-90126082D01*
X154072031Y-90114853D01*
X154070602Y-90109935D01*
X154059145Y-90070499D01*
X154048230Y-90052043D01*
X154039531Y-90034287D01*
X154038906Y-90032709D01*
X154031635Y-90014344D01*
X154004480Y-89976968D01*
X153997965Y-89967049D01*
X153978492Y-89934123D01*
X153978489Y-89934119D01*
X153974452Y-89927293D01*
X153959291Y-89912132D01*
X153946449Y-89897097D01*
X153933841Y-89879743D01*
X153898241Y-89850292D01*
X153889462Y-89842303D01*
X150786488Y-86739328D01*
X150752462Y-86677016D01*
X150757527Y-86606200D01*
X150800017Y-86549408D01*
X150849434Y-86512371D01*
X150915940Y-86487522D01*
X150985322Y-86502574D01*
X151000562Y-86512368D01*
X151098295Y-86585615D01*
X151234684Y-86636745D01*
X151296866Y-86643500D01*
X152165826Y-86643500D01*
X152170443Y-86643585D01*
X152251673Y-86646564D01*
X152251677Y-86646564D01*
X152256837Y-86646753D01*
X152261957Y-86646097D01*
X152261959Y-86646097D01*
X152274261Y-86644521D01*
X152290271Y-86643500D01*
X153093134Y-86643500D01*
X153155316Y-86636745D01*
X153291705Y-86585615D01*
X153389436Y-86512370D01*
X153455941Y-86487522D01*
X153525324Y-86502575D01*
X153540562Y-86512368D01*
X153638295Y-86585615D01*
X153774684Y-86636745D01*
X153836866Y-86643500D01*
X154705826Y-86643500D01*
X154710443Y-86643585D01*
X154791673Y-86646564D01*
X154791677Y-86646564D01*
X154796837Y-86646753D01*
X154801957Y-86646097D01*
X154801959Y-86646097D01*
X154814261Y-86644521D01*
X154830271Y-86643500D01*
X155633134Y-86643500D01*
X155695316Y-86636745D01*
X155831705Y-86585615D01*
X155929436Y-86512370D01*
X155995941Y-86487522D01*
X156065324Y-86502575D01*
X156080562Y-86512368D01*
X156178295Y-86585615D01*
X156314684Y-86636745D01*
X156376866Y-86643500D01*
X157245826Y-86643500D01*
X157250443Y-86643585D01*
X157331673Y-86646564D01*
X157331677Y-86646564D01*
X157336837Y-86646753D01*
X157341957Y-86646097D01*
X157341959Y-86646097D01*
X157354261Y-86644521D01*
X157370271Y-86643500D01*
X158173134Y-86643500D01*
X158235316Y-86636745D01*
X158371705Y-86585615D01*
X158469434Y-86512371D01*
X158469852Y-86512058D01*
X158536358Y-86487210D01*
X158605741Y-86502263D01*
X158620982Y-86512058D01*
X158711351Y-86579786D01*
X158726946Y-86588324D01*
X158847394Y-86633478D01*
X158862649Y-86637105D01*
X158913514Y-86642631D01*
X158920328Y-86643000D01*
X159542885Y-86643000D01*
X159558124Y-86638525D01*
X159559329Y-86637135D01*
X159561000Y-86629452D01*
X159561000Y-82145116D01*
X159556525Y-82129877D01*
X159555135Y-82128672D01*
X159547452Y-82127001D01*
X158920331Y-82127001D01*
X158913510Y-82127371D01*
X158862648Y-82132895D01*
X158847396Y-82136521D01*
X158726946Y-82181676D01*
X158711351Y-82190214D01*
X158620982Y-82257942D01*
X158554475Y-82282790D01*
X158485093Y-82267737D01*
X158469852Y-82257942D01*
X158409352Y-82212600D01*
X158371705Y-82184385D01*
X158235316Y-82133255D01*
X158173134Y-82126500D01*
X156376866Y-82126500D01*
X156314684Y-82133255D01*
X156178295Y-82184385D01*
X156080566Y-82257629D01*
X156080565Y-82257630D01*
X156014059Y-82282478D01*
X155944676Y-82267425D01*
X155929435Y-82257630D01*
X155929434Y-82257629D01*
X155831705Y-82184385D01*
X155695316Y-82133255D01*
X155633134Y-82126500D01*
X153836866Y-82126500D01*
X153774684Y-82133255D01*
X153638295Y-82184385D01*
X153540566Y-82257629D01*
X153540565Y-82257630D01*
X153474059Y-82282478D01*
X153404676Y-82267425D01*
X153389435Y-82257630D01*
X153389434Y-82257629D01*
X153291705Y-82184385D01*
X153155316Y-82133255D01*
X153093134Y-82126500D01*
X151296866Y-82126500D01*
X151234684Y-82133255D01*
X151098295Y-82184385D01*
X151000566Y-82257629D01*
X151000565Y-82257630D01*
X150934059Y-82282478D01*
X150864676Y-82267425D01*
X150849435Y-82257630D01*
X150849434Y-82257629D01*
X150751705Y-82184385D01*
X150615316Y-82133255D01*
X150553134Y-82126500D01*
X148756866Y-82126500D01*
X148694684Y-82133255D01*
X148558295Y-82184385D01*
X148520648Y-82212600D01*
X148460148Y-82257942D01*
X148393642Y-82282790D01*
X148324259Y-82267737D01*
X148309018Y-82257942D01*
X148218649Y-82190214D01*
X148203054Y-82181676D01*
X148082606Y-82136522D01*
X148067351Y-82132895D01*
X148016486Y-82127369D01*
X148009672Y-82127000D01*
X147387115Y-82127000D01*
X147371876Y-82131475D01*
X147370671Y-82132865D01*
X147369000Y-82140548D01*
X147369000Y-86624884D01*
X147373475Y-86640123D01*
X147374865Y-86641328D01*
X147382548Y-86642999D01*
X148009669Y-86642999D01*
X148016490Y-86642629D01*
X148067352Y-86637105D01*
X148082604Y-86633479D01*
X148203054Y-86588324D01*
X148218649Y-86579786D01*
X148309018Y-86512058D01*
X148375525Y-86487210D01*
X148444907Y-86502263D01*
X148460148Y-86512058D01*
X148460566Y-86512371D01*
X148558295Y-86585615D01*
X148694684Y-86636745D01*
X148756866Y-86643500D01*
X148902470Y-86643500D01*
X148970591Y-86663502D01*
X149019621Y-86723115D01*
X149029126Y-86747121D01*
X149032965Y-86758331D01*
X149045855Y-86802700D01*
X149056775Y-86821165D01*
X149065466Y-86838905D01*
X149073365Y-86858856D01*
X149100516Y-86896226D01*
X149107033Y-86906148D01*
X149126507Y-86939077D01*
X149126510Y-86939081D01*
X149130547Y-86945907D01*
X149145711Y-86961071D01*
X149158551Y-86976104D01*
X149171159Y-86993457D01*
X149206752Y-87022902D01*
X149215532Y-87030892D01*
X152754595Y-90569954D01*
X152788621Y-90632266D01*
X152791500Y-90659049D01*
X152791500Y-101580500D01*
X152771498Y-101648621D01*
X152717842Y-101695114D01*
X152665500Y-101706500D01*
X152209985Y-101706500D01*
X152208446Y-101706491D01*
X152105081Y-101705228D01*
X152105079Y-101705228D01*
X152099911Y-101705165D01*
X152094797Y-101705948D01*
X152091289Y-101706193D01*
X152082496Y-101706500D01*
X151296866Y-101706500D01*
X151234684Y-101713255D01*
X151098295Y-101764385D01*
X151049983Y-101800593D01*
X151000565Y-101837630D01*
X150934059Y-101862478D01*
X150864676Y-101847425D01*
X150849435Y-101837630D01*
X150800017Y-101800593D01*
X150751705Y-101764385D01*
X150615316Y-101713255D01*
X150553134Y-101706500D01*
X149669985Y-101706500D01*
X149668446Y-101706491D01*
X149565081Y-101705228D01*
X149565079Y-101705228D01*
X149559911Y-101705165D01*
X149554797Y-101705948D01*
X149551289Y-101706193D01*
X149542496Y-101706500D01*
X148756866Y-101706500D01*
X148694684Y-101713255D01*
X148558295Y-101764385D01*
X148509984Y-101800592D01*
X148460148Y-101837942D01*
X148393642Y-101862790D01*
X148324259Y-101847737D01*
X148309018Y-101837942D01*
X148218649Y-101770214D01*
X148203054Y-101761676D01*
X148082606Y-101716522D01*
X148067351Y-101712895D01*
X148016486Y-101707369D01*
X148009672Y-101707000D01*
X147387115Y-101707000D01*
X147371876Y-101711475D01*
X147370671Y-101712865D01*
X147369000Y-101720548D01*
X147369000Y-106204884D01*
X147373475Y-106220123D01*
X147374865Y-106221328D01*
X147382548Y-106222999D01*
X148009669Y-106222999D01*
X148016490Y-106222629D01*
X148067352Y-106217105D01*
X148082604Y-106213479D01*
X148203054Y-106168324D01*
X148218649Y-106159786D01*
X148309018Y-106092058D01*
X148375525Y-106067210D01*
X148444907Y-106082263D01*
X148460148Y-106092058D01*
X148471995Y-106100937D01*
X148558295Y-106165615D01*
X148694684Y-106216745D01*
X148756866Y-106223500D01*
X150553134Y-106223500D01*
X150615316Y-106216745D01*
X150751705Y-106165615D01*
X150849436Y-106092370D01*
X150915941Y-106067522D01*
X150985324Y-106082575D01*
X151000562Y-106092368D01*
X151098295Y-106165615D01*
X151234684Y-106216745D01*
X151296866Y-106223500D01*
X152665500Y-106223500D01*
X152733621Y-106243502D01*
X152780114Y-106297158D01*
X152791500Y-106349500D01*
X152791500Y-109141360D01*
X152771498Y-109209481D01*
X152741153Y-109242120D01*
X152589965Y-109355635D01*
X152435629Y-109517138D01*
X152328201Y-109674621D01*
X152273293Y-109719621D01*
X152202768Y-109727792D01*
X152139021Y-109696538D01*
X152118324Y-109672054D01*
X152037822Y-109547617D01*
X152037820Y-109547614D01*
X152035014Y-109543277D01*
X151884670Y-109378051D01*
X151880619Y-109374852D01*
X151880615Y-109374848D01*
X151713414Y-109242800D01*
X151713410Y-109242798D01*
X151709359Y-109239598D01*
X151673028Y-109219542D01*
X151633607Y-109197781D01*
X151513789Y-109131638D01*
X151508920Y-109129914D01*
X151508916Y-109129912D01*
X151308087Y-109058795D01*
X151308083Y-109058794D01*
X151303212Y-109057069D01*
X151298119Y-109056162D01*
X151298116Y-109056161D01*
X151088373Y-109018800D01*
X151088367Y-109018799D01*
X151083284Y-109017894D01*
X151009452Y-109016992D01*
X150865081Y-109015228D01*
X150865079Y-109015228D01*
X150859911Y-109015165D01*
X150639091Y-109048955D01*
X150426756Y-109118357D01*
X150228607Y-109221507D01*
X150224474Y-109224610D01*
X150224471Y-109224612D01*
X150054100Y-109352530D01*
X150049965Y-109355635D01*
X149895629Y-109517138D01*
X149892720Y-109521403D01*
X149892714Y-109521411D01*
X149857353Y-109573248D01*
X149788204Y-109674618D01*
X149787898Y-109675066D01*
X149732987Y-109720069D01*
X149662462Y-109728240D01*
X149598715Y-109696986D01*
X149578018Y-109672502D01*
X149497426Y-109547926D01*
X149491136Y-109539757D01*
X149347806Y-109382240D01*
X149340273Y-109375215D01*
X149173139Y-109243222D01*
X149164552Y-109237517D01*
X148978117Y-109134599D01*
X148968705Y-109130369D01*
X148767959Y-109059280D01*
X148757988Y-109056646D01*
X148686837Y-109043972D01*
X148673540Y-109045432D01*
X148669000Y-109059989D01*
X148669000Y-110503000D01*
X148648998Y-110571121D01*
X148595342Y-110617614D01*
X148543000Y-110629000D01*
X148287000Y-110629000D01*
X148218879Y-110608998D01*
X148172386Y-110555342D01*
X148161000Y-110503000D01*
X148161000Y-109058102D01*
X148157082Y-109044758D01*
X148142806Y-109042771D01*
X148104324Y-109048660D01*
X148094288Y-109051051D01*
X147891868Y-109117212D01*
X147882359Y-109121209D01*
X147693463Y-109219542D01*
X147684738Y-109225036D01*
X147514433Y-109352905D01*
X147506726Y-109359748D01*
X147429478Y-109440584D01*
X147367954Y-109476014D01*
X147297042Y-109472557D01*
X147239255Y-109431311D01*
X147220402Y-109397763D01*
X147178767Y-109286703D01*
X147175615Y-109278295D01*
X147088261Y-109161739D01*
X146971705Y-109074385D01*
X146835316Y-109023255D01*
X146773134Y-109016500D01*
X145059500Y-109016500D01*
X144991379Y-108996498D01*
X144944886Y-108942842D01*
X144933500Y-108890500D01*
X144933500Y-106349500D01*
X144953502Y-106281379D01*
X145007158Y-106234886D01*
X145059500Y-106223500D01*
X145473134Y-106223500D01*
X145535316Y-106216745D01*
X145671705Y-106165615D01*
X145758005Y-106100937D01*
X145769852Y-106092058D01*
X145836358Y-106067210D01*
X145905741Y-106082263D01*
X145920982Y-106092058D01*
X146011351Y-106159786D01*
X146026946Y-106168324D01*
X146147394Y-106213478D01*
X146162649Y-106217105D01*
X146213514Y-106222631D01*
X146220328Y-106223000D01*
X146842885Y-106223000D01*
X146858124Y-106218525D01*
X146859329Y-106217135D01*
X146861000Y-106209452D01*
X146861000Y-101725116D01*
X146856525Y-101709877D01*
X146855135Y-101708672D01*
X146847452Y-101707001D01*
X146220331Y-101707001D01*
X146213510Y-101707371D01*
X146162648Y-101712895D01*
X146147396Y-101716521D01*
X146026946Y-101761676D01*
X146011351Y-101770214D01*
X145920982Y-101837942D01*
X145854475Y-101862790D01*
X145785093Y-101847737D01*
X145769852Y-101837942D01*
X145720016Y-101800592D01*
X145671705Y-101764385D01*
X145535316Y-101713255D01*
X145473134Y-101706500D01*
X144589985Y-101706500D01*
X144588446Y-101706491D01*
X144485081Y-101705228D01*
X144485079Y-101705228D01*
X144479911Y-101705165D01*
X144474797Y-101705948D01*
X144471289Y-101706193D01*
X144462496Y-101706500D01*
X143676866Y-101706500D01*
X143614684Y-101713255D01*
X143478295Y-101764385D01*
X143429983Y-101800593D01*
X143380565Y-101837630D01*
X143314059Y-101862478D01*
X143244676Y-101847425D01*
X143229435Y-101837630D01*
X143180017Y-101800593D01*
X143131705Y-101764385D01*
X142995316Y-101713255D01*
X142933134Y-101706500D01*
X142049985Y-101706500D01*
X142048446Y-101706491D01*
X141945081Y-101705228D01*
X141945079Y-101705228D01*
X141939911Y-101705165D01*
X141934797Y-101705948D01*
X141931289Y-101706193D01*
X141922496Y-101706500D01*
X141565300Y-101706500D01*
X141497179Y-101686498D01*
X141450686Y-101632842D01*
X141439300Y-101580500D01*
X141439300Y-98539550D01*
X141459302Y-98471429D01*
X141476205Y-98450455D01*
X146654033Y-93272627D01*
X146704191Y-93241890D01*
X146763743Y-93222540D01*
X146786023Y-93215301D01*
X146786026Y-93215300D01*
X146792722Y-93213124D01*
X146938890Y-93125990D01*
X146943984Y-93121139D01*
X146943988Y-93121136D01*
X147040198Y-93029516D01*
X147062121Y-93008639D01*
X147067193Y-93001006D01*
X147134497Y-92899704D01*
X147156291Y-92866902D01*
X147216719Y-92707825D01*
X147240401Y-92539313D01*
X147240699Y-92518000D01*
X147221731Y-92348892D01*
X147165768Y-92188189D01*
X147159783Y-92178610D01*
X147137820Y-92143464D01*
X147075592Y-92043879D01*
X146955686Y-91923132D01*
X146939439Y-91912821D01*
X146900806Y-91888304D01*
X146812008Y-91831951D01*
X146651700Y-91774868D01*
X146482729Y-91754720D01*
X146475726Y-91755456D01*
X146475725Y-91755456D01*
X146320501Y-91771770D01*
X146320497Y-91771771D01*
X146313493Y-91772507D01*
X146306822Y-91774778D01*
X146159073Y-91825075D01*
X146159070Y-91825076D01*
X146152403Y-91827346D01*
X146146405Y-91831036D01*
X146146403Y-91831037D01*
X146013465Y-91912821D01*
X146013463Y-91912823D01*
X146007466Y-91916512D01*
X145885886Y-92035573D01*
X145882075Y-92041487D01*
X145882073Y-92041489D01*
X145839293Y-92107870D01*
X145793704Y-92178610D01*
X145767629Y-92250249D01*
X145750709Y-92296737D01*
X145721403Y-92342737D01*
X140373195Y-97690945D01*
X140364415Y-97698935D01*
X140364413Y-97698937D01*
X140357720Y-97703184D01*
X140352294Y-97708962D01*
X140352293Y-97708963D01*
X140309196Y-97754857D01*
X140306441Y-97757699D01*
X140285873Y-97778267D01*
X140283156Y-97781770D01*
X140275448Y-97790795D01*
X140243828Y-97824467D01*
X140240007Y-97831418D01*
X140240006Y-97831419D01*
X140233497Y-97843258D01*
X140222643Y-97859782D01*
X140214818Y-97869871D01*
X140209496Y-97876732D01*
X140206349Y-97884004D01*
X140206348Y-97884006D01*
X140191146Y-97919135D01*
X140185924Y-97929795D01*
X140176038Y-97947778D01*
X140163676Y-97970263D01*
X140158341Y-97991041D01*
X140151942Y-98009731D01*
X140143420Y-98029424D01*
X140142180Y-98037255D01*
X140136194Y-98075048D01*
X140133787Y-98086671D01*
X140122300Y-98131412D01*
X140122300Y-98152859D01*
X140120749Y-98172569D01*
X140117394Y-98193752D01*
X140119627Y-98217369D01*
X140121741Y-98239738D01*
X140122300Y-98251596D01*
X140122300Y-101202750D01*
X140102298Y-101270871D01*
X140048642Y-101317364D01*
X139978368Y-101327468D01*
X139913788Y-101297974D01*
X139907205Y-101291845D01*
X131284605Y-92669245D01*
X131250579Y-92606933D01*
X131247700Y-92580150D01*
X131247700Y-86769500D01*
X131267702Y-86701379D01*
X131321358Y-86654886D01*
X131373700Y-86643500D01*
X131845826Y-86643500D01*
X131850443Y-86643585D01*
X131931673Y-86646564D01*
X131931677Y-86646564D01*
X131936837Y-86646753D01*
X131941957Y-86646097D01*
X131941959Y-86646097D01*
X131954261Y-86644521D01*
X131970271Y-86643500D01*
X132773134Y-86643500D01*
X132835316Y-86636745D01*
X132971705Y-86585615D01*
X133069436Y-86512370D01*
X133135941Y-86487522D01*
X133205324Y-86502575D01*
X133220562Y-86512368D01*
X133318295Y-86585615D01*
X133454684Y-86636745D01*
X133516866Y-86643500D01*
X135313134Y-86643500D01*
X135375316Y-86636745D01*
X135511705Y-86585615D01*
X135609436Y-86512370D01*
X135675941Y-86487522D01*
X135745324Y-86502575D01*
X135760562Y-86512368D01*
X135858295Y-86585615D01*
X135994684Y-86636745D01*
X136056866Y-86643500D01*
X136925826Y-86643500D01*
X136930443Y-86643585D01*
X137011673Y-86646564D01*
X137011677Y-86646564D01*
X137016837Y-86646753D01*
X137021957Y-86646097D01*
X137021959Y-86646097D01*
X137034261Y-86644521D01*
X137050271Y-86643500D01*
X137853134Y-86643500D01*
X137915316Y-86636745D01*
X138051705Y-86585615D01*
X138149436Y-86512370D01*
X138215941Y-86487522D01*
X138285324Y-86502575D01*
X138300562Y-86512368D01*
X138398295Y-86585615D01*
X138534684Y-86636745D01*
X138596866Y-86643500D01*
X139465826Y-86643500D01*
X139470443Y-86643585D01*
X139551673Y-86646564D01*
X139551677Y-86646564D01*
X139556837Y-86646753D01*
X139561957Y-86646097D01*
X139561959Y-86646097D01*
X139574261Y-86644521D01*
X139590271Y-86643500D01*
X140393134Y-86643500D01*
X140455316Y-86636745D01*
X140591705Y-86585615D01*
X140689436Y-86512370D01*
X140755941Y-86487522D01*
X140825324Y-86502575D01*
X140840562Y-86512368D01*
X140938295Y-86585615D01*
X141074684Y-86636745D01*
X141136866Y-86643500D01*
X142005826Y-86643500D01*
X142010443Y-86643585D01*
X142091673Y-86646564D01*
X142091677Y-86646564D01*
X142096837Y-86646753D01*
X142101957Y-86646097D01*
X142101959Y-86646097D01*
X142114261Y-86644521D01*
X142130271Y-86643500D01*
X142933134Y-86643500D01*
X142995316Y-86636745D01*
X143131705Y-86585615D01*
X143229436Y-86512370D01*
X143295941Y-86487522D01*
X143365324Y-86502575D01*
X143380562Y-86512368D01*
X143478295Y-86585615D01*
X143614684Y-86636745D01*
X143676866Y-86643500D01*
X144545826Y-86643500D01*
X144550443Y-86643585D01*
X144631673Y-86646564D01*
X144631677Y-86646564D01*
X144636837Y-86646753D01*
X144641957Y-86646097D01*
X144641959Y-86646097D01*
X144654261Y-86644521D01*
X144670271Y-86643500D01*
X145473134Y-86643500D01*
X145535316Y-86636745D01*
X145671705Y-86585615D01*
X145769434Y-86512371D01*
X145769852Y-86512058D01*
X145836358Y-86487210D01*
X145905741Y-86502263D01*
X145920982Y-86512058D01*
X146011351Y-86579786D01*
X146026946Y-86588324D01*
X146147394Y-86633478D01*
X146162649Y-86637105D01*
X146213514Y-86642631D01*
X146220328Y-86643000D01*
X146842885Y-86643000D01*
X146858124Y-86638525D01*
X146859329Y-86637135D01*
X146861000Y-86629452D01*
X146861000Y-82145116D01*
X146856525Y-82129877D01*
X146855135Y-82128672D01*
X146847452Y-82127001D01*
X146220331Y-82127001D01*
X146213510Y-82127371D01*
X146162648Y-82132895D01*
X146147396Y-82136521D01*
X146026946Y-82181676D01*
X146011351Y-82190214D01*
X145920982Y-82257942D01*
X145854475Y-82282790D01*
X145785093Y-82267737D01*
X145769852Y-82257942D01*
X145709352Y-82212600D01*
X145671705Y-82184385D01*
X145535316Y-82133255D01*
X145473134Y-82126500D01*
X145327530Y-82126500D01*
X145259409Y-82106498D01*
X145210379Y-82046885D01*
X145200874Y-82022879D01*
X145197035Y-82011669D01*
X145184145Y-81967300D01*
X145173229Y-81948843D01*
X145164534Y-81931093D01*
X145156635Y-81911144D01*
X145129477Y-81873764D01*
X145122960Y-81863843D01*
X145099452Y-81824093D01*
X145084291Y-81808932D01*
X145071449Y-81793897D01*
X145068710Y-81790127D01*
X145058841Y-81776543D01*
X145023241Y-81747092D01*
X145014462Y-81739103D01*
X142767755Y-79492395D01*
X142759765Y-79483615D01*
X142759763Y-79483613D01*
X142755516Y-79476920D01*
X142703842Y-79428395D01*
X142701001Y-79425641D01*
X142680433Y-79405073D01*
X142676926Y-79402353D01*
X142667904Y-79394647D01*
X142657571Y-79384944D01*
X142634233Y-79363028D01*
X142627281Y-79359206D01*
X142615442Y-79352697D01*
X142598918Y-79341843D01*
X142588232Y-79333555D01*
X142581968Y-79328696D01*
X142574696Y-79325549D01*
X142574694Y-79325548D01*
X142539565Y-79310346D01*
X142528905Y-79305124D01*
X142495384Y-79286695D01*
X142495382Y-79286694D01*
X142488437Y-79282876D01*
X142467659Y-79277541D01*
X142448969Y-79271142D01*
X142429276Y-79262620D01*
X142383652Y-79255394D01*
X142372029Y-79252987D01*
X142344028Y-79245798D01*
X142327288Y-79241500D01*
X142305841Y-79241500D01*
X142286131Y-79239949D01*
X142264948Y-79236594D01*
X142218959Y-79240941D01*
X142207104Y-79241500D01*
X141765479Y-79241500D01*
X141697358Y-79221498D01*
X141682966Y-79210724D01*
X141677135Y-79205671D01*
X141669452Y-79204000D01*
X140597000Y-79204000D01*
X140528879Y-79183998D01*
X140482386Y-79130342D01*
X140471000Y-79078000D01*
X140471000Y-78677885D01*
X140979000Y-78677885D01*
X140983475Y-78693124D01*
X140984865Y-78694329D01*
X140992548Y-78696000D01*
X141664885Y-78696000D01*
X141680124Y-78691525D01*
X141681329Y-78690135D01*
X141683000Y-78682452D01*
X141683000Y-78654562D01*
X141682663Y-78648047D01*
X141673106Y-78555943D01*
X141670212Y-78542544D01*
X141620619Y-78393893D01*
X141614445Y-78380714D01*
X141532212Y-78247827D01*
X141523176Y-78236426D01*
X141412571Y-78126014D01*
X141401160Y-78117002D01*
X141268120Y-78034996D01*
X141254939Y-78028849D01*
X141106186Y-77979509D01*
X141092810Y-77976642D01*
X141001903Y-77967328D01*
X140996874Y-77967071D01*
X140981876Y-77971475D01*
X140980671Y-77972865D01*
X140979000Y-77980548D01*
X140979000Y-78677885D01*
X140471000Y-78677885D01*
X140471000Y-77985115D01*
X140466525Y-77969876D01*
X140465135Y-77968671D01*
X140457452Y-77967000D01*
X140454562Y-77967000D01*
X140448047Y-77967337D01*
X140355943Y-77976894D01*
X140342544Y-77979788D01*
X140193893Y-78029381D01*
X140180714Y-78035555D01*
X140047827Y-78117788D01*
X140030689Y-78131371D01*
X140029159Y-78129441D01*
X139977120Y-78157903D01*
X139906301Y-78152887D01*
X139869383Y-78129201D01*
X139868628Y-78130157D01*
X139862883Y-78125620D01*
X139857702Y-78120448D01*
X139839180Y-78109031D01*
X139791685Y-78056259D01*
X139789747Y-78051183D01*
X139789505Y-78051288D01*
X139786358Y-78044015D01*
X139784145Y-78036399D01*
X139780107Y-78029572D01*
X139777169Y-78022782D01*
X139768472Y-77952320D01*
X139782391Y-77912041D01*
X139792124Y-77894337D01*
X139797457Y-77873566D01*
X139803859Y-77854864D01*
X139812379Y-77835177D01*
X139819605Y-77789552D01*
X139822013Y-77777926D01*
X139831529Y-77740865D01*
X139831529Y-77740864D01*
X139833500Y-77733188D01*
X139833500Y-77711742D01*
X139835051Y-77692031D01*
X139837166Y-77678678D01*
X139838406Y-77670849D01*
X139834059Y-77624864D01*
X139833500Y-77613006D01*
X139833500Y-75322997D01*
X139853502Y-75254876D01*
X139907158Y-75208383D01*
X139977432Y-75198279D01*
X140037591Y-75224114D01*
X140048840Y-75232998D01*
X140181880Y-75315004D01*
X140195061Y-75321151D01*
X140343814Y-75370491D01*
X140357190Y-75373358D01*
X140448097Y-75382672D01*
X140453126Y-75382929D01*
X140468124Y-75378525D01*
X140469329Y-75377135D01*
X140471000Y-75369452D01*
X140471000Y-75364885D01*
X140979000Y-75364885D01*
X140983475Y-75380124D01*
X140984865Y-75381329D01*
X140992548Y-75383000D01*
X140995438Y-75383000D01*
X141001953Y-75382663D01*
X141094057Y-75373106D01*
X141107456Y-75370212D01*
X141256107Y-75320619D01*
X141269286Y-75314445D01*
X141402173Y-75232212D01*
X141413574Y-75223176D01*
X141523986Y-75112571D01*
X141532998Y-75101160D01*
X141615004Y-74968120D01*
X141621151Y-74954939D01*
X141670491Y-74806186D01*
X141673358Y-74792810D01*
X141682672Y-74701903D01*
X141683000Y-74695487D01*
X141683000Y-74672115D01*
X141678525Y-74656876D01*
X141677135Y-74655671D01*
X141669452Y-74654000D01*
X140997115Y-74654000D01*
X140981876Y-74658475D01*
X140980671Y-74659865D01*
X140979000Y-74667548D01*
X140979000Y-75364885D01*
X140471000Y-75364885D01*
X140471000Y-74272000D01*
X140491002Y-74203879D01*
X140544658Y-74157386D01*
X140597000Y-74146000D01*
X141664885Y-74146000D01*
X141680124Y-74141525D01*
X141681329Y-74140135D01*
X141683000Y-74132452D01*
X141683000Y-74104562D01*
X141682663Y-74098047D01*
X141673106Y-74005943D01*
X141670212Y-73992544D01*
X141620619Y-73843893D01*
X141614448Y-73830721D01*
X141587457Y-73787103D01*
X141568620Y-73718651D01*
X141589781Y-73650881D01*
X141644222Y-73605310D01*
X141694602Y-73594800D01*
X148456350Y-73594800D01*
X148524471Y-73614802D01*
X148545445Y-73631705D01*
X149424292Y-74510552D01*
X149458318Y-74572864D01*
X149453253Y-74643679D01*
X149410706Y-74700515D01*
X149344186Y-74725326D01*
X149333659Y-74725638D01*
X149300081Y-74725228D01*
X149300079Y-74725228D01*
X149294911Y-74725165D01*
X149074091Y-74758955D01*
X148861756Y-74828357D01*
X148834180Y-74842712D01*
X148677742Y-74924149D01*
X148663607Y-74931507D01*
X148659474Y-74934610D01*
X148659471Y-74934612D01*
X148489621Y-75062139D01*
X148484965Y-75065635D01*
X148446049Y-75106358D01*
X148379866Y-75175615D01*
X148330629Y-75227138D01*
X148223201Y-75384621D01*
X148168293Y-75429621D01*
X148097768Y-75437792D01*
X148034021Y-75406538D01*
X148013324Y-75382054D01*
X147932822Y-75257617D01*
X147932820Y-75257614D01*
X147930014Y-75253277D01*
X147779670Y-75088051D01*
X147775619Y-75084852D01*
X147775615Y-75084848D01*
X147608414Y-74952800D01*
X147608410Y-74952798D01*
X147604359Y-74949598D01*
X147408789Y-74841638D01*
X147403920Y-74839914D01*
X147403916Y-74839912D01*
X147203087Y-74768795D01*
X147203083Y-74768794D01*
X147198212Y-74767069D01*
X147193119Y-74766162D01*
X147193116Y-74766161D01*
X146983373Y-74728800D01*
X146983367Y-74728799D01*
X146978284Y-74727894D01*
X146904452Y-74726992D01*
X146760081Y-74725228D01*
X146760079Y-74725228D01*
X146754911Y-74725165D01*
X146534091Y-74758955D01*
X146321756Y-74828357D01*
X146294180Y-74842712D01*
X146137742Y-74924149D01*
X146123607Y-74931507D01*
X146119474Y-74934610D01*
X146119471Y-74934612D01*
X145949621Y-75062139D01*
X145944965Y-75065635D01*
X145906049Y-75106358D01*
X145839866Y-75175615D01*
X145790629Y-75227138D01*
X145787720Y-75231403D01*
X145787714Y-75231411D01*
X145745272Y-75293629D01*
X145664743Y-75411680D01*
X145617716Y-75512992D01*
X145595725Y-75560368D01*
X145570688Y-75614305D01*
X145510989Y-75829570D01*
X145487251Y-76051695D01*
X145487548Y-76056848D01*
X145487548Y-76056851D01*
X145497683Y-76232624D01*
X145500110Y-76274715D01*
X145501247Y-76279761D01*
X145501248Y-76279767D01*
X145521096Y-76367837D01*
X145549222Y-76492639D01*
X145633266Y-76699616D01*
X145683863Y-76782183D01*
X145747291Y-76885688D01*
X145749987Y-76890088D01*
X145896250Y-77058938D01*
X145900230Y-77062242D01*
X145904981Y-77066187D01*
X145944616Y-77125090D01*
X145946113Y-77196071D01*
X145908997Y-77256593D01*
X145868725Y-77281112D01*
X145824250Y-77297785D01*
X145753295Y-77324385D01*
X145636739Y-77411739D01*
X145549385Y-77528295D01*
X145498255Y-77664684D01*
X145491500Y-77726866D01*
X145491500Y-79523134D01*
X145498255Y-79585316D01*
X145549385Y-79721705D01*
X145636739Y-79838261D01*
X145753295Y-79925615D01*
X145889684Y-79976745D01*
X145951866Y-79983500D01*
X147748134Y-79983500D01*
X147810316Y-79976745D01*
X147946705Y-79925615D01*
X148063261Y-79838261D01*
X148150615Y-79721705D01*
X148164858Y-79683713D01*
X148194598Y-79604382D01*
X148237240Y-79547618D01*
X148303802Y-79522918D01*
X148373150Y-79538126D01*
X148407817Y-79566114D01*
X148436250Y-79598938D01*
X148608126Y-79741632D01*
X148801000Y-79854338D01*
X148805825Y-79856180D01*
X148805826Y-79856181D01*
X148844824Y-79871073D01*
X149009692Y-79934030D01*
X149014760Y-79935061D01*
X149014763Y-79935062D01*
X149082534Y-79948850D01*
X149228597Y-79978567D01*
X149233772Y-79978757D01*
X149233774Y-79978757D01*
X149446673Y-79986564D01*
X149446677Y-79986564D01*
X149451837Y-79986753D01*
X149456957Y-79986097D01*
X149456959Y-79986097D01*
X149668288Y-79959025D01*
X149668289Y-79959025D01*
X149673416Y-79958368D01*
X149678366Y-79956883D01*
X149882429Y-79895661D01*
X149882434Y-79895659D01*
X149887384Y-79894174D01*
X150087994Y-79795896D01*
X150269860Y-79666173D01*
X150274266Y-79661783D01*
X150413616Y-79522918D01*
X150428096Y-79508489D01*
X150450781Y-79476920D01*
X150558453Y-79327077D01*
X150559776Y-79328028D01*
X150606645Y-79284857D01*
X150676580Y-79272625D01*
X150742026Y-79300144D01*
X150769875Y-79331994D01*
X150829987Y-79430088D01*
X150976250Y-79598938D01*
X151148126Y-79741632D01*
X151341000Y-79854338D01*
X151345825Y-79856180D01*
X151345826Y-79856181D01*
X151384824Y-79871073D01*
X151549692Y-79934030D01*
X151554760Y-79935061D01*
X151554763Y-79935062D01*
X151622534Y-79948850D01*
X151768597Y-79978567D01*
X151773772Y-79978757D01*
X151773774Y-79978757D01*
X151986673Y-79986564D01*
X151986677Y-79986564D01*
X151991837Y-79986753D01*
X151996957Y-79986097D01*
X151996959Y-79986097D01*
X152208288Y-79959025D01*
X152208289Y-79959025D01*
X152213416Y-79958368D01*
X152218366Y-79956883D01*
X152422429Y-79895661D01*
X152422434Y-79895659D01*
X152427384Y-79894174D01*
X152627994Y-79795896D01*
X152809860Y-79666173D01*
X152814266Y-79661783D01*
X152953616Y-79522918D01*
X152968096Y-79508489D01*
X152990781Y-79476920D01*
X153098453Y-79327077D01*
X153099776Y-79328028D01*
X153146645Y-79284857D01*
X153216580Y-79272625D01*
X153282026Y-79300144D01*
X153309875Y-79331994D01*
X153369987Y-79430088D01*
X153516250Y-79598938D01*
X153688126Y-79741632D01*
X153881000Y-79854338D01*
X153885825Y-79856180D01*
X153885826Y-79856181D01*
X153924824Y-79871073D01*
X154089692Y-79934030D01*
X154094760Y-79935061D01*
X154094763Y-79935062D01*
X154162534Y-79948850D01*
X154308597Y-79978567D01*
X154313772Y-79978757D01*
X154313774Y-79978757D01*
X154526673Y-79986564D01*
X154526677Y-79986564D01*
X154531837Y-79986753D01*
X154536957Y-79986097D01*
X154536959Y-79986097D01*
X154748288Y-79959025D01*
X154748289Y-79959025D01*
X154753416Y-79958368D01*
X154758366Y-79956883D01*
X154962429Y-79895661D01*
X154962434Y-79895659D01*
X154967384Y-79894174D01*
X155167994Y-79795896D01*
X155349860Y-79666173D01*
X155354266Y-79661783D01*
X155493616Y-79522918D01*
X155508096Y-79508489D01*
X155530781Y-79476920D01*
X155638453Y-79327077D01*
X155639776Y-79328028D01*
X155686645Y-79284857D01*
X155756580Y-79272625D01*
X155822026Y-79300144D01*
X155849875Y-79331994D01*
X155909987Y-79430088D01*
X156056250Y-79598938D01*
X156228126Y-79741632D01*
X156421000Y-79854338D01*
X156425825Y-79856180D01*
X156425826Y-79856181D01*
X156464824Y-79871073D01*
X156629692Y-79934030D01*
X156634760Y-79935061D01*
X156634763Y-79935062D01*
X156702534Y-79948850D01*
X156848597Y-79978567D01*
X156853772Y-79978757D01*
X156853774Y-79978757D01*
X157066673Y-79986564D01*
X157066677Y-79986564D01*
X157071837Y-79986753D01*
X157076957Y-79986097D01*
X157076959Y-79986097D01*
X157288288Y-79959025D01*
X157288289Y-79959025D01*
X157293416Y-79958368D01*
X157298366Y-79956883D01*
X157502429Y-79895661D01*
X157502434Y-79895659D01*
X157507384Y-79894174D01*
X157707994Y-79795896D01*
X157889860Y-79666173D01*
X157894266Y-79661783D01*
X158033616Y-79522918D01*
X158048096Y-79508489D01*
X158070781Y-79476920D01*
X158178453Y-79327077D01*
X158179776Y-79328028D01*
X158226645Y-79284857D01*
X158296580Y-79272625D01*
X158362026Y-79300144D01*
X158389875Y-79331994D01*
X158449987Y-79430088D01*
X158596250Y-79598938D01*
X158768126Y-79741632D01*
X158961000Y-79854338D01*
X158965825Y-79856180D01*
X158965826Y-79856181D01*
X159004824Y-79871073D01*
X159169692Y-79934030D01*
X159174760Y-79935061D01*
X159174763Y-79935062D01*
X159242534Y-79948850D01*
X159388597Y-79978567D01*
X159393772Y-79978757D01*
X159393774Y-79978757D01*
X159606673Y-79986564D01*
X159606677Y-79986564D01*
X159611837Y-79986753D01*
X159616957Y-79986097D01*
X159616959Y-79986097D01*
X159828288Y-79959025D01*
X159828289Y-79959025D01*
X159833416Y-79958368D01*
X159838366Y-79956883D01*
X160042429Y-79895661D01*
X160042434Y-79895659D01*
X160047384Y-79894174D01*
X160247994Y-79795896D01*
X160429860Y-79666173D01*
X160434266Y-79661783D01*
X160573616Y-79522918D01*
X160588096Y-79508489D01*
X160610781Y-79476920D01*
X160718453Y-79327077D01*
X160719776Y-79328028D01*
X160766645Y-79284857D01*
X160836580Y-79272625D01*
X160902026Y-79300144D01*
X160929875Y-79331994D01*
X160989987Y-79430088D01*
X161136250Y-79598938D01*
X161308126Y-79741632D01*
X161501000Y-79854338D01*
X161505825Y-79856180D01*
X161505826Y-79856181D01*
X161544824Y-79871073D01*
X161709692Y-79934030D01*
X161714760Y-79935061D01*
X161714763Y-79935062D01*
X161782534Y-79948850D01*
X161928597Y-79978567D01*
X161933772Y-79978757D01*
X161933774Y-79978757D01*
X162146673Y-79986564D01*
X162146677Y-79986564D01*
X162151837Y-79986753D01*
X162156957Y-79986097D01*
X162156959Y-79986097D01*
X162368288Y-79959025D01*
X162368289Y-79959025D01*
X162373416Y-79958368D01*
X162378366Y-79956883D01*
X162582429Y-79895661D01*
X162582434Y-79895659D01*
X162587384Y-79894174D01*
X162787994Y-79795896D01*
X162969860Y-79666173D01*
X162974266Y-79661783D01*
X163113616Y-79522918D01*
X163128096Y-79508489D01*
X163150781Y-79476920D01*
X163255435Y-79331277D01*
X163258453Y-79327077D01*
X163267887Y-79307990D01*
X163355136Y-79131453D01*
X163355137Y-79131451D01*
X163357430Y-79126811D01*
X163422370Y-78913069D01*
X163451529Y-78691590D01*
X163451864Y-78677885D01*
X163453074Y-78628365D01*
X163453074Y-78628361D01*
X163453156Y-78625000D01*
X163434852Y-78402361D01*
X163380431Y-78185702D01*
X163291354Y-77980840D01*
X163220147Y-77870771D01*
X163172822Y-77797617D01*
X163172820Y-77797614D01*
X163170014Y-77793277D01*
X163019670Y-77628051D01*
X163015619Y-77624852D01*
X163015615Y-77624848D01*
X162848414Y-77492800D01*
X162848410Y-77492798D01*
X162844359Y-77489598D01*
X162802569Y-77466529D01*
X162752598Y-77416097D01*
X162737826Y-77346654D01*
X162762942Y-77280248D01*
X162790294Y-77253641D01*
X162965328Y-77128792D01*
X162973200Y-77122139D01*
X163124052Y-76971812D01*
X163130730Y-76963965D01*
X163255003Y-76791020D01*
X163260313Y-76782183D01*
X163354670Y-76591267D01*
X163358469Y-76581672D01*
X163420377Y-76377910D01*
X163422555Y-76367837D01*
X163423986Y-76356962D01*
X163421775Y-76342778D01*
X163408617Y-76339000D01*
X161962000Y-76339000D01*
X161893879Y-76318998D01*
X161847386Y-76265342D01*
X161836000Y-76213000D01*
X161836000Y-75957000D01*
X161856002Y-75888879D01*
X161909658Y-75842386D01*
X161962000Y-75831000D01*
X163408344Y-75831000D01*
X163421875Y-75827027D01*
X163423180Y-75817947D01*
X163381214Y-75650875D01*
X163377894Y-75641123D01*
X163375121Y-75634746D01*
X163366299Y-75564300D01*
X163396963Y-75500267D01*
X163457378Y-75462977D01*
X163490669Y-75458500D01*
X171525229Y-75458500D01*
X171593350Y-75478502D01*
X171614324Y-75495405D01*
X172218416Y-76099497D01*
X172252442Y-76161809D01*
X172247377Y-76232624D01*
X172204886Y-76289418D01*
X172138920Y-76338857D01*
X172131739Y-76344239D01*
X172044385Y-76460795D01*
X171993255Y-76597184D01*
X171986500Y-76659366D01*
X171986500Y-78660634D01*
X171993255Y-78722816D01*
X172044385Y-78859205D01*
X172131739Y-78975761D01*
X172248295Y-79063115D01*
X172267368Y-79070265D01*
X172268683Y-79070758D01*
X172325447Y-79113401D01*
X172350146Y-79179962D01*
X172334938Y-79249311D01*
X172323334Y-79266832D01*
X172230055Y-79384944D01*
X172224350Y-79393531D01*
X172113286Y-79594722D01*
X172109056Y-79604134D01*
X172032341Y-79820768D01*
X172029707Y-79830739D01*
X172012353Y-79928163D01*
X172013813Y-79941460D01*
X172028370Y-79946000D01*
X174963096Y-79946000D01*
X174976440Y-79942082D01*
X174978427Y-79927806D01*
X174968890Y-79865485D01*
X174966501Y-79855457D01*
X174895102Y-79637012D01*
X174891105Y-79627503D01*
X174784989Y-79423656D01*
X174779500Y-79414939D01*
X174666098Y-79263901D01*
X174641193Y-79197416D01*
X174656186Y-79128020D01*
X174706316Y-79077747D01*
X174722625Y-79070268D01*
X174741705Y-79063115D01*
X174858261Y-78975761D01*
X174945615Y-78859205D01*
X174996745Y-78722816D01*
X175003500Y-78660634D01*
X175003500Y-76659366D01*
X174996745Y-76597184D01*
X174945615Y-76460795D01*
X174858261Y-76344239D01*
X174741705Y-76256885D01*
X174605316Y-76205755D01*
X174543134Y-76199000D01*
X174352364Y-76199000D01*
X174284243Y-76178998D01*
X174237750Y-76125342D01*
X174233925Y-76115992D01*
X174213265Y-76059073D01*
X174211848Y-76054945D01*
X174191607Y-75992464D01*
X174191606Y-75992462D01*
X174189351Y-75985501D01*
X174185555Y-75979246D01*
X174183049Y-75973772D01*
X174180330Y-75968342D01*
X174177833Y-75961463D01*
X174147163Y-75914684D01*
X174137814Y-75900424D01*
X174135467Y-75896705D01*
X174130718Y-75888879D01*
X174097595Y-75834293D01*
X174090197Y-75825916D01*
X174090224Y-75825892D01*
X174087571Y-75822900D01*
X174084868Y-75819667D01*
X174080856Y-75813548D01*
X174024617Y-75760272D01*
X174022175Y-75757894D01*
X172475370Y-74211089D01*
X172462984Y-74196677D01*
X172454451Y-74185082D01*
X172454446Y-74185077D01*
X172450108Y-74179182D01*
X172444530Y-74174443D01*
X172444527Y-74174440D01*
X172409832Y-74144965D01*
X172402316Y-74138035D01*
X172396621Y-74132340D01*
X172380336Y-74119456D01*
X172374349Y-74114719D01*
X172370945Y-74111928D01*
X172320897Y-74069409D01*
X172320895Y-74069408D01*
X172315315Y-74064667D01*
X172308799Y-74061339D01*
X172303750Y-74057972D01*
X172298621Y-74054805D01*
X172292884Y-74050266D01*
X172226725Y-74019345D01*
X172222825Y-74017439D01*
X172157792Y-73984231D01*
X172150684Y-73982492D01*
X172145041Y-73980393D01*
X172139278Y-73978476D01*
X172132650Y-73975378D01*
X172061183Y-73960513D01*
X172056899Y-73959543D01*
X171985990Y-73942192D01*
X171980388Y-73941844D01*
X171980385Y-73941844D01*
X171974836Y-73941500D01*
X171974838Y-73941464D01*
X171970845Y-73941225D01*
X171966653Y-73940851D01*
X171959485Y-73939360D01*
X171895720Y-73941085D01*
X171882079Y-73941454D01*
X171878672Y-73941500D01*
X161002070Y-73941500D01*
X160983120Y-73940067D01*
X160968885Y-73937901D01*
X160968881Y-73937901D01*
X160961651Y-73936801D01*
X160954359Y-73937394D01*
X160954356Y-73937394D01*
X160908982Y-73941085D01*
X160898767Y-73941500D01*
X160890707Y-73941500D01*
X160887073Y-73941924D01*
X160887067Y-73941924D01*
X160874042Y-73943443D01*
X160862480Y-73944791D01*
X160858132Y-73945221D01*
X160785364Y-73951140D01*
X160778403Y-73953395D01*
X160772463Y-73954582D01*
X160766588Y-73955971D01*
X160759319Y-73956818D01*
X160690670Y-73981736D01*
X160686542Y-73983153D01*
X160624064Y-74003393D01*
X160624062Y-74003394D01*
X160617101Y-74005649D01*
X160610846Y-74009445D01*
X160605372Y-74011951D01*
X160599942Y-74014670D01*
X160593063Y-74017167D01*
X160586943Y-74021180D01*
X160586942Y-74021180D01*
X160532024Y-74057186D01*
X160528320Y-74059523D01*
X160465893Y-74097405D01*
X160461685Y-74101121D01*
X160461684Y-74101122D01*
X160459033Y-74103463D01*
X160457516Y-74104803D01*
X160457492Y-74104776D01*
X160454500Y-74107429D01*
X160451267Y-74110132D01*
X160445148Y-74114144D01*
X160415951Y-74144965D01*
X160391872Y-74170383D01*
X160389494Y-74172825D01*
X159857296Y-74705023D01*
X159794984Y-74739049D01*
X159746105Y-74739975D01*
X159678284Y-74727894D01*
X159604452Y-74726992D01*
X159460081Y-74725228D01*
X159460079Y-74725228D01*
X159454911Y-74725165D01*
X159234091Y-74758955D01*
X159021756Y-74828357D01*
X158994180Y-74842712D01*
X158837742Y-74924149D01*
X158823607Y-74931507D01*
X158819474Y-74934610D01*
X158819471Y-74934612D01*
X158649621Y-75062139D01*
X158644965Y-75065635D01*
X158606049Y-75106358D01*
X158539866Y-75175615D01*
X158490629Y-75227138D01*
X158383201Y-75384621D01*
X158328293Y-75429621D01*
X158257768Y-75437792D01*
X158194021Y-75406538D01*
X158173324Y-75382054D01*
X158092822Y-75257617D01*
X158092820Y-75257614D01*
X158090014Y-75253277D01*
X157939670Y-75088051D01*
X157935619Y-75084852D01*
X157935615Y-75084848D01*
X157768414Y-74952800D01*
X157768410Y-74952798D01*
X157764359Y-74949598D01*
X157568789Y-74841638D01*
X157563920Y-74839914D01*
X157563916Y-74839912D01*
X157363087Y-74768795D01*
X157363083Y-74768794D01*
X157358212Y-74767069D01*
X157353119Y-74766162D01*
X157353116Y-74766161D01*
X157143373Y-74728800D01*
X157143367Y-74728799D01*
X157138284Y-74727894D01*
X157064452Y-74726992D01*
X156920081Y-74725228D01*
X156920079Y-74725228D01*
X156914911Y-74725165D01*
X156694091Y-74758955D01*
X156481756Y-74828357D01*
X156454180Y-74842712D01*
X156297742Y-74924149D01*
X156283607Y-74931507D01*
X156279474Y-74934610D01*
X156279471Y-74934612D01*
X156109621Y-75062139D01*
X156104965Y-75065635D01*
X156066049Y-75106358D01*
X155999866Y-75175615D01*
X155950629Y-75227138D01*
X155843201Y-75384621D01*
X155788293Y-75429621D01*
X155717768Y-75437792D01*
X155654021Y-75406538D01*
X155633324Y-75382054D01*
X155552822Y-75257617D01*
X155552820Y-75257614D01*
X155550014Y-75253277D01*
X155399670Y-75088051D01*
X155395619Y-75084852D01*
X155395615Y-75084848D01*
X155228414Y-74952800D01*
X155228410Y-74952798D01*
X155224359Y-74949598D01*
X155028789Y-74841638D01*
X155023920Y-74839914D01*
X155023916Y-74839912D01*
X154823087Y-74768795D01*
X154823083Y-74768794D01*
X154818212Y-74767069D01*
X154813119Y-74766162D01*
X154813116Y-74766161D01*
X154603373Y-74728800D01*
X154603367Y-74728799D01*
X154598284Y-74727894D01*
X154524452Y-74726992D01*
X154380081Y-74725228D01*
X154380079Y-74725228D01*
X154374911Y-74725165D01*
X154154091Y-74758955D01*
X153941756Y-74828357D01*
X153914180Y-74842712D01*
X153757742Y-74924149D01*
X153743607Y-74931507D01*
X153739474Y-74934610D01*
X153739471Y-74934612D01*
X153569621Y-75062139D01*
X153564965Y-75065635D01*
X153526049Y-75106358D01*
X153459866Y-75175615D01*
X153410629Y-75227138D01*
X153303201Y-75384621D01*
X153248293Y-75429621D01*
X153177768Y-75437792D01*
X153114021Y-75406538D01*
X153093324Y-75382054D01*
X153012822Y-75257617D01*
X153012820Y-75257614D01*
X153010014Y-75253277D01*
X152859670Y-75088051D01*
X152855619Y-75084852D01*
X152855615Y-75084848D01*
X152688414Y-74952800D01*
X152688410Y-74952798D01*
X152684359Y-74949598D01*
X152488789Y-74841638D01*
X152483920Y-74839914D01*
X152483916Y-74839912D01*
X152283087Y-74768795D01*
X152283083Y-74768794D01*
X152278212Y-74767069D01*
X152273119Y-74766162D01*
X152273116Y-74766161D01*
X152063373Y-74728800D01*
X152063367Y-74728799D01*
X152058284Y-74727894D01*
X151984452Y-74726992D01*
X151840081Y-74725228D01*
X151840079Y-74725228D01*
X151834911Y-74725165D01*
X151614091Y-74758955D01*
X151613927Y-74757886D01*
X151548352Y-74754497D01*
X151500948Y-74724689D01*
X149649855Y-72873595D01*
X149615829Y-72811283D01*
X149620894Y-72740467D01*
X149663441Y-72683632D01*
X149729961Y-72658821D01*
X149738950Y-72658500D01*
X179580500Y-72658500D01*
X179648621Y-72678502D01*
G37*
G04 #@! TD.AperFunction*
G04 #@! TA.AperFunction,Conductor*
G36*
X129310443Y-86643585D02*
G01*
X129391673Y-86646564D01*
X129391677Y-86646564D01*
X129396837Y-86646753D01*
X129401957Y-86646097D01*
X129401959Y-86646097D01*
X129414261Y-86644521D01*
X129430271Y-86643500D01*
X129804700Y-86643500D01*
X129872821Y-86663502D01*
X129919314Y-86717158D01*
X129930700Y-86769500D01*
X129930700Y-92823044D01*
X129930141Y-92834900D01*
X129928412Y-92842637D01*
X129929074Y-92863689D01*
X129930638Y-92913469D01*
X129930700Y-92917427D01*
X129930700Y-92946532D01*
X129931256Y-92950932D01*
X129932188Y-92962764D01*
X129933638Y-93008931D01*
X129935850Y-93016544D01*
X129935850Y-93016545D01*
X129939619Y-93029516D01*
X129943630Y-93048882D01*
X129946318Y-93070164D01*
X129949234Y-93077529D01*
X129949235Y-93077533D01*
X129963326Y-93113121D01*
X129967165Y-93124331D01*
X129980055Y-93168700D01*
X129990975Y-93187165D01*
X129999666Y-93204905D01*
X130007565Y-93224856D01*
X130026732Y-93251237D01*
X130034716Y-93262226D01*
X130041233Y-93272148D01*
X130060707Y-93305077D01*
X130060710Y-93305081D01*
X130064747Y-93311907D01*
X130079911Y-93327071D01*
X130092751Y-93342104D01*
X130105359Y-93359457D01*
X130125164Y-93375841D01*
X130140952Y-93388902D01*
X130149732Y-93396892D01*
X138363512Y-101610672D01*
X138397538Y-101672984D01*
X138392473Y-101743799D01*
X138349983Y-101800592D01*
X138300566Y-101837629D01*
X138234060Y-101862478D01*
X138164678Y-101847426D01*
X138149435Y-101837630D01*
X138100017Y-101800593D01*
X138051705Y-101764385D01*
X137915316Y-101713255D01*
X137853134Y-101706500D01*
X136969985Y-101706500D01*
X136968446Y-101706491D01*
X136865081Y-101705228D01*
X136865079Y-101705228D01*
X136859911Y-101705165D01*
X136854797Y-101705948D01*
X136851289Y-101706193D01*
X136842496Y-101706500D01*
X136579951Y-101706500D01*
X136511830Y-101686498D01*
X136490856Y-101669596D01*
X136138650Y-101317391D01*
X136130662Y-101308611D01*
X136126416Y-101301920D01*
X136074741Y-101253394D01*
X136071900Y-101250640D01*
X136051333Y-101230073D01*
X136047826Y-101227353D01*
X136038804Y-101219647D01*
X136005133Y-101188028D01*
X135998181Y-101184206D01*
X135986342Y-101177697D01*
X135969818Y-101166843D01*
X135959132Y-101158555D01*
X135952868Y-101153696D01*
X135945596Y-101150549D01*
X135945594Y-101150548D01*
X135910465Y-101135346D01*
X135899805Y-101130124D01*
X135866284Y-101111695D01*
X135866282Y-101111694D01*
X135859337Y-101107876D01*
X135838559Y-101102541D01*
X135819869Y-101096142D01*
X135800176Y-101087620D01*
X135754552Y-101080394D01*
X135742929Y-101077987D01*
X135708661Y-101069189D01*
X135698188Y-101066500D01*
X135676741Y-101066500D01*
X135657031Y-101064949D01*
X135643677Y-101062834D01*
X135635848Y-101061594D01*
X135589859Y-101065941D01*
X135578004Y-101066500D01*
X133297056Y-101066500D01*
X133285200Y-101065941D01*
X133285197Y-101065941D01*
X133277463Y-101064212D01*
X133222446Y-101065941D01*
X133206631Y-101066438D01*
X133202673Y-101066500D01*
X133173568Y-101066500D01*
X133169168Y-101067056D01*
X133157336Y-101067988D01*
X133111169Y-101069438D01*
X133090579Y-101075420D01*
X133071218Y-101079430D01*
X133064230Y-101080312D01*
X133057796Y-101081125D01*
X133057795Y-101081125D01*
X133049936Y-101082118D01*
X133042571Y-101085034D01*
X133042567Y-101085035D01*
X133006979Y-101099126D01*
X132995769Y-101102965D01*
X132951400Y-101115855D01*
X132932943Y-101126771D01*
X132915193Y-101135466D01*
X132895244Y-101143365D01*
X132888833Y-101148023D01*
X132888831Y-101148024D01*
X132857864Y-101170523D01*
X132847946Y-101177038D01*
X132808193Y-101200548D01*
X132793032Y-101215709D01*
X132778000Y-101228548D01*
X132760643Y-101241159D01*
X132755590Y-101247267D01*
X132731194Y-101276757D01*
X132723204Y-101285537D01*
X132339146Y-101669595D01*
X132276834Y-101703621D01*
X132250051Y-101706500D01*
X131889985Y-101706500D01*
X131888446Y-101706491D01*
X131785081Y-101705228D01*
X131785079Y-101705228D01*
X131779911Y-101705165D01*
X131774797Y-101705948D01*
X131771289Y-101706193D01*
X131762496Y-101706500D01*
X130976866Y-101706500D01*
X130914684Y-101713255D01*
X130778295Y-101764385D01*
X130729983Y-101800593D01*
X130680565Y-101837630D01*
X130614059Y-101862478D01*
X130544676Y-101847425D01*
X130529435Y-101837630D01*
X130480017Y-101800593D01*
X130431705Y-101764385D01*
X130295316Y-101713255D01*
X130233134Y-101706500D01*
X129349985Y-101706500D01*
X129348446Y-101706491D01*
X129245081Y-101705228D01*
X129245079Y-101705228D01*
X129239911Y-101705165D01*
X129234797Y-101705948D01*
X129231289Y-101706193D01*
X129222496Y-101706500D01*
X128436866Y-101706500D01*
X128374684Y-101713255D01*
X128238295Y-101764385D01*
X128189983Y-101800593D01*
X128140565Y-101837630D01*
X128074059Y-101862478D01*
X128004676Y-101847425D01*
X127989435Y-101837630D01*
X127940017Y-101800593D01*
X127891705Y-101764385D01*
X127755316Y-101713255D01*
X127693134Y-101706500D01*
X126809985Y-101706500D01*
X126808446Y-101706491D01*
X126705081Y-101705228D01*
X126705079Y-101705228D01*
X126699911Y-101705165D01*
X126694797Y-101705948D01*
X126691289Y-101706193D01*
X126682496Y-101706500D01*
X125896866Y-101706500D01*
X125834684Y-101713255D01*
X125698295Y-101764385D01*
X125649983Y-101800593D01*
X125600565Y-101837630D01*
X125534059Y-101862478D01*
X125464676Y-101847425D01*
X125449435Y-101837630D01*
X125400017Y-101800593D01*
X125351705Y-101764385D01*
X125215316Y-101713255D01*
X125153134Y-101706500D01*
X124269985Y-101706500D01*
X124268446Y-101706491D01*
X124165081Y-101705228D01*
X124165079Y-101705228D01*
X124159911Y-101705165D01*
X124154797Y-101705948D01*
X124151289Y-101706193D01*
X124142496Y-101706500D01*
X123356866Y-101706500D01*
X123294684Y-101713255D01*
X123158295Y-101764385D01*
X123109984Y-101800592D01*
X123060148Y-101837942D01*
X122993642Y-101862790D01*
X122924259Y-101847737D01*
X122909018Y-101837942D01*
X122818649Y-101770214D01*
X122803054Y-101761676D01*
X122682606Y-101716522D01*
X122667351Y-101712895D01*
X122616486Y-101707369D01*
X122609672Y-101707000D01*
X121987115Y-101707000D01*
X121971876Y-101711475D01*
X121970671Y-101712865D01*
X121969000Y-101720548D01*
X121969000Y-104337000D01*
X121948998Y-104405121D01*
X121895342Y-104451614D01*
X121843000Y-104463000D01*
X121587000Y-104463000D01*
X121518879Y-104442998D01*
X121472386Y-104389342D01*
X121461000Y-104337000D01*
X121461000Y-101725116D01*
X121456525Y-101709877D01*
X121455135Y-101708672D01*
X121447452Y-101707001D01*
X120820331Y-101707001D01*
X120813510Y-101707371D01*
X120762648Y-101712895D01*
X120747396Y-101716521D01*
X120626946Y-101761676D01*
X120611351Y-101770214D01*
X120520982Y-101837942D01*
X120454475Y-101862790D01*
X120385093Y-101847737D01*
X120369856Y-101837945D01*
X120320016Y-101800592D01*
X120277503Y-101743733D01*
X120272478Y-101672915D01*
X120306488Y-101610672D01*
X128456805Y-93460355D01*
X128465585Y-93452365D01*
X128465587Y-93452363D01*
X128472280Y-93448116D01*
X128520805Y-93396442D01*
X128523559Y-93393601D01*
X128544127Y-93373033D01*
X128546847Y-93369526D01*
X128554553Y-93360504D01*
X128580744Y-93332613D01*
X128586172Y-93326833D01*
X128591293Y-93317518D01*
X128596503Y-93308042D01*
X128607357Y-93291518D01*
X128615645Y-93280832D01*
X128620504Y-93274568D01*
X128623652Y-93267294D01*
X128638854Y-93232165D01*
X128644076Y-93221505D01*
X128662505Y-93187984D01*
X128662506Y-93187982D01*
X128666324Y-93181037D01*
X128671659Y-93160259D01*
X128678058Y-93141569D01*
X128686580Y-93121876D01*
X128693806Y-93076252D01*
X128696213Y-93064629D01*
X128705728Y-93027568D01*
X128707700Y-93019888D01*
X128707700Y-92998441D01*
X128709251Y-92978731D01*
X128711366Y-92965377D01*
X128712606Y-92957548D01*
X128708259Y-92911559D01*
X128707700Y-92899704D01*
X128707700Y-86769500D01*
X128727702Y-86701379D01*
X128781358Y-86654886D01*
X128833700Y-86643500D01*
X129305826Y-86643500D01*
X129310443Y-86643585D01*
G37*
G04 #@! TD.AperFunction*
G04 #@! TA.AperFunction,Conductor*
G36*
X117106121Y-78717302D02*
G01*
X117152614Y-78770958D01*
X117164000Y-78823300D01*
X117164000Y-79914885D01*
X117168475Y-79930124D01*
X117169865Y-79931329D01*
X117177548Y-79933000D01*
X117180438Y-79933000D01*
X117186953Y-79932663D01*
X117279057Y-79923106D01*
X117292456Y-79920212D01*
X117441107Y-79870619D01*
X117454286Y-79864445D01*
X117587173Y-79782212D01*
X117604311Y-79768629D01*
X117605841Y-79770559D01*
X117657880Y-79742097D01*
X117728699Y-79747113D01*
X117765617Y-79770799D01*
X117766372Y-79769843D01*
X117772118Y-79774381D01*
X117777298Y-79779552D01*
X117783528Y-79783392D01*
X117783529Y-79783393D01*
X117915020Y-79864445D01*
X117922899Y-79869302D01*
X118085243Y-79923149D01*
X118092080Y-79923849D01*
X118092082Y-79923850D01*
X118130695Y-79927806D01*
X118186268Y-79933500D01*
X118733732Y-79933500D01*
X118736978Y-79933163D01*
X118736982Y-79933163D01*
X118779348Y-79928767D01*
X118836019Y-79922887D01*
X118870737Y-79911304D01*
X118991324Y-79871073D01*
X118991326Y-79871072D01*
X118998268Y-79868756D01*
X119047548Y-79838261D01*
X119137485Y-79782606D01*
X119143713Y-79778752D01*
X119152607Y-79769843D01*
X119264552Y-79657702D01*
X119265880Y-79659028D01*
X119315949Y-79623533D01*
X119386872Y-79620305D01*
X119402509Y-79626378D01*
X119402795Y-79625615D01*
X119539184Y-79676745D01*
X119601366Y-79683500D01*
X121172634Y-79683500D01*
X121234816Y-79676745D01*
X121371205Y-79625615D01*
X121374342Y-79623264D01*
X121432050Y-79608500D01*
X121673850Y-79608500D01*
X121741971Y-79628502D01*
X121762945Y-79645405D01*
X124028945Y-81911405D01*
X124062971Y-81973717D01*
X124057906Y-82044532D01*
X124015359Y-82101368D01*
X123948839Y-82126179D01*
X123939850Y-82126500D01*
X123356866Y-82126500D01*
X123294684Y-82133255D01*
X123158295Y-82184385D01*
X123120648Y-82212600D01*
X123060148Y-82257942D01*
X122993642Y-82282790D01*
X122924259Y-82267737D01*
X122909018Y-82257942D01*
X122818649Y-82190214D01*
X122803054Y-82181676D01*
X122682606Y-82136522D01*
X122667351Y-82132895D01*
X122616486Y-82127369D01*
X122609672Y-82127000D01*
X121987115Y-82127000D01*
X121971876Y-82131475D01*
X121970671Y-82132865D01*
X121969000Y-82140548D01*
X121969000Y-86624884D01*
X121973475Y-86640123D01*
X121974865Y-86641328D01*
X121982548Y-86642999D01*
X122609669Y-86642999D01*
X122616490Y-86642629D01*
X122667352Y-86637105D01*
X122682604Y-86633479D01*
X122803054Y-86588324D01*
X122818649Y-86579786D01*
X122909018Y-86512058D01*
X122975525Y-86487210D01*
X123044907Y-86502263D01*
X123060148Y-86512058D01*
X123060566Y-86512371D01*
X123158295Y-86585615D01*
X123294684Y-86636745D01*
X123356866Y-86643500D01*
X124225826Y-86643500D01*
X124230443Y-86643585D01*
X124311673Y-86646564D01*
X124311677Y-86646564D01*
X124316837Y-86646753D01*
X124321957Y-86646097D01*
X124321959Y-86646097D01*
X124334261Y-86644521D01*
X124350271Y-86643500D01*
X125153134Y-86643500D01*
X125215316Y-86636745D01*
X125351705Y-86585615D01*
X125449436Y-86512370D01*
X125515941Y-86487522D01*
X125585324Y-86502575D01*
X125600562Y-86512368D01*
X125698295Y-86585615D01*
X125834684Y-86636745D01*
X125896866Y-86643500D01*
X126765826Y-86643500D01*
X126770443Y-86643585D01*
X126851673Y-86646564D01*
X126851677Y-86646564D01*
X126856837Y-86646753D01*
X126861957Y-86646097D01*
X126861959Y-86646097D01*
X126874261Y-86644521D01*
X126890271Y-86643500D01*
X127264700Y-86643500D01*
X127332821Y-86663502D01*
X127379314Y-86717158D01*
X127390700Y-86769500D01*
X127390700Y-92611750D01*
X127370698Y-92679871D01*
X127353795Y-92700845D01*
X118767395Y-101287245D01*
X118758615Y-101295235D01*
X118758613Y-101295237D01*
X118751920Y-101299484D01*
X118746494Y-101305262D01*
X118746493Y-101305263D01*
X118703396Y-101351157D01*
X118700641Y-101353999D01*
X118680073Y-101374567D01*
X118677356Y-101378070D01*
X118669648Y-101387095D01*
X118638028Y-101420767D01*
X118634207Y-101427718D01*
X118634206Y-101427719D01*
X118627697Y-101439558D01*
X118616843Y-101456082D01*
X118609018Y-101466171D01*
X118603696Y-101473032D01*
X118600549Y-101480304D01*
X118600548Y-101480306D01*
X118585346Y-101515435D01*
X118580124Y-101526095D01*
X118564285Y-101554906D01*
X118557876Y-101566563D01*
X118552541Y-101587341D01*
X118546142Y-101606031D01*
X118537620Y-101625724D01*
X118537620Y-101625725D01*
X118535683Y-101624887D01*
X118503371Y-101675486D01*
X118438876Y-101705165D01*
X118420584Y-101706500D01*
X118276866Y-101706500D01*
X118214684Y-101713255D01*
X118078295Y-101764385D01*
X118029983Y-101800593D01*
X117980565Y-101837630D01*
X117914059Y-101862478D01*
X117844676Y-101847425D01*
X117829435Y-101837630D01*
X117780017Y-101800593D01*
X117731705Y-101764385D01*
X117595316Y-101713255D01*
X117533134Y-101706500D01*
X117387530Y-101706500D01*
X117319409Y-101686498D01*
X117270379Y-101626885D01*
X117260874Y-101602879D01*
X117257035Y-101591669D01*
X117244145Y-101547300D01*
X117233229Y-101528843D01*
X117224534Y-101511093D01*
X117216635Y-101491144D01*
X117189477Y-101453764D01*
X117182960Y-101443843D01*
X117173424Y-101427719D01*
X117159452Y-101404093D01*
X117144291Y-101388932D01*
X117131449Y-101373897D01*
X117129896Y-101371759D01*
X117118841Y-101356543D01*
X117083242Y-101327093D01*
X117074463Y-101319104D01*
X116076305Y-100320945D01*
X116042279Y-100258633D01*
X116039400Y-100231850D01*
X116039400Y-98313689D01*
X116059402Y-98245568D01*
X116113058Y-98199075D01*
X116183332Y-98188971D01*
X116210349Y-98195979D01*
X116266364Y-98217369D01*
X116370694Y-98257209D01*
X116375760Y-98258240D01*
X116375761Y-98258240D01*
X116428846Y-98269040D01*
X116597656Y-98303385D01*
X116728324Y-98308176D01*
X116823949Y-98311683D01*
X116823953Y-98311683D01*
X116829113Y-98311872D01*
X116834233Y-98311216D01*
X116834235Y-98311216D01*
X116921506Y-98300036D01*
X117058847Y-98282442D01*
X117063795Y-98280957D01*
X117063802Y-98280956D01*
X117275747Y-98217369D01*
X117280690Y-98215886D01*
X117315006Y-98199075D01*
X117484049Y-98116262D01*
X117484052Y-98116260D01*
X117488684Y-98113991D01*
X117677243Y-97979494D01*
X117841303Y-97816005D01*
X117976458Y-97627917D01*
X117982086Y-97616531D01*
X118076784Y-97424922D01*
X118076785Y-97424920D01*
X118079078Y-97420280D01*
X118146408Y-97198671D01*
X118176640Y-96969041D01*
X118178327Y-96900000D01*
X118159957Y-96676562D01*
X118159773Y-96674318D01*
X118159772Y-96674312D01*
X118159349Y-96669167D01*
X118141975Y-96600000D01*
X118531693Y-96600000D01*
X118550885Y-96819371D01*
X118607880Y-97032076D01*
X118610205Y-97037061D01*
X118698618Y-97226666D01*
X118698621Y-97226671D01*
X118700944Y-97231653D01*
X118827251Y-97412038D01*
X118982962Y-97567749D01*
X119163346Y-97694056D01*
X119362924Y-97787120D01*
X119575629Y-97844115D01*
X119795000Y-97863307D01*
X120014371Y-97844115D01*
X120227076Y-97787120D01*
X120426654Y-97694056D01*
X120607038Y-97567749D01*
X120762749Y-97412038D01*
X120889056Y-97231653D01*
X120891379Y-97226671D01*
X120891382Y-97226666D01*
X120979795Y-97037061D01*
X120982120Y-97032076D01*
X121039115Y-96819371D01*
X121058307Y-96600000D01*
X121039115Y-96380629D01*
X120982120Y-96167924D01*
X120923405Y-96042009D01*
X120891382Y-95973334D01*
X120891379Y-95973329D01*
X120889056Y-95968347D01*
X120885899Y-95963838D01*
X120765908Y-95792473D01*
X120765906Y-95792470D01*
X120762749Y-95787962D01*
X120607038Y-95632251D01*
X120576845Y-95611109D01*
X120466096Y-95533562D01*
X120426654Y-95505944D01*
X120227076Y-95412880D01*
X120014371Y-95355885D01*
X119795000Y-95336693D01*
X119575629Y-95355885D01*
X119362924Y-95412880D01*
X119274615Y-95454059D01*
X119168334Y-95503618D01*
X119168329Y-95503621D01*
X119163347Y-95505944D01*
X119158840Y-95509100D01*
X119158838Y-95509101D01*
X118987473Y-95629092D01*
X118987470Y-95629094D01*
X118982962Y-95632251D01*
X118827251Y-95787962D01*
X118824094Y-95792470D01*
X118824092Y-95792473D01*
X118704101Y-95963838D01*
X118700944Y-95968347D01*
X118698621Y-95973329D01*
X118698618Y-95973334D01*
X118666595Y-96042009D01*
X118607880Y-96167924D01*
X118550885Y-96380629D01*
X118531693Y-96600000D01*
X118141975Y-96600000D01*
X118102925Y-96444533D01*
X118010570Y-96232131D01*
X117884764Y-96037665D01*
X117728887Y-95866358D01*
X117724836Y-95863159D01*
X117724832Y-95863155D01*
X117551177Y-95726011D01*
X117551172Y-95726008D01*
X117547123Y-95722810D01*
X117542607Y-95720317D01*
X117542604Y-95720315D01*
X117348879Y-95613373D01*
X117348875Y-95613371D01*
X117344355Y-95610876D01*
X117339486Y-95609152D01*
X117339482Y-95609150D01*
X117130903Y-95535288D01*
X117130899Y-95535287D01*
X117126028Y-95533562D01*
X117120935Y-95532655D01*
X117120932Y-95532654D01*
X116903095Y-95493851D01*
X116903089Y-95493850D01*
X116898006Y-95492945D01*
X116825096Y-95492054D01*
X116671581Y-95490179D01*
X116671579Y-95490179D01*
X116666411Y-95490116D01*
X116437464Y-95525150D01*
X116325433Y-95561767D01*
X116222226Y-95595500D01*
X116222221Y-95595502D01*
X116217314Y-95597106D01*
X116213861Y-95598904D01*
X116143681Y-95606823D01*
X116080028Y-95575378D01*
X116043480Y-95514512D01*
X116039400Y-95482709D01*
X116039400Y-92863689D01*
X116059402Y-92795568D01*
X116113058Y-92749075D01*
X116183332Y-92738971D01*
X116210349Y-92745979D01*
X116266364Y-92767369D01*
X116370694Y-92807209D01*
X116375760Y-92808240D01*
X116375761Y-92808240D01*
X116428846Y-92819040D01*
X116597656Y-92853385D01*
X116728324Y-92858176D01*
X116823949Y-92861683D01*
X116823953Y-92861683D01*
X116829113Y-92861872D01*
X116834233Y-92861216D01*
X116834235Y-92861216D01*
X116907270Y-92851860D01*
X117058847Y-92832442D01*
X117063795Y-92830957D01*
X117063802Y-92830956D01*
X117275747Y-92767369D01*
X117280690Y-92765886D01*
X117315006Y-92749075D01*
X117484049Y-92666262D01*
X117484052Y-92666260D01*
X117488684Y-92663991D01*
X117677243Y-92529494D01*
X117841303Y-92366005D01*
X117976458Y-92177917D01*
X118039751Y-92049854D01*
X118076784Y-91974922D01*
X118076785Y-91974920D01*
X118079078Y-91970280D01*
X118146004Y-91750000D01*
X118531693Y-91750000D01*
X118550885Y-91969371D01*
X118607880Y-92182076D01*
X118651415Y-92275438D01*
X118698618Y-92376666D01*
X118698621Y-92376671D01*
X118700944Y-92381653D01*
X118704100Y-92386160D01*
X118704101Y-92386162D01*
X118814077Y-92543223D01*
X118827251Y-92562038D01*
X118982962Y-92717749D01*
X118987471Y-92720906D01*
X118987473Y-92720908D01*
X119013270Y-92738971D01*
X119163346Y-92844056D01*
X119362924Y-92937120D01*
X119575629Y-92994115D01*
X119795000Y-93013307D01*
X120014371Y-92994115D01*
X120227076Y-92937120D01*
X120426654Y-92844056D01*
X120576730Y-92738971D01*
X120602527Y-92720908D01*
X120602529Y-92720906D01*
X120607038Y-92717749D01*
X120762749Y-92562038D01*
X120775924Y-92543223D01*
X120885899Y-92386162D01*
X120885900Y-92386160D01*
X120889056Y-92381653D01*
X120891379Y-92376671D01*
X120891382Y-92376666D01*
X120938585Y-92275438D01*
X120982120Y-92182076D01*
X121039115Y-91969371D01*
X121058307Y-91750000D01*
X121039115Y-91530629D01*
X120982120Y-91317924D01*
X120933732Y-91214156D01*
X120891382Y-91123334D01*
X120891379Y-91123329D01*
X120889056Y-91118347D01*
X120872062Y-91094077D01*
X120765908Y-90942473D01*
X120765906Y-90942470D01*
X120762749Y-90937962D01*
X120607038Y-90782251D01*
X120600672Y-90777793D01*
X120527759Y-90726739D01*
X120426654Y-90655944D01*
X120227076Y-90562880D01*
X120014371Y-90505885D01*
X119795000Y-90486693D01*
X119575629Y-90505885D01*
X119362924Y-90562880D01*
X119269562Y-90606415D01*
X119168334Y-90653618D01*
X119168329Y-90653621D01*
X119163347Y-90655944D01*
X119158840Y-90659100D01*
X119158838Y-90659101D01*
X118987473Y-90779092D01*
X118987470Y-90779094D01*
X118982962Y-90782251D01*
X118827251Y-90937962D01*
X118824094Y-90942470D01*
X118824092Y-90942473D01*
X118717938Y-91094077D01*
X118700944Y-91118347D01*
X118698621Y-91123329D01*
X118698618Y-91123334D01*
X118656268Y-91214156D01*
X118607880Y-91317924D01*
X118550885Y-91530629D01*
X118531693Y-91750000D01*
X118146004Y-91750000D01*
X118146408Y-91748671D01*
X118176640Y-91519041D01*
X118178327Y-91450000D01*
X118167905Y-91323235D01*
X118159773Y-91224318D01*
X118159772Y-91224312D01*
X118159349Y-91219167D01*
X118109163Y-91019367D01*
X118104184Y-90999544D01*
X118104183Y-90999540D01*
X118102925Y-90994533D01*
X118080289Y-90942473D01*
X118012630Y-90786868D01*
X118012628Y-90786865D01*
X118010570Y-90782131D01*
X117884764Y-90587665D01*
X117862212Y-90562880D01*
X117805002Y-90500008D01*
X117728887Y-90416358D01*
X117724836Y-90413159D01*
X117724832Y-90413155D01*
X117551177Y-90276011D01*
X117551172Y-90276008D01*
X117547123Y-90272810D01*
X117542607Y-90270317D01*
X117542604Y-90270315D01*
X117348879Y-90163373D01*
X117348875Y-90163371D01*
X117344355Y-90160876D01*
X117339486Y-90159152D01*
X117339482Y-90159150D01*
X117130903Y-90085288D01*
X117130899Y-90085287D01*
X117126028Y-90083562D01*
X117120935Y-90082655D01*
X117120932Y-90082654D01*
X116903095Y-90043851D01*
X116903089Y-90043850D01*
X116898006Y-90042945D01*
X116825096Y-90042054D01*
X116671581Y-90040179D01*
X116671579Y-90040179D01*
X116666411Y-90040116D01*
X116437464Y-90075150D01*
X116325433Y-90111767D01*
X116222226Y-90145500D01*
X116222221Y-90145502D01*
X116217314Y-90147106D01*
X116213861Y-90148904D01*
X116143681Y-90156823D01*
X116080028Y-90125378D01*
X116043480Y-90064512D01*
X116039400Y-90032709D01*
X116039400Y-86769500D01*
X116059402Y-86701379D01*
X116113058Y-86654886D01*
X116165400Y-86643500D01*
X116605826Y-86643500D01*
X116610443Y-86643585D01*
X116691673Y-86646564D01*
X116691677Y-86646564D01*
X116696837Y-86646753D01*
X116701957Y-86646097D01*
X116701959Y-86646097D01*
X116714261Y-86644521D01*
X116730271Y-86643500D01*
X117533134Y-86643500D01*
X117595316Y-86636745D01*
X117731705Y-86585615D01*
X117829436Y-86512370D01*
X117895941Y-86487522D01*
X117965324Y-86502575D01*
X117980562Y-86512368D01*
X118078295Y-86585615D01*
X118214684Y-86636745D01*
X118276866Y-86643500D01*
X119145826Y-86643500D01*
X119150443Y-86643585D01*
X119231673Y-86646564D01*
X119231677Y-86646564D01*
X119236837Y-86646753D01*
X119241957Y-86646097D01*
X119241959Y-86646097D01*
X119254261Y-86644521D01*
X119270271Y-86643500D01*
X120073134Y-86643500D01*
X120135316Y-86636745D01*
X120271705Y-86585615D01*
X120369434Y-86512371D01*
X120369852Y-86512058D01*
X120436358Y-86487210D01*
X120505741Y-86502263D01*
X120520982Y-86512058D01*
X120611351Y-86579786D01*
X120626946Y-86588324D01*
X120747394Y-86633478D01*
X120762649Y-86637105D01*
X120813514Y-86642631D01*
X120820328Y-86643000D01*
X121442885Y-86643000D01*
X121458124Y-86638525D01*
X121459329Y-86637135D01*
X121461000Y-86629452D01*
X121461000Y-82145116D01*
X121456525Y-82129877D01*
X121455135Y-82128672D01*
X121447452Y-82127001D01*
X120820331Y-82127001D01*
X120813510Y-82127371D01*
X120762648Y-82132895D01*
X120747396Y-82136521D01*
X120626946Y-82181676D01*
X120611351Y-82190214D01*
X120520982Y-82257942D01*
X120454475Y-82282790D01*
X120385093Y-82267737D01*
X120369852Y-82257942D01*
X120309352Y-82212600D01*
X120271705Y-82184385D01*
X120135316Y-82133255D01*
X120073134Y-82126500D01*
X118276866Y-82126500D01*
X118214684Y-82133255D01*
X118078295Y-82184385D01*
X117980566Y-82257629D01*
X117980565Y-82257630D01*
X117914059Y-82282478D01*
X117844676Y-82267425D01*
X117829435Y-82257630D01*
X117829434Y-82257629D01*
X117731705Y-82184385D01*
X117595316Y-82133255D01*
X117533134Y-82126500D01*
X116165400Y-82126500D01*
X116097279Y-82106498D01*
X116050786Y-82052842D01*
X116039400Y-82000500D01*
X116039400Y-79888825D01*
X116059402Y-79820704D01*
X116113058Y-79774211D01*
X116183332Y-79764107D01*
X116231516Y-79781565D01*
X116366880Y-79865004D01*
X116380061Y-79871151D01*
X116528814Y-79920491D01*
X116542190Y-79923358D01*
X116633097Y-79932672D01*
X116638126Y-79932929D01*
X116653124Y-79928525D01*
X116654329Y-79927135D01*
X116656000Y-79919452D01*
X116656000Y-78823300D01*
X116676002Y-78755179D01*
X116729658Y-78708686D01*
X116782000Y-78697300D01*
X117038000Y-78697300D01*
X117106121Y-78717302D01*
G37*
G04 #@! TD.AperFunction*
G04 #@! TA.AperFunction,Conductor*
G36*
X131671121Y-78725702D02*
G01*
X131717614Y-78779358D01*
X131729000Y-78831700D01*
X131729000Y-79914885D01*
X131733475Y-79930124D01*
X131734865Y-79931329D01*
X131742548Y-79933000D01*
X131745438Y-79933000D01*
X131751953Y-79932663D01*
X131844057Y-79923106D01*
X131857456Y-79920212D01*
X132006107Y-79870619D01*
X132019286Y-79864445D01*
X132152173Y-79782212D01*
X132169311Y-79768629D01*
X132170841Y-79770559D01*
X132222880Y-79742097D01*
X132293699Y-79747113D01*
X132330617Y-79770799D01*
X132331372Y-79769843D01*
X132337118Y-79774381D01*
X132342298Y-79779552D01*
X132348528Y-79783392D01*
X132348529Y-79783393D01*
X132480020Y-79864445D01*
X132487899Y-79869302D01*
X132650243Y-79923149D01*
X132657080Y-79923849D01*
X132657082Y-79923850D01*
X132695695Y-79927806D01*
X132751268Y-79933500D01*
X133298732Y-79933500D01*
X133301978Y-79933163D01*
X133301982Y-79933163D01*
X133344348Y-79928767D01*
X133401019Y-79922887D01*
X133435737Y-79911304D01*
X133556324Y-79871073D01*
X133556326Y-79871072D01*
X133563268Y-79868756D01*
X133612548Y-79838261D01*
X133702485Y-79782606D01*
X133708713Y-79778752D01*
X133716892Y-79770559D01*
X133791459Y-79695862D01*
X133853742Y-79661783D01*
X133924562Y-79666786D01*
X133956195Y-79684053D01*
X133971105Y-79695227D01*
X133971108Y-79695229D01*
X133978295Y-79700615D01*
X134114684Y-79751745D01*
X134176866Y-79758500D01*
X134953000Y-79758500D01*
X135021121Y-79778502D01*
X135067614Y-79832158D01*
X135079000Y-79884500D01*
X135079000Y-79915500D01*
X135058998Y-79983621D01*
X135005342Y-80030114D01*
X134953000Y-80041500D01*
X134176866Y-80041500D01*
X134114684Y-80048255D01*
X133978295Y-80099385D01*
X133940375Y-80127804D01*
X133939012Y-80128826D01*
X133872506Y-80153674D01*
X133863447Y-80154000D01*
X133735116Y-80154000D01*
X133719877Y-80158475D01*
X133718672Y-80159865D01*
X133717001Y-80167548D01*
X133717001Y-80244669D01*
X133717371Y-80251490D01*
X133722895Y-80302352D01*
X133726521Y-80317603D01*
X133731190Y-80330058D01*
X133736373Y-80400865D01*
X133731192Y-80418512D01*
X133723255Y-80439684D01*
X133716500Y-80501866D01*
X133716500Y-81198134D01*
X133723255Y-81260316D01*
X133774385Y-81396705D01*
X133861739Y-81513261D01*
X133978295Y-81600615D01*
X134114684Y-81651745D01*
X134176866Y-81658500D01*
X135473134Y-81658500D01*
X135535316Y-81651745D01*
X135578833Y-81635431D01*
X135649640Y-81630248D01*
X135712158Y-81664318D01*
X135991886Y-81944046D01*
X136025912Y-82006358D01*
X136020847Y-82077173D01*
X135978300Y-82134009D01*
X135947021Y-82151123D01*
X135913208Y-82163799D01*
X135858295Y-82184385D01*
X135760566Y-82257629D01*
X135760565Y-82257630D01*
X135694059Y-82282478D01*
X135624676Y-82267425D01*
X135609435Y-82257630D01*
X135609434Y-82257629D01*
X135511705Y-82184385D01*
X135375316Y-82133255D01*
X135313134Y-82126500D01*
X133516866Y-82126500D01*
X133454684Y-82133255D01*
X133318295Y-82184385D01*
X133220566Y-82257629D01*
X133220565Y-82257630D01*
X133154059Y-82282478D01*
X133084676Y-82267425D01*
X133069435Y-82257630D01*
X133069434Y-82257629D01*
X132971705Y-82184385D01*
X132835316Y-82133255D01*
X132773134Y-82126500D01*
X131245315Y-82126500D01*
X131177194Y-82106498D01*
X131136864Y-82064642D01*
X131113652Y-82025393D01*
X131098491Y-82010232D01*
X131085649Y-81995197D01*
X131078736Y-81985682D01*
X131073041Y-81977843D01*
X131037442Y-81948393D01*
X131028663Y-81940404D01*
X129638255Y-80549996D01*
X129630263Y-80541213D01*
X129630263Y-80541212D01*
X129626016Y-80534520D01*
X129574341Y-80485994D01*
X129571500Y-80483240D01*
X129550933Y-80462673D01*
X129547426Y-80459953D01*
X129538404Y-80452247D01*
X129504733Y-80420628D01*
X129497781Y-80416806D01*
X129485942Y-80410297D01*
X129469418Y-80399443D01*
X129458732Y-80391155D01*
X129452468Y-80386296D01*
X129445196Y-80383149D01*
X129445194Y-80383148D01*
X129410065Y-80367946D01*
X129399405Y-80362724D01*
X129365884Y-80344295D01*
X129365882Y-80344294D01*
X129358937Y-80340476D01*
X129338159Y-80335141D01*
X129319469Y-80328742D01*
X129299776Y-80320220D01*
X129254152Y-80312994D01*
X129242529Y-80310587D01*
X129210454Y-80302352D01*
X129197788Y-80299100D01*
X129176341Y-80299100D01*
X129156631Y-80297549D01*
X129143277Y-80295434D01*
X129135448Y-80294194D01*
X129089459Y-80298541D01*
X129077604Y-80299100D01*
X126301350Y-80299100D01*
X126233229Y-80279098D01*
X126212255Y-80262195D01*
X125848655Y-79898595D01*
X125814629Y-79836283D01*
X125819694Y-79765468D01*
X125862241Y-79708632D01*
X125928761Y-79683821D01*
X125937750Y-79683500D01*
X127048634Y-79683500D01*
X127110816Y-79676745D01*
X127242089Y-79627533D01*
X127312895Y-79622350D01*
X127375264Y-79656271D01*
X127387660Y-79671898D01*
X127387847Y-79671750D01*
X127392399Y-79677493D01*
X127396248Y-79683713D01*
X127401426Y-79688882D01*
X127425884Y-79713297D01*
X127517298Y-79804552D01*
X127523528Y-79808392D01*
X127523529Y-79808393D01*
X127655020Y-79889445D01*
X127662899Y-79894302D01*
X127825243Y-79948149D01*
X127832080Y-79948849D01*
X127832082Y-79948850D01*
X127873401Y-79953083D01*
X127926268Y-79958500D01*
X128473732Y-79958500D01*
X128476978Y-79958163D01*
X128476982Y-79958163D01*
X128511083Y-79954625D01*
X128576019Y-79947887D01*
X128633328Y-79928767D01*
X128731324Y-79896073D01*
X128731326Y-79896072D01*
X128738268Y-79893756D01*
X128746237Y-79888825D01*
X128877485Y-79807606D01*
X128883713Y-79803752D01*
X128888886Y-79798570D01*
X128894623Y-79794023D01*
X128896055Y-79795830D01*
X128948575Y-79767098D01*
X129019395Y-79772108D01*
X129055853Y-79795499D01*
X129056683Y-79794448D01*
X129073840Y-79807998D01*
X129206880Y-79890004D01*
X129220061Y-79896151D01*
X129368814Y-79945491D01*
X129382190Y-79948358D01*
X129473097Y-79957672D01*
X129478126Y-79957929D01*
X129493124Y-79953525D01*
X129494329Y-79952135D01*
X129496000Y-79944452D01*
X129496000Y-79939885D01*
X130004000Y-79939885D01*
X130008475Y-79955124D01*
X130009865Y-79956329D01*
X130017548Y-79958000D01*
X130020438Y-79958000D01*
X130026953Y-79957663D01*
X130119057Y-79948106D01*
X130132456Y-79945212D01*
X130281107Y-79895619D01*
X130294286Y-79889445D01*
X130427173Y-79807212D01*
X130438574Y-79798176D01*
X130535774Y-79700806D01*
X130598056Y-79666727D01*
X130668876Y-79671730D01*
X130713964Y-79700650D01*
X130787428Y-79773985D01*
X130798840Y-79782998D01*
X130931880Y-79865004D01*
X130945061Y-79871151D01*
X131093814Y-79920491D01*
X131107190Y-79923358D01*
X131198097Y-79932672D01*
X131203126Y-79932929D01*
X131218124Y-79928525D01*
X131219329Y-79927135D01*
X131221000Y-79919452D01*
X131221000Y-79222115D01*
X131216525Y-79206876D01*
X131215135Y-79205671D01*
X131207452Y-79204000D01*
X130766115Y-79204000D01*
X130721720Y-79217035D01*
X130711043Y-79223897D01*
X130675548Y-79229000D01*
X130022115Y-79229000D01*
X130006876Y-79233475D01*
X130005671Y-79234865D01*
X130004000Y-79242548D01*
X130004000Y-79939885D01*
X129496000Y-79939885D01*
X129496000Y-78847000D01*
X129516002Y-78778879D01*
X129569658Y-78732386D01*
X129622000Y-78721000D01*
X130458885Y-78721000D01*
X130493609Y-78710804D01*
X130529107Y-78705700D01*
X131603000Y-78705700D01*
X131671121Y-78725702D01*
G37*
G04 #@! TD.AperFunction*
G04 #@! TA.AperFunction,Conductor*
G36*
X160902338Y-76759678D02*
G01*
X160930166Y-76791511D01*
X160987694Y-76885388D01*
X160993777Y-76893699D01*
X161133213Y-77054667D01*
X161140580Y-77061883D01*
X161304434Y-77197916D01*
X161312881Y-77203831D01*
X161381969Y-77244203D01*
X161430693Y-77295842D01*
X161443764Y-77365625D01*
X161417033Y-77431396D01*
X161376584Y-77464752D01*
X161363607Y-77471507D01*
X161359474Y-77474610D01*
X161359471Y-77474612D01*
X161194970Y-77598123D01*
X161184965Y-77605635D01*
X161181393Y-77609373D01*
X161069530Y-77726431D01*
X161030629Y-77767138D01*
X160923201Y-77924621D01*
X160868293Y-77969621D01*
X160797768Y-77977792D01*
X160734021Y-77946538D01*
X160713324Y-77922054D01*
X160632822Y-77797617D01*
X160632820Y-77797614D01*
X160630014Y-77793277D01*
X160479670Y-77628051D01*
X160475619Y-77624852D01*
X160475615Y-77624848D01*
X160308414Y-77492800D01*
X160308410Y-77492798D01*
X160304359Y-77489598D01*
X160263053Y-77466796D01*
X160213084Y-77416364D01*
X160198312Y-77346921D01*
X160223428Y-77280516D01*
X160250780Y-77253909D01*
X160299499Y-77219158D01*
X160429860Y-77126173D01*
X160434293Y-77121756D01*
X160547945Y-77008500D01*
X160588096Y-76968489D01*
X160647594Y-76885689D01*
X160718453Y-76787077D01*
X160719640Y-76787930D01*
X160766960Y-76744362D01*
X160836897Y-76732145D01*
X160902338Y-76759678D01*
G37*
G04 #@! TD.AperFunction*
G04 #@! TA.AperFunction,Conductor*
G36*
X125933872Y-72678502D02*
G01*
X125980365Y-72732158D01*
X125990469Y-72802432D01*
X125960975Y-72867012D01*
X125954848Y-72873593D01*
X125255297Y-73573143D01*
X124567395Y-74261045D01*
X124558615Y-74269035D01*
X124558613Y-74269037D01*
X124551920Y-74273284D01*
X124546494Y-74279062D01*
X124546493Y-74279063D01*
X124503396Y-74324957D01*
X124500641Y-74327799D01*
X124480073Y-74348367D01*
X124477356Y-74351870D01*
X124469648Y-74360895D01*
X124438028Y-74394567D01*
X124434207Y-74401518D01*
X124434206Y-74401519D01*
X124427697Y-74413358D01*
X124416843Y-74429882D01*
X124409018Y-74439971D01*
X124403696Y-74446832D01*
X124400549Y-74454104D01*
X124400548Y-74454106D01*
X124385346Y-74489235D01*
X124380124Y-74499895D01*
X124357876Y-74540363D01*
X124352541Y-74561141D01*
X124346142Y-74579831D01*
X124337620Y-74599524D01*
X124336380Y-74607355D01*
X124330394Y-74645148D01*
X124327987Y-74656771D01*
X124316500Y-74701512D01*
X124316500Y-74722959D01*
X124314949Y-74742669D01*
X124311594Y-74763852D01*
X124312793Y-74776531D01*
X124315941Y-74809838D01*
X124316500Y-74821696D01*
X124316500Y-76203850D01*
X124296498Y-76271971D01*
X124242842Y-76318464D01*
X124172568Y-76328568D01*
X124107988Y-76299074D01*
X124101405Y-76292945D01*
X121532155Y-73723695D01*
X121524165Y-73714915D01*
X121524163Y-73714913D01*
X121519916Y-73708220D01*
X121502465Y-73691832D01*
X121468243Y-73659696D01*
X121465401Y-73656941D01*
X121444833Y-73636373D01*
X121441326Y-73633653D01*
X121432304Y-73625947D01*
X121420436Y-73614802D01*
X121398633Y-73594328D01*
X121391681Y-73590506D01*
X121379842Y-73583997D01*
X121363318Y-73573143D01*
X121352632Y-73564855D01*
X121346368Y-73559996D01*
X121339096Y-73556849D01*
X121339094Y-73556848D01*
X121303965Y-73541646D01*
X121293305Y-73536424D01*
X121259784Y-73517995D01*
X121259782Y-73517994D01*
X121252837Y-73514176D01*
X121232059Y-73508841D01*
X121213369Y-73502442D01*
X121193676Y-73493920D01*
X121148052Y-73486694D01*
X121136429Y-73484287D01*
X121102161Y-73475489D01*
X121091688Y-73472800D01*
X121070241Y-73472800D01*
X121050531Y-73471249D01*
X121029348Y-73467894D01*
X120983359Y-73472241D01*
X120971504Y-73472800D01*
X117810759Y-73472800D01*
X117798903Y-73472241D01*
X117791163Y-73470511D01*
X117783237Y-73470760D01*
X117783236Y-73470760D01*
X117720311Y-73472738D01*
X117716353Y-73472800D01*
X117687268Y-73472800D01*
X117683337Y-73473297D01*
X117683330Y-73473297D01*
X117682879Y-73473354D01*
X117671043Y-73474286D01*
X117624869Y-73475738D01*
X117604279Y-73481720D01*
X117584918Y-73485730D01*
X117577930Y-73486612D01*
X117571496Y-73487425D01*
X117571495Y-73487425D01*
X117563636Y-73488418D01*
X117556271Y-73491334D01*
X117556267Y-73491335D01*
X117520679Y-73505426D01*
X117509469Y-73509265D01*
X117465100Y-73522155D01*
X117446635Y-73533075D01*
X117428895Y-73541766D01*
X117408944Y-73549665D01*
X117371574Y-73576816D01*
X117361652Y-73583333D01*
X117328723Y-73602807D01*
X117328719Y-73602810D01*
X117321893Y-73606847D01*
X117306729Y-73622011D01*
X117291696Y-73634851D01*
X117274343Y-73647459D01*
X117252068Y-73674385D01*
X117244898Y-73683052D01*
X117236908Y-73691832D01*
X116924145Y-74004595D01*
X116861833Y-74038621D01*
X116835050Y-74041500D01*
X116594535Y-74041501D01*
X116578366Y-74041501D01*
X116575508Y-74041764D01*
X116575499Y-74041764D01*
X116539996Y-74045026D01*
X116504938Y-74048247D01*
X116498560Y-74050246D01*
X116498559Y-74050246D01*
X116348550Y-74097256D01*
X116348548Y-74097257D01*
X116341301Y-74099528D01*
X116194619Y-74188361D01*
X116073361Y-74309619D01*
X115984528Y-74456301D01*
X115933247Y-74619938D01*
X115926500Y-74693365D01*
X115926501Y-75356634D01*
X115926764Y-75359492D01*
X115926764Y-75359501D01*
X115927748Y-75370212D01*
X115933247Y-75430062D01*
X115935246Y-75436440D01*
X115935246Y-75436441D01*
X115974083Y-75560368D01*
X115984528Y-75593699D01*
X116073361Y-75740381D01*
X116194619Y-75861639D01*
X116341301Y-75950472D01*
X116348548Y-75952743D01*
X116348550Y-75952744D01*
X116498552Y-75999752D01*
X116498554Y-75999752D01*
X116498607Y-75999769D01*
X116504938Y-76001753D01*
X116504578Y-76002902D01*
X116561455Y-76032749D01*
X116596506Y-76094490D01*
X116592613Y-76165380D01*
X116562940Y-76212401D01*
X114938595Y-77836745D01*
X114876283Y-77870771D01*
X114805467Y-77865706D01*
X114748632Y-77823159D01*
X114723821Y-77756639D01*
X114723500Y-77747650D01*
X114723500Y-72784500D01*
X114743502Y-72716379D01*
X114797158Y-72669886D01*
X114849500Y-72658500D01*
X125865751Y-72658500D01*
X125933872Y-72678502D01*
G37*
G04 #@! TD.AperFunction*
G04 #@! TA.AperFunction,Conductor*
G36*
X130594803Y-73614802D02*
G01*
X130641296Y-73668458D01*
X130651400Y-73738732D01*
X130633942Y-73786916D01*
X130559996Y-73906880D01*
X130553849Y-73920061D01*
X130504509Y-74068814D01*
X130501642Y-74082190D01*
X130492328Y-74173097D01*
X130492000Y-74179514D01*
X130492000Y-74202885D01*
X130496475Y-74218124D01*
X130497865Y-74219329D01*
X130505548Y-74221000D01*
X131578000Y-74221000D01*
X131646121Y-74241002D01*
X131692614Y-74294658D01*
X131704000Y-74347000D01*
X131704000Y-75439885D01*
X131708475Y-75455124D01*
X131709865Y-75456329D01*
X131717548Y-75458000D01*
X131720438Y-75458000D01*
X131726953Y-75457663D01*
X131819057Y-75448106D01*
X131832456Y-75445212D01*
X131981107Y-75395619D01*
X131994286Y-75389445D01*
X132127173Y-75307212D01*
X132144311Y-75293629D01*
X132145841Y-75295559D01*
X132197880Y-75267097D01*
X132268699Y-75272113D01*
X132305618Y-75295799D01*
X132306373Y-75294844D01*
X132312119Y-75299382D01*
X132317298Y-75304552D01*
X132319670Y-75306014D01*
X132359655Y-75362412D01*
X132366500Y-75403376D01*
X132366500Y-76245058D01*
X132346498Y-76313179D01*
X132292842Y-76359672D01*
X132222568Y-76369776D01*
X132172986Y-76351443D01*
X132153155Y-76338858D01*
X132113908Y-76313951D01*
X131953600Y-76256868D01*
X131784629Y-76236720D01*
X131777626Y-76237456D01*
X131777625Y-76237456D01*
X131622401Y-76253770D01*
X131622397Y-76253771D01*
X131615393Y-76254507D01*
X131608722Y-76256778D01*
X131460973Y-76307075D01*
X131460970Y-76307076D01*
X131454303Y-76309346D01*
X131432405Y-76322818D01*
X131366383Y-76341500D01*
X130684219Y-76341500D01*
X130616098Y-76321498D01*
X130569605Y-76267842D01*
X130559004Y-76229545D01*
X130549116Y-76141391D01*
X130548331Y-76134392D01*
X130545180Y-76125342D01*
X130523183Y-76062178D01*
X130492368Y-75973689D01*
X130481940Y-75957000D01*
X130439372Y-75888879D01*
X130402192Y-75829379D01*
X130282286Y-75708632D01*
X130255291Y-75691500D01*
X130223772Y-75671498D01*
X130138608Y-75617451D01*
X129978300Y-75560368D01*
X129809329Y-75540220D01*
X129802326Y-75540956D01*
X129802325Y-75540956D01*
X129647101Y-75557270D01*
X129647097Y-75557271D01*
X129640093Y-75558007D01*
X129633422Y-75560278D01*
X129485673Y-75610575D01*
X129485670Y-75610576D01*
X129479003Y-75612846D01*
X129473005Y-75616536D01*
X129473003Y-75616537D01*
X129381520Y-75672818D01*
X129315498Y-75691500D01*
X127635000Y-75691500D01*
X127566879Y-75671498D01*
X127520386Y-75617842D01*
X127509000Y-75565500D01*
X127509000Y-75426866D01*
X127504591Y-75386280D01*
X127504591Y-75359067D01*
X127508131Y-75326483D01*
X127508500Y-75319672D01*
X127508500Y-75293115D01*
X127504025Y-75277876D01*
X127478330Y-75255611D01*
X127478788Y-75255082D01*
X127466400Y-75248318D01*
X127451293Y-75228161D01*
X127451115Y-75228295D01*
X127369142Y-75118919D01*
X127363761Y-75111739D01*
X127283819Y-75051825D01*
X127241304Y-74994967D01*
X127236278Y-74924149D01*
X127270338Y-74861855D01*
X127332669Y-74827865D01*
X127359384Y-74825000D01*
X127490384Y-74825000D01*
X127505623Y-74820525D01*
X127506828Y-74819135D01*
X127508499Y-74811452D01*
X127508499Y-74780331D01*
X127508129Y-74773510D01*
X127507795Y-74770438D01*
X130492000Y-74770438D01*
X130492337Y-74776953D01*
X130501894Y-74869057D01*
X130504788Y-74882456D01*
X130554381Y-75031107D01*
X130560555Y-75044286D01*
X130642788Y-75177173D01*
X130651824Y-75188574D01*
X130762429Y-75298986D01*
X130773840Y-75307998D01*
X130906880Y-75390004D01*
X130920061Y-75396151D01*
X131068814Y-75445491D01*
X131082190Y-75448358D01*
X131173097Y-75457672D01*
X131178126Y-75457929D01*
X131193124Y-75453525D01*
X131194329Y-75452135D01*
X131196000Y-75444452D01*
X131196000Y-74747115D01*
X131191525Y-74731876D01*
X131190135Y-74730671D01*
X131182452Y-74729000D01*
X130510115Y-74729000D01*
X130494876Y-74733475D01*
X130493671Y-74734865D01*
X130492000Y-74742548D01*
X130492000Y-74770438D01*
X127507795Y-74770438D01*
X127502605Y-74722648D01*
X127498979Y-74707396D01*
X127453824Y-74586946D01*
X127445286Y-74571351D01*
X127368785Y-74469276D01*
X127356224Y-74456715D01*
X127254149Y-74380214D01*
X127238554Y-74371676D01*
X127118106Y-74326522D01*
X127102851Y-74322895D01*
X127051986Y-74317369D01*
X127045172Y-74317000D01*
X126678149Y-74317000D01*
X126610028Y-74296998D01*
X126563535Y-74243342D01*
X126553431Y-74173068D01*
X126582925Y-74108488D01*
X126589054Y-74101905D01*
X127059254Y-73631705D01*
X127121566Y-73597679D01*
X127148349Y-73594800D01*
X130526682Y-73594800D01*
X130594803Y-73614802D01*
G37*
G04 #@! TD.AperFunction*
G04 #@! TA.AperFunction,Conductor*
G36*
X136303083Y-73614802D02*
G01*
X136349576Y-73668458D01*
X136359680Y-73738732D01*
X136335788Y-73796365D01*
X136305535Y-73836732D01*
X136274385Y-73878295D01*
X136223255Y-74014684D01*
X136216500Y-74076866D01*
X136216500Y-74773134D01*
X136223255Y-74835316D01*
X136226562Y-74844137D01*
X136230923Y-74855770D01*
X136236106Y-74926577D01*
X136230923Y-74944229D01*
X136223255Y-74964684D01*
X136222402Y-74972537D01*
X136222401Y-74972541D01*
X136220869Y-74986649D01*
X136193629Y-75052212D01*
X136184701Y-75062139D01*
X136147071Y-75099769D01*
X136084759Y-75133795D01*
X136013944Y-75128730D01*
X135957108Y-75086183D01*
X135932713Y-75024279D01*
X135927105Y-74972648D01*
X135923479Y-74957397D01*
X135918810Y-74944942D01*
X135913627Y-74874135D01*
X135918808Y-74856488D01*
X135926745Y-74835316D01*
X135933500Y-74773134D01*
X135933500Y-74076866D01*
X135926745Y-74014684D01*
X135875615Y-73878295D01*
X135844466Y-73836732D01*
X135814212Y-73796365D01*
X135789364Y-73729858D01*
X135804417Y-73660476D01*
X135854591Y-73610246D01*
X135915038Y-73594800D01*
X136234962Y-73594800D01*
X136303083Y-73614802D01*
G37*
G04 #@! TD.AperFunction*
M02*
