G04 #@! TF.GenerationSoftware,KiCad,Pcbnew,(6.0.4)*
G04 #@! TF.CreationDate,2023-05-30T12:53:04+02:00*
G04 #@! TF.ProjectId,MicroPicoDrive,4d696372-6f50-4696-936f-44726976652e,rev?*
G04 #@! TF.SameCoordinates,Original*
G04 #@! TF.FileFunction,Paste,Top*
G04 #@! TF.FilePolarity,Positive*
%FSLAX46Y46*%
G04 Gerber Fmt 4.6, Leading zero omitted, Abs format (unit mm)*
G04 Created by KiCad (PCBNEW (6.0.4)) date 2023-05-30 12:53:04*
%MOMM*%
%LPD*%
G01*
G04 APERTURE LIST*
G04 Aperture macros list*
%AMRoundRect*
0 Rectangle with rounded corners*
0 $1 Rounding radius*
0 $2 $3 $4 $5 $6 $7 $8 $9 X,Y pos of 4 corners*
0 Add a 4 corners polygon primitive as box body*
4,1,4,$2,$3,$4,$5,$6,$7,$8,$9,$2,$3,0*
0 Add four circle primitives for the rounded corners*
1,1,$1+$1,$2,$3*
1,1,$1+$1,$4,$5*
1,1,$1+$1,$6,$7*
1,1,$1+$1,$8,$9*
0 Add four rect primitives between the rounded corners*
20,1,$1+$1,$2,$3,$4,$5,0*
20,1,$1+$1,$4,$5,$6,$7,0*
20,1,$1+$1,$6,$7,$8,$9,0*
20,1,$1+$1,$8,$9,$2,$3,0*%
G04 Aperture macros list end*
%ADD10RoundRect,0.225000X0.225000X0.250000X-0.225000X0.250000X-0.225000X-0.250000X0.225000X-0.250000X0*%
%ADD11RoundRect,0.225000X-0.225000X-0.250000X0.225000X-0.250000X0.225000X0.250000X-0.225000X0.250000X0*%
%ADD12R,1.200000X0.600000*%
%ADD13R,0.900000X1.200000*%
%ADD14R,1.475000X0.450000*%
%ADD15RoundRect,0.200000X0.200000X0.275000X-0.200000X0.275000X-0.200000X-0.275000X0.200000X-0.275000X0*%
G04 APERTURE END LIST*
D10*
X133025000Y-78950000D03*
X131475000Y-78950000D03*
D11*
X139175000Y-74400000D03*
X140725000Y-74400000D03*
D12*
X134825000Y-74425000D03*
X134825000Y-75375000D03*
X134825000Y-76325000D03*
X137325000Y-76325000D03*
X137325000Y-75375000D03*
X137325000Y-74425000D03*
D10*
X133000000Y-74475000D03*
X131450000Y-74475000D03*
D13*
X134165000Y-109125000D03*
X137465000Y-109125000D03*
D11*
X139175000Y-78950000D03*
X140725000Y-78950000D03*
D12*
X134825000Y-78950000D03*
X134825000Y-79900000D03*
X134825000Y-80850000D03*
X137325000Y-80850000D03*
X137325000Y-79900000D03*
X137325000Y-78950000D03*
D11*
X128200000Y-78975000D03*
X129750000Y-78975000D03*
D10*
X118460000Y-78950000D03*
X116910000Y-78950000D03*
D14*
X126263000Y-78950000D03*
X126263000Y-78300000D03*
X126263000Y-77650000D03*
X126263000Y-77000000D03*
X126263000Y-76350000D03*
X126263000Y-75700000D03*
X126263000Y-75050000D03*
X120387000Y-75050000D03*
X120387000Y-75700000D03*
X120387000Y-76350000D03*
X120387000Y-77000000D03*
X120387000Y-77650000D03*
X120387000Y-78300000D03*
X120387000Y-78950000D03*
D15*
X118485000Y-75025000D03*
X116835000Y-75025000D03*
M02*
