M48
; DRILL file {KiCad (6.0.4)} date Tue May 30 12:56:28 2023
; FORMAT={-:-/ absolute / metric / decimal}
; #@! TF.CreationDate,2023-05-30T12:56:28+02:00
; #@! TF.GenerationSoftware,Kicad,Pcbnew,(6.0.4)
; #@! TF.FileFunction,Plated,1,2,PTH
FMAT,2
METRIC
; #@! TA.AperFunction,Plated,PTH,ViaDrill
T1C0.400
; #@! TA.AperFunction,Plated,PTH,ComponentDrill
T2C0.800
; #@! TA.AperFunction,Plated,PTH,ComponentDrill
T3C0.900
; #@! TA.AperFunction,Plated,PTH,ComponentDrill
T4C1.000
%
G90
G05
T1
X132.2Y-75.125
X135.1Y-75.825
X135.575Y-81.425
X136.912Y-93.278
X137.8Y-80.55
X140.075Y-75.25
X142.95Y-75.975
X146.994Y-93.692
X147.625Y-81.95
X150.2Y-75.8
T2
X131.35Y-90.8
X133.35Y-90.8
X135.35Y-90.8
X137.35Y-90.8
X139.35Y-90.8
X141.35Y-90.8
X143.35Y-90.8
X145.35Y-90.8
X147.35Y-90.8
T3
X152.525Y-88.1
X152.525Y-92.825
X152.525Y-97.55
X155.065Y-88.1
X155.065Y-92.825
X155.065Y-97.55
T4
X133.065Y-86.0
X135.605Y-86.0
X138.145Y-86.0
X140.685Y-86.0
T0
M30
