G04 #@! TF.GenerationSoftware,KiCad,Pcbnew,(6.0.4)*
G04 #@! TF.CreationDate,2023-05-30T12:56:23+02:00*
G04 #@! TF.ProjectId,MicroPicoDriveCartridge,4d696372-6f50-4696-936f-447269766543,rev?*
G04 #@! TF.SameCoordinates,Original*
G04 #@! TF.FileFunction,Legend,Top*
G04 #@! TF.FilePolarity,Positive*
%FSLAX46Y46*%
G04 Gerber Fmt 4.6, Leading zero omitted, Abs format (unit mm)*
G04 Created by KiCad (PCBNEW (6.0.4)) date 2023-05-30 12:56:23*
%MOMM*%
%LPD*%
G01*
G04 APERTURE LIST*
G04 Aperture macros list*
%AMRoundRect*
0 Rectangle with rounded corners*
0 $1 Rounding radius*
0 $2 $3 $4 $5 $6 $7 $8 $9 X,Y pos of 4 corners*
0 Add a 4 corners polygon primitive as box body*
4,1,4,$2,$3,$4,$5,$6,$7,$8,$9,$2,$3,0*
0 Add four circle primitives for the rounded corners*
1,1,$1+$1,$2,$3*
1,1,$1+$1,$4,$5*
1,1,$1+$1,$6,$7*
1,1,$1+$1,$8,$9*
0 Add four rect primitives between the rounded corners*
20,1,$1+$1,$2,$3,$4,$5,0*
20,1,$1+$1,$4,$5,$6,$7,0*
20,1,$1+$1,$6,$7,$8,$9,0*
20,1,$1+$1,$8,$9,$2,$3,0*%
G04 Aperture macros list end*
%ADD10C,0.150000*%
%ADD11C,0.120000*%
%ADD12R,1.800000X1.800000*%
%ADD13C,1.800000*%
%ADD14RoundRect,0.200000X-0.200000X-0.275000X0.200000X-0.275000X0.200000X0.275000X-0.200000X0.275000X0*%
%ADD15RoundRect,0.500000X-0.500000X-3.500000X0.500000X-3.500000X0.500000X3.500000X-0.500000X3.500000X0*%
%ADD16R,1.550000X1.300000*%
%ADD17R,1.700000X1.700000*%
%ADD18O,1.700000X1.700000*%
%ADD19C,1.350000*%
G04 APERTURE END LIST*
D10*
X149661904Y-86902380D02*
X149661904Y-85902380D01*
X149900000Y-85902380D01*
X150042857Y-85950000D01*
X150138095Y-86045238D01*
X150185714Y-86140476D01*
X150233333Y-86330952D01*
X150233333Y-86473809D01*
X150185714Y-86664285D01*
X150138095Y-86759523D01*
X150042857Y-86854761D01*
X149900000Y-86902380D01*
X149661904Y-86902380D01*
X151185714Y-86902380D02*
X150614285Y-86902380D01*
X150900000Y-86902380D02*
X150900000Y-85902380D01*
X150804761Y-86045238D01*
X150709523Y-86140476D01*
X150614285Y-86188095D01*
X145983333Y-93302380D02*
X145650000Y-92826190D01*
X145411904Y-93302380D02*
X145411904Y-92302380D01*
X145792857Y-92302380D01*
X145888095Y-92350000D01*
X145935714Y-92397619D01*
X145983333Y-92492857D01*
X145983333Y-92635714D01*
X145935714Y-92730952D01*
X145888095Y-92778571D01*
X145792857Y-92826190D01*
X145411904Y-92826190D01*
X146364285Y-92397619D02*
X146411904Y-92350000D01*
X146507142Y-92302380D01*
X146745238Y-92302380D01*
X146840476Y-92350000D01*
X146888095Y-92397619D01*
X146935714Y-92492857D01*
X146935714Y-92588095D01*
X146888095Y-92730952D01*
X146316666Y-93302380D01*
X146935714Y-93302380D01*
X131116666Y-104829761D02*
X131259523Y-104877380D01*
X131497619Y-104877380D01*
X131592857Y-104829761D01*
X131640476Y-104782142D01*
X131688095Y-104686904D01*
X131688095Y-104591666D01*
X131640476Y-104496428D01*
X131592857Y-104448809D01*
X131497619Y-104401190D01*
X131307142Y-104353571D01*
X131211904Y-104305952D01*
X131164285Y-104258333D01*
X131116666Y-104163095D01*
X131116666Y-104067857D01*
X131164285Y-103972619D01*
X131211904Y-103925000D01*
X131307142Y-103877380D01*
X131545238Y-103877380D01*
X131688095Y-103925000D01*
X132021428Y-103877380D02*
X132259523Y-104877380D01*
X132450000Y-104163095D01*
X132640476Y-104877380D01*
X132878571Y-103877380D01*
X133783333Y-104877380D02*
X133211904Y-104877380D01*
X133497619Y-104877380D02*
X133497619Y-103877380D01*
X133402380Y-104020238D01*
X133307142Y-104115476D01*
X133211904Y-104163095D01*
X149661904Y-96427380D02*
X149661904Y-95427380D01*
X149900000Y-95427380D01*
X150042857Y-95475000D01*
X150138095Y-95570238D01*
X150185714Y-95665476D01*
X150233333Y-95855952D01*
X150233333Y-95998809D01*
X150185714Y-96189285D01*
X150138095Y-96284523D01*
X150042857Y-96379761D01*
X149900000Y-96427380D01*
X149661904Y-96427380D01*
X150566666Y-95427380D02*
X151185714Y-95427380D01*
X150852380Y-95808333D01*
X150995238Y-95808333D01*
X151090476Y-95855952D01*
X151138095Y-95903571D01*
X151185714Y-95998809D01*
X151185714Y-96236904D01*
X151138095Y-96332142D01*
X151090476Y-96379761D01*
X150995238Y-96427380D01*
X150709523Y-96427380D01*
X150614285Y-96379761D01*
X150566666Y-96332142D01*
X141166666Y-104779761D02*
X141309523Y-104827380D01*
X141547619Y-104827380D01*
X141642857Y-104779761D01*
X141690476Y-104732142D01*
X141738095Y-104636904D01*
X141738095Y-104541666D01*
X141690476Y-104446428D01*
X141642857Y-104398809D01*
X141547619Y-104351190D01*
X141357142Y-104303571D01*
X141261904Y-104255952D01*
X141214285Y-104208333D01*
X141166666Y-104113095D01*
X141166666Y-104017857D01*
X141214285Y-103922619D01*
X141261904Y-103875000D01*
X141357142Y-103827380D01*
X141595238Y-103827380D01*
X141738095Y-103875000D01*
X142071428Y-103827380D02*
X142309523Y-104827380D01*
X142500000Y-104113095D01*
X142690476Y-104827380D01*
X142928571Y-103827380D01*
X143261904Y-103922619D02*
X143309523Y-103875000D01*
X143404761Y-103827380D01*
X143642857Y-103827380D01*
X143738095Y-103875000D01*
X143785714Y-103922619D01*
X143833333Y-104017857D01*
X143833333Y-104113095D01*
X143785714Y-104255952D01*
X143214285Y-104827380D01*
X143833333Y-104827380D01*
X135138495Y-83813961D02*
X135281352Y-83861580D01*
X135519447Y-83861580D01*
X135614685Y-83813961D01*
X135662304Y-83766342D01*
X135709923Y-83671104D01*
X135709923Y-83575866D01*
X135662304Y-83480628D01*
X135614685Y-83433009D01*
X135519447Y-83385390D01*
X135328971Y-83337771D01*
X135233733Y-83290152D01*
X135186114Y-83242533D01*
X135138495Y-83147295D01*
X135138495Y-83052057D01*
X135186114Y-82956819D01*
X135233733Y-82909200D01*
X135328971Y-82861580D01*
X135567066Y-82861580D01*
X135709923Y-82909200D01*
X136709923Y-83766342D02*
X136662304Y-83813961D01*
X136519447Y-83861580D01*
X136424209Y-83861580D01*
X136281352Y-83813961D01*
X136186114Y-83718723D01*
X136138495Y-83623485D01*
X136090876Y-83433009D01*
X136090876Y-83290152D01*
X136138495Y-83099676D01*
X136186114Y-83004438D01*
X136281352Y-82909200D01*
X136424209Y-82861580D01*
X136519447Y-82861580D01*
X136662304Y-82909200D01*
X136709923Y-82956819D01*
X137709923Y-83861580D02*
X137376590Y-83385390D01*
X137138495Y-83861580D02*
X137138495Y-82861580D01*
X137519447Y-82861580D01*
X137614685Y-82909200D01*
X137662304Y-82956819D01*
X137709923Y-83052057D01*
X137709923Y-83194914D01*
X137662304Y-83290152D01*
X137614685Y-83337771D01*
X137519447Y-83385390D01*
X137138495Y-83385390D01*
X138662304Y-83861580D02*
X138090876Y-83861580D01*
X138376590Y-83861580D02*
X138376590Y-82861580D01*
X138281352Y-83004438D01*
X138186114Y-83099676D01*
X138090876Y-83147295D01*
X146033333Y-97852380D02*
X145700000Y-97376190D01*
X145461904Y-97852380D02*
X145461904Y-96852380D01*
X145842857Y-96852380D01*
X145938095Y-96900000D01*
X145985714Y-96947619D01*
X146033333Y-97042857D01*
X146033333Y-97185714D01*
X145985714Y-97280952D01*
X145938095Y-97328571D01*
X145842857Y-97376190D01*
X145461904Y-97376190D01*
X146366666Y-96852380D02*
X146985714Y-96852380D01*
X146652380Y-97233333D01*
X146795238Y-97233333D01*
X146890476Y-97280952D01*
X146938095Y-97328571D01*
X146985714Y-97423809D01*
X146985714Y-97661904D01*
X146938095Y-97757142D01*
X146890476Y-97804761D01*
X146795238Y-97852380D01*
X146509523Y-97852380D01*
X146414285Y-97804761D01*
X146366666Y-97757142D01*
X151766666Y-104854761D02*
X151909523Y-104902380D01*
X152147619Y-104902380D01*
X152242857Y-104854761D01*
X152290476Y-104807142D01*
X152338095Y-104711904D01*
X152338095Y-104616666D01*
X152290476Y-104521428D01*
X152242857Y-104473809D01*
X152147619Y-104426190D01*
X151957142Y-104378571D01*
X151861904Y-104330952D01*
X151814285Y-104283333D01*
X151766666Y-104188095D01*
X151766666Y-104092857D01*
X151814285Y-103997619D01*
X151861904Y-103950000D01*
X151957142Y-103902380D01*
X152195238Y-103902380D01*
X152338095Y-103950000D01*
X152671428Y-103902380D02*
X152909523Y-104902380D01*
X153100000Y-104188095D01*
X153290476Y-104902380D01*
X153528571Y-103902380D01*
X153814285Y-103902380D02*
X154433333Y-103902380D01*
X154100000Y-104283333D01*
X154242857Y-104283333D01*
X154338095Y-104330952D01*
X154385714Y-104378571D01*
X154433333Y-104473809D01*
X154433333Y-104711904D01*
X154385714Y-104807142D01*
X154338095Y-104854761D01*
X154242857Y-104902380D01*
X153957142Y-104902380D01*
X153861904Y-104854761D01*
X153814285Y-104807142D01*
X146108333Y-88552380D02*
X145775000Y-88076190D01*
X145536904Y-88552380D02*
X145536904Y-87552380D01*
X145917857Y-87552380D01*
X146013095Y-87600000D01*
X146060714Y-87647619D01*
X146108333Y-87742857D01*
X146108333Y-87885714D01*
X146060714Y-87980952D01*
X146013095Y-88028571D01*
X145917857Y-88076190D01*
X145536904Y-88076190D01*
X147060714Y-88552380D02*
X146489285Y-88552380D01*
X146775000Y-88552380D02*
X146775000Y-87552380D01*
X146679761Y-87695238D01*
X146584523Y-87790476D01*
X146489285Y-87838095D01*
X149586904Y-91677380D02*
X149586904Y-90677380D01*
X149825000Y-90677380D01*
X149967857Y-90725000D01*
X150063095Y-90820238D01*
X150110714Y-90915476D01*
X150158333Y-91105952D01*
X150158333Y-91248809D01*
X150110714Y-91439285D01*
X150063095Y-91534523D01*
X149967857Y-91629761D01*
X149825000Y-91677380D01*
X149586904Y-91677380D01*
X150539285Y-90772619D02*
X150586904Y-90725000D01*
X150682142Y-90677380D01*
X150920238Y-90677380D01*
X151015476Y-90725000D01*
X151063095Y-90772619D01*
X151110714Y-90867857D01*
X151110714Y-90963095D01*
X151063095Y-91105952D01*
X150491666Y-91677380D01*
X151110714Y-91677380D01*
D11*
X152235000Y-89180000D02*
X152235000Y-89336000D01*
X152235000Y-86864000D02*
X152235000Y-87020000D01*
X152235000Y-89335516D02*
G75*
G03*
X155467335Y-89178608I1560000J1235516D01*
G01*
X152754039Y-89180000D02*
G75*
G03*
X154836130Y-89179837I1040961J1080000D01*
G01*
X154836130Y-87020163D02*
G75*
G03*
X152754039Y-87020000I-1041130J-1079837D01*
G01*
X155467335Y-87021392D02*
G75*
G03*
X152235000Y-86864484I-1672335J-1078608D01*
G01*
X148512742Y-93347500D02*
X148987258Y-93347500D01*
X148512742Y-92302500D02*
X148987258Y-92302500D01*
X135655000Y-107730000D02*
X135655000Y-107700000D01*
X129195000Y-103200000D02*
X129195000Y-105800000D01*
X129195000Y-107730000D02*
X129195000Y-107700000D01*
X129195000Y-101270000D02*
X135655000Y-101270000D01*
X129195000Y-107730000D02*
X135655000Y-107730000D01*
X129195000Y-101300000D02*
X129195000Y-101270000D01*
X135655000Y-103200000D02*
X135655000Y-105800000D01*
X135655000Y-101270000D02*
X135655000Y-101300000D01*
X152235000Y-96314000D02*
X152235000Y-96470000D01*
X152235000Y-98630000D02*
X152235000Y-98786000D01*
X155467335Y-96471392D02*
G75*
G03*
X152235000Y-96314484I-1672335J-1078608D01*
G01*
X152235000Y-98785516D02*
G75*
G03*
X155467335Y-98628608I1560000J1235516D01*
G01*
X154836130Y-96470163D02*
G75*
G03*
X152754039Y-96470000I-1041130J-1079837D01*
G01*
X152754039Y-98630000D02*
G75*
G03*
X154836130Y-98629837I1040961J1080000D01*
G01*
X139270000Y-107730000D02*
X139270000Y-107700000D01*
X145730000Y-107730000D02*
X145730000Y-107700000D01*
X139270000Y-101270000D02*
X145730000Y-101270000D01*
X139270000Y-103200000D02*
X139270000Y-105800000D01*
X139270000Y-107730000D02*
X145730000Y-107730000D01*
X145730000Y-103200000D02*
X145730000Y-105800000D01*
X139270000Y-101300000D02*
X139270000Y-101270000D01*
X145730000Y-101270000D02*
X145730000Y-101300000D01*
X142015000Y-87330000D02*
X142015000Y-84670000D01*
X134335000Y-87330000D02*
X134335000Y-84670000D01*
X133065000Y-87330000D02*
X131735000Y-87330000D01*
X134335000Y-84670000D02*
X142015000Y-84670000D01*
X134335000Y-87330000D02*
X142015000Y-87330000D01*
X131735000Y-87330000D02*
X131735000Y-86000000D01*
X148512742Y-96877500D02*
X148987258Y-96877500D01*
X148512742Y-97922500D02*
X148987258Y-97922500D01*
X149795000Y-107705000D02*
X149795000Y-107675000D01*
X156255000Y-107705000D02*
X156255000Y-107675000D01*
X156255000Y-103175000D02*
X156255000Y-105775000D01*
X149795000Y-107705000D02*
X156255000Y-107705000D01*
X149795000Y-101275000D02*
X149795000Y-101245000D01*
X149795000Y-103175000D02*
X149795000Y-105775000D01*
X156255000Y-101245000D02*
X156255000Y-101275000D01*
X149795000Y-101245000D02*
X156255000Y-101245000D01*
X148512742Y-87577500D02*
X148987258Y-87577500D01*
X148512742Y-88622500D02*
X148987258Y-88622500D01*
X152235000Y-93905000D02*
X152235000Y-94061000D01*
X152235000Y-91589000D02*
X152235000Y-91745000D01*
X154836130Y-91745163D02*
G75*
G03*
X152754039Y-91745000I-1041130J-1079837D01*
G01*
X152235000Y-94060516D02*
G75*
G03*
X155467335Y-93903608I1560000J1235516D01*
G01*
X152754039Y-93905000D02*
G75*
G03*
X154836130Y-93904837I1040961J1080000D01*
G01*
X155467335Y-91746392D02*
G75*
G03*
X152235000Y-91589484I-1672335J-1078608D01*
G01*
%LPC*%
D12*
X152525000Y-88100000D03*
D13*
X155065000Y-88100000D03*
D14*
X147925000Y-92825000D03*
X149575000Y-92825000D03*
D15*
X133835000Y-67975000D03*
X136375000Y-67975000D03*
X138915000Y-67975000D03*
X141455000Y-67975000D03*
X143995000Y-67975000D03*
X146535000Y-67975000D03*
X149075000Y-67975000D03*
X151615000Y-67975000D03*
D16*
X136400000Y-102250000D03*
X128450000Y-102250000D03*
X136400000Y-106750000D03*
X128450000Y-106750000D03*
D12*
X152525000Y-97550000D03*
D13*
X155065000Y-97550000D03*
D16*
X146475000Y-102250000D03*
X138525000Y-102250000D03*
X146475000Y-106750000D03*
X138525000Y-106750000D03*
D17*
X133065000Y-86000000D03*
D18*
X135605000Y-86000000D03*
X138145000Y-86000000D03*
X140685000Y-86000000D03*
D14*
X147925000Y-97400000D03*
X149575000Y-97400000D03*
D16*
X157000000Y-102225000D03*
X149050000Y-102225000D03*
X157000000Y-106725000D03*
X149050000Y-106725000D03*
D14*
X147925000Y-88100000D03*
X149575000Y-88100000D03*
D12*
X152525000Y-92825000D03*
D13*
X155065000Y-92825000D03*
D19*
X147350000Y-90800000D03*
X145350000Y-90800000D03*
X143350000Y-90800000D03*
X141350000Y-90800000D03*
X139350000Y-90800000D03*
X137350000Y-90800000D03*
X135350000Y-90800000D03*
X133350000Y-90800000D03*
X131350000Y-90800000D03*
M02*
