G04 #@! TF.GenerationSoftware,KiCad,Pcbnew,(6.0.4)*
G04 #@! TF.CreationDate,2023-05-30T12:56:23+02:00*
G04 #@! TF.ProjectId,MicroPicoDriveCartridge,4d696372-6f50-4696-936f-447269766543,rev?*
G04 #@! TF.SameCoordinates,Original*
G04 #@! TF.FileFunction,Legend,Bot*
G04 #@! TF.FilePolarity,Positive*
%FSLAX46Y46*%
G04 Gerber Fmt 4.6, Leading zero omitted, Abs format (unit mm)*
G04 Created by KiCad (PCBNEW (6.0.4)) date 2023-05-30 12:56:23*
%MOMM*%
%LPD*%
G01*
G04 APERTURE LIST*
G04 Aperture macros list*
%AMRoundRect*
0 Rectangle with rounded corners*
0 $1 Rounding radius*
0 $2 $3 $4 $5 $6 $7 $8 $9 X,Y pos of 4 corners*
0 Add a 4 corners polygon primitive as box body*
4,1,4,$2,$3,$4,$5,$6,$7,$8,$9,$2,$3,0*
0 Add four circle primitives for the rounded corners*
1,1,$1+$1,$2,$3*
1,1,$1+$1,$4,$5*
1,1,$1+$1,$6,$7*
1,1,$1+$1,$8,$9*
0 Add four rect primitives between the rounded corners*
20,1,$1+$1,$2,$3,$4,$5,0*
20,1,$1+$1,$4,$5,$6,$7,0*
20,1,$1+$1,$6,$7,$8,$9,0*
20,1,$1+$1,$8,$9,$2,$3,0*%
G04 Aperture macros list end*
%ADD10C,0.150000*%
%ADD11C,0.120000*%
%ADD12R,1.800000X1.800000*%
%ADD13C,1.800000*%
%ADD14RoundRect,0.500000X-0.500000X-3.500000X0.500000X-3.500000X0.500000X3.500000X-0.500000X3.500000X0*%
%ADD15R,1.700000X1.700000*%
%ADD16O,1.700000X1.700000*%
%ADD17C,1.350000*%
G04 APERTURE END LIST*
D10*
X141311904Y-97429761D02*
X141169047Y-97477380D01*
X140930952Y-97477380D01*
X140835714Y-97429761D01*
X140788095Y-97382142D01*
X140740476Y-97286904D01*
X140740476Y-97191666D01*
X140788095Y-97096428D01*
X140835714Y-97048809D01*
X140930952Y-97001190D01*
X141121428Y-96953571D01*
X141216666Y-96905952D01*
X141264285Y-96858333D01*
X141311904Y-96763095D01*
X141311904Y-96667857D01*
X141264285Y-96572619D01*
X141216666Y-96525000D01*
X141121428Y-96477380D01*
X140883333Y-96477380D01*
X140740476Y-96525000D01*
X140311904Y-97477380D02*
X140311904Y-96477380D01*
X140073809Y-96477380D01*
X139930952Y-96525000D01*
X139835714Y-96620238D01*
X139788095Y-96715476D01*
X139740476Y-96905952D01*
X139740476Y-97048809D01*
X139788095Y-97239285D01*
X139835714Y-97334523D01*
X139930952Y-97429761D01*
X140073809Y-97477380D01*
X140311904Y-97477380D01*
X138788095Y-97477380D02*
X139359523Y-97477380D01*
X139073809Y-97477380D02*
X139073809Y-96477380D01*
X139169047Y-96620238D01*
X139264285Y-96715476D01*
X139359523Y-96763095D01*
D11*
X146350000Y-110300000D02*
X146350000Y-108300000D01*
X132350000Y-110300000D02*
X146350000Y-110300000D01*
X149350000Y-88300000D02*
X149350000Y-108300000D01*
X132350000Y-110300000D02*
X132350000Y-108300000D01*
X129350000Y-88300000D02*
X129350000Y-108300000D01*
X149350000Y-88300000D02*
X129350000Y-88300000D01*
X149350000Y-108300000D02*
X129350000Y-108300000D01*
%LPC*%
D12*
X152525000Y-88100000D03*
D13*
X155065000Y-88100000D03*
D14*
X133835000Y-67975000D03*
X136375000Y-67975000D03*
X138915000Y-67975000D03*
X141455000Y-67975000D03*
X143995000Y-67975000D03*
X146535000Y-67975000D03*
X149075000Y-67975000D03*
X151615000Y-67975000D03*
D12*
X152525000Y-97550000D03*
D13*
X155065000Y-97550000D03*
D15*
X133065000Y-86000000D03*
D16*
X135605000Y-86000000D03*
X138145000Y-86000000D03*
X140685000Y-86000000D03*
D12*
X152525000Y-92825000D03*
D13*
X155065000Y-92825000D03*
D17*
X147350000Y-90800000D03*
X145350000Y-90800000D03*
X143350000Y-90800000D03*
X141350000Y-90800000D03*
X139350000Y-90800000D03*
X137350000Y-90800000D03*
X135350000Y-90800000D03*
X133350000Y-90800000D03*
X131350000Y-90800000D03*
M02*
