G04 #@! TF.GenerationSoftware,KiCad,Pcbnew,(6.0.4)*
G04 #@! TF.CreationDate,2023-05-30T12:56:23+02:00*
G04 #@! TF.ProjectId,MicroPicoDriveCartridge,4d696372-6f50-4696-936f-447269766543,rev?*
G04 #@! TF.SameCoordinates,Original*
G04 #@! TF.FileFunction,Copper,L2,Bot*
G04 #@! TF.FilePolarity,Positive*
%FSLAX46Y46*%
G04 Gerber Fmt 4.6, Leading zero omitted, Abs format (unit mm)*
G04 Created by KiCad (PCBNEW (6.0.4)) date 2023-05-30 12:56:23*
%MOMM*%
%LPD*%
G01*
G04 APERTURE LIST*
G04 Aperture macros list*
%AMRoundRect*
0 Rectangle with rounded corners*
0 $1 Rounding radius*
0 $2 $3 $4 $5 $6 $7 $8 $9 X,Y pos of 4 corners*
0 Add a 4 corners polygon primitive as box body*
4,1,4,$2,$3,$4,$5,$6,$7,$8,$9,$2,$3,0*
0 Add four circle primitives for the rounded corners*
1,1,$1+$1,$2,$3*
1,1,$1+$1,$4,$5*
1,1,$1+$1,$6,$7*
1,1,$1+$1,$8,$9*
0 Add four rect primitives between the rounded corners*
20,1,$1+$1,$2,$3,$4,$5,0*
20,1,$1+$1,$4,$5,$6,$7,0*
20,1,$1+$1,$6,$7,$8,$9,0*
20,1,$1+$1,$8,$9,$2,$3,0*%
G04 Aperture macros list end*
G04 #@! TA.AperFunction,ComponentPad*
%ADD10R,1.800000X1.800000*%
G04 #@! TD*
G04 #@! TA.AperFunction,ComponentPad*
%ADD11C,1.800000*%
G04 #@! TD*
G04 #@! TA.AperFunction,SMDPad,CuDef*
%ADD12RoundRect,0.500000X-0.500000X-3.500000X0.500000X-3.500000X0.500000X3.500000X-0.500000X3.500000X0*%
G04 #@! TD*
G04 #@! TA.AperFunction,ComponentPad*
%ADD13R,1.700000X1.700000*%
G04 #@! TD*
G04 #@! TA.AperFunction,ComponentPad*
%ADD14O,1.700000X1.700000*%
G04 #@! TD*
G04 #@! TA.AperFunction,ComponentPad*
%ADD15C,1.350000*%
G04 #@! TD*
G04 #@! TA.AperFunction,ViaPad*
%ADD16C,0.800000*%
G04 #@! TD*
G04 #@! TA.AperFunction,Conductor*
%ADD17C,0.250000*%
G04 #@! TD*
G04 APERTURE END LIST*
D10*
X152525000Y-88100000D03*
D11*
X155065000Y-88100000D03*
D12*
X133835000Y-67975000D03*
X136375000Y-67975000D03*
X138915000Y-67975000D03*
X141455000Y-67975000D03*
X143995000Y-67975000D03*
X146535000Y-67975000D03*
X149075000Y-67975000D03*
X151615000Y-67975000D03*
D10*
X152525000Y-97550000D03*
D11*
X155065000Y-97550000D03*
D13*
X133065000Y-86000000D03*
D14*
X135605000Y-86000000D03*
X138145000Y-86000000D03*
X140685000Y-86000000D03*
D10*
X152525000Y-92825000D03*
D11*
X155065000Y-92825000D03*
D15*
X147350000Y-90800000D03*
X145350000Y-90800000D03*
X143350000Y-90800000D03*
X141350000Y-90800000D03*
X139350000Y-90800000D03*
X137350000Y-90800000D03*
X135350000Y-90800000D03*
X133350000Y-90800000D03*
X131350000Y-90800000D03*
D16*
X140075000Y-75250000D03*
X142950000Y-75975000D03*
X135575000Y-81425000D03*
X137800000Y-80550000D03*
X132200000Y-75125000D03*
X135100000Y-75825000D03*
X147625000Y-81950000D03*
X150200000Y-75800000D03*
X146994300Y-93691600D03*
X136912500Y-93278200D03*
D17*
X137616300Y-92956500D02*
X137212900Y-92553100D01*
X155065000Y-97550000D02*
X152601900Y-95086900D01*
X130338000Y-89902100D02*
X133065000Y-87175100D01*
X149569500Y-92956500D02*
X137616300Y-92956500D01*
X133065000Y-86000000D02*
X133065000Y-87175100D01*
X130338000Y-91233600D02*
X130338000Y-89902100D01*
X152702500Y-90462500D02*
X155065000Y-92825000D01*
X137212900Y-92553100D02*
X131657500Y-92553100D01*
X131657500Y-92553100D02*
X130338000Y-91233600D01*
X149054500Y-91817200D02*
X142367200Y-91817200D01*
X151699900Y-95086900D02*
X149569500Y-92956500D01*
X150409200Y-90462500D02*
X149054500Y-91817200D01*
X152601900Y-95086900D02*
X151699900Y-95086900D01*
X142367200Y-91817200D02*
X141350000Y-90800000D01*
X155065000Y-88100000D02*
X152702500Y-90462500D01*
X152702500Y-90462500D02*
X150409200Y-90462500D01*
X135605000Y-86000000D02*
X135605000Y-89055000D01*
X135605000Y-89055000D02*
X137350000Y-90800000D01*
X129431900Y-76708400D02*
X129431900Y-91660300D01*
X133835000Y-67975000D02*
X133835000Y-72305300D01*
X133835000Y-72305300D02*
X129431900Y-76708400D01*
X146661400Y-94024500D02*
X146994300Y-93691600D01*
X131796100Y-94024500D02*
X146661400Y-94024500D01*
X129431900Y-91660300D02*
X131796100Y-94024500D01*
X129882000Y-78795100D02*
X129882000Y-91473800D01*
X136375000Y-67975000D02*
X136375000Y-72302100D01*
X131686400Y-93278200D02*
X136912500Y-93278200D01*
X136375000Y-72302100D02*
X129882000Y-78795100D01*
X129882000Y-91473800D02*
X131686400Y-93278200D01*
X138915000Y-67975000D02*
X138915000Y-74347600D01*
X134240200Y-89909800D02*
X133350000Y-90800000D01*
X138915000Y-74347600D02*
X134240200Y-79022400D01*
X134240200Y-79022400D02*
X134240200Y-89909800D01*
X141455000Y-75460400D02*
X139350000Y-77565400D01*
X141455000Y-67975000D02*
X141455000Y-75460400D01*
X139350000Y-77565400D02*
X139350000Y-90800000D01*
X143995000Y-67975000D02*
X143995000Y-90155000D01*
X143995000Y-90155000D02*
X143350000Y-90800000D01*
X156291700Y-86790800D02*
X156291700Y-93371000D01*
X146535000Y-77034100D02*
X156291700Y-86790800D01*
X156291700Y-93371000D02*
X155612500Y-94050200D01*
X146535000Y-67975000D02*
X146535000Y-77034100D01*
X137600300Y-92303900D02*
X137399400Y-92103000D01*
X155612500Y-94050200D02*
X151299800Y-94050200D01*
X151299800Y-94050200D02*
X149553500Y-92303900D01*
X149553500Y-92303900D02*
X137600300Y-92303900D01*
X137399400Y-92103000D02*
X136653000Y-92103000D01*
X136653000Y-92103000D02*
X135350000Y-90800000D01*
G04 #@! TA.AperFunction,Conductor*
G36*
X128773732Y-73420002D02*
G01*
X128820225Y-73473658D01*
X128830337Y-73508135D01*
X128831920Y-73519187D01*
X128835634Y-73527355D01*
X128835634Y-73527356D01*
X128842548Y-73542562D01*
X128848996Y-73560086D01*
X128856051Y-73584771D01*
X128860843Y-73592365D01*
X128860844Y-73592368D01*
X128871830Y-73609780D01*
X128879969Y-73624863D01*
X128892208Y-73651782D01*
X128898069Y-73658584D01*
X128908970Y-73671235D01*
X128920073Y-73686239D01*
X128933776Y-73707958D01*
X128940501Y-73713897D01*
X128940504Y-73713901D01*
X128955938Y-73727532D01*
X128967982Y-73739724D01*
X128981427Y-73755327D01*
X128981430Y-73755329D01*
X128987287Y-73762127D01*
X128994816Y-73767007D01*
X128994817Y-73767008D01*
X129008835Y-73776094D01*
X129023709Y-73787385D01*
X129036217Y-73798431D01*
X129042951Y-73804378D01*
X129069711Y-73816942D01*
X129084691Y-73825263D01*
X129101983Y-73836471D01*
X129101988Y-73836473D01*
X129109515Y-73841352D01*
X129118108Y-73843922D01*
X129118113Y-73843924D01*
X129134120Y-73848711D01*
X129151564Y-73855372D01*
X129166676Y-73862467D01*
X129166678Y-73862468D01*
X129174800Y-73866281D01*
X129183667Y-73867662D01*
X129183668Y-73867662D01*
X129186353Y-73868080D01*
X129204017Y-73870830D01*
X129220732Y-73874613D01*
X129240466Y-73880515D01*
X129240472Y-73880516D01*
X129249066Y-73883086D01*
X129258037Y-73883141D01*
X129258038Y-73883141D01*
X129268097Y-73883202D01*
X129283506Y-73883296D01*
X129284289Y-73883329D01*
X129285386Y-73883500D01*
X129316377Y-73883500D01*
X129317147Y-73883502D01*
X129390785Y-73883952D01*
X129390786Y-73883952D01*
X129394721Y-73883976D01*
X129396065Y-73883592D01*
X129397410Y-73883500D01*
X131056705Y-73883500D01*
X131124826Y-73903502D01*
X131171319Y-73957158D01*
X131181423Y-74027432D01*
X131151929Y-74092012D01*
X131145800Y-74098595D01*
X129039647Y-76204748D01*
X129031361Y-76212288D01*
X129024882Y-76216400D01*
X129019457Y-76222177D01*
X128978257Y-76266051D01*
X128975502Y-76268893D01*
X128955765Y-76288630D01*
X128953285Y-76291827D01*
X128945582Y-76300847D01*
X128915314Y-76333079D01*
X128911495Y-76340025D01*
X128911493Y-76340028D01*
X128905552Y-76350834D01*
X128894701Y-76367353D01*
X128882286Y-76383359D01*
X128879141Y-76390628D01*
X128879138Y-76390632D01*
X128864726Y-76423937D01*
X128859509Y-76434587D01*
X128838205Y-76473340D01*
X128836234Y-76481015D01*
X128836234Y-76481016D01*
X128833167Y-76492962D01*
X128826763Y-76511666D01*
X128818719Y-76530255D01*
X128817480Y-76538078D01*
X128817477Y-76538088D01*
X128811801Y-76573924D01*
X128809395Y-76585544D01*
X128798400Y-76628370D01*
X128798400Y-76648624D01*
X128796849Y-76668334D01*
X128793680Y-76688343D01*
X128794426Y-76696235D01*
X128797841Y-76732361D01*
X128798400Y-76744219D01*
X128798400Y-91581533D01*
X128797873Y-91592716D01*
X128796198Y-91600209D01*
X128796447Y-91608135D01*
X128796447Y-91608136D01*
X128798338Y-91668286D01*
X128798400Y-91672245D01*
X128798400Y-91700156D01*
X128798897Y-91704090D01*
X128798897Y-91704091D01*
X128798905Y-91704156D01*
X128799838Y-91715993D01*
X128801227Y-91760189D01*
X128806847Y-91779532D01*
X128806878Y-91779639D01*
X128810887Y-91799000D01*
X128813426Y-91819097D01*
X128816345Y-91826468D01*
X128816345Y-91826470D01*
X128829704Y-91860212D01*
X128833549Y-91871442D01*
X128836904Y-91882989D01*
X128845882Y-91913893D01*
X128849915Y-91920712D01*
X128849917Y-91920717D01*
X128856193Y-91931328D01*
X128864888Y-91949076D01*
X128872348Y-91967917D01*
X128877010Y-91974333D01*
X128877010Y-91974334D01*
X128898336Y-92003687D01*
X128904852Y-92013607D01*
X128912953Y-92027304D01*
X128927358Y-92051662D01*
X128941679Y-92065983D01*
X128954519Y-92081016D01*
X128966428Y-92097407D01*
X128972534Y-92102458D01*
X129000505Y-92125598D01*
X129009284Y-92133588D01*
X131292443Y-94416747D01*
X131299987Y-94425037D01*
X131304100Y-94431518D01*
X131309877Y-94436943D01*
X131353767Y-94478158D01*
X131356609Y-94480913D01*
X131376331Y-94500635D01*
X131379473Y-94503072D01*
X131379533Y-94503119D01*
X131388545Y-94510817D01*
X131412602Y-94533407D01*
X131420779Y-94541086D01*
X131427722Y-94544903D01*
X131438531Y-94550845D01*
X131455053Y-94561698D01*
X131471059Y-94574114D01*
X131478337Y-94577264D01*
X131478338Y-94577264D01*
X131511637Y-94591674D01*
X131522287Y-94596891D01*
X131561040Y-94618195D01*
X131568715Y-94620166D01*
X131568716Y-94620166D01*
X131575446Y-94621894D01*
X131578158Y-94622590D01*
X131580662Y-94623233D01*
X131599366Y-94629637D01*
X131605250Y-94632183D01*
X131617955Y-94637681D01*
X131625778Y-94638920D01*
X131625788Y-94638923D01*
X131661624Y-94644599D01*
X131673244Y-94647005D01*
X131706029Y-94655422D01*
X131716070Y-94658000D01*
X131736324Y-94658000D01*
X131756034Y-94659551D01*
X131776043Y-94662720D01*
X131783935Y-94661974D01*
X131795363Y-94660894D01*
X131820062Y-94658559D01*
X131831919Y-94658000D01*
X146582633Y-94658000D01*
X146593816Y-94658527D01*
X146601309Y-94660202D01*
X146609235Y-94659953D01*
X146609236Y-94659953D01*
X146669386Y-94658062D01*
X146673345Y-94658000D01*
X146701256Y-94658000D01*
X146705191Y-94657503D01*
X146705256Y-94657495D01*
X146717093Y-94656562D01*
X146749351Y-94655548D01*
X146753370Y-94655422D01*
X146761289Y-94655173D01*
X146780743Y-94649521D01*
X146800100Y-94645513D01*
X146812330Y-94643968D01*
X146812331Y-94643968D01*
X146820197Y-94642974D01*
X146827568Y-94640055D01*
X146827570Y-94640055D01*
X146861312Y-94626696D01*
X146872542Y-94622851D01*
X146907382Y-94612729D01*
X146907381Y-94612729D01*
X146914993Y-94610518D01*
X146916417Y-94609676D01*
X146962659Y-94600100D01*
X147089787Y-94600100D01*
X147096239Y-94598728D01*
X147096244Y-94598728D01*
X147197221Y-94577264D01*
X147276588Y-94560394D01*
X147282619Y-94557709D01*
X147445022Y-94485403D01*
X147445024Y-94485402D01*
X147451052Y-94482718D01*
X147457329Y-94478158D01*
X147541853Y-94416747D01*
X147605553Y-94370466D01*
X147733340Y-94228544D01*
X147828827Y-94063156D01*
X147887842Y-93881528D01*
X147889790Y-93863000D01*
X147907114Y-93698165D01*
X147907804Y-93691600D01*
X147899543Y-93613001D01*
X147888532Y-93508235D01*
X147888532Y-93508233D01*
X147887842Y-93501672D01*
X147828827Y-93320044D01*
X147733340Y-93154656D01*
X147727083Y-93147707D01*
X147726393Y-93146268D01*
X147725041Y-93144408D01*
X147725381Y-93144161D01*
X147696368Y-93083701D01*
X147705133Y-93013247D01*
X147750597Y-92958717D01*
X147820722Y-92937400D01*
X149238906Y-92937400D01*
X149307027Y-92957402D01*
X149328001Y-92974305D01*
X150796143Y-94442447D01*
X150803687Y-94450737D01*
X150807800Y-94457218D01*
X150813577Y-94462643D01*
X150857467Y-94503858D01*
X150860309Y-94506613D01*
X150880030Y-94526334D01*
X150883225Y-94528812D01*
X150892247Y-94536518D01*
X150924479Y-94566786D01*
X150931428Y-94570606D01*
X150942232Y-94576546D01*
X150958756Y-94587399D01*
X150974759Y-94599813D01*
X151015343Y-94617376D01*
X151025973Y-94622583D01*
X151064740Y-94643895D01*
X151072417Y-94645866D01*
X151072422Y-94645868D01*
X151084358Y-94648932D01*
X151103066Y-94655337D01*
X151121655Y-94663381D01*
X151129483Y-94664621D01*
X151129490Y-94664623D01*
X151165324Y-94670299D01*
X151176944Y-94672705D01*
X151208759Y-94680873D01*
X151219770Y-94683700D01*
X151240024Y-94683700D01*
X151259734Y-94685251D01*
X151279743Y-94688420D01*
X151287635Y-94687674D01*
X151306380Y-94685902D01*
X151323762Y-94684259D01*
X151335619Y-94683700D01*
X155533733Y-94683700D01*
X155544916Y-94684227D01*
X155552409Y-94685902D01*
X155560335Y-94685653D01*
X155560336Y-94685653D01*
X155620486Y-94683762D01*
X155624445Y-94683700D01*
X155652356Y-94683700D01*
X155656291Y-94683203D01*
X155656356Y-94683195D01*
X155668193Y-94682262D01*
X155700451Y-94681248D01*
X155704470Y-94681122D01*
X155712389Y-94680873D01*
X155731843Y-94675221D01*
X155751200Y-94671213D01*
X155763430Y-94669668D01*
X155763431Y-94669668D01*
X155771297Y-94668674D01*
X155778668Y-94665755D01*
X155778670Y-94665755D01*
X155812412Y-94652396D01*
X155823642Y-94648551D01*
X155858483Y-94638429D01*
X155858484Y-94638429D01*
X155866093Y-94636218D01*
X155872912Y-94632185D01*
X155872917Y-94632183D01*
X155883528Y-94625907D01*
X155901276Y-94617212D01*
X155920117Y-94609752D01*
X155935291Y-94598728D01*
X155955887Y-94583764D01*
X155965807Y-94577248D01*
X155997035Y-94558780D01*
X155997038Y-94558778D01*
X156003862Y-94554742D01*
X156018183Y-94540421D01*
X156033217Y-94527580D01*
X156043193Y-94520332D01*
X156049607Y-94515672D01*
X156077788Y-94481607D01*
X156085778Y-94472826D01*
X156683958Y-93874647D01*
X156692237Y-93867113D01*
X156698718Y-93863000D01*
X156745344Y-93813348D01*
X156748098Y-93810507D01*
X156767835Y-93790770D01*
X156770315Y-93787573D01*
X156778020Y-93778551D01*
X156802859Y-93752100D01*
X156808286Y-93746321D01*
X156812105Y-93739375D01*
X156812107Y-93739372D01*
X156818048Y-93728566D01*
X156828899Y-93712047D01*
X156836458Y-93702301D01*
X156841314Y-93696041D01*
X156844459Y-93688772D01*
X156844462Y-93688768D01*
X156858874Y-93655463D01*
X156864091Y-93644813D01*
X156885395Y-93606060D01*
X156890433Y-93586437D01*
X156896837Y-93567734D01*
X156901733Y-93556420D01*
X156901733Y-93556419D01*
X156904881Y-93549145D01*
X156906120Y-93541322D01*
X156906123Y-93541312D01*
X156911799Y-93505476D01*
X156914205Y-93493856D01*
X156923228Y-93458711D01*
X156923228Y-93458710D01*
X156925200Y-93451030D01*
X156925200Y-93430776D01*
X156926751Y-93411065D01*
X156928680Y-93398886D01*
X156929920Y-93391057D01*
X156925759Y-93347038D01*
X156925200Y-93335181D01*
X156925200Y-86869563D01*
X156925727Y-86858379D01*
X156927401Y-86850891D01*
X156925262Y-86782832D01*
X156925200Y-86778875D01*
X156925200Y-86750944D01*
X156924694Y-86746938D01*
X156923761Y-86735092D01*
X156923515Y-86727244D01*
X156922373Y-86690910D01*
X156916722Y-86671458D01*
X156912714Y-86652106D01*
X156911168Y-86639868D01*
X156911167Y-86639866D01*
X156910174Y-86632003D01*
X156893894Y-86590886D01*
X156890059Y-86579685D01*
X156877718Y-86537206D01*
X156873685Y-86530387D01*
X156873683Y-86530382D01*
X156867407Y-86519771D01*
X156858710Y-86502021D01*
X156851252Y-86483183D01*
X156845903Y-86475820D01*
X156825272Y-86447425D01*
X156818753Y-86437501D01*
X156800278Y-86406260D01*
X156800274Y-86406255D01*
X156796242Y-86399437D01*
X156781918Y-86385113D01*
X156769076Y-86370078D01*
X156757172Y-86353693D01*
X156723106Y-86325511D01*
X156714327Y-86317522D01*
X147205405Y-76808600D01*
X147171379Y-76746288D01*
X147168500Y-76719505D01*
X147168500Y-73526000D01*
X147188502Y-73457879D01*
X147242158Y-73411386D01*
X147294500Y-73400000D01*
X153605611Y-73400000D01*
X153673732Y-73420002D01*
X153720225Y-73473658D01*
X153730337Y-73508135D01*
X153731920Y-73519187D01*
X153735634Y-73527355D01*
X153735634Y-73527356D01*
X153742548Y-73542562D01*
X153748996Y-73560086D01*
X153756051Y-73584771D01*
X153760843Y-73592365D01*
X153760844Y-73592368D01*
X153771830Y-73609780D01*
X153779969Y-73624863D01*
X153792208Y-73651782D01*
X153798069Y-73658584D01*
X153808970Y-73671235D01*
X153820073Y-73686239D01*
X153833776Y-73707958D01*
X153840501Y-73713897D01*
X153840504Y-73713901D01*
X153855938Y-73727532D01*
X153867982Y-73739724D01*
X153881427Y-73755327D01*
X153881430Y-73755329D01*
X153887287Y-73762127D01*
X153894816Y-73767007D01*
X153894817Y-73767008D01*
X153908835Y-73776094D01*
X153923709Y-73787385D01*
X153936217Y-73798431D01*
X153942951Y-73804378D01*
X153969711Y-73816942D01*
X153984691Y-73825263D01*
X154001983Y-73836471D01*
X154001988Y-73836473D01*
X154009515Y-73841352D01*
X154018108Y-73843922D01*
X154018113Y-73843924D01*
X154034120Y-73848711D01*
X154051564Y-73855372D01*
X154066676Y-73862467D01*
X154066678Y-73862468D01*
X154074800Y-73866281D01*
X154083667Y-73867662D01*
X154083668Y-73867662D01*
X154086353Y-73868080D01*
X154104017Y-73870830D01*
X154120732Y-73874613D01*
X154140466Y-73880515D01*
X154140472Y-73880516D01*
X154149066Y-73883086D01*
X154158037Y-73883141D01*
X154158038Y-73883141D01*
X154168097Y-73883202D01*
X154183506Y-73883296D01*
X154184289Y-73883329D01*
X154185386Y-73883500D01*
X154216377Y-73883500D01*
X154217147Y-73883502D01*
X154290785Y-73883952D01*
X154290786Y-73883952D01*
X154294721Y-73883976D01*
X154296065Y-73883592D01*
X154297410Y-73883500D01*
X156116377Y-73883500D01*
X156117148Y-73883502D01*
X156194721Y-73883976D01*
X156223152Y-73875850D01*
X156239915Y-73872272D01*
X156240753Y-73872152D01*
X156269187Y-73868080D01*
X156292564Y-73857451D01*
X156310087Y-73851004D01*
X156334771Y-73843949D01*
X156342365Y-73839157D01*
X156342368Y-73839156D01*
X156359780Y-73828170D01*
X156374865Y-73820030D01*
X156401782Y-73807792D01*
X156421235Y-73791030D01*
X156436239Y-73779927D01*
X156457958Y-73766224D01*
X156463897Y-73759499D01*
X156463901Y-73759496D01*
X156477532Y-73744062D01*
X156489724Y-73732018D01*
X156505327Y-73718573D01*
X156505329Y-73718570D01*
X156512127Y-73712713D01*
X156526094Y-73691165D01*
X156537385Y-73676291D01*
X156548431Y-73663783D01*
X156548432Y-73663782D01*
X156554378Y-73657049D01*
X156566943Y-73630287D01*
X156575263Y-73615309D01*
X156586471Y-73598017D01*
X156586473Y-73598012D01*
X156591352Y-73590485D01*
X156593922Y-73581892D01*
X156593924Y-73581887D01*
X156598711Y-73565880D01*
X156605372Y-73548436D01*
X156612467Y-73533324D01*
X156612468Y-73533322D01*
X156616281Y-73525200D01*
X156619175Y-73506614D01*
X156649420Y-73442382D01*
X156709590Y-73404698D01*
X156743675Y-73400000D01*
X157490500Y-73400000D01*
X157558621Y-73420002D01*
X157605114Y-73473658D01*
X157616500Y-73526000D01*
X157616500Y-107740500D01*
X157596498Y-107808621D01*
X157542842Y-107855114D01*
X157490500Y-107866500D01*
X127959500Y-107866500D01*
X127891379Y-107846498D01*
X127844886Y-107792842D01*
X127833500Y-107740500D01*
X127833500Y-98498134D01*
X151116500Y-98498134D01*
X151123255Y-98560316D01*
X151174385Y-98696705D01*
X151261739Y-98813261D01*
X151378295Y-98900615D01*
X151514684Y-98951745D01*
X151576866Y-98958500D01*
X153473134Y-98958500D01*
X153535316Y-98951745D01*
X153671705Y-98900615D01*
X153788261Y-98813261D01*
X153864597Y-98711406D01*
X154268423Y-98711406D01*
X154273704Y-98718461D01*
X154450080Y-98821527D01*
X154459363Y-98825974D01*
X154666003Y-98904883D01*
X154675901Y-98907759D01*
X154892653Y-98951857D01*
X154902883Y-98953076D01*
X155123914Y-98961182D01*
X155134223Y-98960714D01*
X155353623Y-98932608D01*
X155363688Y-98930468D01*
X155575557Y-98866905D01*
X155585152Y-98863144D01*
X155783778Y-98765838D01*
X155792636Y-98760559D01*
X155850097Y-98719572D01*
X155858497Y-98708874D01*
X155851510Y-98695721D01*
X155077811Y-97922021D01*
X155063868Y-97914408D01*
X155062034Y-97914539D01*
X155055420Y-97918790D01*
X154275180Y-98699031D01*
X154268423Y-98711406D01*
X153864597Y-98711406D01*
X153875615Y-98696705D01*
X153926745Y-98560316D01*
X153933500Y-98498134D01*
X153933500Y-98374480D01*
X153953502Y-98306359D01*
X153970405Y-98285384D01*
X154692979Y-97562811D01*
X154699356Y-97551132D01*
X155429408Y-97551132D01*
X155429539Y-97552966D01*
X155433790Y-97559580D01*
X156211307Y-98337096D01*
X156223313Y-98343652D01*
X156235052Y-98334684D01*
X156273010Y-98281859D01*
X156278321Y-98273020D01*
X156376318Y-98074737D01*
X156380117Y-98065142D01*
X156444415Y-97853517D01*
X156446594Y-97843436D01*
X156475702Y-97622338D01*
X156476221Y-97615663D01*
X156477744Y-97553364D01*
X156477550Y-97546646D01*
X156459279Y-97324400D01*
X156457596Y-97314238D01*
X156403710Y-97099708D01*
X156400389Y-97089953D01*
X156312193Y-96887118D01*
X156307315Y-96878020D01*
X156234224Y-96765038D01*
X156223538Y-96755835D01*
X156213973Y-96760238D01*
X155437021Y-97537189D01*
X155429408Y-97551132D01*
X154699356Y-97551132D01*
X154700592Y-97548868D01*
X154700461Y-97547034D01*
X154696210Y-97540420D01*
X153970405Y-96814616D01*
X153936380Y-96752303D01*
X153933500Y-96725520D01*
X153933500Y-96601866D01*
X153926745Y-96539684D01*
X153875615Y-96403295D01*
X153866184Y-96390711D01*
X154270508Y-96390711D01*
X154277251Y-96403040D01*
X155052189Y-97177979D01*
X155066132Y-97185592D01*
X155067966Y-97185461D01*
X155074580Y-97181210D01*
X155853994Y-96401795D01*
X155861011Y-96388944D01*
X155853237Y-96378274D01*
X155850902Y-96376430D01*
X155842320Y-96370729D01*
X155648678Y-96263833D01*
X155639272Y-96259606D01*
X155430772Y-96185772D01*
X155420809Y-96183140D01*
X155203047Y-96144350D01*
X155192796Y-96143381D01*
X154971616Y-96140679D01*
X154961332Y-96141399D01*
X154742693Y-96174855D01*
X154732666Y-96177244D01*
X154522426Y-96245961D01*
X154512916Y-96249958D01*
X154316725Y-96352089D01*
X154308007Y-96357578D01*
X154278961Y-96379386D01*
X154270508Y-96390711D01*
X153866184Y-96390711D01*
X153788261Y-96286739D01*
X153671705Y-96199385D01*
X153535316Y-96148255D01*
X153473134Y-96141500D01*
X151576866Y-96141500D01*
X151514684Y-96148255D01*
X151378295Y-96199385D01*
X151261739Y-96286739D01*
X151174385Y-96403295D01*
X151123255Y-96539684D01*
X151116500Y-96601866D01*
X151116500Y-98498134D01*
X127833500Y-98498134D01*
X127833500Y-73526000D01*
X127853502Y-73457879D01*
X127907158Y-73411386D01*
X127959500Y-73400000D01*
X128705611Y-73400000D01*
X128773732Y-73420002D01*
G37*
G04 #@! TD.AperFunction*
G04 #@! TA.AperFunction,Conductor*
G36*
X145843621Y-73420002D02*
G01*
X145890114Y-73473658D01*
X145901500Y-73526000D01*
X145901500Y-76955333D01*
X145900973Y-76966516D01*
X145899298Y-76974009D01*
X145899547Y-76981935D01*
X145899547Y-76981936D01*
X145901438Y-77042086D01*
X145901500Y-77046045D01*
X145901500Y-77073956D01*
X145901997Y-77077890D01*
X145901997Y-77077891D01*
X145902005Y-77077956D01*
X145902938Y-77089793D01*
X145904327Y-77133989D01*
X145909978Y-77153439D01*
X145913987Y-77172800D01*
X145916526Y-77192897D01*
X145919445Y-77200268D01*
X145919445Y-77200270D01*
X145932804Y-77234012D01*
X145936649Y-77245242D01*
X145948982Y-77287693D01*
X145953015Y-77294512D01*
X145953017Y-77294517D01*
X145959293Y-77305128D01*
X145967988Y-77322876D01*
X145975448Y-77341717D01*
X145980110Y-77348133D01*
X145980110Y-77348134D01*
X146001436Y-77377487D01*
X146007952Y-77387407D01*
X146012495Y-77395088D01*
X146030458Y-77425462D01*
X146044779Y-77439783D01*
X146057619Y-77454816D01*
X146069528Y-77471207D01*
X146086648Y-77485370D01*
X146103605Y-77499398D01*
X146112384Y-77507388D01*
X155080816Y-86475820D01*
X155114842Y-86538132D01*
X155109777Y-86608947D01*
X155067230Y-86665783D01*
X155000710Y-86690594D01*
X154990182Y-86690906D01*
X154971615Y-86690679D01*
X154961332Y-86691399D01*
X154742693Y-86724855D01*
X154732666Y-86727244D01*
X154522426Y-86795961D01*
X154512916Y-86799958D01*
X154316725Y-86902089D01*
X154308007Y-86907578D01*
X154278961Y-86929386D01*
X154270508Y-86940711D01*
X154277252Y-86953041D01*
X155335115Y-88010905D01*
X155369141Y-88073217D01*
X155364076Y-88144033D01*
X155335115Y-88189095D01*
X155065000Y-88459210D01*
X154275184Y-89249027D01*
X154268424Y-89261407D01*
X154273705Y-89268461D01*
X154450080Y-89371527D01*
X154459363Y-89375974D01*
X154666003Y-89454883D01*
X154675901Y-89457759D01*
X154892653Y-89501857D01*
X154902883Y-89503076D01*
X155123914Y-89511182D01*
X155134223Y-89510714D01*
X155353623Y-89482608D01*
X155363688Y-89480468D01*
X155495993Y-89440775D01*
X155566988Y-89440359D01*
X155626938Y-89478391D01*
X155656810Y-89542797D01*
X155658200Y-89561461D01*
X155658200Y-91363023D01*
X155638198Y-91431144D01*
X155584542Y-91477637D01*
X155514268Y-91487741D01*
X155490140Y-91481796D01*
X155430768Y-91460771D01*
X155420809Y-91458140D01*
X155203047Y-91419350D01*
X155192796Y-91418381D01*
X154971616Y-91415679D01*
X154961332Y-91416399D01*
X154742693Y-91449855D01*
X154732666Y-91452244D01*
X154522426Y-91520961D01*
X154512916Y-91524958D01*
X154316725Y-91627089D01*
X154308007Y-91632578D01*
X154278961Y-91654386D01*
X154270508Y-91665711D01*
X154277252Y-91678041D01*
X155335115Y-92735905D01*
X155369141Y-92798217D01*
X155364076Y-92869033D01*
X155335115Y-92914095D01*
X155154095Y-93095115D01*
X155091783Y-93129141D01*
X155020968Y-93124076D01*
X154975905Y-93095115D01*
X153970405Y-92089616D01*
X153936380Y-92027304D01*
X153933500Y-92000521D01*
X153933500Y-91876866D01*
X153926745Y-91814684D01*
X153875615Y-91678295D01*
X153788261Y-91561739D01*
X153671705Y-91474385D01*
X153535316Y-91423255D01*
X153473134Y-91416500D01*
X151576866Y-91416500D01*
X151514684Y-91423255D01*
X151378295Y-91474385D01*
X151261739Y-91561739D01*
X151174385Y-91678295D01*
X151123255Y-91814684D01*
X151116500Y-91876866D01*
X151116500Y-92666806D01*
X151096498Y-92734927D01*
X151042842Y-92781420D01*
X150972568Y-92791524D01*
X150907988Y-92762030D01*
X150901421Y-92755917D01*
X150057141Y-91911636D01*
X150049612Y-91903362D01*
X150045500Y-91896882D01*
X150020568Y-91873469D01*
X149995849Y-91850257D01*
X149993007Y-91847502D01*
X149973270Y-91827765D01*
X149970073Y-91825285D01*
X149961051Y-91817580D01*
X149934600Y-91792741D01*
X149928821Y-91787314D01*
X149921875Y-91783495D01*
X149921872Y-91783493D01*
X149911066Y-91777552D01*
X149894547Y-91766701D01*
X149886151Y-91760189D01*
X149878541Y-91754286D01*
X149871272Y-91751141D01*
X149871268Y-91751138D01*
X149837963Y-91736726D01*
X149827313Y-91731509D01*
X149788560Y-91710205D01*
X149768937Y-91705167D01*
X149750234Y-91698763D01*
X149738920Y-91693867D01*
X149738919Y-91693867D01*
X149731645Y-91690719D01*
X149723822Y-91689480D01*
X149723812Y-91689477D01*
X149687976Y-91683801D01*
X149676356Y-91681395D01*
X149641211Y-91672372D01*
X149641210Y-91672372D01*
X149633530Y-91670400D01*
X149613276Y-91670400D01*
X149593565Y-91668849D01*
X149590011Y-91668286D01*
X149573557Y-91665680D01*
X149565665Y-91666426D01*
X149529539Y-91669841D01*
X149517681Y-91670400D01*
X148432854Y-91670400D01*
X148364733Y-91650398D01*
X148318240Y-91596742D01*
X148308136Y-91526468D01*
X148328420Y-91474550D01*
X148329532Y-91473213D01*
X148337974Y-91458140D01*
X148432989Y-91288478D01*
X148432990Y-91288476D01*
X148435813Y-91283435D01*
X148437669Y-91277968D01*
X148437671Y-91277963D01*
X148503874Y-91082935D01*
X148503875Y-91082930D01*
X148505730Y-91077466D01*
X148536941Y-90862205D01*
X148538570Y-90800000D01*
X148518667Y-90583400D01*
X148459626Y-90374055D01*
X148363423Y-90178974D01*
X148250100Y-90027215D01*
X148236733Y-90009315D01*
X148236732Y-90009314D01*
X148233280Y-90004691D01*
X148073556Y-89857044D01*
X147889599Y-89740976D01*
X147687572Y-89660376D01*
X147499815Y-89623028D01*
X147479905Y-89619068D01*
X147479904Y-89619068D01*
X147474239Y-89617941D01*
X147468464Y-89617865D01*
X147468460Y-89617865D01*
X147359419Y-89616438D01*
X147256746Y-89615094D01*
X147251049Y-89616073D01*
X147251048Y-89616073D01*
X147048065Y-89650952D01*
X147048062Y-89650953D01*
X147042375Y-89651930D01*
X146838307Y-89727214D01*
X146709659Y-89803752D01*
X146662048Y-89832078D01*
X146651376Y-89838427D01*
X146487842Y-89981842D01*
X146484270Y-89986372D01*
X146484269Y-89986374D01*
X146450007Y-90029834D01*
X146392125Y-90070947D01*
X146321205Y-90074239D01*
X146259763Y-90038667D01*
X146250100Y-90027215D01*
X146236737Y-90009319D01*
X146236730Y-90009312D01*
X146233280Y-90004691D01*
X146073556Y-89857044D01*
X145889599Y-89740976D01*
X145687572Y-89660376D01*
X145499815Y-89623028D01*
X145479905Y-89619068D01*
X145479904Y-89619068D01*
X145474239Y-89617941D01*
X145468464Y-89617865D01*
X145468460Y-89617865D01*
X145359419Y-89616438D01*
X145256746Y-89615094D01*
X145251049Y-89616073D01*
X145251048Y-89616073D01*
X145048065Y-89650952D01*
X145048062Y-89650953D01*
X145042375Y-89651930D01*
X144838307Y-89727214D01*
X144832584Y-89730619D01*
X144818922Y-89738747D01*
X144750151Y-89756386D01*
X144682762Y-89734045D01*
X144638148Y-89678816D01*
X144628500Y-89630461D01*
X144628500Y-89048134D01*
X151116500Y-89048134D01*
X151123255Y-89110316D01*
X151174385Y-89246705D01*
X151261739Y-89363261D01*
X151378295Y-89450615D01*
X151514684Y-89501745D01*
X151576866Y-89508500D01*
X153473134Y-89508500D01*
X153535316Y-89501745D01*
X153671705Y-89450615D01*
X153788261Y-89363261D01*
X153875615Y-89246705D01*
X153926745Y-89110316D01*
X153933500Y-89048134D01*
X153933500Y-88924480D01*
X153953502Y-88856359D01*
X153970405Y-88835384D01*
X154692979Y-88112811D01*
X154700592Y-88098868D01*
X154700461Y-88097034D01*
X154696210Y-88090420D01*
X153970405Y-87364616D01*
X153936380Y-87302303D01*
X153933500Y-87275520D01*
X153933500Y-87151866D01*
X153926745Y-87089684D01*
X153875615Y-86953295D01*
X153788261Y-86836739D01*
X153671705Y-86749385D01*
X153535316Y-86698255D01*
X153473134Y-86691500D01*
X151576866Y-86691500D01*
X151514684Y-86698255D01*
X151378295Y-86749385D01*
X151261739Y-86836739D01*
X151174385Y-86953295D01*
X151123255Y-87089684D01*
X151116500Y-87151866D01*
X151116500Y-89048134D01*
X144628500Y-89048134D01*
X144628500Y-73526000D01*
X144648502Y-73457879D01*
X144702158Y-73411386D01*
X144754500Y-73400000D01*
X145775500Y-73400000D01*
X145843621Y-73420002D01*
G37*
G04 #@! TD.AperFunction*
G04 #@! TA.AperFunction,Conductor*
G36*
X143303621Y-73420002D02*
G01*
X143350114Y-73473658D01*
X143361500Y-73526000D01*
X143361500Y-89490907D01*
X143341498Y-89559028D01*
X143287842Y-89605521D01*
X143256489Y-89613599D01*
X143256746Y-89615094D01*
X143048065Y-89650952D01*
X143048062Y-89650953D01*
X143042375Y-89651930D01*
X142838307Y-89727214D01*
X142709659Y-89803752D01*
X142662048Y-89832078D01*
X142651376Y-89838427D01*
X142487842Y-89981842D01*
X142353181Y-90152658D01*
X142352990Y-90153021D01*
X142339367Y-90169845D01*
X141439095Y-91070116D01*
X141376783Y-91104141D01*
X141305967Y-91099076D01*
X141260905Y-91070116D01*
X140351158Y-90160370D01*
X140339295Y-90146663D01*
X140236733Y-90009315D01*
X140236732Y-90009314D01*
X140233280Y-90004691D01*
X140073556Y-89857044D01*
X140042265Y-89837301D01*
X140012880Y-89803954D01*
X140718067Y-89803954D01*
X140721553Y-89812342D01*
X141337189Y-90427979D01*
X141351132Y-90435592D01*
X141352966Y-90435461D01*
X141359580Y-90431210D01*
X141974662Y-89816127D01*
X141981419Y-89803752D01*
X141975389Y-89795696D01*
X141894256Y-89744505D01*
X141884008Y-89739284D01*
X141692799Y-89662999D01*
X141681762Y-89659730D01*
X141479853Y-89619567D01*
X141468408Y-89618364D01*
X141262567Y-89615670D01*
X141251087Y-89616573D01*
X141048202Y-89651435D01*
X141037082Y-89654415D01*
X140843940Y-89725669D01*
X140833562Y-89730619D01*
X140727665Y-89793621D01*
X140718067Y-89803954D01*
X140012880Y-89803954D01*
X139995327Y-89784035D01*
X139983500Y-89730739D01*
X139983500Y-87369368D01*
X140003502Y-87301247D01*
X140057158Y-87254754D01*
X140127432Y-87244650D01*
X140154449Y-87251658D01*
X140216938Y-87275520D01*
X140304692Y-87309030D01*
X140309760Y-87310061D01*
X140309763Y-87310062D01*
X140417017Y-87331883D01*
X140523597Y-87353567D01*
X140528772Y-87353757D01*
X140528774Y-87353757D01*
X140741673Y-87361564D01*
X140741677Y-87361564D01*
X140746837Y-87361753D01*
X140751957Y-87361097D01*
X140751959Y-87361097D01*
X140963288Y-87334025D01*
X140963289Y-87334025D01*
X140968416Y-87333368D01*
X140973366Y-87331883D01*
X141177429Y-87270661D01*
X141177434Y-87270659D01*
X141182384Y-87269174D01*
X141382994Y-87170896D01*
X141564860Y-87041173D01*
X141723096Y-86883489D01*
X141853453Y-86702077D01*
X141858681Y-86691500D01*
X141950136Y-86506453D01*
X141950137Y-86506451D01*
X141952430Y-86501811D01*
X142007144Y-86321728D01*
X142015865Y-86293023D01*
X142015865Y-86293021D01*
X142017370Y-86288069D01*
X142046529Y-86066590D01*
X142048156Y-86000000D01*
X142029852Y-85777361D01*
X141975431Y-85560702D01*
X141886354Y-85355840D01*
X141765014Y-85168277D01*
X141614670Y-85003051D01*
X141610619Y-84999852D01*
X141610615Y-84999848D01*
X141443414Y-84867800D01*
X141443410Y-84867798D01*
X141439359Y-84864598D01*
X141243789Y-84756638D01*
X141238920Y-84754914D01*
X141238916Y-84754912D01*
X141038087Y-84683795D01*
X141038083Y-84683794D01*
X141033212Y-84682069D01*
X141028119Y-84681162D01*
X141028116Y-84681161D01*
X140818373Y-84643800D01*
X140818367Y-84643799D01*
X140813284Y-84642894D01*
X140739452Y-84641992D01*
X140595081Y-84640228D01*
X140595079Y-84640228D01*
X140589911Y-84640165D01*
X140369091Y-84673955D01*
X140156756Y-84743357D01*
X140156748Y-84743333D01*
X140087784Y-84751116D01*
X140024130Y-84719673D01*
X139987580Y-84658807D01*
X139983500Y-84627002D01*
X139983500Y-77879994D01*
X140003502Y-77811873D01*
X140020405Y-77790899D01*
X141847247Y-75964057D01*
X141855537Y-75956513D01*
X141862018Y-75952400D01*
X141908659Y-75902732D01*
X141911413Y-75899891D01*
X141931135Y-75880169D01*
X141933612Y-75876976D01*
X141941317Y-75867955D01*
X141966159Y-75841500D01*
X141971586Y-75835721D01*
X141975407Y-75828771D01*
X141981346Y-75817968D01*
X141992202Y-75801441D01*
X141999757Y-75791702D01*
X141999758Y-75791700D01*
X142004614Y-75785440D01*
X142022174Y-75744860D01*
X142027391Y-75734212D01*
X142044875Y-75702409D01*
X142044876Y-75702407D01*
X142048695Y-75695460D01*
X142053733Y-75675837D01*
X142060137Y-75657134D01*
X142065033Y-75645820D01*
X142065033Y-75645819D01*
X142068181Y-75638545D01*
X142069420Y-75630722D01*
X142069423Y-75630712D01*
X142075099Y-75594876D01*
X142077505Y-75583256D01*
X142086528Y-75548111D01*
X142086528Y-75548110D01*
X142088500Y-75540430D01*
X142088500Y-75520176D01*
X142090051Y-75500465D01*
X142091980Y-75488286D01*
X142093220Y-75480457D01*
X142089059Y-75436438D01*
X142088500Y-75424581D01*
X142088500Y-73526000D01*
X142108502Y-73457879D01*
X142162158Y-73411386D01*
X142214500Y-73400000D01*
X143235500Y-73400000D01*
X143303621Y-73420002D01*
G37*
G04 #@! TD.AperFunction*
G04 #@! TA.AperFunction,Conductor*
G36*
X138223621Y-73420002D02*
G01*
X138270114Y-73473658D01*
X138281500Y-73526000D01*
X138281500Y-74033006D01*
X138261498Y-74101127D01*
X138244595Y-74122101D01*
X133847947Y-78518748D01*
X133839661Y-78526288D01*
X133833182Y-78530400D01*
X133827757Y-78536177D01*
X133786557Y-78580051D01*
X133783802Y-78582893D01*
X133764065Y-78602630D01*
X133761585Y-78605827D01*
X133753882Y-78614847D01*
X133723614Y-78647079D01*
X133719795Y-78654025D01*
X133719793Y-78654028D01*
X133713852Y-78664834D01*
X133703001Y-78681353D01*
X133690586Y-78697359D01*
X133687441Y-78704628D01*
X133687438Y-78704632D01*
X133673026Y-78737937D01*
X133667809Y-78748587D01*
X133646505Y-78787340D01*
X133644534Y-78795015D01*
X133644534Y-78795016D01*
X133641467Y-78806962D01*
X133635063Y-78825666D01*
X133627019Y-78844255D01*
X133625780Y-78852078D01*
X133625777Y-78852088D01*
X133620101Y-78887924D01*
X133617695Y-78899544D01*
X133606700Y-78942370D01*
X133606700Y-78962624D01*
X133605149Y-78982334D01*
X133601980Y-79002343D01*
X133602726Y-79010235D01*
X133606141Y-79046361D01*
X133606700Y-79058219D01*
X133606700Y-84516000D01*
X133586698Y-84584121D01*
X133533042Y-84630614D01*
X133480700Y-84642000D01*
X133337115Y-84642000D01*
X133321876Y-84646475D01*
X133320671Y-84647865D01*
X133319000Y-84655548D01*
X133319000Y-87339884D01*
X133323475Y-87355123D01*
X133324865Y-87356328D01*
X133332548Y-87357999D01*
X133480700Y-87357999D01*
X133548821Y-87378001D01*
X133595314Y-87431657D01*
X133606700Y-87483999D01*
X133606700Y-89492458D01*
X133586698Y-89560579D01*
X133533042Y-89607072D01*
X133474256Y-89616668D01*
X133474239Y-89617941D01*
X133256746Y-89615094D01*
X133251049Y-89616073D01*
X133251048Y-89616073D01*
X133048065Y-89650952D01*
X133048062Y-89650953D01*
X133042375Y-89651930D01*
X132838307Y-89727214D01*
X132709659Y-89803752D01*
X132662048Y-89832078D01*
X132651376Y-89838427D01*
X132487842Y-89981842D01*
X132484270Y-89986372D01*
X132484269Y-89986374D01*
X132450007Y-90029834D01*
X132392125Y-90070947D01*
X132321205Y-90074239D01*
X132259763Y-90038667D01*
X132250100Y-90027215D01*
X132236737Y-90009319D01*
X132236730Y-90009312D01*
X132233280Y-90004691D01*
X132073556Y-89857044D01*
X131889599Y-89740976D01*
X131687572Y-89660376D01*
X131499815Y-89623028D01*
X131479905Y-89619068D01*
X131479904Y-89619068D01*
X131474239Y-89617941D01*
X131468464Y-89617865D01*
X131468460Y-89617865D01*
X131359419Y-89616438D01*
X131256746Y-89615094D01*
X131251049Y-89616073D01*
X131251048Y-89616073D01*
X131048065Y-89650952D01*
X131048062Y-89650953D01*
X131042375Y-89651930D01*
X130838307Y-89727214D01*
X130709320Y-89803954D01*
X130705923Y-89805975D01*
X130637153Y-89823615D01*
X130569763Y-89801275D01*
X130525149Y-89746047D01*
X130515500Y-89697690D01*
X130515500Y-86894669D01*
X131707001Y-86894669D01*
X131707371Y-86901490D01*
X131712895Y-86952352D01*
X131716521Y-86967604D01*
X131761676Y-87088054D01*
X131770214Y-87103649D01*
X131846715Y-87205724D01*
X131859276Y-87218285D01*
X131961351Y-87294786D01*
X131976946Y-87303324D01*
X132097394Y-87348478D01*
X132112649Y-87352105D01*
X132163514Y-87357631D01*
X132170328Y-87358000D01*
X132792885Y-87358000D01*
X132808124Y-87353525D01*
X132809329Y-87352135D01*
X132811000Y-87344452D01*
X132811000Y-86272115D01*
X132806525Y-86256876D01*
X132805135Y-86255671D01*
X132797452Y-86254000D01*
X131725116Y-86254000D01*
X131709877Y-86258475D01*
X131708672Y-86259865D01*
X131707001Y-86267548D01*
X131707001Y-86894669D01*
X130515500Y-86894669D01*
X130515500Y-85727885D01*
X131707000Y-85727885D01*
X131711475Y-85743124D01*
X131712865Y-85744329D01*
X131720548Y-85746000D01*
X132792885Y-85746000D01*
X132808124Y-85741525D01*
X132809329Y-85740135D01*
X132811000Y-85732452D01*
X132811000Y-84660116D01*
X132806525Y-84644877D01*
X132805135Y-84643672D01*
X132797452Y-84642001D01*
X132170331Y-84642001D01*
X132163510Y-84642371D01*
X132112648Y-84647895D01*
X132097396Y-84651521D01*
X131976946Y-84696676D01*
X131961351Y-84705214D01*
X131859276Y-84781715D01*
X131846715Y-84794276D01*
X131770214Y-84896351D01*
X131761676Y-84911946D01*
X131716522Y-85032394D01*
X131712895Y-85047649D01*
X131707369Y-85098514D01*
X131707000Y-85105328D01*
X131707000Y-85727885D01*
X130515500Y-85727885D01*
X130515500Y-79109694D01*
X130535502Y-79041573D01*
X130552405Y-79020599D01*
X136136099Y-73436905D01*
X136198411Y-73402879D01*
X136225194Y-73400000D01*
X138155500Y-73400000D01*
X138223621Y-73420002D01*
G37*
G04 #@! TD.AperFunction*
G04 #@! TA.AperFunction,Conductor*
G36*
X140763621Y-73420002D02*
G01*
X140810114Y-73473658D01*
X140821500Y-73526000D01*
X140821500Y-75145806D01*
X140801498Y-75213927D01*
X140784595Y-75234901D01*
X138957747Y-77061748D01*
X138949461Y-77069288D01*
X138942982Y-77073400D01*
X138937557Y-77079177D01*
X138896357Y-77123051D01*
X138893602Y-77125893D01*
X138873865Y-77145630D01*
X138871385Y-77148827D01*
X138863682Y-77157847D01*
X138833414Y-77190079D01*
X138829595Y-77197025D01*
X138829593Y-77197028D01*
X138823652Y-77207834D01*
X138812801Y-77224353D01*
X138800386Y-77240359D01*
X138797241Y-77247628D01*
X138797238Y-77247632D01*
X138782826Y-77280937D01*
X138777609Y-77291587D01*
X138756305Y-77330340D01*
X138754334Y-77338015D01*
X138754334Y-77338016D01*
X138751267Y-77349962D01*
X138744863Y-77368666D01*
X138736819Y-77387255D01*
X138735580Y-77395078D01*
X138735577Y-77395088D01*
X138729901Y-77430924D01*
X138727495Y-77442544D01*
X138716500Y-77485370D01*
X138716500Y-77505624D01*
X138714949Y-77525334D01*
X138711780Y-77545343D01*
X138712526Y-77553235D01*
X138715941Y-77589361D01*
X138716500Y-77601219D01*
X138716500Y-84582853D01*
X138696498Y-84650974D01*
X138642842Y-84697467D01*
X138572568Y-84707571D01*
X138548441Y-84701626D01*
X138498091Y-84683796D01*
X138498083Y-84683794D01*
X138493212Y-84682069D01*
X138488119Y-84681162D01*
X138488116Y-84681161D01*
X138278373Y-84643800D01*
X138278367Y-84643799D01*
X138273284Y-84642894D01*
X138199452Y-84641992D01*
X138055081Y-84640228D01*
X138055079Y-84640228D01*
X138049911Y-84640165D01*
X137829091Y-84673955D01*
X137616756Y-84743357D01*
X137418607Y-84846507D01*
X137414474Y-84849610D01*
X137414471Y-84849612D01*
X137331450Y-84911946D01*
X137239965Y-84980635D01*
X137085629Y-85142138D01*
X136978201Y-85299621D01*
X136923293Y-85344621D01*
X136852768Y-85352792D01*
X136789021Y-85321538D01*
X136768324Y-85297054D01*
X136687822Y-85172617D01*
X136687820Y-85172614D01*
X136685014Y-85168277D01*
X136534670Y-85003051D01*
X136530619Y-84999852D01*
X136530615Y-84999848D01*
X136363414Y-84867800D01*
X136363410Y-84867798D01*
X136359359Y-84864598D01*
X136163789Y-84756638D01*
X136158920Y-84754914D01*
X136158916Y-84754912D01*
X135958087Y-84683795D01*
X135958083Y-84683794D01*
X135953212Y-84682069D01*
X135948119Y-84681162D01*
X135948116Y-84681161D01*
X135738373Y-84643800D01*
X135738367Y-84643799D01*
X135733284Y-84642894D01*
X135659452Y-84641992D01*
X135515081Y-84640228D01*
X135515079Y-84640228D01*
X135509911Y-84640165D01*
X135289091Y-84673955D01*
X135076756Y-84743357D01*
X135061852Y-84751116D01*
X135057879Y-84753184D01*
X134988219Y-84766896D01*
X134922205Y-84740770D01*
X134880794Y-84683101D01*
X134873700Y-84641420D01*
X134873700Y-79336994D01*
X134893702Y-79268873D01*
X134910605Y-79247899D01*
X139307247Y-74851257D01*
X139315537Y-74843713D01*
X139322018Y-74839600D01*
X139368659Y-74789932D01*
X139371413Y-74787091D01*
X139391135Y-74767369D01*
X139393612Y-74764176D01*
X139401317Y-74755155D01*
X139426159Y-74728700D01*
X139431586Y-74722921D01*
X139435407Y-74715971D01*
X139441346Y-74705168D01*
X139452202Y-74688641D01*
X139459757Y-74678902D01*
X139459758Y-74678900D01*
X139464614Y-74672640D01*
X139482174Y-74632060D01*
X139487391Y-74621412D01*
X139504875Y-74589609D01*
X139504876Y-74589607D01*
X139508695Y-74582660D01*
X139513733Y-74563037D01*
X139520137Y-74544334D01*
X139525033Y-74533020D01*
X139525033Y-74533019D01*
X139528181Y-74525745D01*
X139529420Y-74517922D01*
X139529423Y-74517912D01*
X139535099Y-74482076D01*
X139537505Y-74470456D01*
X139546528Y-74435311D01*
X139546528Y-74435310D01*
X139548500Y-74427630D01*
X139548500Y-74407376D01*
X139550051Y-74387665D01*
X139551980Y-74375486D01*
X139553220Y-74367657D01*
X139549059Y-74323638D01*
X139548500Y-74311781D01*
X139548500Y-73526000D01*
X139568502Y-73457879D01*
X139622158Y-73411386D01*
X139674500Y-73400000D01*
X140695500Y-73400000D01*
X140763621Y-73420002D01*
G37*
G04 #@! TD.AperFunction*
G04 #@! TA.AperFunction,Conductor*
G36*
X134145127Y-73420002D02*
G01*
X134191620Y-73473658D01*
X134201724Y-73543932D01*
X134172230Y-73608512D01*
X134166105Y-73615091D01*
X132197939Y-75583256D01*
X130280495Y-77500700D01*
X130218183Y-77534726D01*
X130147367Y-77529661D01*
X130090532Y-77487114D01*
X130065721Y-77420594D01*
X130065400Y-77411605D01*
X130065400Y-77022994D01*
X130085402Y-76954873D01*
X130102305Y-76933899D01*
X133599300Y-73436905D01*
X133661612Y-73402879D01*
X133688395Y-73400000D01*
X134077006Y-73400000D01*
X134145127Y-73420002D01*
G37*
G04 #@! TD.AperFunction*
M02*
