%FSLAX45Y45*%
G04 Gerber Fmt 4.5, Leading zero omitted, Abs format (unit mm)*
G04 Created by KiCad (PCBNEW (6.0.4)) date 2023-05-30 12:56:30*
%MOMM*%
%LPD*%
G01*
G04 APERTURE LIST*
%TA.AperFunction,Profile*%
%ADD10C,0.100000*%
%TD*%
%ADD11C,0.200000*%
G04 APERTURE END LIST*
D10*
X12732500Y-7337500D02*
X12732500Y-10837500D01*
X15812500Y-10837500D02*
X12732500Y-10837500D01*
X15812500Y-7337500D02*
X15812500Y-10837500D01*
D11*
X12984119Y-11152976D02*
X12984119Y-10952976D01*
X13031738Y-10952976D01*
X13060309Y-10962500D01*
X13079357Y-10981548D01*
X13088881Y-11000595D01*
X13098405Y-11038690D01*
X13098405Y-11067262D01*
X13088881Y-11105357D01*
X13079357Y-11124405D01*
X13060309Y-11143452D01*
X13031738Y-11152976D01*
X12984119Y-11152976D01*
X13184119Y-11152976D02*
X13184119Y-11019643D01*
X13184119Y-11057738D02*
X13193643Y-11038690D01*
X13203167Y-11029167D01*
X13222214Y-11019643D01*
X13241262Y-11019643D01*
X13307928Y-11152976D02*
X13307928Y-11019643D01*
X13307928Y-10952976D02*
X13298405Y-10962500D01*
X13307928Y-10972024D01*
X13317452Y-10962500D01*
X13307928Y-10952976D01*
X13307928Y-10972024D01*
X13431738Y-11152976D02*
X13412690Y-11143452D01*
X13403167Y-11124405D01*
X13403167Y-10952976D01*
X13536500Y-11152976D02*
X13517452Y-11143452D01*
X13507928Y-11124405D01*
X13507928Y-10952976D01*
X13765071Y-11152976D02*
X13765071Y-10952976D01*
X13831738Y-11095833D01*
X13898405Y-10952976D01*
X13898405Y-11152976D01*
X14079357Y-11152976D02*
X14079357Y-11048214D01*
X14069833Y-11029167D01*
X14050786Y-11019643D01*
X14012690Y-11019643D01*
X13993643Y-11029167D01*
X14079357Y-11143452D02*
X14060309Y-11152976D01*
X14012690Y-11152976D01*
X13993643Y-11143452D01*
X13984119Y-11124405D01*
X13984119Y-11105357D01*
X13993643Y-11086310D01*
X14012690Y-11076786D01*
X14060309Y-11076786D01*
X14079357Y-11067262D01*
X14174595Y-11019643D02*
X14174595Y-11219643D01*
X14174595Y-11029167D02*
X14193643Y-11019643D01*
X14231738Y-11019643D01*
X14250786Y-11029167D01*
X14260309Y-11038690D01*
X14269833Y-11057738D01*
X14269833Y-11114881D01*
X14260309Y-11133929D01*
X14250786Y-11143452D01*
X14231738Y-11152976D01*
X14193643Y-11152976D01*
X14174595Y-11143452D01*
X14355548Y-11133929D02*
X14365071Y-11143452D01*
X14355548Y-11152976D01*
X14346024Y-11143452D01*
X14355548Y-11133929D01*
X14355548Y-11152976D01*
X14355548Y-11029167D02*
X14365071Y-11038690D01*
X14355548Y-11048214D01*
X14346024Y-11038690D01*
X14355548Y-11029167D01*
X14355548Y-11048214D01*
M02*
