G04 #@! TF.GenerationSoftware,KiCad,Pcbnew,(6.0.4)*
G04 #@! TF.CreationDate,2023-05-30T12:56:23+02:00*
G04 #@! TF.ProjectId,MicroPicoDriveCartridge,4d696372-6f50-4696-936f-447269766543,rev?*
G04 #@! TF.SameCoordinates,Original*
G04 #@! TF.FileFunction,Copper,L1,Top*
G04 #@! TF.FilePolarity,Positive*
%FSLAX46Y46*%
G04 Gerber Fmt 4.6, Leading zero omitted, Abs format (unit mm)*
G04 Created by KiCad (PCBNEW (6.0.4)) date 2023-05-30 12:56:23*
%MOMM*%
%LPD*%
G01*
G04 APERTURE LIST*
G04 Aperture macros list*
%AMRoundRect*
0 Rectangle with rounded corners*
0 $1 Rounding radius*
0 $2 $3 $4 $5 $6 $7 $8 $9 X,Y pos of 4 corners*
0 Add a 4 corners polygon primitive as box body*
4,1,4,$2,$3,$4,$5,$6,$7,$8,$9,$2,$3,0*
0 Add four circle primitives for the rounded corners*
1,1,$1+$1,$2,$3*
1,1,$1+$1,$4,$5*
1,1,$1+$1,$6,$7*
1,1,$1+$1,$8,$9*
0 Add four rect primitives between the rounded corners*
20,1,$1+$1,$2,$3,$4,$5,0*
20,1,$1+$1,$4,$5,$6,$7,0*
20,1,$1+$1,$6,$7,$8,$9,0*
20,1,$1+$1,$8,$9,$2,$3,0*%
G04 Aperture macros list end*
G04 #@! TA.AperFunction,ComponentPad*
%ADD10R,1.800000X1.800000*%
G04 #@! TD*
G04 #@! TA.AperFunction,ComponentPad*
%ADD11C,1.800000*%
G04 #@! TD*
G04 #@! TA.AperFunction,SMDPad,CuDef*
%ADD12RoundRect,0.200000X-0.200000X-0.275000X0.200000X-0.275000X0.200000X0.275000X-0.200000X0.275000X0*%
G04 #@! TD*
G04 #@! TA.AperFunction,SMDPad,CuDef*
%ADD13RoundRect,0.500000X-0.500000X-3.500000X0.500000X-3.500000X0.500000X3.500000X-0.500000X3.500000X0*%
G04 #@! TD*
G04 #@! TA.AperFunction,SMDPad,CuDef*
%ADD14R,1.550000X1.300000*%
G04 #@! TD*
G04 #@! TA.AperFunction,ComponentPad*
%ADD15R,1.700000X1.700000*%
G04 #@! TD*
G04 #@! TA.AperFunction,ComponentPad*
%ADD16O,1.700000X1.700000*%
G04 #@! TD*
G04 #@! TA.AperFunction,ComponentPad*
%ADD17C,1.350000*%
G04 #@! TD*
G04 #@! TA.AperFunction,ViaPad*
%ADD18C,0.800000*%
G04 #@! TD*
G04 #@! TA.AperFunction,Conductor*
%ADD19C,0.250000*%
G04 #@! TD*
G04 APERTURE END LIST*
D10*
X152525000Y-88100000D03*
D11*
X155065000Y-88100000D03*
D12*
X147925000Y-92825000D03*
X149575000Y-92825000D03*
D13*
X133835000Y-67975000D03*
X136375000Y-67975000D03*
X138915000Y-67975000D03*
X141455000Y-67975000D03*
X143995000Y-67975000D03*
X146535000Y-67975000D03*
X149075000Y-67975000D03*
X151615000Y-67975000D03*
D14*
X136400000Y-102250000D03*
X128450000Y-102250000D03*
X136400000Y-106750000D03*
X128450000Y-106750000D03*
D10*
X152525000Y-97550000D03*
D11*
X155065000Y-97550000D03*
D14*
X146475000Y-102250000D03*
X138525000Y-102250000D03*
X146475000Y-106750000D03*
X138525000Y-106750000D03*
D15*
X133065000Y-86000000D03*
D16*
X135605000Y-86000000D03*
X138145000Y-86000000D03*
X140685000Y-86000000D03*
D12*
X147925000Y-97400000D03*
X149575000Y-97400000D03*
D14*
X157000000Y-102225000D03*
X149050000Y-102225000D03*
X157000000Y-106725000D03*
X149050000Y-106725000D03*
D12*
X147925000Y-88100000D03*
X149575000Y-88100000D03*
D10*
X152525000Y-92825000D03*
D11*
X155065000Y-92825000D03*
D17*
X147350000Y-90800000D03*
X145350000Y-90800000D03*
X143350000Y-90800000D03*
X141350000Y-90800000D03*
X139350000Y-90800000D03*
X137350000Y-90800000D03*
X135350000Y-90800000D03*
X133350000Y-90800000D03*
X131350000Y-90800000D03*
D18*
X140075000Y-75250000D03*
X142950000Y-75975000D03*
X135575000Y-81425000D03*
X137800000Y-80550000D03*
X132200000Y-75125000D03*
X135100000Y-75825000D03*
X147625000Y-81950000D03*
X150200000Y-75800000D03*
X146994300Y-93691600D03*
X136912500Y-93278200D03*
D19*
X152525000Y-88100000D02*
X149575000Y-88100000D01*
X136790800Y-68390800D02*
X136790800Y-86565300D01*
X148500000Y-106725000D02*
X147949900Y-106725000D01*
X146475000Y-106750000D02*
X147924900Y-106750000D01*
X136172700Y-87183400D02*
X134248400Y-87183400D01*
X155065000Y-97550000D02*
X152702300Y-99912700D01*
X152702300Y-99912700D02*
X149389300Y-99912700D01*
X128450000Y-106750000D02*
X136400000Y-106750000D01*
X138525000Y-106750000D02*
X146475000Y-106750000D01*
X136790800Y-86565300D02*
X136172700Y-87183400D01*
X136375000Y-67975000D02*
X136790800Y-68390800D01*
X134248400Y-87183400D02*
X133065000Y-86000000D01*
X147949900Y-101352100D02*
X147949900Y-106725000D01*
X155065000Y-92825000D02*
X155065000Y-97550000D01*
X147924900Y-106750000D02*
X147949900Y-106725000D01*
X148500000Y-106725000D02*
X149050000Y-106725000D01*
X136400000Y-106750000D02*
X138525000Y-106750000D01*
X149050000Y-106725000D02*
X157000000Y-106725000D01*
X149389300Y-99912700D02*
X147949900Y-101352100D01*
X152525000Y-92825000D02*
X149575000Y-92825000D01*
X149725000Y-97550000D02*
X149575000Y-97400000D01*
X152525000Y-97550000D02*
X149725000Y-97550000D01*
X133835000Y-67975000D02*
X133835000Y-84230000D01*
X133835000Y-84230000D02*
X135605000Y-86000000D01*
X147860900Y-92825000D02*
X147925000Y-92825000D01*
X146994300Y-93691600D02*
X147860900Y-92825000D01*
X141034300Y-97400000D02*
X147925000Y-97400000D01*
X136912500Y-93278200D02*
X141034300Y-97400000D01*
X138915000Y-84230000D02*
X140685000Y-86000000D01*
X138915000Y-67975000D02*
X138915000Y-84230000D01*
X141226700Y-87179700D02*
X139324700Y-87179700D01*
X141885000Y-86521400D02*
X141226700Y-87179700D01*
X139324700Y-87179700D02*
X138145000Y-86000000D01*
X141885000Y-68405000D02*
X141885000Y-86521400D01*
X141455000Y-67975000D02*
X141885000Y-68405000D01*
X140891600Y-88151500D02*
X132470200Y-88151500D01*
X143995000Y-67975000D02*
X143995000Y-85048100D01*
X128475000Y-92146700D02*
X128475000Y-102225000D01*
X130294600Y-102250000D02*
X136400000Y-102250000D01*
X143995000Y-85048100D02*
X140891600Y-88151500D01*
X132470200Y-88151500D02*
X128475000Y-92146700D01*
X128450000Y-102250000D02*
X130294600Y-102250000D01*
X128475000Y-102225000D02*
X128450000Y-102250000D01*
X148685900Y-99064000D02*
X146475000Y-101274900D01*
X138525000Y-102250000D02*
X139625100Y-102250000D01*
X146535000Y-67975000D02*
X146535000Y-88570400D01*
X146475000Y-102250000D02*
X139625100Y-102250000D01*
X146475000Y-102250000D02*
X146475000Y-101274900D01*
X148685900Y-90721300D02*
X148685900Y-99064000D01*
X146535000Y-88570400D02*
X148685900Y-90721300D01*
X147199000Y-87524200D02*
X149075000Y-85648200D01*
X154194500Y-90196100D02*
X148799800Y-90196100D01*
X148799800Y-90196100D02*
X147199000Y-88595300D01*
X147199000Y-88595300D02*
X147199000Y-87524200D01*
X156320600Y-102225000D02*
X157000000Y-102225000D01*
X149075000Y-85648200D02*
X149075000Y-67975000D01*
X157000000Y-93001600D02*
X154194500Y-90196100D01*
X157000000Y-102225000D02*
X157000000Y-93001600D01*
X149050000Y-102225000D02*
X156320600Y-102225000D01*
X151615000Y-84410000D02*
X147925000Y-88100000D01*
X151615000Y-67975000D02*
X151615000Y-84410000D01*
G04 #@! TA.AperFunction,Conductor*
G36*
X155664546Y-102878502D02*
G01*
X155711039Y-102932158D01*
X155721688Y-102970892D01*
X155723255Y-102985316D01*
X155774385Y-103121705D01*
X155861739Y-103238261D01*
X155978295Y-103325615D01*
X156114684Y-103376745D01*
X156176866Y-103383500D01*
X157490500Y-103383500D01*
X157558621Y-103403502D01*
X157605114Y-103457158D01*
X157616500Y-103509500D01*
X157616500Y-105441000D01*
X157596498Y-105509121D01*
X157542842Y-105555614D01*
X157490500Y-105567000D01*
X157272115Y-105567000D01*
X157256876Y-105571475D01*
X157255671Y-105572865D01*
X157254000Y-105580548D01*
X157254000Y-106853000D01*
X157233998Y-106921121D01*
X157180342Y-106967614D01*
X157128000Y-106979000D01*
X155735116Y-106979000D01*
X155719877Y-106983475D01*
X155718672Y-106984865D01*
X155717001Y-106992548D01*
X155717001Y-107419669D01*
X155717371Y-107426490D01*
X155722895Y-107477352D01*
X155726521Y-107492604D01*
X155771676Y-107613054D01*
X155780214Y-107628649D01*
X155807409Y-107664935D01*
X155832257Y-107731442D01*
X155817204Y-107800824D01*
X155767030Y-107851054D01*
X155706583Y-107866500D01*
X150343417Y-107866500D01*
X150275296Y-107846498D01*
X150228803Y-107792842D01*
X150218699Y-107722568D01*
X150242591Y-107664935D01*
X150269786Y-107628649D01*
X150278324Y-107613054D01*
X150323478Y-107492606D01*
X150327105Y-107477351D01*
X150332631Y-107426486D01*
X150333000Y-107419672D01*
X150333000Y-106997115D01*
X150328525Y-106981876D01*
X150327135Y-106980671D01*
X150319452Y-106979000D01*
X147816115Y-106979000D01*
X147771720Y-106992035D01*
X147761043Y-106998897D01*
X147725548Y-107004000D01*
X145210116Y-107004000D01*
X145194877Y-107008475D01*
X145193672Y-107009865D01*
X145192001Y-107017548D01*
X145192001Y-107444669D01*
X145192371Y-107451490D01*
X145197895Y-107502352D01*
X145201521Y-107517604D01*
X145246676Y-107638054D01*
X145255212Y-107653644D01*
X145263673Y-107664934D01*
X145288521Y-107731440D01*
X145273469Y-107800823D01*
X145223295Y-107851053D01*
X145162847Y-107866500D01*
X139837153Y-107866500D01*
X139769032Y-107846498D01*
X139722539Y-107792842D01*
X139712435Y-107722568D01*
X139736327Y-107664934D01*
X139744788Y-107653644D01*
X139753324Y-107638054D01*
X139798478Y-107517606D01*
X139802105Y-107502351D01*
X139807631Y-107451486D01*
X139808000Y-107444672D01*
X139808000Y-107022115D01*
X139803525Y-107006876D01*
X139802135Y-107005671D01*
X139794452Y-107004000D01*
X135135116Y-107004000D01*
X135119877Y-107008475D01*
X135118672Y-107009865D01*
X135117001Y-107017548D01*
X135117001Y-107444669D01*
X135117371Y-107451490D01*
X135122895Y-107502352D01*
X135126521Y-107517604D01*
X135171676Y-107638054D01*
X135180212Y-107653644D01*
X135188673Y-107664934D01*
X135213521Y-107731440D01*
X135198469Y-107800823D01*
X135148295Y-107851053D01*
X135087847Y-107866500D01*
X129762153Y-107866500D01*
X129694032Y-107846498D01*
X129647539Y-107792842D01*
X129637435Y-107722568D01*
X129661327Y-107664934D01*
X129669788Y-107653644D01*
X129678324Y-107638054D01*
X129723478Y-107517606D01*
X129727105Y-107502351D01*
X129732631Y-107451486D01*
X129733000Y-107444672D01*
X129733000Y-107022115D01*
X129728525Y-107006876D01*
X129727135Y-107005671D01*
X129719452Y-107004000D01*
X128322000Y-107004000D01*
X128253879Y-106983998D01*
X128207386Y-106930342D01*
X128196000Y-106878000D01*
X128196000Y-106477885D01*
X128704000Y-106477885D01*
X128708475Y-106493124D01*
X128709865Y-106494329D01*
X128717548Y-106496000D01*
X129714884Y-106496000D01*
X129730123Y-106491525D01*
X129731328Y-106490135D01*
X129732999Y-106482452D01*
X129732999Y-106477885D01*
X135117000Y-106477885D01*
X135121475Y-106493124D01*
X135122865Y-106494329D01*
X135130548Y-106496000D01*
X136127885Y-106496000D01*
X136143124Y-106491525D01*
X136144329Y-106490135D01*
X136146000Y-106482452D01*
X136146000Y-106477885D01*
X136654000Y-106477885D01*
X136658475Y-106493124D01*
X136659865Y-106494329D01*
X136667548Y-106496000D01*
X138252885Y-106496000D01*
X138268124Y-106491525D01*
X138269329Y-106490135D01*
X138271000Y-106482452D01*
X138271000Y-106477885D01*
X138779000Y-106477885D01*
X138783475Y-106493124D01*
X138784865Y-106494329D01*
X138792548Y-106496000D01*
X139789884Y-106496000D01*
X139805123Y-106491525D01*
X139806328Y-106490135D01*
X139807999Y-106482452D01*
X139807999Y-106477885D01*
X145192000Y-106477885D01*
X145196475Y-106493124D01*
X145197865Y-106494329D01*
X145205548Y-106496000D01*
X146202885Y-106496000D01*
X146218124Y-106491525D01*
X146219329Y-106490135D01*
X146221000Y-106482452D01*
X146221000Y-106477885D01*
X146729000Y-106477885D01*
X146733475Y-106493124D01*
X146734865Y-106494329D01*
X146742548Y-106496000D01*
X147708885Y-106496000D01*
X147753280Y-106482965D01*
X147763957Y-106476103D01*
X147799452Y-106471000D01*
X148777885Y-106471000D01*
X148793124Y-106466525D01*
X148794329Y-106465135D01*
X148796000Y-106457452D01*
X148796000Y-106452885D01*
X149304000Y-106452885D01*
X149308475Y-106468124D01*
X149309865Y-106469329D01*
X149317548Y-106471000D01*
X150314884Y-106471000D01*
X150330123Y-106466525D01*
X150331328Y-106465135D01*
X150332999Y-106457452D01*
X150332999Y-106452885D01*
X155717000Y-106452885D01*
X155721475Y-106468124D01*
X155722865Y-106469329D01*
X155730548Y-106471000D01*
X156727885Y-106471000D01*
X156743124Y-106466525D01*
X156744329Y-106465135D01*
X156746000Y-106457452D01*
X156746000Y-105585116D01*
X156741525Y-105569877D01*
X156740135Y-105568672D01*
X156732452Y-105567001D01*
X156180331Y-105567001D01*
X156173510Y-105567371D01*
X156122648Y-105572895D01*
X156107396Y-105576521D01*
X155986946Y-105621676D01*
X155971351Y-105630214D01*
X155869276Y-105706715D01*
X155856715Y-105719276D01*
X155780214Y-105821351D01*
X155771676Y-105836946D01*
X155726522Y-105957394D01*
X155722895Y-105972649D01*
X155717369Y-106023514D01*
X155717000Y-106030328D01*
X155717000Y-106452885D01*
X150332999Y-106452885D01*
X150332999Y-106030331D01*
X150332629Y-106023510D01*
X150327105Y-105972648D01*
X150323479Y-105957396D01*
X150278324Y-105836946D01*
X150269786Y-105821351D01*
X150193285Y-105719276D01*
X150180724Y-105706715D01*
X150078649Y-105630214D01*
X150063054Y-105621676D01*
X149942606Y-105576522D01*
X149927351Y-105572895D01*
X149876486Y-105567369D01*
X149869672Y-105567000D01*
X149322115Y-105567000D01*
X149306876Y-105571475D01*
X149305671Y-105572865D01*
X149304000Y-105580548D01*
X149304000Y-106452885D01*
X148796000Y-106452885D01*
X148796000Y-105585116D01*
X148791525Y-105569877D01*
X148790135Y-105568672D01*
X148782452Y-105567001D01*
X148230331Y-105567001D01*
X148223510Y-105567371D01*
X148172648Y-105572895D01*
X148157396Y-105576521D01*
X148036946Y-105621676D01*
X148021351Y-105630214D01*
X147919276Y-105706715D01*
X147906719Y-105719272D01*
X147853959Y-105789670D01*
X147797099Y-105832185D01*
X147726281Y-105837211D01*
X147663987Y-105803151D01*
X147652306Y-105789670D01*
X147618285Y-105744276D01*
X147605724Y-105731715D01*
X147503649Y-105655214D01*
X147488054Y-105646676D01*
X147367606Y-105601522D01*
X147352351Y-105597895D01*
X147301486Y-105592369D01*
X147294672Y-105592000D01*
X146747115Y-105592000D01*
X146731876Y-105596475D01*
X146730671Y-105597865D01*
X146729000Y-105605548D01*
X146729000Y-106477885D01*
X146221000Y-106477885D01*
X146221000Y-105610116D01*
X146216525Y-105594877D01*
X146215135Y-105593672D01*
X146207452Y-105592001D01*
X145655331Y-105592001D01*
X145648510Y-105592371D01*
X145597648Y-105597895D01*
X145582396Y-105601521D01*
X145461946Y-105646676D01*
X145446351Y-105655214D01*
X145344276Y-105731715D01*
X145331715Y-105744276D01*
X145255214Y-105846351D01*
X145246676Y-105861946D01*
X145201522Y-105982394D01*
X145197895Y-105997649D01*
X145192369Y-106048514D01*
X145192000Y-106055328D01*
X145192000Y-106477885D01*
X139807999Y-106477885D01*
X139807999Y-106055331D01*
X139807629Y-106048510D01*
X139802105Y-105997648D01*
X139798479Y-105982396D01*
X139753324Y-105861946D01*
X139744786Y-105846351D01*
X139668285Y-105744276D01*
X139655724Y-105731715D01*
X139553649Y-105655214D01*
X139538054Y-105646676D01*
X139417606Y-105601522D01*
X139402351Y-105597895D01*
X139351486Y-105592369D01*
X139344672Y-105592000D01*
X138797115Y-105592000D01*
X138781876Y-105596475D01*
X138780671Y-105597865D01*
X138779000Y-105605548D01*
X138779000Y-106477885D01*
X138271000Y-106477885D01*
X138271000Y-105610116D01*
X138266525Y-105594877D01*
X138265135Y-105593672D01*
X138257452Y-105592001D01*
X137705331Y-105592001D01*
X137698510Y-105592371D01*
X137647648Y-105597895D01*
X137632394Y-105601522D01*
X137506729Y-105648631D01*
X137435922Y-105653814D01*
X137418271Y-105648631D01*
X137292609Y-105601522D01*
X137277351Y-105597895D01*
X137226486Y-105592369D01*
X137219672Y-105592000D01*
X136672115Y-105592000D01*
X136656876Y-105596475D01*
X136655671Y-105597865D01*
X136654000Y-105605548D01*
X136654000Y-106477885D01*
X136146000Y-106477885D01*
X136146000Y-105610116D01*
X136141525Y-105594877D01*
X136140135Y-105593672D01*
X136132452Y-105592001D01*
X135580331Y-105592001D01*
X135573510Y-105592371D01*
X135522648Y-105597895D01*
X135507396Y-105601521D01*
X135386946Y-105646676D01*
X135371351Y-105655214D01*
X135269276Y-105731715D01*
X135256715Y-105744276D01*
X135180214Y-105846351D01*
X135171676Y-105861946D01*
X135126522Y-105982394D01*
X135122895Y-105997649D01*
X135117369Y-106048514D01*
X135117000Y-106055328D01*
X135117000Y-106477885D01*
X129732999Y-106477885D01*
X129732999Y-106055331D01*
X129732629Y-106048510D01*
X129727105Y-105997648D01*
X129723479Y-105982396D01*
X129678324Y-105861946D01*
X129669786Y-105846351D01*
X129593285Y-105744276D01*
X129580724Y-105731715D01*
X129478649Y-105655214D01*
X129463054Y-105646676D01*
X129342606Y-105601522D01*
X129327351Y-105597895D01*
X129276486Y-105592369D01*
X129269672Y-105592000D01*
X128722115Y-105592000D01*
X128706876Y-105596475D01*
X128705671Y-105597865D01*
X128704000Y-105605548D01*
X128704000Y-106477885D01*
X128196000Y-106477885D01*
X128196000Y-105610116D01*
X128191525Y-105594877D01*
X128190135Y-105593672D01*
X128182452Y-105592001D01*
X127959500Y-105592001D01*
X127891379Y-105571999D01*
X127844886Y-105518343D01*
X127833500Y-105466001D01*
X127833500Y-103534500D01*
X127853502Y-103466379D01*
X127907158Y-103419886D01*
X127959500Y-103408500D01*
X129273134Y-103408500D01*
X129335316Y-103401745D01*
X129471705Y-103350615D01*
X129588261Y-103263261D01*
X129675615Y-103146705D01*
X129726745Y-103010316D01*
X129728312Y-102995892D01*
X129755554Y-102930330D01*
X129813917Y-102889904D01*
X129853575Y-102883500D01*
X134996425Y-102883500D01*
X135064546Y-102903502D01*
X135111039Y-102957158D01*
X135121688Y-102995892D01*
X135123255Y-103010316D01*
X135174385Y-103146705D01*
X135261739Y-103263261D01*
X135378295Y-103350615D01*
X135514684Y-103401745D01*
X135576866Y-103408500D01*
X137223134Y-103408500D01*
X137285316Y-103401745D01*
X137292712Y-103398973D01*
X137292718Y-103398971D01*
X137418271Y-103351903D01*
X137489078Y-103346720D01*
X137506729Y-103351903D01*
X137632282Y-103398971D01*
X137632288Y-103398973D01*
X137639684Y-103401745D01*
X137701866Y-103408500D01*
X139348134Y-103408500D01*
X139410316Y-103401745D01*
X139546705Y-103350615D01*
X139663261Y-103263261D01*
X139750615Y-103146705D01*
X139801745Y-103010316D01*
X139803312Y-102995892D01*
X139830554Y-102930330D01*
X139888917Y-102889904D01*
X139928575Y-102883500D01*
X145071425Y-102883500D01*
X145139546Y-102903502D01*
X145186039Y-102957158D01*
X145196688Y-102995892D01*
X145198255Y-103010316D01*
X145249385Y-103146705D01*
X145336739Y-103263261D01*
X145453295Y-103350615D01*
X145589684Y-103401745D01*
X145651866Y-103408500D01*
X147298134Y-103408500D01*
X147360316Y-103401745D01*
X147496705Y-103350615D01*
X147613261Y-103263261D01*
X147671043Y-103186163D01*
X147727901Y-103143649D01*
X147798720Y-103138623D01*
X147861013Y-103172683D01*
X147872691Y-103186160D01*
X147911739Y-103238261D01*
X148028295Y-103325615D01*
X148164684Y-103376745D01*
X148226866Y-103383500D01*
X149873134Y-103383500D01*
X149935316Y-103376745D01*
X150071705Y-103325615D01*
X150188261Y-103238261D01*
X150275615Y-103121705D01*
X150326745Y-102985316D01*
X150328312Y-102970892D01*
X150355554Y-102905330D01*
X150413917Y-102864904D01*
X150453575Y-102858500D01*
X155596425Y-102858500D01*
X155664546Y-102878502D01*
G37*
G04 #@! TD.AperFunction*
G04 #@! TA.AperFunction,Conductor*
G36*
X145843621Y-73420002D02*
G01*
X145890114Y-73473658D01*
X145901500Y-73526000D01*
X145901500Y-88491633D01*
X145900973Y-88502816D01*
X145899298Y-88510309D01*
X145899547Y-88518235D01*
X145899547Y-88518236D01*
X145901438Y-88578386D01*
X145901500Y-88582345D01*
X145901500Y-88610256D01*
X145901997Y-88614190D01*
X145901997Y-88614191D01*
X145902005Y-88614256D01*
X145902938Y-88626093D01*
X145904327Y-88670289D01*
X145909978Y-88689739D01*
X145913987Y-88709100D01*
X145916526Y-88729197D01*
X145919445Y-88736568D01*
X145919445Y-88736570D01*
X145932804Y-88770312D01*
X145936649Y-88781542D01*
X145946480Y-88815381D01*
X145948982Y-88823993D01*
X145953015Y-88830812D01*
X145953017Y-88830817D01*
X145959293Y-88841428D01*
X145967988Y-88859176D01*
X145975448Y-88878017D01*
X145980110Y-88884433D01*
X145980110Y-88884434D01*
X146001436Y-88913787D01*
X146007952Y-88923707D01*
X146030458Y-88961762D01*
X146044779Y-88976083D01*
X146057619Y-88991116D01*
X146069528Y-89007507D01*
X146091244Y-89025472D01*
X146103605Y-89035698D01*
X146112384Y-89043688D01*
X146697174Y-89628478D01*
X146731200Y-89690790D01*
X146726135Y-89761605D01*
X146683588Y-89818441D01*
X146672503Y-89825857D01*
X146656345Y-89835470D01*
X146656341Y-89835473D01*
X146651376Y-89838427D01*
X146487842Y-89981842D01*
X146484270Y-89986372D01*
X146484269Y-89986374D01*
X146450007Y-90029834D01*
X146392125Y-90070947D01*
X146321205Y-90074239D01*
X146259763Y-90038667D01*
X146250100Y-90027215D01*
X146236737Y-90009319D01*
X146236730Y-90009312D01*
X146233280Y-90004691D01*
X146073556Y-89857044D01*
X145889599Y-89740976D01*
X145687572Y-89660376D01*
X145499815Y-89623028D01*
X145479905Y-89619068D01*
X145479904Y-89619068D01*
X145474239Y-89617941D01*
X145468464Y-89617865D01*
X145468460Y-89617865D01*
X145359419Y-89616438D01*
X145256746Y-89615094D01*
X145251049Y-89616073D01*
X145251048Y-89616073D01*
X145048065Y-89650952D01*
X145048062Y-89650953D01*
X145042375Y-89651930D01*
X144838307Y-89727214D01*
X144651376Y-89838427D01*
X144487842Y-89981842D01*
X144484270Y-89986372D01*
X144484269Y-89986374D01*
X144450007Y-90029834D01*
X144392125Y-90070947D01*
X144321205Y-90074239D01*
X144259763Y-90038667D01*
X144250100Y-90027215D01*
X144236737Y-90009319D01*
X144236730Y-90009312D01*
X144233280Y-90004691D01*
X144073556Y-89857044D01*
X143889599Y-89740976D01*
X143687572Y-89660376D01*
X143499815Y-89623028D01*
X143479905Y-89619068D01*
X143479904Y-89619068D01*
X143474239Y-89617941D01*
X143468464Y-89617865D01*
X143468460Y-89617865D01*
X143359419Y-89616438D01*
X143256746Y-89615094D01*
X143251049Y-89616073D01*
X143251048Y-89616073D01*
X143048065Y-89650952D01*
X143048062Y-89650953D01*
X143042375Y-89651930D01*
X142838307Y-89727214D01*
X142651376Y-89838427D01*
X142487842Y-89981842D01*
X142353181Y-90152658D01*
X142352991Y-90153020D01*
X142339369Y-90169842D01*
X141722021Y-90787189D01*
X141714408Y-90801132D01*
X141714539Y-90802966D01*
X141718790Y-90809580D01*
X142348152Y-91438941D01*
X142346542Y-91440551D01*
X142364961Y-91456959D01*
X142442869Y-91567196D01*
X142442873Y-91567200D01*
X142446204Y-91571914D01*
X142602009Y-91723692D01*
X142782863Y-91844536D01*
X142788171Y-91846817D01*
X142788172Y-91846817D01*
X142977409Y-91928119D01*
X142977412Y-91928120D01*
X142982712Y-91930397D01*
X142988342Y-91931671D01*
X143187025Y-91976629D01*
X143194860Y-91978402D01*
X143200631Y-91978629D01*
X143200633Y-91978629D01*
X143273620Y-91981496D01*
X143412205Y-91986941D01*
X143627466Y-91955730D01*
X143632930Y-91953875D01*
X143632935Y-91953874D01*
X143827963Y-91887671D01*
X143827968Y-91887669D01*
X143833435Y-91885813D01*
X143839296Y-91882531D01*
X143947990Y-91821659D01*
X144023213Y-91779532D01*
X144190446Y-91640446D01*
X144250252Y-91568537D01*
X144309189Y-91528953D01*
X144380171Y-91527517D01*
X144442913Y-91567258D01*
X144446204Y-91571914D01*
X144450346Y-91575949D01*
X144450348Y-91575951D01*
X144564039Y-91686703D01*
X144602009Y-91723692D01*
X144782863Y-91844536D01*
X144788171Y-91846817D01*
X144788172Y-91846817D01*
X144977409Y-91928119D01*
X144977412Y-91928120D01*
X144982712Y-91930397D01*
X144988342Y-91931671D01*
X145187025Y-91976629D01*
X145194860Y-91978402D01*
X145200631Y-91978629D01*
X145200633Y-91978629D01*
X145273620Y-91981496D01*
X145412205Y-91986941D01*
X145627466Y-91955730D01*
X145632930Y-91953875D01*
X145632935Y-91953874D01*
X145827963Y-91887671D01*
X145827968Y-91887669D01*
X145833435Y-91885813D01*
X145839296Y-91882531D01*
X145947990Y-91821659D01*
X146023213Y-91779532D01*
X146190446Y-91640446D01*
X146250252Y-91568537D01*
X146309189Y-91528953D01*
X146380171Y-91527517D01*
X146442913Y-91567258D01*
X146446204Y-91571914D01*
X146450346Y-91575949D01*
X146450348Y-91575951D01*
X146564039Y-91686703D01*
X146602009Y-91723692D01*
X146782863Y-91844536D01*
X146788171Y-91846817D01*
X146788172Y-91846817D01*
X146977409Y-91928119D01*
X146977412Y-91928120D01*
X146982712Y-91930397D01*
X147028978Y-91940866D01*
X147066497Y-91949356D01*
X147128523Y-91983899D01*
X147162028Y-92046493D01*
X147156372Y-92117264D01*
X147146465Y-92137517D01*
X147074528Y-92256301D01*
X147023247Y-92419938D01*
X147016500Y-92493365D01*
X147016500Y-92657974D01*
X146996498Y-92726095D01*
X146942842Y-92772588D01*
X146904340Y-92783100D01*
X146898813Y-92783100D01*
X146712012Y-92822806D01*
X146705982Y-92825491D01*
X146705981Y-92825491D01*
X146543578Y-92897797D01*
X146543576Y-92897798D01*
X146537548Y-92900482D01*
X146383047Y-93012734D01*
X146255260Y-93154656D01*
X146159773Y-93320044D01*
X146100758Y-93501672D01*
X146100068Y-93508233D01*
X146100068Y-93508235D01*
X146085223Y-93649480D01*
X146080796Y-93691600D01*
X146081486Y-93698165D01*
X146096679Y-93842715D01*
X146100758Y-93881528D01*
X146159773Y-94063156D01*
X146163076Y-94068878D01*
X146163077Y-94068879D01*
X146164881Y-94072003D01*
X146255260Y-94228544D01*
X146383047Y-94370466D01*
X146537548Y-94482718D01*
X146543576Y-94485402D01*
X146543578Y-94485403D01*
X146705981Y-94557709D01*
X146712012Y-94560394D01*
X146805412Y-94580247D01*
X146892356Y-94598728D01*
X146892361Y-94598728D01*
X146898813Y-94600100D01*
X147089787Y-94600100D01*
X147096239Y-94598728D01*
X147096244Y-94598728D01*
X147183187Y-94580247D01*
X147276588Y-94560394D01*
X147282619Y-94557709D01*
X147445022Y-94485403D01*
X147445024Y-94485402D01*
X147451052Y-94482718D01*
X147605553Y-94370466D01*
X147733340Y-94228544D01*
X147817281Y-94083154D01*
X147868663Y-94034161D01*
X147938377Y-94020725D01*
X148004288Y-94047111D01*
X148045470Y-94104943D01*
X148052400Y-94146154D01*
X148052400Y-96290500D01*
X148032398Y-96358621D01*
X147978742Y-96405114D01*
X147926400Y-96416500D01*
X147676957Y-96416501D01*
X147668366Y-96416501D01*
X147665508Y-96416764D01*
X147665499Y-96416764D01*
X147629996Y-96420026D01*
X147594938Y-96423247D01*
X147588560Y-96425246D01*
X147588559Y-96425246D01*
X147438550Y-96472256D01*
X147438548Y-96472257D01*
X147431301Y-96474528D01*
X147284619Y-96563361D01*
X147163361Y-96684619D01*
X147159424Y-96691120D01*
X147150551Y-96705771D01*
X147098154Y-96753678D01*
X147042775Y-96766500D01*
X141348895Y-96766500D01*
X141280774Y-96746498D01*
X141259800Y-96729595D01*
X137859622Y-93329417D01*
X137825596Y-93267105D01*
X137823407Y-93253492D01*
X137806732Y-93094835D01*
X137806732Y-93094833D01*
X137806042Y-93088272D01*
X137747027Y-92906644D01*
X137743470Y-92900482D01*
X137670153Y-92773495D01*
X137651540Y-92741256D01*
X137572442Y-92653408D01*
X137528175Y-92604245D01*
X137528174Y-92604244D01*
X137523753Y-92599334D01*
X137424657Y-92527336D01*
X137374594Y-92490963D01*
X137374593Y-92490962D01*
X137369252Y-92487082D01*
X137363224Y-92484398D01*
X137363222Y-92484397D01*
X137200819Y-92412091D01*
X137200818Y-92412091D01*
X137194788Y-92409406D01*
X137101387Y-92389553D01*
X137014444Y-92371072D01*
X137014439Y-92371072D01*
X137007987Y-92369700D01*
X136817013Y-92369700D01*
X136810561Y-92371072D01*
X136810556Y-92371072D01*
X136723613Y-92389553D01*
X136630212Y-92409406D01*
X136624182Y-92412091D01*
X136624181Y-92412091D01*
X136461778Y-92484397D01*
X136461776Y-92484398D01*
X136455748Y-92487082D01*
X136450407Y-92490962D01*
X136450406Y-92490963D01*
X136400343Y-92527336D01*
X136301247Y-92599334D01*
X136296826Y-92604244D01*
X136296825Y-92604245D01*
X136252559Y-92653408D01*
X136173460Y-92741256D01*
X136154847Y-92773495D01*
X136081531Y-92900482D01*
X136077973Y-92906644D01*
X136018958Y-93088272D01*
X136018268Y-93094833D01*
X136018268Y-93094835D01*
X136007868Y-93193790D01*
X135998996Y-93278200D01*
X135999686Y-93284765D01*
X136004055Y-93326329D01*
X136018958Y-93468128D01*
X136077973Y-93649756D01*
X136173460Y-93815144D01*
X136177878Y-93820051D01*
X136177879Y-93820052D01*
X136296825Y-93952155D01*
X136301247Y-93957066D01*
X136455748Y-94069318D01*
X136461776Y-94072002D01*
X136461778Y-94072003D01*
X136624181Y-94144309D01*
X136630212Y-94146994D01*
X136723613Y-94166847D01*
X136810556Y-94185328D01*
X136810561Y-94185328D01*
X136817013Y-94186700D01*
X136872906Y-94186700D01*
X136941027Y-94206702D01*
X136962001Y-94223605D01*
X140530643Y-97792247D01*
X140538187Y-97800537D01*
X140542300Y-97807018D01*
X140548077Y-97812443D01*
X140591967Y-97853658D01*
X140594809Y-97856413D01*
X140614530Y-97876134D01*
X140617725Y-97878612D01*
X140626747Y-97886318D01*
X140658979Y-97916586D01*
X140665928Y-97920406D01*
X140676732Y-97926346D01*
X140693256Y-97937199D01*
X140709259Y-97949613D01*
X140749843Y-97967176D01*
X140760473Y-97972383D01*
X140799240Y-97993695D01*
X140806917Y-97995666D01*
X140806922Y-97995668D01*
X140818858Y-97998732D01*
X140837566Y-98005137D01*
X140856155Y-98013181D01*
X140863980Y-98014420D01*
X140863982Y-98014421D01*
X140899819Y-98020097D01*
X140911440Y-98022504D01*
X140946589Y-98031528D01*
X140954270Y-98033500D01*
X140974531Y-98033500D01*
X140994240Y-98035051D01*
X141014243Y-98038219D01*
X141022135Y-98037473D01*
X141027362Y-98036979D01*
X141058254Y-98034059D01*
X141070111Y-98033500D01*
X147042775Y-98033500D01*
X147110896Y-98053502D01*
X147150551Y-98094229D01*
X147163361Y-98115381D01*
X147284619Y-98236639D01*
X147431301Y-98325472D01*
X147438548Y-98327743D01*
X147438550Y-98327744D01*
X147468393Y-98337096D01*
X147594938Y-98376753D01*
X147668365Y-98383500D01*
X147676999Y-98383500D01*
X147926401Y-98383499D01*
X147994520Y-98403501D01*
X148041013Y-98457156D01*
X148052400Y-98509499D01*
X148052400Y-98749406D01*
X148032398Y-98817527D01*
X148015495Y-98838501D01*
X146082747Y-100771248D01*
X146074461Y-100778788D01*
X146067982Y-100782900D01*
X146062557Y-100788677D01*
X146021357Y-100832551D01*
X146018602Y-100835393D01*
X145998865Y-100855130D01*
X145996385Y-100858327D01*
X145988682Y-100867347D01*
X145958414Y-100899579D01*
X145954595Y-100906525D01*
X145954593Y-100906528D01*
X145948652Y-100917334D01*
X145937801Y-100933853D01*
X145925386Y-100949859D01*
X145922241Y-100957128D01*
X145922238Y-100957132D01*
X145907826Y-100990437D01*
X145902609Y-101001087D01*
X145888803Y-101026201D01*
X145838460Y-101076259D01*
X145778389Y-101091500D01*
X145651866Y-101091500D01*
X145589684Y-101098255D01*
X145453295Y-101149385D01*
X145336739Y-101236739D01*
X145249385Y-101353295D01*
X145198255Y-101489684D01*
X145197402Y-101497540D01*
X145196688Y-101504108D01*
X145169446Y-101569670D01*
X145111083Y-101610096D01*
X145071425Y-101616500D01*
X139928575Y-101616500D01*
X139860454Y-101596498D01*
X139813961Y-101542842D01*
X139803312Y-101504108D01*
X139802598Y-101497540D01*
X139801745Y-101489684D01*
X139750615Y-101353295D01*
X139663261Y-101236739D01*
X139546705Y-101149385D01*
X139410316Y-101098255D01*
X139348134Y-101091500D01*
X137701866Y-101091500D01*
X137639684Y-101098255D01*
X137632288Y-101101027D01*
X137632282Y-101101029D01*
X137506729Y-101148097D01*
X137435922Y-101153280D01*
X137418271Y-101148097D01*
X137292718Y-101101029D01*
X137292712Y-101101027D01*
X137285316Y-101098255D01*
X137223134Y-101091500D01*
X135576866Y-101091500D01*
X135514684Y-101098255D01*
X135378295Y-101149385D01*
X135261739Y-101236739D01*
X135174385Y-101353295D01*
X135123255Y-101489684D01*
X135122402Y-101497540D01*
X135121688Y-101504108D01*
X135094446Y-101569670D01*
X135036083Y-101610096D01*
X134996425Y-101616500D01*
X129853575Y-101616500D01*
X129785454Y-101596498D01*
X129738961Y-101542842D01*
X129728312Y-101504108D01*
X129727598Y-101497540D01*
X129726745Y-101489684D01*
X129675615Y-101353295D01*
X129588261Y-101236739D01*
X129471705Y-101149385D01*
X129335316Y-101098255D01*
X129273134Y-101091500D01*
X129234500Y-101091500D01*
X129166379Y-101071498D01*
X129119886Y-101017842D01*
X129108500Y-100965500D01*
X129108500Y-92461294D01*
X129128502Y-92393173D01*
X129145405Y-92372199D01*
X130133239Y-91384366D01*
X130195551Y-91350340D01*
X130266367Y-91355405D01*
X130325230Y-91400740D01*
X130446204Y-91571914D01*
X130602009Y-91723692D01*
X130782863Y-91844536D01*
X130788171Y-91846817D01*
X130788172Y-91846817D01*
X130977409Y-91928119D01*
X130977412Y-91928120D01*
X130982712Y-91930397D01*
X130988342Y-91931671D01*
X131187025Y-91976629D01*
X131194860Y-91978402D01*
X131200631Y-91978629D01*
X131200633Y-91978629D01*
X131273620Y-91981496D01*
X131412205Y-91986941D01*
X131627466Y-91955730D01*
X131632930Y-91953875D01*
X131632935Y-91953874D01*
X131827963Y-91887671D01*
X131827968Y-91887669D01*
X131833435Y-91885813D01*
X131839296Y-91882531D01*
X131947990Y-91821659D01*
X132023213Y-91779532D01*
X132190446Y-91640446D01*
X132250252Y-91568537D01*
X132309189Y-91528953D01*
X132380171Y-91527517D01*
X132442913Y-91567258D01*
X132446204Y-91571914D01*
X132450346Y-91575949D01*
X132450348Y-91575951D01*
X132564039Y-91686703D01*
X132602009Y-91723692D01*
X132782863Y-91844536D01*
X132788171Y-91846817D01*
X132788172Y-91846817D01*
X132977409Y-91928119D01*
X132977412Y-91928120D01*
X132982712Y-91930397D01*
X132988342Y-91931671D01*
X133187025Y-91976629D01*
X133194860Y-91978402D01*
X133200631Y-91978629D01*
X133200633Y-91978629D01*
X133273620Y-91981496D01*
X133412205Y-91986941D01*
X133627466Y-91955730D01*
X133632930Y-91953875D01*
X133632935Y-91953874D01*
X133827963Y-91887671D01*
X133827968Y-91887669D01*
X133833435Y-91885813D01*
X133839296Y-91882531D01*
X133947990Y-91821659D01*
X134023213Y-91779532D01*
X134190446Y-91640446D01*
X134250252Y-91568537D01*
X134309189Y-91528953D01*
X134380171Y-91527517D01*
X134442913Y-91567258D01*
X134446204Y-91571914D01*
X134450346Y-91575949D01*
X134450348Y-91575951D01*
X134564039Y-91686703D01*
X134602009Y-91723692D01*
X134782863Y-91844536D01*
X134788171Y-91846817D01*
X134788172Y-91846817D01*
X134977409Y-91928119D01*
X134977412Y-91928120D01*
X134982712Y-91930397D01*
X134988342Y-91931671D01*
X135187025Y-91976629D01*
X135194860Y-91978402D01*
X135200631Y-91978629D01*
X135200633Y-91978629D01*
X135273620Y-91981496D01*
X135412205Y-91986941D01*
X135627466Y-91955730D01*
X135632930Y-91953875D01*
X135632935Y-91953874D01*
X135827963Y-91887671D01*
X135827968Y-91887669D01*
X135833435Y-91885813D01*
X135839296Y-91882531D01*
X135947990Y-91821659D01*
X136023213Y-91779532D01*
X136190446Y-91640446D01*
X136250252Y-91568537D01*
X136309189Y-91528953D01*
X136380171Y-91527517D01*
X136442913Y-91567258D01*
X136446204Y-91571914D01*
X136450346Y-91575949D01*
X136450348Y-91575951D01*
X136564039Y-91686703D01*
X136602009Y-91723692D01*
X136782863Y-91844536D01*
X136788171Y-91846817D01*
X136788172Y-91846817D01*
X136977409Y-91928119D01*
X136977412Y-91928120D01*
X136982712Y-91930397D01*
X136988342Y-91931671D01*
X137187025Y-91976629D01*
X137194860Y-91978402D01*
X137200631Y-91978629D01*
X137200633Y-91978629D01*
X137273620Y-91981496D01*
X137412205Y-91986941D01*
X137627466Y-91955730D01*
X137632930Y-91953875D01*
X137632935Y-91953874D01*
X137827963Y-91887671D01*
X137827968Y-91887669D01*
X137833435Y-91885813D01*
X137839296Y-91882531D01*
X137947990Y-91821659D01*
X138023213Y-91779532D01*
X138190446Y-91640446D01*
X138250252Y-91568537D01*
X138309189Y-91528953D01*
X138380171Y-91527517D01*
X138442913Y-91567258D01*
X138446204Y-91571914D01*
X138450346Y-91575949D01*
X138450348Y-91575951D01*
X138564039Y-91686703D01*
X138602009Y-91723692D01*
X138782863Y-91844536D01*
X138788171Y-91846817D01*
X138788172Y-91846817D01*
X138977409Y-91928119D01*
X138977412Y-91928120D01*
X138982712Y-91930397D01*
X138988342Y-91931671D01*
X139187025Y-91976629D01*
X139194860Y-91978402D01*
X139200631Y-91978629D01*
X139200633Y-91978629D01*
X139273620Y-91981496D01*
X139412205Y-91986941D01*
X139627466Y-91955730D01*
X139632930Y-91953875D01*
X139632935Y-91953874D01*
X139827963Y-91887671D01*
X139827968Y-91887669D01*
X139833435Y-91885813D01*
X139839296Y-91882531D01*
X139947990Y-91821659D01*
X139994934Y-91795369D01*
X140718991Y-91795369D01*
X140728872Y-91807857D01*
X140778304Y-91840887D01*
X140788407Y-91846373D01*
X140977560Y-91927640D01*
X140988503Y-91931195D01*
X141189289Y-91976629D01*
X141200699Y-91978131D01*
X141406411Y-91986213D01*
X141417893Y-91985611D01*
X141621627Y-91956072D01*
X141632823Y-91953384D01*
X141827763Y-91887210D01*
X141838272Y-91882531D01*
X141973135Y-91807004D01*
X141982999Y-91796926D01*
X141980044Y-91789255D01*
X141362811Y-91172021D01*
X141348868Y-91164408D01*
X141347034Y-91164539D01*
X141340420Y-91168790D01*
X140725184Y-91784027D01*
X140718991Y-91795369D01*
X139994934Y-91795369D01*
X140023213Y-91779532D01*
X140190446Y-91640446D01*
X140329532Y-91473213D01*
X140332348Y-91468185D01*
X140332354Y-91468176D01*
X140336236Y-91461243D01*
X140357075Y-91433714D01*
X140977979Y-90812811D01*
X140985592Y-90798868D01*
X140985461Y-90797034D01*
X140981210Y-90790420D01*
X140351155Y-90160366D01*
X140339292Y-90146659D01*
X140236733Y-90009315D01*
X140236732Y-90009314D01*
X140233280Y-90004691D01*
X140073556Y-89857044D01*
X139989413Y-89803954D01*
X140718067Y-89803954D01*
X140721553Y-89812342D01*
X141337189Y-90427979D01*
X141351132Y-90435592D01*
X141352966Y-90435461D01*
X141359580Y-90431210D01*
X141974662Y-89816127D01*
X141981419Y-89803752D01*
X141975389Y-89795696D01*
X141894256Y-89744505D01*
X141884008Y-89739284D01*
X141692799Y-89662999D01*
X141681762Y-89659730D01*
X141479853Y-89619567D01*
X141468408Y-89618364D01*
X141262567Y-89615670D01*
X141251087Y-89616573D01*
X141048202Y-89651435D01*
X141037082Y-89654415D01*
X140843940Y-89725669D01*
X140833562Y-89730619D01*
X140727665Y-89793621D01*
X140718067Y-89803954D01*
X139989413Y-89803954D01*
X139889599Y-89740976D01*
X139687572Y-89660376D01*
X139499815Y-89623028D01*
X139479905Y-89619068D01*
X139479904Y-89619068D01*
X139474239Y-89617941D01*
X139468464Y-89617865D01*
X139468460Y-89617865D01*
X139359419Y-89616438D01*
X139256746Y-89615094D01*
X139251049Y-89616073D01*
X139251048Y-89616073D01*
X139048065Y-89650952D01*
X139048062Y-89650953D01*
X139042375Y-89651930D01*
X138838307Y-89727214D01*
X138651376Y-89838427D01*
X138487842Y-89981842D01*
X138484270Y-89986372D01*
X138484269Y-89986374D01*
X138450007Y-90029834D01*
X138392125Y-90070947D01*
X138321205Y-90074239D01*
X138259763Y-90038667D01*
X138250100Y-90027215D01*
X138236737Y-90009319D01*
X138236730Y-90009312D01*
X138233280Y-90004691D01*
X138073556Y-89857044D01*
X137889599Y-89740976D01*
X137687572Y-89660376D01*
X137499815Y-89623028D01*
X137479905Y-89619068D01*
X137479904Y-89619068D01*
X137474239Y-89617941D01*
X137468464Y-89617865D01*
X137468460Y-89617865D01*
X137359419Y-89616438D01*
X137256746Y-89615094D01*
X137251049Y-89616073D01*
X137251048Y-89616073D01*
X137048065Y-89650952D01*
X137048062Y-89650953D01*
X137042375Y-89651930D01*
X136838307Y-89727214D01*
X136651376Y-89838427D01*
X136487842Y-89981842D01*
X136484270Y-89986372D01*
X136484269Y-89986374D01*
X136450007Y-90029834D01*
X136392125Y-90070947D01*
X136321205Y-90074239D01*
X136259763Y-90038667D01*
X136250100Y-90027215D01*
X136236737Y-90009319D01*
X136236730Y-90009312D01*
X136233280Y-90004691D01*
X136073556Y-89857044D01*
X135889599Y-89740976D01*
X135687572Y-89660376D01*
X135499815Y-89623028D01*
X135479905Y-89619068D01*
X135479904Y-89619068D01*
X135474239Y-89617941D01*
X135468464Y-89617865D01*
X135468460Y-89617865D01*
X135359419Y-89616438D01*
X135256746Y-89615094D01*
X135251049Y-89616073D01*
X135251048Y-89616073D01*
X135048065Y-89650952D01*
X135048062Y-89650953D01*
X135042375Y-89651930D01*
X134838307Y-89727214D01*
X134651376Y-89838427D01*
X134487842Y-89981842D01*
X134484270Y-89986372D01*
X134484269Y-89986374D01*
X134450007Y-90029834D01*
X134392125Y-90070947D01*
X134321205Y-90074239D01*
X134259763Y-90038667D01*
X134250100Y-90027215D01*
X134236737Y-90009319D01*
X134236730Y-90009312D01*
X134233280Y-90004691D01*
X134073556Y-89857044D01*
X133889599Y-89740976D01*
X133687572Y-89660376D01*
X133499815Y-89623028D01*
X133479905Y-89619068D01*
X133479904Y-89619068D01*
X133474239Y-89617941D01*
X133468464Y-89617865D01*
X133468460Y-89617865D01*
X133359419Y-89616438D01*
X133256746Y-89615094D01*
X133251049Y-89616073D01*
X133251048Y-89616073D01*
X133048065Y-89650952D01*
X133048062Y-89650953D01*
X133042375Y-89651930D01*
X132838307Y-89727214D01*
X132651376Y-89838427D01*
X132487842Y-89981842D01*
X132484270Y-89986372D01*
X132484269Y-89986374D01*
X132450007Y-90029834D01*
X132392125Y-90070947D01*
X132321205Y-90074239D01*
X132259763Y-90038667D01*
X132250100Y-90027215D01*
X132236737Y-90009319D01*
X132236730Y-90009312D01*
X132233280Y-90004691D01*
X132073556Y-89857044D01*
X131953699Y-89781420D01*
X131906762Y-89728154D01*
X131896073Y-89657967D01*
X131925028Y-89593143D01*
X131931841Y-89585764D01*
X132695700Y-88821905D01*
X132758012Y-88787879D01*
X132784795Y-88785000D01*
X140812833Y-88785000D01*
X140824016Y-88785527D01*
X140831509Y-88787202D01*
X140839435Y-88786953D01*
X140839436Y-88786953D01*
X140899586Y-88785062D01*
X140903545Y-88785000D01*
X140931456Y-88785000D01*
X140935391Y-88784503D01*
X140935456Y-88784495D01*
X140947293Y-88783562D01*
X140979551Y-88782548D01*
X140983570Y-88782422D01*
X140991489Y-88782173D01*
X141010943Y-88776521D01*
X141030300Y-88772513D01*
X141042530Y-88770968D01*
X141042531Y-88770968D01*
X141050397Y-88769974D01*
X141057768Y-88767055D01*
X141057770Y-88767055D01*
X141091512Y-88753696D01*
X141102742Y-88749851D01*
X141137583Y-88739729D01*
X141137584Y-88739729D01*
X141145193Y-88737518D01*
X141152012Y-88733485D01*
X141152017Y-88733483D01*
X141162628Y-88727207D01*
X141180376Y-88718512D01*
X141199217Y-88711052D01*
X141234987Y-88685064D01*
X141244907Y-88678548D01*
X141276135Y-88660080D01*
X141276138Y-88660078D01*
X141282962Y-88656042D01*
X141297283Y-88641721D01*
X141312317Y-88628880D01*
X141322294Y-88621631D01*
X141328707Y-88616972D01*
X141356898Y-88582895D01*
X141364888Y-88574116D01*
X144387247Y-85551757D01*
X144395537Y-85544213D01*
X144402018Y-85540100D01*
X144448659Y-85490432D01*
X144451413Y-85487591D01*
X144471134Y-85467870D01*
X144473612Y-85464675D01*
X144481318Y-85455653D01*
X144506158Y-85429201D01*
X144511586Y-85423421D01*
X144521346Y-85405668D01*
X144532199Y-85389145D01*
X144539753Y-85379406D01*
X144544613Y-85373141D01*
X144562176Y-85332557D01*
X144567383Y-85321927D01*
X144588695Y-85283160D01*
X144590666Y-85275483D01*
X144590668Y-85275478D01*
X144593732Y-85263542D01*
X144600138Y-85244830D01*
X144605034Y-85233517D01*
X144608181Y-85226245D01*
X144613619Y-85191915D01*
X144615097Y-85182581D01*
X144617504Y-85170960D01*
X144626528Y-85135811D01*
X144626528Y-85135810D01*
X144628500Y-85128130D01*
X144628500Y-85107869D01*
X144630051Y-85088158D01*
X144631979Y-85075985D01*
X144633219Y-85068157D01*
X144629059Y-85024146D01*
X144628500Y-85012289D01*
X144628500Y-73526000D01*
X144648502Y-73457879D01*
X144702158Y-73411386D01*
X144754500Y-73400000D01*
X145775500Y-73400000D01*
X145843621Y-73420002D01*
G37*
G04 #@! TD.AperFunction*
G04 #@! TA.AperFunction,Conductor*
G36*
X153948027Y-90849602D02*
G01*
X153969001Y-90866505D01*
X154466732Y-91364236D01*
X154500758Y-91426548D01*
X154495693Y-91497363D01*
X154453146Y-91554199D01*
X154435817Y-91565095D01*
X154316715Y-91627095D01*
X154308007Y-91632578D01*
X154278961Y-91654386D01*
X154270508Y-91665711D01*
X154277251Y-91678040D01*
X155065000Y-92465790D01*
X156211304Y-93612093D01*
X156225247Y-93619706D01*
X156231513Y-93619258D01*
X156300886Y-93634350D01*
X156351088Y-93684553D01*
X156366500Y-93744937D01*
X156366500Y-96630007D01*
X156346498Y-96698128D01*
X156292842Y-96744621D01*
X156227166Y-96754165D01*
X156213973Y-96760238D01*
X155437021Y-97537189D01*
X155429408Y-97551132D01*
X155429539Y-97552966D01*
X155433790Y-97559580D01*
X156211307Y-98337096D01*
X156225244Y-98344706D01*
X156231510Y-98344258D01*
X156300884Y-98359349D01*
X156351087Y-98409550D01*
X156366500Y-98469937D01*
X156366500Y-100940500D01*
X156346498Y-101008621D01*
X156292842Y-101055114D01*
X156240500Y-101066500D01*
X156176866Y-101066500D01*
X156114684Y-101073255D01*
X155978295Y-101124385D01*
X155861739Y-101211739D01*
X155774385Y-101328295D01*
X155723255Y-101464684D01*
X155722402Y-101472540D01*
X155721688Y-101479108D01*
X155694446Y-101544670D01*
X155636083Y-101585096D01*
X155596425Y-101591500D01*
X150453575Y-101591500D01*
X150385454Y-101571498D01*
X150338961Y-101517842D01*
X150328312Y-101479108D01*
X150327598Y-101472540D01*
X150326745Y-101464684D01*
X150275615Y-101328295D01*
X150188261Y-101211739D01*
X150071705Y-101124385D01*
X149935316Y-101073255D01*
X149873134Y-101066500D01*
X148226866Y-101066500D01*
X148164684Y-101073255D01*
X148028295Y-101124385D01*
X147911739Y-101211739D01*
X147897035Y-101231358D01*
X147853958Y-101288836D01*
X147797099Y-101331351D01*
X147726280Y-101336377D01*
X147663987Y-101302317D01*
X147652306Y-101288837D01*
X147613261Y-101236739D01*
X147606081Y-101231358D01*
X147599731Y-101225008D01*
X147602352Y-101222387D01*
X147570338Y-101179609D01*
X147565284Y-101108792D01*
X147599305Y-101046499D01*
X149078153Y-99567652D01*
X149086439Y-99560112D01*
X149092918Y-99556000D01*
X149139544Y-99506348D01*
X149142298Y-99503507D01*
X149162035Y-99483770D01*
X149164515Y-99480573D01*
X149172220Y-99471551D01*
X149197059Y-99445100D01*
X149202486Y-99439321D01*
X149206305Y-99432375D01*
X149206307Y-99432372D01*
X149212248Y-99421566D01*
X149223099Y-99405047D01*
X149230658Y-99395301D01*
X149235514Y-99389041D01*
X149238659Y-99381772D01*
X149238662Y-99381768D01*
X149253074Y-99348463D01*
X149258291Y-99337813D01*
X149279595Y-99299060D01*
X149284633Y-99279437D01*
X149291037Y-99260734D01*
X149295933Y-99249420D01*
X149295933Y-99249419D01*
X149299081Y-99242145D01*
X149300320Y-99234322D01*
X149300323Y-99234312D01*
X149305999Y-99198476D01*
X149308405Y-99186856D01*
X149317428Y-99151711D01*
X149317428Y-99151710D01*
X149319400Y-99144030D01*
X149319400Y-99123776D01*
X149320951Y-99104065D01*
X149322880Y-99091886D01*
X149324120Y-99084057D01*
X149319959Y-99040038D01*
X149319400Y-99028181D01*
X149319400Y-98509500D01*
X149339402Y-98441379D01*
X149393058Y-98394886D01*
X149445400Y-98383500D01*
X149820176Y-98383499D01*
X149831634Y-98383499D01*
X149834492Y-98383236D01*
X149834501Y-98383236D01*
X149870004Y-98379974D01*
X149905062Y-98376753D01*
X150007324Y-98344706D01*
X150061450Y-98327744D01*
X150061452Y-98327743D01*
X150068699Y-98325472D01*
X150215381Y-98236639D01*
X150231615Y-98220405D01*
X150293927Y-98186379D01*
X150320710Y-98183500D01*
X150990500Y-98183500D01*
X151058621Y-98203502D01*
X151105114Y-98257158D01*
X151116500Y-98309500D01*
X151116500Y-98498134D01*
X151123255Y-98560316D01*
X151174385Y-98696705D01*
X151261739Y-98813261D01*
X151378295Y-98900615D01*
X151514684Y-98951745D01*
X151576866Y-98958500D01*
X153473134Y-98958500D01*
X153535316Y-98951745D01*
X153671705Y-98900615D01*
X153788261Y-98813261D01*
X153864597Y-98711406D01*
X154268423Y-98711406D01*
X154273704Y-98718461D01*
X154450080Y-98821527D01*
X154459363Y-98825974D01*
X154666003Y-98904883D01*
X154675901Y-98907759D01*
X154892653Y-98951857D01*
X154902883Y-98953076D01*
X155123914Y-98961182D01*
X155134223Y-98960714D01*
X155353623Y-98932608D01*
X155363688Y-98930468D01*
X155575557Y-98866905D01*
X155585152Y-98863144D01*
X155783778Y-98765838D01*
X155792636Y-98760559D01*
X155850097Y-98719572D01*
X155858497Y-98708874D01*
X155851510Y-98695721D01*
X155077811Y-97922021D01*
X155063868Y-97914408D01*
X155062034Y-97914539D01*
X155055420Y-97918790D01*
X154275180Y-98699031D01*
X154268423Y-98711406D01*
X153864597Y-98711406D01*
X153875615Y-98696705D01*
X153926745Y-98560316D01*
X153933500Y-98498134D01*
X153933500Y-98374480D01*
X153953502Y-98306359D01*
X153970405Y-98285384D01*
X154692979Y-97562811D01*
X154700592Y-97548868D01*
X154700461Y-97547034D01*
X154696210Y-97540420D01*
X153970405Y-96814616D01*
X153936380Y-96752303D01*
X153933500Y-96725520D01*
X153933500Y-96601866D01*
X153926745Y-96539684D01*
X153875615Y-96403295D01*
X153866184Y-96390711D01*
X154270508Y-96390711D01*
X154277251Y-96403040D01*
X155052189Y-97177979D01*
X155066132Y-97185592D01*
X155067966Y-97185461D01*
X155074580Y-97181210D01*
X155853994Y-96401795D01*
X155861011Y-96388944D01*
X155853237Y-96378274D01*
X155850902Y-96376430D01*
X155842320Y-96370729D01*
X155648678Y-96263833D01*
X155639272Y-96259606D01*
X155430772Y-96185772D01*
X155420809Y-96183140D01*
X155203047Y-96144350D01*
X155192796Y-96143381D01*
X154971616Y-96140679D01*
X154961332Y-96141399D01*
X154742693Y-96174855D01*
X154732666Y-96177244D01*
X154522426Y-96245961D01*
X154512916Y-96249958D01*
X154316725Y-96352089D01*
X154308007Y-96357578D01*
X154278961Y-96379386D01*
X154270508Y-96390711D01*
X153866184Y-96390711D01*
X153788261Y-96286739D01*
X153671705Y-96199385D01*
X153535316Y-96148255D01*
X153473134Y-96141500D01*
X151576866Y-96141500D01*
X151514684Y-96148255D01*
X151378295Y-96199385D01*
X151261739Y-96286739D01*
X151174385Y-96403295D01*
X151123255Y-96539684D01*
X151116500Y-96601866D01*
X151116500Y-96790500D01*
X151096498Y-96858621D01*
X151042842Y-96905114D01*
X150990500Y-96916500D01*
X150544296Y-96916500D01*
X150476175Y-96896498D01*
X150429458Y-96842348D01*
X150427745Y-96838554D01*
X150425472Y-96831301D01*
X150336639Y-96684619D01*
X150215381Y-96563361D01*
X150068699Y-96474528D01*
X150061452Y-96472257D01*
X150061450Y-96472256D01*
X149995164Y-96451483D01*
X149905062Y-96423247D01*
X149831635Y-96416500D01*
X149820118Y-96416500D01*
X149445399Y-96416501D01*
X149377280Y-96396499D01*
X149330787Y-96342844D01*
X149319400Y-96290501D01*
X149319400Y-93934500D01*
X149339402Y-93866379D01*
X149393058Y-93819886D01*
X149445400Y-93808500D01*
X149820176Y-93808499D01*
X149831634Y-93808499D01*
X149834492Y-93808236D01*
X149834501Y-93808236D01*
X149870004Y-93804974D01*
X149905062Y-93801753D01*
X149911441Y-93799754D01*
X150061450Y-93752744D01*
X150061452Y-93752743D01*
X150068699Y-93750472D01*
X150215381Y-93661639D01*
X150336639Y-93540381D01*
X150349449Y-93519229D01*
X150401846Y-93471322D01*
X150457225Y-93458500D01*
X150990500Y-93458500D01*
X151058621Y-93478502D01*
X151105114Y-93532158D01*
X151116500Y-93584500D01*
X151116500Y-93773134D01*
X151123255Y-93835316D01*
X151174385Y-93971705D01*
X151261739Y-94088261D01*
X151378295Y-94175615D01*
X151514684Y-94226745D01*
X151576866Y-94233500D01*
X153473134Y-94233500D01*
X153535316Y-94226745D01*
X153671705Y-94175615D01*
X153788261Y-94088261D01*
X153864597Y-93986406D01*
X154268423Y-93986406D01*
X154273704Y-93993461D01*
X154450080Y-94096527D01*
X154459363Y-94100974D01*
X154666003Y-94179883D01*
X154675901Y-94182759D01*
X154892653Y-94226857D01*
X154902883Y-94228076D01*
X155123914Y-94236182D01*
X155134223Y-94235714D01*
X155353623Y-94207608D01*
X155363688Y-94205468D01*
X155575557Y-94141905D01*
X155585152Y-94138144D01*
X155783778Y-94040838D01*
X155792636Y-94035559D01*
X155850097Y-93994572D01*
X155858497Y-93983874D01*
X155851510Y-93970721D01*
X155077811Y-93197021D01*
X155063868Y-93189408D01*
X155062034Y-93189539D01*
X155055420Y-93193790D01*
X154275180Y-93974031D01*
X154268423Y-93986406D01*
X153864597Y-93986406D01*
X153875615Y-93971705D01*
X153926745Y-93835316D01*
X153933500Y-93773134D01*
X153933500Y-93649480D01*
X153953502Y-93581359D01*
X153970405Y-93560384D01*
X154692979Y-92837811D01*
X154700592Y-92823868D01*
X154700461Y-92822034D01*
X154696210Y-92815420D01*
X153970405Y-92089616D01*
X153936380Y-92027303D01*
X153933500Y-92000520D01*
X153933500Y-91876866D01*
X153926745Y-91814684D01*
X153875615Y-91678295D01*
X153788261Y-91561739D01*
X153671705Y-91474385D01*
X153535316Y-91423255D01*
X153473134Y-91416500D01*
X151576866Y-91416500D01*
X151514684Y-91423255D01*
X151378295Y-91474385D01*
X151261739Y-91561739D01*
X151174385Y-91678295D01*
X151123255Y-91814684D01*
X151116500Y-91876866D01*
X151116500Y-92065500D01*
X151096498Y-92133621D01*
X151042842Y-92180114D01*
X150990500Y-92191500D01*
X150457225Y-92191500D01*
X150389104Y-92171498D01*
X150349449Y-92130771D01*
X150340576Y-92116120D01*
X150336639Y-92109619D01*
X150215381Y-91988361D01*
X150068699Y-91899528D01*
X150061452Y-91897257D01*
X150061450Y-91897256D01*
X149967101Y-91867689D01*
X149905062Y-91848247D01*
X149831635Y-91841500D01*
X149820118Y-91841500D01*
X149445399Y-91841501D01*
X149377280Y-91821499D01*
X149330787Y-91767844D01*
X149319400Y-91715501D01*
X149319400Y-90955600D01*
X149339402Y-90887479D01*
X149393058Y-90840986D01*
X149445400Y-90829600D01*
X153879906Y-90829600D01*
X153948027Y-90849602D01*
G37*
G04 #@! TD.AperFunction*
G04 #@! TA.AperFunction,Conductor*
G36*
X153673732Y-73420002D02*
G01*
X153720225Y-73473658D01*
X153730337Y-73508135D01*
X153731920Y-73519187D01*
X153735634Y-73527355D01*
X153735634Y-73527356D01*
X153742548Y-73542562D01*
X153748996Y-73560086D01*
X153756051Y-73584771D01*
X153760843Y-73592365D01*
X153760844Y-73592368D01*
X153771830Y-73609780D01*
X153779969Y-73624863D01*
X153792208Y-73651782D01*
X153798069Y-73658584D01*
X153808970Y-73671235D01*
X153820073Y-73686239D01*
X153833776Y-73707958D01*
X153840501Y-73713897D01*
X153840504Y-73713901D01*
X153855938Y-73727532D01*
X153867982Y-73739724D01*
X153881427Y-73755327D01*
X153881430Y-73755329D01*
X153887287Y-73762127D01*
X153894816Y-73767007D01*
X153894817Y-73767008D01*
X153908835Y-73776094D01*
X153923709Y-73787385D01*
X153936217Y-73798431D01*
X153942951Y-73804378D01*
X153969711Y-73816942D01*
X153984691Y-73825263D01*
X154001983Y-73836471D01*
X154001988Y-73836473D01*
X154009515Y-73841352D01*
X154018108Y-73843922D01*
X154018113Y-73843924D01*
X154034120Y-73848711D01*
X154051564Y-73855372D01*
X154066676Y-73862467D01*
X154066678Y-73862468D01*
X154074800Y-73866281D01*
X154083667Y-73867662D01*
X154083668Y-73867662D01*
X154086353Y-73868080D01*
X154104017Y-73870830D01*
X154120732Y-73874613D01*
X154140466Y-73880515D01*
X154140472Y-73880516D01*
X154149066Y-73883086D01*
X154158037Y-73883141D01*
X154158038Y-73883141D01*
X154168097Y-73883202D01*
X154183506Y-73883296D01*
X154184289Y-73883329D01*
X154185386Y-73883500D01*
X154216377Y-73883500D01*
X154217147Y-73883502D01*
X154290785Y-73883952D01*
X154290786Y-73883952D01*
X154294721Y-73883976D01*
X154296065Y-73883592D01*
X154297410Y-73883500D01*
X156116377Y-73883500D01*
X156117148Y-73883502D01*
X156194721Y-73883976D01*
X156223152Y-73875850D01*
X156239915Y-73872272D01*
X156240753Y-73872152D01*
X156269187Y-73868080D01*
X156292564Y-73857451D01*
X156310087Y-73851004D01*
X156334771Y-73843949D01*
X156342365Y-73839157D01*
X156342368Y-73839156D01*
X156359780Y-73828170D01*
X156374865Y-73820030D01*
X156401782Y-73807792D01*
X156421235Y-73791030D01*
X156436239Y-73779927D01*
X156457958Y-73766224D01*
X156463897Y-73759499D01*
X156463901Y-73759496D01*
X156477532Y-73744062D01*
X156489724Y-73732018D01*
X156505327Y-73718573D01*
X156505329Y-73718570D01*
X156512127Y-73712713D01*
X156526094Y-73691165D01*
X156537385Y-73676291D01*
X156548431Y-73663783D01*
X156548432Y-73663782D01*
X156554378Y-73657049D01*
X156566943Y-73630287D01*
X156575263Y-73615309D01*
X156586471Y-73598017D01*
X156586473Y-73598012D01*
X156591352Y-73590485D01*
X156593922Y-73581892D01*
X156593924Y-73581887D01*
X156598711Y-73565880D01*
X156605372Y-73548436D01*
X156612467Y-73533324D01*
X156612468Y-73533322D01*
X156616281Y-73525200D01*
X156619175Y-73506614D01*
X156649420Y-73442382D01*
X156709590Y-73404698D01*
X156743675Y-73400000D01*
X157490500Y-73400000D01*
X157558621Y-73420002D01*
X157605114Y-73473658D01*
X157616500Y-73526000D01*
X157616500Y-92418006D01*
X157596498Y-92486127D01*
X157542842Y-92532620D01*
X157472568Y-92542724D01*
X157407988Y-92513230D01*
X157401405Y-92507101D01*
X156058844Y-91164539D01*
X154698152Y-89803847D01*
X154690612Y-89795561D01*
X154686500Y-89789082D01*
X154636848Y-89742456D01*
X154634007Y-89739702D01*
X154614270Y-89719965D01*
X154611073Y-89717485D01*
X154602051Y-89709780D01*
X154575599Y-89684940D01*
X154575600Y-89684940D01*
X154569821Y-89679514D01*
X154569665Y-89679428D01*
X154528417Y-89625933D01*
X154522343Y-89555197D01*
X154555477Y-89492406D01*
X154617298Y-89457497D01*
X154670953Y-89456752D01*
X154892653Y-89501857D01*
X154902883Y-89503076D01*
X155123914Y-89511182D01*
X155134223Y-89510714D01*
X155353623Y-89482608D01*
X155363688Y-89480468D01*
X155575557Y-89416905D01*
X155585152Y-89413144D01*
X155783778Y-89315838D01*
X155792636Y-89310559D01*
X155850097Y-89269572D01*
X155858497Y-89258874D01*
X155851510Y-89245721D01*
X155077811Y-88472021D01*
X155063868Y-88464408D01*
X155062034Y-88464539D01*
X155055420Y-88468790D01*
X154275180Y-89249031D01*
X154268423Y-89261406D01*
X154273704Y-89268461D01*
X154391926Y-89337545D01*
X154440649Y-89389184D01*
X154453720Y-89458967D01*
X154426988Y-89524739D01*
X154368941Y-89565617D01*
X154297019Y-89568374D01*
X154282211Y-89564572D01*
X154282210Y-89564572D01*
X154274530Y-89562600D01*
X154254276Y-89562600D01*
X154234565Y-89561049D01*
X154222386Y-89559120D01*
X154214557Y-89557880D01*
X154206665Y-89558626D01*
X154170539Y-89562041D01*
X154158681Y-89562600D01*
X153890755Y-89562600D01*
X153822634Y-89542598D01*
X153776141Y-89488942D01*
X153766037Y-89418668D01*
X153789929Y-89361035D01*
X153807534Y-89337545D01*
X153875615Y-89246705D01*
X153926745Y-89110316D01*
X153933500Y-89048134D01*
X153933500Y-88924480D01*
X153953502Y-88856359D01*
X153970405Y-88835384D01*
X154692979Y-88112811D01*
X154699356Y-88101132D01*
X155429408Y-88101132D01*
X155429539Y-88102966D01*
X155433790Y-88109580D01*
X156211307Y-88887096D01*
X156223313Y-88893652D01*
X156235052Y-88884684D01*
X156273010Y-88831859D01*
X156278321Y-88823020D01*
X156376318Y-88624737D01*
X156380117Y-88615142D01*
X156444415Y-88403517D01*
X156446594Y-88393436D01*
X156475702Y-88172338D01*
X156476221Y-88165663D01*
X156477744Y-88103364D01*
X156477550Y-88096646D01*
X156459279Y-87874400D01*
X156457596Y-87864238D01*
X156403710Y-87649708D01*
X156400389Y-87639953D01*
X156312193Y-87437118D01*
X156307315Y-87428020D01*
X156234224Y-87315038D01*
X156223538Y-87305835D01*
X156213973Y-87310238D01*
X155437021Y-88087189D01*
X155429408Y-88101132D01*
X154699356Y-88101132D01*
X154700592Y-88098868D01*
X154700461Y-88097034D01*
X154696210Y-88090420D01*
X153970405Y-87364616D01*
X153936380Y-87302303D01*
X153933500Y-87275520D01*
X153933500Y-87151866D01*
X153926745Y-87089684D01*
X153875615Y-86953295D01*
X153866184Y-86940711D01*
X154270508Y-86940711D01*
X154277251Y-86953040D01*
X155052189Y-87727979D01*
X155066132Y-87735592D01*
X155067966Y-87735461D01*
X155074580Y-87731210D01*
X155853994Y-86951795D01*
X155861011Y-86938944D01*
X155853237Y-86928274D01*
X155850902Y-86926430D01*
X155842320Y-86920729D01*
X155648678Y-86813833D01*
X155639272Y-86809606D01*
X155430772Y-86735772D01*
X155420809Y-86733140D01*
X155203047Y-86694350D01*
X155192796Y-86693381D01*
X154971616Y-86690679D01*
X154961332Y-86691399D01*
X154742693Y-86724855D01*
X154732666Y-86727244D01*
X154522426Y-86795961D01*
X154512916Y-86799958D01*
X154316725Y-86902089D01*
X154308007Y-86907578D01*
X154278961Y-86929386D01*
X154270508Y-86940711D01*
X153866184Y-86940711D01*
X153788261Y-86836739D01*
X153671705Y-86749385D01*
X153535316Y-86698255D01*
X153473134Y-86691500D01*
X151576866Y-86691500D01*
X151514684Y-86698255D01*
X151378295Y-86749385D01*
X151261739Y-86836739D01*
X151174385Y-86953295D01*
X151123255Y-87089684D01*
X151116500Y-87151866D01*
X151116500Y-87340500D01*
X151096498Y-87408621D01*
X151042842Y-87455114D01*
X150990500Y-87466500D01*
X150457225Y-87466500D01*
X150389104Y-87446498D01*
X150349449Y-87405771D01*
X150340576Y-87391120D01*
X150336639Y-87384619D01*
X150215381Y-87263361D01*
X150068699Y-87174528D01*
X150061452Y-87172257D01*
X150061450Y-87172256D01*
X150021814Y-87159835D01*
X149962792Y-87120377D01*
X149934472Y-87055274D01*
X149945845Y-86985194D01*
X149970398Y-86950506D01*
X150954210Y-85966695D01*
X152007253Y-84913652D01*
X152015539Y-84906112D01*
X152022018Y-84902000D01*
X152068644Y-84852348D01*
X152071398Y-84849507D01*
X152091135Y-84829770D01*
X152093615Y-84826573D01*
X152101320Y-84817551D01*
X152131586Y-84785321D01*
X152135405Y-84778375D01*
X152135407Y-84778372D01*
X152141348Y-84767566D01*
X152152199Y-84751047D01*
X152156310Y-84745747D01*
X152164614Y-84735041D01*
X152167759Y-84727772D01*
X152167762Y-84727768D01*
X152182174Y-84694463D01*
X152187391Y-84683813D01*
X152208695Y-84645060D01*
X152213733Y-84625437D01*
X152220137Y-84606734D01*
X152225033Y-84595420D01*
X152225033Y-84595419D01*
X152228181Y-84588145D01*
X152229420Y-84580322D01*
X152229423Y-84580312D01*
X152235099Y-84544476D01*
X152237505Y-84532856D01*
X152246528Y-84497711D01*
X152246528Y-84497710D01*
X152248500Y-84490030D01*
X152248500Y-84469776D01*
X152250051Y-84450065D01*
X152251980Y-84437886D01*
X152253220Y-84430057D01*
X152249059Y-84386038D01*
X152248500Y-84374181D01*
X152248500Y-73526000D01*
X152268502Y-73457879D01*
X152322158Y-73411386D01*
X152374500Y-73400000D01*
X153605611Y-73400000D01*
X153673732Y-73420002D01*
G37*
G04 #@! TD.AperFunction*
G04 #@! TA.AperFunction,Conductor*
G36*
X128773732Y-73420002D02*
G01*
X128820225Y-73473658D01*
X128830337Y-73508135D01*
X128831920Y-73519187D01*
X128835634Y-73527355D01*
X128835634Y-73527356D01*
X128842548Y-73542562D01*
X128848996Y-73560086D01*
X128856051Y-73584771D01*
X128860843Y-73592365D01*
X128860844Y-73592368D01*
X128871830Y-73609780D01*
X128879969Y-73624863D01*
X128892208Y-73651782D01*
X128898069Y-73658584D01*
X128908970Y-73671235D01*
X128920073Y-73686239D01*
X128933776Y-73707958D01*
X128940501Y-73713897D01*
X128940504Y-73713901D01*
X128955938Y-73727532D01*
X128967982Y-73739724D01*
X128981427Y-73755327D01*
X128981430Y-73755329D01*
X128987287Y-73762127D01*
X128994816Y-73767007D01*
X128994817Y-73767008D01*
X129008835Y-73776094D01*
X129023709Y-73787385D01*
X129036217Y-73798431D01*
X129042951Y-73804378D01*
X129069711Y-73816942D01*
X129084691Y-73825263D01*
X129101983Y-73836471D01*
X129101988Y-73836473D01*
X129109515Y-73841352D01*
X129118108Y-73843922D01*
X129118113Y-73843924D01*
X129134120Y-73848711D01*
X129151564Y-73855372D01*
X129166676Y-73862467D01*
X129166678Y-73862468D01*
X129174800Y-73866281D01*
X129183667Y-73867662D01*
X129183668Y-73867662D01*
X129186353Y-73868080D01*
X129204017Y-73870830D01*
X129220732Y-73874613D01*
X129240466Y-73880515D01*
X129240472Y-73880516D01*
X129249066Y-73883086D01*
X129258037Y-73883141D01*
X129258038Y-73883141D01*
X129268097Y-73883202D01*
X129283506Y-73883296D01*
X129284289Y-73883329D01*
X129285386Y-73883500D01*
X129316377Y-73883500D01*
X129317147Y-73883502D01*
X129390785Y-73883952D01*
X129390786Y-73883952D01*
X129394721Y-73883976D01*
X129396065Y-73883592D01*
X129397410Y-73883500D01*
X131216377Y-73883500D01*
X131217148Y-73883502D01*
X131294721Y-73883976D01*
X131323152Y-73875850D01*
X131339915Y-73872272D01*
X131340753Y-73872152D01*
X131369187Y-73868080D01*
X131392564Y-73857451D01*
X131410087Y-73851004D01*
X131434771Y-73843949D01*
X131442365Y-73839157D01*
X131442368Y-73839156D01*
X131459780Y-73828170D01*
X131474865Y-73820030D01*
X131501782Y-73807792D01*
X131521235Y-73791030D01*
X131536239Y-73779927D01*
X131557958Y-73766224D01*
X131563897Y-73759499D01*
X131563901Y-73759496D01*
X131577532Y-73744062D01*
X131589724Y-73732018D01*
X131605327Y-73718573D01*
X131605329Y-73718570D01*
X131612127Y-73712713D01*
X131626094Y-73691165D01*
X131637385Y-73676291D01*
X131648431Y-73663783D01*
X131648432Y-73663782D01*
X131654378Y-73657049D01*
X131666943Y-73630287D01*
X131675263Y-73615309D01*
X131686471Y-73598017D01*
X131686473Y-73598012D01*
X131691352Y-73590485D01*
X131693922Y-73581892D01*
X131693924Y-73581887D01*
X131698711Y-73565880D01*
X131705372Y-73548436D01*
X131712467Y-73533324D01*
X131712468Y-73533322D01*
X131716281Y-73525200D01*
X131719175Y-73506614D01*
X131749420Y-73442382D01*
X131809590Y-73404698D01*
X131843675Y-73400000D01*
X133075500Y-73400000D01*
X133143621Y-73420002D01*
X133190114Y-73473658D01*
X133201500Y-73526000D01*
X133201500Y-84151233D01*
X133200973Y-84162416D01*
X133199298Y-84169909D01*
X133199547Y-84177835D01*
X133199547Y-84177836D01*
X133201438Y-84237986D01*
X133201500Y-84241945D01*
X133201500Y-84269856D01*
X133201997Y-84273790D01*
X133201997Y-84273791D01*
X133202005Y-84273856D01*
X133202938Y-84285693D01*
X133204327Y-84329889D01*
X133209978Y-84349339D01*
X133213987Y-84368700D01*
X133216526Y-84388797D01*
X133219445Y-84396168D01*
X133219445Y-84396170D01*
X133232804Y-84429912D01*
X133236649Y-84441142D01*
X133244968Y-84469776D01*
X133248982Y-84483593D01*
X133253015Y-84490412D01*
X133253017Y-84490417D01*
X133259293Y-84501028D01*
X133267988Y-84518776D01*
X133275448Y-84537617D01*
X133280109Y-84544033D01*
X133280111Y-84544036D01*
X133295522Y-84565247D01*
X133319381Y-84632115D01*
X133318602Y-84642000D01*
X133319000Y-84642000D01*
X133319000Y-86128000D01*
X133298998Y-86196121D01*
X133245342Y-86242614D01*
X133193000Y-86254000D01*
X131725116Y-86254000D01*
X131709877Y-86258475D01*
X131708672Y-86259865D01*
X131707001Y-86267548D01*
X131707001Y-86894669D01*
X131707371Y-86901490D01*
X131712895Y-86952352D01*
X131716521Y-86967604D01*
X131761676Y-87088054D01*
X131770214Y-87103649D01*
X131846715Y-87205724D01*
X131859276Y-87218285D01*
X131961351Y-87294786D01*
X131976946Y-87303324D01*
X132097394Y-87348478D01*
X132112651Y-87352106D01*
X132123066Y-87353237D01*
X132188629Y-87380477D01*
X132229057Y-87438839D01*
X132231514Y-87509793D01*
X132195221Y-87570812D01*
X132170162Y-87588915D01*
X132169952Y-87589031D01*
X132162583Y-87591948D01*
X132156172Y-87596606D01*
X132126813Y-87617936D01*
X132116893Y-87624452D01*
X132085665Y-87642920D01*
X132085662Y-87642922D01*
X132078838Y-87646958D01*
X132064517Y-87661279D01*
X132049484Y-87674119D01*
X132033093Y-87686028D01*
X132028042Y-87692134D01*
X132004902Y-87720105D01*
X131996912Y-87728884D01*
X128082747Y-91643048D01*
X128074461Y-91650588D01*
X128067982Y-91654700D01*
X128062557Y-91660477D01*
X128062556Y-91660478D01*
X128051349Y-91672412D01*
X127990136Y-91708377D01*
X127919197Y-91705538D01*
X127861053Y-91664797D01*
X127834165Y-91599089D01*
X127833500Y-91586158D01*
X127833500Y-85727885D01*
X131707000Y-85727885D01*
X131711475Y-85743124D01*
X131712865Y-85744329D01*
X131720548Y-85746000D01*
X132792885Y-85746000D01*
X132808124Y-85741525D01*
X132809329Y-85740135D01*
X132811000Y-85732452D01*
X132811000Y-84660116D01*
X132806525Y-84644877D01*
X132805135Y-84643672D01*
X132797452Y-84642001D01*
X132170331Y-84642001D01*
X132163510Y-84642371D01*
X132112648Y-84647895D01*
X132097396Y-84651521D01*
X131976946Y-84696676D01*
X131961351Y-84705214D01*
X131859276Y-84781715D01*
X131846715Y-84794276D01*
X131770214Y-84896351D01*
X131761676Y-84911946D01*
X131716522Y-85032394D01*
X131712895Y-85047649D01*
X131707369Y-85098514D01*
X131707000Y-85105328D01*
X131707000Y-85727885D01*
X127833500Y-85727885D01*
X127833500Y-73526000D01*
X127853502Y-73457879D01*
X127907158Y-73411386D01*
X127959500Y-73400000D01*
X128705611Y-73400000D01*
X128773732Y-73420002D01*
G37*
G04 #@! TD.AperFunction*
G04 #@! TA.AperFunction,Conductor*
G36*
X134587777Y-86912696D02*
G01*
X134622444Y-86940684D01*
X134647865Y-86970031D01*
X134647869Y-86970035D01*
X134651250Y-86973938D01*
X134823126Y-87116632D01*
X135016000Y-87229338D01*
X135020825Y-87231180D01*
X135020826Y-87231181D01*
X135133717Y-87274290D01*
X135190220Y-87317278D01*
X135214513Y-87383989D01*
X135198883Y-87453244D01*
X135148292Y-87503054D01*
X135088768Y-87518000D01*
X134249033Y-87518000D01*
X134180912Y-87497998D01*
X134134419Y-87444342D01*
X134124315Y-87374068D01*
X134153809Y-87309488D01*
X134173468Y-87291174D01*
X134270724Y-87218285D01*
X134283285Y-87205724D01*
X134359786Y-87103649D01*
X134368324Y-87088054D01*
X134409225Y-86978952D01*
X134451867Y-86922188D01*
X134518428Y-86897488D01*
X134587777Y-86912696D01*
G37*
G04 #@! TD.AperFunction*
G04 #@! TA.AperFunction,Conductor*
G36*
X136957026Y-86675144D02*
G01*
X136984875Y-86706994D01*
X137044987Y-86805088D01*
X137191250Y-86973938D01*
X137363126Y-87116632D01*
X137556000Y-87229338D01*
X137560825Y-87231180D01*
X137560826Y-87231181D01*
X137673717Y-87274290D01*
X137730220Y-87317278D01*
X137754513Y-87383989D01*
X137738883Y-87453244D01*
X137688292Y-87503054D01*
X137628768Y-87518000D01*
X136131459Y-87518000D01*
X136063338Y-87497998D01*
X136016845Y-87444342D01*
X136006741Y-87374068D01*
X136036235Y-87309488D01*
X136092759Y-87272927D01*
X136092611Y-87272549D01*
X136094468Y-87271821D01*
X136095252Y-87271314D01*
X136097425Y-87270662D01*
X136097427Y-87270661D01*
X136102384Y-87269174D01*
X136302994Y-87170896D01*
X136484860Y-87041173D01*
X136643096Y-86883489D01*
X136773453Y-86702077D01*
X136774776Y-86703028D01*
X136821645Y-86659857D01*
X136891580Y-86647625D01*
X136957026Y-86675144D01*
G37*
G04 #@! TD.AperFunction*
G04 #@! TA.AperFunction,Conductor*
G36*
X148383621Y-73420002D02*
G01*
X148430114Y-73473658D01*
X148441500Y-73526000D01*
X148441500Y-85333606D01*
X148421498Y-85401727D01*
X148404595Y-85422701D01*
X147383595Y-86443700D01*
X147321283Y-86477726D01*
X147250467Y-86472661D01*
X147193632Y-86430114D01*
X147168821Y-86363594D01*
X147168500Y-86354605D01*
X147168500Y-73526000D01*
X147188502Y-73457879D01*
X147242158Y-73411386D01*
X147294500Y-73400000D01*
X148315500Y-73400000D01*
X148383621Y-73420002D01*
G37*
G04 #@! TD.AperFunction*
G04 #@! TA.AperFunction,Conductor*
G36*
X143303621Y-73420002D02*
G01*
X143350114Y-73473658D01*
X143361500Y-73526000D01*
X143361500Y-84733505D01*
X143341498Y-84801626D01*
X143324595Y-84822600D01*
X142733595Y-85413600D01*
X142671283Y-85447626D01*
X142600468Y-85442561D01*
X142543632Y-85400014D01*
X142518821Y-85333494D01*
X142518500Y-85324505D01*
X142518500Y-73526000D01*
X142538502Y-73457879D01*
X142592158Y-73411386D01*
X142644500Y-73400000D01*
X143235500Y-73400000D01*
X143303621Y-73420002D01*
G37*
G04 #@! TD.AperFunction*
G04 #@! TA.AperFunction,Conductor*
G36*
X138223621Y-73420002D02*
G01*
X138270114Y-73473658D01*
X138281500Y-73526000D01*
X138281500Y-84151233D01*
X138280973Y-84162416D01*
X138279298Y-84169909D01*
X138279547Y-84177835D01*
X138279547Y-84177836D01*
X138281438Y-84237986D01*
X138281500Y-84241945D01*
X138281500Y-84269856D01*
X138281997Y-84273790D01*
X138281997Y-84273791D01*
X138282005Y-84273856D01*
X138282938Y-84285693D01*
X138284327Y-84329889D01*
X138289978Y-84349339D01*
X138293987Y-84368700D01*
X138296526Y-84388797D01*
X138299445Y-84396168D01*
X138299445Y-84396170D01*
X138312804Y-84429912D01*
X138316648Y-84441138D01*
X138328207Y-84480925D01*
X138328004Y-84551920D01*
X138289451Y-84611536D01*
X138224786Y-84640845D01*
X138205672Y-84642068D01*
X138173803Y-84641679D01*
X138055081Y-84640228D01*
X138055079Y-84640228D01*
X138049911Y-84640165D01*
X137829091Y-84673955D01*
X137616756Y-84743357D01*
X137418607Y-84846507D01*
X137414474Y-84849610D01*
X137414471Y-84849612D01*
X137331450Y-84911946D01*
X137239965Y-84980635D01*
X137236393Y-84984373D01*
X137106593Y-85120201D01*
X137085629Y-85142138D01*
X136978201Y-85299621D01*
X136923293Y-85344621D01*
X136852768Y-85352792D01*
X136789021Y-85321538D01*
X136768324Y-85297054D01*
X136687822Y-85172617D01*
X136687820Y-85172614D01*
X136685014Y-85168277D01*
X136534670Y-85003051D01*
X136530619Y-84999852D01*
X136530615Y-84999848D01*
X136363414Y-84867800D01*
X136363410Y-84867798D01*
X136359359Y-84864598D01*
X136163789Y-84756638D01*
X136158920Y-84754914D01*
X136158916Y-84754912D01*
X135958087Y-84683795D01*
X135958083Y-84683794D01*
X135953212Y-84682069D01*
X135948119Y-84681162D01*
X135948116Y-84681161D01*
X135738373Y-84643800D01*
X135738367Y-84643799D01*
X135733284Y-84642894D01*
X135659452Y-84641992D01*
X135515081Y-84640228D01*
X135515079Y-84640228D01*
X135509911Y-84640165D01*
X135289091Y-84673955D01*
X135276532Y-84678060D01*
X135205568Y-84680210D01*
X135148294Y-84647389D01*
X134505405Y-84004500D01*
X134471379Y-83942188D01*
X134468500Y-83915405D01*
X134468500Y-73526000D01*
X134488502Y-73457879D01*
X134542158Y-73411386D01*
X134594500Y-73400000D01*
X138155500Y-73400000D01*
X138223621Y-73420002D01*
G37*
G04 #@! TD.AperFunction*
G04 #@! TA.AperFunction,Conductor*
G36*
X150923621Y-73420002D02*
G01*
X150970114Y-73473658D01*
X150981500Y-73526000D01*
X150981500Y-84095406D01*
X150961498Y-84163527D01*
X150944595Y-84184501D01*
X149923595Y-85205501D01*
X149861283Y-85239527D01*
X149790468Y-85234462D01*
X149733632Y-85191915D01*
X149708821Y-85125395D01*
X149708500Y-85116406D01*
X149708500Y-73526000D01*
X149728502Y-73457879D01*
X149782158Y-73411386D01*
X149834500Y-73400000D01*
X150855500Y-73400000D01*
X150923621Y-73420002D01*
G37*
G04 #@! TD.AperFunction*
G04 #@! TA.AperFunction,Conductor*
G36*
X141193621Y-73420002D02*
G01*
X141240114Y-73473658D01*
X141251500Y-73526000D01*
X141251500Y-84581083D01*
X141231498Y-84649204D01*
X141177842Y-84695697D01*
X141107568Y-84705801D01*
X141083444Y-84699857D01*
X141052816Y-84689011D01*
X141038087Y-84683795D01*
X141038083Y-84683794D01*
X141033212Y-84682069D01*
X141028119Y-84681162D01*
X141028116Y-84681161D01*
X140818373Y-84643800D01*
X140818367Y-84643799D01*
X140813284Y-84642894D01*
X140739452Y-84641992D01*
X140595081Y-84640228D01*
X140595079Y-84640228D01*
X140589911Y-84640165D01*
X140369091Y-84673955D01*
X140356532Y-84678060D01*
X140285568Y-84680210D01*
X140228294Y-84647389D01*
X139585405Y-84004500D01*
X139551379Y-83942188D01*
X139548500Y-83915405D01*
X139548500Y-73526000D01*
X139568502Y-73457879D01*
X139622158Y-73411386D01*
X139674500Y-73400000D01*
X141125500Y-73400000D01*
X141193621Y-73420002D01*
G37*
G04 #@! TD.AperFunction*
M02*
