%FSLAX45Y45*%
G04 Gerber Fmt 4.5, Leading zero omitted, Abs format (unit mm)*
G04 Created by KiCad (PCBNEW (6.0.4)) date 2023-05-30 12:56:30*
%MOMM*%
%LPD*%
G01*
G04 APERTURE LIST*
%TA.AperFunction,Profile*%
%ADD10C,0.100000*%
%TD*%
%ADD11C,0.200000*%
%ADD12C,0.040000*%
%ADD13C,0.080000*%
%ADD14C,0.090000*%
%ADD15C,0.100000*%
G04 APERTURE END LIST*
D10*
X12732500Y-7337500D02*
X12732500Y-10837500D01*
X15812500Y-10837500D02*
X12732500Y-10837500D01*
X15812500Y-7337500D02*
X15812500Y-10837500D01*
D11*
D12*
X13200000Y-7492500D02*
X13240000Y-7532500D01*
X13240000Y-7492500D02*
X13200000Y-7532500D01*
X13490000Y-7562500D02*
X13530000Y-7602500D01*
X13530000Y-7562500D02*
X13490000Y-7602500D01*
X13537500Y-8122500D02*
X13577500Y-8162500D01*
X13577500Y-8122500D02*
X13537500Y-8162500D01*
X13671250Y-9307820D02*
X13711250Y-9347820D01*
X13711250Y-9307820D02*
X13671250Y-9347820D01*
X13760000Y-8035000D02*
X13800000Y-8075000D01*
X13800000Y-8035000D02*
X13760000Y-8075000D01*
X13987500Y-7505000D02*
X14027500Y-7545000D01*
X14027500Y-7505000D02*
X13987500Y-7545000D01*
X14275000Y-7577500D02*
X14315000Y-7617500D01*
X14315000Y-7577500D02*
X14275000Y-7617500D01*
X14679430Y-9349160D02*
X14719430Y-9389160D01*
X14719430Y-9349160D02*
X14679430Y-9389160D01*
X14742500Y-8175000D02*
X14782500Y-8215000D01*
X14782500Y-8175000D02*
X14742500Y-8215000D01*
X15000000Y-7560000D02*
X15040000Y-7600000D01*
X15040000Y-7560000D02*
X15000000Y-7600000D01*
D13*
X13175000Y-9080000D02*
G75*
G03*
X13175000Y-9080000I-40000J0D01*
G01*
X13375000Y-9080000D02*
G75*
G03*
X13375000Y-9080000I-40000J0D01*
G01*
X13575000Y-9080000D02*
G75*
G03*
X13575000Y-9080000I-40000J0D01*
G01*
X13775000Y-9080000D02*
G75*
G03*
X13775000Y-9080000I-40000J0D01*
G01*
X13975000Y-9080000D02*
G75*
G03*
X13975000Y-9080000I-40000J0D01*
G01*
X14175000Y-9080000D02*
G75*
G03*
X14175000Y-9080000I-40000J0D01*
G01*
X14375000Y-9080000D02*
G75*
G03*
X14375000Y-9080000I-40000J0D01*
G01*
X14575000Y-9080000D02*
G75*
G03*
X14575000Y-9080000I-40000J0D01*
G01*
X14775000Y-9080000D02*
G75*
G03*
X14775000Y-9080000I-40000J0D01*
G01*
D14*
X15252500Y-8765000D02*
X15252500Y-8855000D01*
X15207500Y-8810000D02*
X15297500Y-8810000D01*
X15252500Y-9237500D02*
X15252500Y-9327500D01*
X15207500Y-9282500D02*
X15297500Y-9282500D01*
X15252500Y-9710000D02*
X15252500Y-9800000D01*
X15207500Y-9755000D02*
X15297500Y-9755000D01*
X15506500Y-8765000D02*
X15506500Y-8855000D01*
X15461500Y-8810000D02*
X15551500Y-8810000D01*
X15506500Y-9237500D02*
X15506500Y-9327500D01*
X15461500Y-9282500D02*
X15551500Y-9282500D01*
X15506500Y-9710000D02*
X15506500Y-9800000D01*
X15461500Y-9755000D02*
X15551500Y-9755000D01*
D15*
X13341856Y-8635356D02*
X13341856Y-8564644D01*
X13271144Y-8564644D01*
X13271144Y-8635356D01*
X13341856Y-8635356D01*
X13595856Y-8635356D02*
X13595856Y-8564644D01*
X13525144Y-8564644D01*
X13525144Y-8635356D01*
X13595856Y-8635356D01*
X13849856Y-8635356D02*
X13849856Y-8564644D01*
X13779144Y-8564644D01*
X13779144Y-8635356D01*
X13849856Y-8635356D01*
X14103856Y-8635356D02*
X14103856Y-8564644D01*
X14033144Y-8564644D01*
X14033144Y-8635356D01*
X14103856Y-8635356D01*
D11*
X12984119Y-11152976D02*
X12984119Y-10952976D01*
X13031738Y-10952976D01*
X13060309Y-10962500D01*
X13079357Y-10981548D01*
X13088881Y-11000595D01*
X13098405Y-11038690D01*
X13098405Y-11067262D01*
X13088881Y-11105357D01*
X13079357Y-11124405D01*
X13060309Y-11143452D01*
X13031738Y-11152976D01*
X12984119Y-11152976D01*
X13184119Y-11152976D02*
X13184119Y-11019643D01*
X13184119Y-11057738D02*
X13193643Y-11038690D01*
X13203167Y-11029167D01*
X13222214Y-11019643D01*
X13241262Y-11019643D01*
X13307928Y-11152976D02*
X13307928Y-11019643D01*
X13307928Y-10952976D02*
X13298405Y-10962500D01*
X13307928Y-10972024D01*
X13317452Y-10962500D01*
X13307928Y-10952976D01*
X13307928Y-10972024D01*
X13431738Y-11152976D02*
X13412690Y-11143452D01*
X13403167Y-11124405D01*
X13403167Y-10952976D01*
X13536500Y-11152976D02*
X13517452Y-11143452D01*
X13507928Y-11124405D01*
X13507928Y-10952976D01*
X13765071Y-11152976D02*
X13765071Y-10952976D01*
X13831738Y-11095833D01*
X13898405Y-10952976D01*
X13898405Y-11152976D01*
X14079357Y-11152976D02*
X14079357Y-11048214D01*
X14069833Y-11029167D01*
X14050786Y-11019643D01*
X14012690Y-11019643D01*
X13993643Y-11029167D01*
X14079357Y-11143452D02*
X14060309Y-11152976D01*
X14012690Y-11152976D01*
X13993643Y-11143452D01*
X13984119Y-11124405D01*
X13984119Y-11105357D01*
X13993643Y-11086310D01*
X14012690Y-11076786D01*
X14060309Y-11076786D01*
X14079357Y-11067262D01*
X14174595Y-11019643D02*
X14174595Y-11219643D01*
X14174595Y-11029167D02*
X14193643Y-11019643D01*
X14231738Y-11019643D01*
X14250786Y-11029167D01*
X14260309Y-11038690D01*
X14269833Y-11057738D01*
X14269833Y-11114881D01*
X14260309Y-11133929D01*
X14250786Y-11143452D01*
X14231738Y-11152976D01*
X14193643Y-11152976D01*
X14174595Y-11143452D01*
X14355548Y-11133929D02*
X14365071Y-11143452D01*
X14355548Y-11152976D01*
X14346024Y-11143452D01*
X14355548Y-11133929D01*
X14355548Y-11152976D01*
X14355548Y-11029167D02*
X14365071Y-11038690D01*
X14355548Y-11048214D01*
X14346024Y-11038690D01*
X14355548Y-11029167D01*
X14355548Y-11048214D01*
D12*
X12686500Y-11462500D02*
X12726500Y-11502500D01*
X12726500Y-11462500D02*
X12686500Y-11502500D01*
D11*
X13022214Y-11372976D02*
X13041262Y-11372976D01*
X13060309Y-11382500D01*
X13069833Y-11392024D01*
X13079357Y-11411071D01*
X13088881Y-11449167D01*
X13088881Y-11496786D01*
X13079357Y-11534881D01*
X13069833Y-11553928D01*
X13060309Y-11563452D01*
X13041262Y-11572976D01*
X13022214Y-11572976D01*
X13003167Y-11563452D01*
X12993643Y-11553928D01*
X12984119Y-11534881D01*
X12974595Y-11496786D01*
X12974595Y-11449167D01*
X12984119Y-11411071D01*
X12993643Y-11392024D01*
X13003167Y-11382500D01*
X13022214Y-11372976D01*
X13174595Y-11553928D02*
X13184119Y-11563452D01*
X13174595Y-11572976D01*
X13165071Y-11563452D01*
X13174595Y-11553928D01*
X13174595Y-11572976D01*
X13355548Y-11439643D02*
X13355548Y-11572976D01*
X13307928Y-11363452D02*
X13260309Y-11506309D01*
X13384119Y-11506309D01*
X13498405Y-11372976D02*
X13517452Y-11372976D01*
X13536500Y-11382500D01*
X13546024Y-11392024D01*
X13555548Y-11411071D01*
X13565071Y-11449167D01*
X13565071Y-11496786D01*
X13555548Y-11534881D01*
X13546024Y-11553928D01*
X13536500Y-11563452D01*
X13517452Y-11572976D01*
X13498405Y-11572976D01*
X13479357Y-11563452D01*
X13469833Y-11553928D01*
X13460309Y-11534881D01*
X13450786Y-11496786D01*
X13450786Y-11449167D01*
X13460309Y-11411071D01*
X13469833Y-11392024D01*
X13479357Y-11382500D01*
X13498405Y-11372976D01*
X13688881Y-11372976D02*
X13707928Y-11372976D01*
X13726976Y-11382500D01*
X13736500Y-11392024D01*
X13746024Y-11411071D01*
X13755548Y-11449167D01*
X13755548Y-11496786D01*
X13746024Y-11534881D01*
X13736500Y-11553928D01*
X13726976Y-11563452D01*
X13707928Y-11572976D01*
X13688881Y-11572976D01*
X13669833Y-11563452D01*
X13660309Y-11553928D01*
X13650786Y-11534881D01*
X13641262Y-11496786D01*
X13641262Y-11449167D01*
X13650786Y-11411071D01*
X13660309Y-11392024D01*
X13669833Y-11382500D01*
X13688881Y-11372976D01*
X13841262Y-11572976D02*
X13841262Y-11439643D01*
X13841262Y-11458690D02*
X13850786Y-11449167D01*
X13869833Y-11439643D01*
X13898405Y-11439643D01*
X13917452Y-11449167D01*
X13926976Y-11468214D01*
X13926976Y-11572976D01*
X13926976Y-11468214D02*
X13936500Y-11449167D01*
X13955548Y-11439643D01*
X13984119Y-11439643D01*
X14003167Y-11449167D01*
X14012690Y-11468214D01*
X14012690Y-11572976D01*
X14107928Y-11572976D02*
X14107928Y-11439643D01*
X14107928Y-11458690D02*
X14117452Y-11449167D01*
X14136500Y-11439643D01*
X14165071Y-11439643D01*
X14184119Y-11449167D01*
X14193643Y-11468214D01*
X14193643Y-11572976D01*
X14193643Y-11468214D02*
X14203167Y-11449167D01*
X14222214Y-11439643D01*
X14250786Y-11439643D01*
X14269833Y-11449167D01*
X14279357Y-11468214D01*
X14279357Y-11572976D01*
X14669833Y-11363452D02*
X14498405Y-11620595D01*
X14926976Y-11372976D02*
X14946024Y-11372976D01*
X14965071Y-11382500D01*
X14974595Y-11392024D01*
X14984119Y-11411071D01*
X14993643Y-11449167D01*
X14993643Y-11496786D01*
X14984119Y-11534881D01*
X14974595Y-11553928D01*
X14965071Y-11563452D01*
X14946024Y-11572976D01*
X14926976Y-11572976D01*
X14907928Y-11563452D01*
X14898405Y-11553928D01*
X14888881Y-11534881D01*
X14879357Y-11496786D01*
X14879357Y-11449167D01*
X14888881Y-11411071D01*
X14898405Y-11392024D01*
X14907928Y-11382500D01*
X14926976Y-11372976D01*
X15079357Y-11553928D02*
X15088881Y-11563452D01*
X15079357Y-11572976D01*
X15069833Y-11563452D01*
X15079357Y-11553928D01*
X15079357Y-11572976D01*
X15212690Y-11372976D02*
X15231738Y-11372976D01*
X15250786Y-11382500D01*
X15260309Y-11392024D01*
X15269833Y-11411071D01*
X15279357Y-11449167D01*
X15279357Y-11496786D01*
X15269833Y-11534881D01*
X15260309Y-11553928D01*
X15250786Y-11563452D01*
X15231738Y-11572976D01*
X15212690Y-11572976D01*
X15193643Y-11563452D01*
X15184119Y-11553928D01*
X15174595Y-11534881D01*
X15165071Y-11496786D01*
X15165071Y-11449167D01*
X15174595Y-11411071D01*
X15184119Y-11392024D01*
X15193643Y-11382500D01*
X15212690Y-11372976D01*
X15469833Y-11572976D02*
X15355548Y-11572976D01*
X15412690Y-11572976D02*
X15412690Y-11372976D01*
X15393643Y-11401548D01*
X15374595Y-11420595D01*
X15355548Y-11430119D01*
X15650786Y-11372976D02*
X15555548Y-11372976D01*
X15546024Y-11468214D01*
X15555548Y-11458690D01*
X15574595Y-11449167D01*
X15622214Y-11449167D01*
X15641262Y-11458690D01*
X15650786Y-11468214D01*
X15660309Y-11487262D01*
X15660309Y-11534881D01*
X15650786Y-11553928D01*
X15641262Y-11563452D01*
X15622214Y-11572976D01*
X15574595Y-11572976D01*
X15555548Y-11563452D01*
X15546024Y-11553928D01*
X15726976Y-11372976D02*
X15860309Y-11372976D01*
X15774595Y-11572976D01*
X15926976Y-11372976D02*
X15926976Y-11411071D01*
X16003167Y-11372976D02*
X16003167Y-11411071D01*
X16298405Y-11649167D02*
X16288881Y-11639643D01*
X16269833Y-11611071D01*
X16260309Y-11592024D01*
X16250786Y-11563452D01*
X16241262Y-11515833D01*
X16241262Y-11477738D01*
X16250786Y-11430119D01*
X16260309Y-11401548D01*
X16269833Y-11382500D01*
X16288881Y-11353928D01*
X16298405Y-11344405D01*
X16479357Y-11572976D02*
X16365071Y-11572976D01*
X16422214Y-11572976D02*
X16422214Y-11372976D01*
X16403167Y-11401548D01*
X16384119Y-11420595D01*
X16365071Y-11430119D01*
X16603167Y-11372976D02*
X16622214Y-11372976D01*
X16641262Y-11382500D01*
X16650786Y-11392024D01*
X16660309Y-11411071D01*
X16669833Y-11449167D01*
X16669833Y-11496786D01*
X16660309Y-11534881D01*
X16650786Y-11553928D01*
X16641262Y-11563452D01*
X16622214Y-11572976D01*
X16603167Y-11572976D01*
X16584119Y-11563452D01*
X16574595Y-11553928D01*
X16565071Y-11534881D01*
X16555548Y-11496786D01*
X16555548Y-11449167D01*
X16565071Y-11411071D01*
X16574595Y-11392024D01*
X16584119Y-11382500D01*
X16603167Y-11372976D01*
X16907929Y-11572976D02*
X16907929Y-11372976D01*
X16993643Y-11572976D02*
X16993643Y-11468214D01*
X16984119Y-11449167D01*
X16965071Y-11439643D01*
X16936500Y-11439643D01*
X16917452Y-11449167D01*
X16907929Y-11458690D01*
X17117452Y-11572976D02*
X17098405Y-11563452D01*
X17088881Y-11553928D01*
X17079357Y-11534881D01*
X17079357Y-11477738D01*
X17088881Y-11458690D01*
X17098405Y-11449167D01*
X17117452Y-11439643D01*
X17146024Y-11439643D01*
X17165071Y-11449167D01*
X17174595Y-11458690D01*
X17184119Y-11477738D01*
X17184119Y-11534881D01*
X17174595Y-11553928D01*
X17165071Y-11563452D01*
X17146024Y-11572976D01*
X17117452Y-11572976D01*
X17298405Y-11572976D02*
X17279357Y-11563452D01*
X17269833Y-11544405D01*
X17269833Y-11372976D01*
X17450786Y-11563452D02*
X17431738Y-11572976D01*
X17393643Y-11572976D01*
X17374595Y-11563452D01*
X17365071Y-11544405D01*
X17365071Y-11468214D01*
X17374595Y-11449167D01*
X17393643Y-11439643D01*
X17431738Y-11439643D01*
X17450786Y-11449167D01*
X17460310Y-11468214D01*
X17460310Y-11487262D01*
X17365071Y-11506309D01*
X17536500Y-11563452D02*
X17555548Y-11572976D01*
X17593643Y-11572976D01*
X17612690Y-11563452D01*
X17622214Y-11544405D01*
X17622214Y-11534881D01*
X17612690Y-11515833D01*
X17593643Y-11506309D01*
X17565071Y-11506309D01*
X17546024Y-11496786D01*
X17536500Y-11477738D01*
X17536500Y-11468214D01*
X17546024Y-11449167D01*
X17565071Y-11439643D01*
X17593643Y-11439643D01*
X17612690Y-11449167D01*
X17688881Y-11649167D02*
X17698405Y-11639643D01*
X17717452Y-11611071D01*
X17726976Y-11592024D01*
X17736500Y-11563452D01*
X17746024Y-11515833D01*
X17746024Y-11477738D01*
X17736500Y-11430119D01*
X17726976Y-11401548D01*
X17717452Y-11382500D01*
X17698405Y-11353928D01*
X17688881Y-11344405D01*
D13*
X12726500Y-11746500D02*
G75*
G03*
X12726500Y-11746500I-40000J0D01*
G01*
D11*
X13022214Y-11636976D02*
X13041262Y-11636976D01*
X13060309Y-11646500D01*
X13069833Y-11656024D01*
X13079357Y-11675071D01*
X13088881Y-11713167D01*
X13088881Y-11760786D01*
X13079357Y-11798881D01*
X13069833Y-11817928D01*
X13060309Y-11827452D01*
X13041262Y-11836976D01*
X13022214Y-11836976D01*
X13003167Y-11827452D01*
X12993643Y-11817928D01*
X12984119Y-11798881D01*
X12974595Y-11760786D01*
X12974595Y-11713167D01*
X12984119Y-11675071D01*
X12993643Y-11656024D01*
X13003167Y-11646500D01*
X13022214Y-11636976D01*
X13174595Y-11817928D02*
X13184119Y-11827452D01*
X13174595Y-11836976D01*
X13165071Y-11827452D01*
X13174595Y-11817928D01*
X13174595Y-11836976D01*
X13298405Y-11722690D02*
X13279357Y-11713167D01*
X13269833Y-11703643D01*
X13260309Y-11684595D01*
X13260309Y-11675071D01*
X13269833Y-11656024D01*
X13279357Y-11646500D01*
X13298405Y-11636976D01*
X13336500Y-11636976D01*
X13355548Y-11646500D01*
X13365071Y-11656024D01*
X13374595Y-11675071D01*
X13374595Y-11684595D01*
X13365071Y-11703643D01*
X13355548Y-11713167D01*
X13336500Y-11722690D01*
X13298405Y-11722690D01*
X13279357Y-11732214D01*
X13269833Y-11741738D01*
X13260309Y-11760786D01*
X13260309Y-11798881D01*
X13269833Y-11817928D01*
X13279357Y-11827452D01*
X13298405Y-11836976D01*
X13336500Y-11836976D01*
X13355548Y-11827452D01*
X13365071Y-11817928D01*
X13374595Y-11798881D01*
X13374595Y-11760786D01*
X13365071Y-11741738D01*
X13355548Y-11732214D01*
X13336500Y-11722690D01*
X13498405Y-11636976D02*
X13517452Y-11636976D01*
X13536500Y-11646500D01*
X13546024Y-11656024D01*
X13555548Y-11675071D01*
X13565071Y-11713167D01*
X13565071Y-11760786D01*
X13555548Y-11798881D01*
X13546024Y-11817928D01*
X13536500Y-11827452D01*
X13517452Y-11836976D01*
X13498405Y-11836976D01*
X13479357Y-11827452D01*
X13469833Y-11817928D01*
X13460309Y-11798881D01*
X13450786Y-11760786D01*
X13450786Y-11713167D01*
X13460309Y-11675071D01*
X13469833Y-11656024D01*
X13479357Y-11646500D01*
X13498405Y-11636976D01*
X13688881Y-11636976D02*
X13707928Y-11636976D01*
X13726976Y-11646500D01*
X13736500Y-11656024D01*
X13746024Y-11675071D01*
X13755548Y-11713167D01*
X13755548Y-11760786D01*
X13746024Y-11798881D01*
X13736500Y-11817928D01*
X13726976Y-11827452D01*
X13707928Y-11836976D01*
X13688881Y-11836976D01*
X13669833Y-11827452D01*
X13660309Y-11817928D01*
X13650786Y-11798881D01*
X13641262Y-11760786D01*
X13641262Y-11713167D01*
X13650786Y-11675071D01*
X13660309Y-11656024D01*
X13669833Y-11646500D01*
X13688881Y-11636976D01*
X13841262Y-11836976D02*
X13841262Y-11703643D01*
X13841262Y-11722690D02*
X13850786Y-11713167D01*
X13869833Y-11703643D01*
X13898405Y-11703643D01*
X13917452Y-11713167D01*
X13926976Y-11732214D01*
X13926976Y-11836976D01*
X13926976Y-11732214D02*
X13936500Y-11713167D01*
X13955548Y-11703643D01*
X13984119Y-11703643D01*
X14003167Y-11713167D01*
X14012690Y-11732214D01*
X14012690Y-11836976D01*
X14107928Y-11836976D02*
X14107928Y-11703643D01*
X14107928Y-11722690D02*
X14117452Y-11713167D01*
X14136500Y-11703643D01*
X14165071Y-11703643D01*
X14184119Y-11713167D01*
X14193643Y-11732214D01*
X14193643Y-11836976D01*
X14193643Y-11732214D02*
X14203167Y-11713167D01*
X14222214Y-11703643D01*
X14250786Y-11703643D01*
X14269833Y-11713167D01*
X14279357Y-11732214D01*
X14279357Y-11836976D01*
X14669833Y-11627452D02*
X14498405Y-11884595D01*
X14926976Y-11636976D02*
X14946024Y-11636976D01*
X14965071Y-11646500D01*
X14974595Y-11656024D01*
X14984119Y-11675071D01*
X14993643Y-11713167D01*
X14993643Y-11760786D01*
X14984119Y-11798881D01*
X14974595Y-11817928D01*
X14965071Y-11827452D01*
X14946024Y-11836976D01*
X14926976Y-11836976D01*
X14907928Y-11827452D01*
X14898405Y-11817928D01*
X14888881Y-11798881D01*
X14879357Y-11760786D01*
X14879357Y-11713167D01*
X14888881Y-11675071D01*
X14898405Y-11656024D01*
X14907928Y-11646500D01*
X14926976Y-11636976D01*
X15079357Y-11817928D02*
X15088881Y-11827452D01*
X15079357Y-11836976D01*
X15069833Y-11827452D01*
X15079357Y-11817928D01*
X15079357Y-11836976D01*
X15212690Y-11636976D02*
X15231738Y-11636976D01*
X15250786Y-11646500D01*
X15260309Y-11656024D01*
X15269833Y-11675071D01*
X15279357Y-11713167D01*
X15279357Y-11760786D01*
X15269833Y-11798881D01*
X15260309Y-11817928D01*
X15250786Y-11827452D01*
X15231738Y-11836976D01*
X15212690Y-11836976D01*
X15193643Y-11827452D01*
X15184119Y-11817928D01*
X15174595Y-11798881D01*
X15165071Y-11760786D01*
X15165071Y-11713167D01*
X15174595Y-11675071D01*
X15184119Y-11656024D01*
X15193643Y-11646500D01*
X15212690Y-11636976D01*
X15346024Y-11636976D02*
X15469833Y-11636976D01*
X15403167Y-11713167D01*
X15431738Y-11713167D01*
X15450786Y-11722690D01*
X15460309Y-11732214D01*
X15469833Y-11751262D01*
X15469833Y-11798881D01*
X15460309Y-11817928D01*
X15450786Y-11827452D01*
X15431738Y-11836976D01*
X15374595Y-11836976D01*
X15355548Y-11827452D01*
X15346024Y-11817928D01*
X15660309Y-11836976D02*
X15546024Y-11836976D01*
X15603167Y-11836976D02*
X15603167Y-11636976D01*
X15584119Y-11665548D01*
X15565071Y-11684595D01*
X15546024Y-11694119D01*
X15841262Y-11636976D02*
X15746024Y-11636976D01*
X15736500Y-11732214D01*
X15746024Y-11722690D01*
X15765071Y-11713167D01*
X15812690Y-11713167D01*
X15831738Y-11722690D01*
X15841262Y-11732214D01*
X15850786Y-11751262D01*
X15850786Y-11798881D01*
X15841262Y-11817928D01*
X15831738Y-11827452D01*
X15812690Y-11836976D01*
X15765071Y-11836976D01*
X15746024Y-11827452D01*
X15736500Y-11817928D01*
X15926976Y-11636976D02*
X15926976Y-11675071D01*
X16003167Y-11636976D02*
X16003167Y-11675071D01*
X16298405Y-11913167D02*
X16288881Y-11903643D01*
X16269833Y-11875071D01*
X16260309Y-11856024D01*
X16250786Y-11827452D01*
X16241262Y-11779833D01*
X16241262Y-11741738D01*
X16250786Y-11694119D01*
X16260309Y-11665548D01*
X16269833Y-11646500D01*
X16288881Y-11617928D01*
X16298405Y-11608405D01*
X16384119Y-11836976D02*
X16422214Y-11836976D01*
X16441262Y-11827452D01*
X16450786Y-11817928D01*
X16469833Y-11789357D01*
X16479357Y-11751262D01*
X16479357Y-11675071D01*
X16469833Y-11656024D01*
X16460309Y-11646500D01*
X16441262Y-11636976D01*
X16403167Y-11636976D01*
X16384119Y-11646500D01*
X16374595Y-11656024D01*
X16365071Y-11675071D01*
X16365071Y-11722690D01*
X16374595Y-11741738D01*
X16384119Y-11751262D01*
X16403167Y-11760786D01*
X16441262Y-11760786D01*
X16460309Y-11751262D01*
X16469833Y-11741738D01*
X16479357Y-11722690D01*
X16717452Y-11836976D02*
X16717452Y-11636976D01*
X16803167Y-11836976D02*
X16803167Y-11732214D01*
X16793643Y-11713167D01*
X16774595Y-11703643D01*
X16746024Y-11703643D01*
X16726976Y-11713167D01*
X16717452Y-11722690D01*
X16926976Y-11836976D02*
X16907929Y-11827452D01*
X16898405Y-11817928D01*
X16888881Y-11798881D01*
X16888881Y-11741738D01*
X16898405Y-11722690D01*
X16907929Y-11713167D01*
X16926976Y-11703643D01*
X16955548Y-11703643D01*
X16974595Y-11713167D01*
X16984119Y-11722690D01*
X16993643Y-11741738D01*
X16993643Y-11798881D01*
X16984119Y-11817928D01*
X16974595Y-11827452D01*
X16955548Y-11836976D01*
X16926976Y-11836976D01*
X17107929Y-11836976D02*
X17088881Y-11827452D01*
X17079357Y-11808405D01*
X17079357Y-11636976D01*
X17260310Y-11827452D02*
X17241262Y-11836976D01*
X17203167Y-11836976D01*
X17184119Y-11827452D01*
X17174595Y-11808405D01*
X17174595Y-11732214D01*
X17184119Y-11713167D01*
X17203167Y-11703643D01*
X17241262Y-11703643D01*
X17260310Y-11713167D01*
X17269833Y-11732214D01*
X17269833Y-11751262D01*
X17174595Y-11770309D01*
X17346024Y-11827452D02*
X17365071Y-11836976D01*
X17403167Y-11836976D01*
X17422214Y-11827452D01*
X17431738Y-11808405D01*
X17431738Y-11798881D01*
X17422214Y-11779833D01*
X17403167Y-11770309D01*
X17374595Y-11770309D01*
X17355548Y-11760786D01*
X17346024Y-11741738D01*
X17346024Y-11732214D01*
X17355548Y-11713167D01*
X17374595Y-11703643D01*
X17403167Y-11703643D01*
X17422214Y-11713167D01*
X17498405Y-11913167D02*
X17507929Y-11903643D01*
X17526976Y-11875071D01*
X17536500Y-11856024D01*
X17546024Y-11827452D01*
X17555548Y-11779833D01*
X17555548Y-11741738D01*
X17546024Y-11694119D01*
X17536500Y-11665548D01*
X17526976Y-11646500D01*
X17507929Y-11617928D01*
X17498405Y-11608405D01*
D14*
X12681500Y-11965500D02*
X12681500Y-12055500D01*
X12636500Y-12010500D02*
X12726500Y-12010500D01*
D11*
X13022214Y-11900976D02*
X13041262Y-11900976D01*
X13060309Y-11910500D01*
X13069833Y-11920024D01*
X13079357Y-11939071D01*
X13088881Y-11977167D01*
X13088881Y-12024786D01*
X13079357Y-12062881D01*
X13069833Y-12081928D01*
X13060309Y-12091452D01*
X13041262Y-12100976D01*
X13022214Y-12100976D01*
X13003167Y-12091452D01*
X12993643Y-12081928D01*
X12984119Y-12062881D01*
X12974595Y-12024786D01*
X12974595Y-11977167D01*
X12984119Y-11939071D01*
X12993643Y-11920024D01*
X13003167Y-11910500D01*
X13022214Y-11900976D01*
X13174595Y-12081928D02*
X13184119Y-12091452D01*
X13174595Y-12100976D01*
X13165071Y-12091452D01*
X13174595Y-12081928D01*
X13174595Y-12100976D01*
X13279357Y-12100976D02*
X13317452Y-12100976D01*
X13336500Y-12091452D01*
X13346024Y-12081928D01*
X13365071Y-12053357D01*
X13374595Y-12015262D01*
X13374595Y-11939071D01*
X13365071Y-11920024D01*
X13355548Y-11910500D01*
X13336500Y-11900976D01*
X13298405Y-11900976D01*
X13279357Y-11910500D01*
X13269833Y-11920024D01*
X13260309Y-11939071D01*
X13260309Y-11986690D01*
X13269833Y-12005738D01*
X13279357Y-12015262D01*
X13298405Y-12024786D01*
X13336500Y-12024786D01*
X13355548Y-12015262D01*
X13365071Y-12005738D01*
X13374595Y-11986690D01*
X13498405Y-11900976D02*
X13517452Y-11900976D01*
X13536500Y-11910500D01*
X13546024Y-11920024D01*
X13555548Y-11939071D01*
X13565071Y-11977167D01*
X13565071Y-12024786D01*
X13555548Y-12062881D01*
X13546024Y-12081928D01*
X13536500Y-12091452D01*
X13517452Y-12100976D01*
X13498405Y-12100976D01*
X13479357Y-12091452D01*
X13469833Y-12081928D01*
X13460309Y-12062881D01*
X13450786Y-12024786D01*
X13450786Y-11977167D01*
X13460309Y-11939071D01*
X13469833Y-11920024D01*
X13479357Y-11910500D01*
X13498405Y-11900976D01*
X13688881Y-11900976D02*
X13707928Y-11900976D01*
X13726976Y-11910500D01*
X13736500Y-11920024D01*
X13746024Y-11939071D01*
X13755548Y-11977167D01*
X13755548Y-12024786D01*
X13746024Y-12062881D01*
X13736500Y-12081928D01*
X13726976Y-12091452D01*
X13707928Y-12100976D01*
X13688881Y-12100976D01*
X13669833Y-12091452D01*
X13660309Y-12081928D01*
X13650786Y-12062881D01*
X13641262Y-12024786D01*
X13641262Y-11977167D01*
X13650786Y-11939071D01*
X13660309Y-11920024D01*
X13669833Y-11910500D01*
X13688881Y-11900976D01*
X13841262Y-12100976D02*
X13841262Y-11967643D01*
X13841262Y-11986690D02*
X13850786Y-11977167D01*
X13869833Y-11967643D01*
X13898405Y-11967643D01*
X13917452Y-11977167D01*
X13926976Y-11996214D01*
X13926976Y-12100976D01*
X13926976Y-11996214D02*
X13936500Y-11977167D01*
X13955548Y-11967643D01*
X13984119Y-11967643D01*
X14003167Y-11977167D01*
X14012690Y-11996214D01*
X14012690Y-12100976D01*
X14107928Y-12100976D02*
X14107928Y-11967643D01*
X14107928Y-11986690D02*
X14117452Y-11977167D01*
X14136500Y-11967643D01*
X14165071Y-11967643D01*
X14184119Y-11977167D01*
X14193643Y-11996214D01*
X14193643Y-12100976D01*
X14193643Y-11996214D02*
X14203167Y-11977167D01*
X14222214Y-11967643D01*
X14250786Y-11967643D01*
X14269833Y-11977167D01*
X14279357Y-11996214D01*
X14279357Y-12100976D01*
X14669833Y-11891452D02*
X14498405Y-12148595D01*
X14926976Y-11900976D02*
X14946024Y-11900976D01*
X14965071Y-11910500D01*
X14974595Y-11920024D01*
X14984119Y-11939071D01*
X14993643Y-11977167D01*
X14993643Y-12024786D01*
X14984119Y-12062881D01*
X14974595Y-12081928D01*
X14965071Y-12091452D01*
X14946024Y-12100976D01*
X14926976Y-12100976D01*
X14907928Y-12091452D01*
X14898405Y-12081928D01*
X14888881Y-12062881D01*
X14879357Y-12024786D01*
X14879357Y-11977167D01*
X14888881Y-11939071D01*
X14898405Y-11920024D01*
X14907928Y-11910500D01*
X14926976Y-11900976D01*
X15079357Y-12081928D02*
X15088881Y-12091452D01*
X15079357Y-12100976D01*
X15069833Y-12091452D01*
X15079357Y-12081928D01*
X15079357Y-12100976D01*
X15212690Y-11900976D02*
X15231738Y-11900976D01*
X15250786Y-11910500D01*
X15260309Y-11920024D01*
X15269833Y-11939071D01*
X15279357Y-11977167D01*
X15279357Y-12024786D01*
X15269833Y-12062881D01*
X15260309Y-12081928D01*
X15250786Y-12091452D01*
X15231738Y-12100976D01*
X15212690Y-12100976D01*
X15193643Y-12091452D01*
X15184119Y-12081928D01*
X15174595Y-12062881D01*
X15165071Y-12024786D01*
X15165071Y-11977167D01*
X15174595Y-11939071D01*
X15184119Y-11920024D01*
X15193643Y-11910500D01*
X15212690Y-11900976D01*
X15346024Y-11900976D02*
X15469833Y-11900976D01*
X15403167Y-11977167D01*
X15431738Y-11977167D01*
X15450786Y-11986690D01*
X15460309Y-11996214D01*
X15469833Y-12015262D01*
X15469833Y-12062881D01*
X15460309Y-12081928D01*
X15450786Y-12091452D01*
X15431738Y-12100976D01*
X15374595Y-12100976D01*
X15355548Y-12091452D01*
X15346024Y-12081928D01*
X15650786Y-11900976D02*
X15555548Y-11900976D01*
X15546024Y-11996214D01*
X15555548Y-11986690D01*
X15574595Y-11977167D01*
X15622214Y-11977167D01*
X15641262Y-11986690D01*
X15650786Y-11996214D01*
X15660309Y-12015262D01*
X15660309Y-12062881D01*
X15650786Y-12081928D01*
X15641262Y-12091452D01*
X15622214Y-12100976D01*
X15574595Y-12100976D01*
X15555548Y-12091452D01*
X15546024Y-12081928D01*
X15831738Y-11967643D02*
X15831738Y-12100976D01*
X15784119Y-11891452D02*
X15736500Y-12034309D01*
X15860309Y-12034309D01*
X15926976Y-11900976D02*
X15926976Y-11939071D01*
X16003167Y-11900976D02*
X16003167Y-11939071D01*
X16298405Y-12177167D02*
X16288881Y-12167643D01*
X16269833Y-12139071D01*
X16260309Y-12120024D01*
X16250786Y-12091452D01*
X16241262Y-12043833D01*
X16241262Y-12005738D01*
X16250786Y-11958119D01*
X16260309Y-11929548D01*
X16269833Y-11910500D01*
X16288881Y-11881928D01*
X16298405Y-11872405D01*
X16460309Y-11900976D02*
X16422214Y-11900976D01*
X16403167Y-11910500D01*
X16393643Y-11920024D01*
X16374595Y-11948595D01*
X16365071Y-11986690D01*
X16365071Y-12062881D01*
X16374595Y-12081928D01*
X16384119Y-12091452D01*
X16403167Y-12100976D01*
X16441262Y-12100976D01*
X16460309Y-12091452D01*
X16469833Y-12081928D01*
X16479357Y-12062881D01*
X16479357Y-12015262D01*
X16469833Y-11996214D01*
X16460309Y-11986690D01*
X16441262Y-11977167D01*
X16403167Y-11977167D01*
X16384119Y-11986690D01*
X16374595Y-11996214D01*
X16365071Y-12015262D01*
X16717452Y-12100976D02*
X16717452Y-11900976D01*
X16803167Y-12100976D02*
X16803167Y-11996214D01*
X16793643Y-11977167D01*
X16774595Y-11967643D01*
X16746024Y-11967643D01*
X16726976Y-11977167D01*
X16717452Y-11986690D01*
X16926976Y-12100976D02*
X16907929Y-12091452D01*
X16898405Y-12081928D01*
X16888881Y-12062881D01*
X16888881Y-12005738D01*
X16898405Y-11986690D01*
X16907929Y-11977167D01*
X16926976Y-11967643D01*
X16955548Y-11967643D01*
X16974595Y-11977167D01*
X16984119Y-11986690D01*
X16993643Y-12005738D01*
X16993643Y-12062881D01*
X16984119Y-12081928D01*
X16974595Y-12091452D01*
X16955548Y-12100976D01*
X16926976Y-12100976D01*
X17107929Y-12100976D02*
X17088881Y-12091452D01*
X17079357Y-12072405D01*
X17079357Y-11900976D01*
X17260310Y-12091452D02*
X17241262Y-12100976D01*
X17203167Y-12100976D01*
X17184119Y-12091452D01*
X17174595Y-12072405D01*
X17174595Y-11996214D01*
X17184119Y-11977167D01*
X17203167Y-11967643D01*
X17241262Y-11967643D01*
X17260310Y-11977167D01*
X17269833Y-11996214D01*
X17269833Y-12015262D01*
X17174595Y-12034309D01*
X17346024Y-12091452D02*
X17365071Y-12100976D01*
X17403167Y-12100976D01*
X17422214Y-12091452D01*
X17431738Y-12072405D01*
X17431738Y-12062881D01*
X17422214Y-12043833D01*
X17403167Y-12034309D01*
X17374595Y-12034309D01*
X17355548Y-12024786D01*
X17346024Y-12005738D01*
X17346024Y-11996214D01*
X17355548Y-11977167D01*
X17374595Y-11967643D01*
X17403167Y-11967643D01*
X17422214Y-11977167D01*
X17498405Y-12177167D02*
X17507929Y-12167643D01*
X17526976Y-12139071D01*
X17536500Y-12120024D01*
X17546024Y-12091452D01*
X17555548Y-12043833D01*
X17555548Y-12005738D01*
X17546024Y-11958119D01*
X17536500Y-11929548D01*
X17526976Y-11910500D01*
X17507929Y-11881928D01*
X17498405Y-11872405D01*
D15*
X12711856Y-12309856D02*
X12711856Y-12239144D01*
X12641144Y-12239144D01*
X12641144Y-12309856D01*
X12711856Y-12309856D01*
D11*
X13088881Y-12364976D02*
X12974595Y-12364976D01*
X13031738Y-12364976D02*
X13031738Y-12164976D01*
X13012690Y-12193548D01*
X12993643Y-12212595D01*
X12974595Y-12222119D01*
X13174595Y-12345928D02*
X13184119Y-12355452D01*
X13174595Y-12364976D01*
X13165071Y-12355452D01*
X13174595Y-12345928D01*
X13174595Y-12364976D01*
X13307928Y-12164976D02*
X13326976Y-12164976D01*
X13346024Y-12174500D01*
X13355548Y-12184024D01*
X13365071Y-12203071D01*
X13374595Y-12241167D01*
X13374595Y-12288786D01*
X13365071Y-12326881D01*
X13355548Y-12345928D01*
X13346024Y-12355452D01*
X13326976Y-12364976D01*
X13307928Y-12364976D01*
X13288881Y-12355452D01*
X13279357Y-12345928D01*
X13269833Y-12326881D01*
X13260309Y-12288786D01*
X13260309Y-12241167D01*
X13269833Y-12203071D01*
X13279357Y-12184024D01*
X13288881Y-12174500D01*
X13307928Y-12164976D01*
X13498405Y-12164976D02*
X13517452Y-12164976D01*
X13536500Y-12174500D01*
X13546024Y-12184024D01*
X13555548Y-12203071D01*
X13565071Y-12241167D01*
X13565071Y-12288786D01*
X13555548Y-12326881D01*
X13546024Y-12345928D01*
X13536500Y-12355452D01*
X13517452Y-12364976D01*
X13498405Y-12364976D01*
X13479357Y-12355452D01*
X13469833Y-12345928D01*
X13460309Y-12326881D01*
X13450786Y-12288786D01*
X13450786Y-12241167D01*
X13460309Y-12203071D01*
X13469833Y-12184024D01*
X13479357Y-12174500D01*
X13498405Y-12164976D01*
X13688881Y-12164976D02*
X13707928Y-12164976D01*
X13726976Y-12174500D01*
X13736500Y-12184024D01*
X13746024Y-12203071D01*
X13755548Y-12241167D01*
X13755548Y-12288786D01*
X13746024Y-12326881D01*
X13736500Y-12345928D01*
X13726976Y-12355452D01*
X13707928Y-12364976D01*
X13688881Y-12364976D01*
X13669833Y-12355452D01*
X13660309Y-12345928D01*
X13650786Y-12326881D01*
X13641262Y-12288786D01*
X13641262Y-12241167D01*
X13650786Y-12203071D01*
X13660309Y-12184024D01*
X13669833Y-12174500D01*
X13688881Y-12164976D01*
X13841262Y-12364976D02*
X13841262Y-12231643D01*
X13841262Y-12250690D02*
X13850786Y-12241167D01*
X13869833Y-12231643D01*
X13898405Y-12231643D01*
X13917452Y-12241167D01*
X13926976Y-12260214D01*
X13926976Y-12364976D01*
X13926976Y-12260214D02*
X13936500Y-12241167D01*
X13955548Y-12231643D01*
X13984119Y-12231643D01*
X14003167Y-12241167D01*
X14012690Y-12260214D01*
X14012690Y-12364976D01*
X14107928Y-12364976D02*
X14107928Y-12231643D01*
X14107928Y-12250690D02*
X14117452Y-12241167D01*
X14136500Y-12231643D01*
X14165071Y-12231643D01*
X14184119Y-12241167D01*
X14193643Y-12260214D01*
X14193643Y-12364976D01*
X14193643Y-12260214D02*
X14203167Y-12241167D01*
X14222214Y-12231643D01*
X14250786Y-12231643D01*
X14269833Y-12241167D01*
X14279357Y-12260214D01*
X14279357Y-12364976D01*
X14669833Y-12155452D02*
X14498405Y-12412595D01*
X14926976Y-12164976D02*
X14946024Y-12164976D01*
X14965071Y-12174500D01*
X14974595Y-12184024D01*
X14984119Y-12203071D01*
X14993643Y-12241167D01*
X14993643Y-12288786D01*
X14984119Y-12326881D01*
X14974595Y-12345928D01*
X14965071Y-12355452D01*
X14946024Y-12364976D01*
X14926976Y-12364976D01*
X14907928Y-12355452D01*
X14898405Y-12345928D01*
X14888881Y-12326881D01*
X14879357Y-12288786D01*
X14879357Y-12241167D01*
X14888881Y-12203071D01*
X14898405Y-12184024D01*
X14907928Y-12174500D01*
X14926976Y-12164976D01*
X15079357Y-12345928D02*
X15088881Y-12355452D01*
X15079357Y-12364976D01*
X15069833Y-12355452D01*
X15079357Y-12345928D01*
X15079357Y-12364976D01*
X15212690Y-12164976D02*
X15231738Y-12164976D01*
X15250786Y-12174500D01*
X15260309Y-12184024D01*
X15269833Y-12203071D01*
X15279357Y-12241167D01*
X15279357Y-12288786D01*
X15269833Y-12326881D01*
X15260309Y-12345928D01*
X15250786Y-12355452D01*
X15231738Y-12364976D01*
X15212690Y-12364976D01*
X15193643Y-12355452D01*
X15184119Y-12345928D01*
X15174595Y-12326881D01*
X15165071Y-12288786D01*
X15165071Y-12241167D01*
X15174595Y-12203071D01*
X15184119Y-12184024D01*
X15193643Y-12174500D01*
X15212690Y-12164976D01*
X15346024Y-12164976D02*
X15469833Y-12164976D01*
X15403167Y-12241167D01*
X15431738Y-12241167D01*
X15450786Y-12250690D01*
X15460309Y-12260214D01*
X15469833Y-12279262D01*
X15469833Y-12326881D01*
X15460309Y-12345928D01*
X15450786Y-12355452D01*
X15431738Y-12364976D01*
X15374595Y-12364976D01*
X15355548Y-12355452D01*
X15346024Y-12345928D01*
X15565071Y-12364976D02*
X15603167Y-12364976D01*
X15622214Y-12355452D01*
X15631738Y-12345928D01*
X15650786Y-12317357D01*
X15660309Y-12279262D01*
X15660309Y-12203071D01*
X15650786Y-12184024D01*
X15641262Y-12174500D01*
X15622214Y-12164976D01*
X15584119Y-12164976D01*
X15565071Y-12174500D01*
X15555548Y-12184024D01*
X15546024Y-12203071D01*
X15546024Y-12250690D01*
X15555548Y-12269738D01*
X15565071Y-12279262D01*
X15584119Y-12288786D01*
X15622214Y-12288786D01*
X15641262Y-12279262D01*
X15650786Y-12269738D01*
X15660309Y-12250690D01*
X15831738Y-12231643D02*
X15831738Y-12364976D01*
X15784119Y-12155452D02*
X15736500Y-12298309D01*
X15860309Y-12298309D01*
X15926976Y-12164976D02*
X15926976Y-12203071D01*
X16003167Y-12164976D02*
X16003167Y-12203071D01*
X16298405Y-12441167D02*
X16288881Y-12431643D01*
X16269833Y-12403071D01*
X16260309Y-12384024D01*
X16250786Y-12355452D01*
X16241262Y-12307833D01*
X16241262Y-12269738D01*
X16250786Y-12222119D01*
X16260309Y-12193548D01*
X16269833Y-12174500D01*
X16288881Y-12145928D01*
X16298405Y-12136405D01*
X16460309Y-12231643D02*
X16460309Y-12364976D01*
X16412690Y-12155452D02*
X16365071Y-12298309D01*
X16488881Y-12298309D01*
X16717452Y-12364976D02*
X16717452Y-12164976D01*
X16803167Y-12364976D02*
X16803167Y-12260214D01*
X16793643Y-12241167D01*
X16774595Y-12231643D01*
X16746024Y-12231643D01*
X16726976Y-12241167D01*
X16717452Y-12250690D01*
X16926976Y-12364976D02*
X16907929Y-12355452D01*
X16898405Y-12345928D01*
X16888881Y-12326881D01*
X16888881Y-12269738D01*
X16898405Y-12250690D01*
X16907929Y-12241167D01*
X16926976Y-12231643D01*
X16955548Y-12231643D01*
X16974595Y-12241167D01*
X16984119Y-12250690D01*
X16993643Y-12269738D01*
X16993643Y-12326881D01*
X16984119Y-12345928D01*
X16974595Y-12355452D01*
X16955548Y-12364976D01*
X16926976Y-12364976D01*
X17107929Y-12364976D02*
X17088881Y-12355452D01*
X17079357Y-12336405D01*
X17079357Y-12164976D01*
X17260310Y-12355452D02*
X17241262Y-12364976D01*
X17203167Y-12364976D01*
X17184119Y-12355452D01*
X17174595Y-12336405D01*
X17174595Y-12260214D01*
X17184119Y-12241167D01*
X17203167Y-12231643D01*
X17241262Y-12231643D01*
X17260310Y-12241167D01*
X17269833Y-12260214D01*
X17269833Y-12279262D01*
X17174595Y-12298309D01*
X17346024Y-12355452D02*
X17365071Y-12364976D01*
X17403167Y-12364976D01*
X17422214Y-12355452D01*
X17431738Y-12336405D01*
X17431738Y-12326881D01*
X17422214Y-12307833D01*
X17403167Y-12298309D01*
X17374595Y-12298309D01*
X17355548Y-12288786D01*
X17346024Y-12269738D01*
X17346024Y-12260214D01*
X17355548Y-12241167D01*
X17374595Y-12231643D01*
X17403167Y-12231643D01*
X17422214Y-12241167D01*
X17498405Y-12441167D02*
X17507929Y-12431643D01*
X17526976Y-12403071D01*
X17536500Y-12384024D01*
X17546024Y-12355452D01*
X17555548Y-12307833D01*
X17555548Y-12269738D01*
X17546024Y-12222119D01*
X17536500Y-12193548D01*
X17526976Y-12174500D01*
X17507929Y-12145928D01*
X17498405Y-12136405D01*
M02*
